# MagicaVoxel @ Ephtracy

# group
o 

# material
mtllib mob1-7.mtl
usemtl palette

# normals
vn -1 0 0
vn 1 0 0
vn 0 0 1
vn 0 0 -1
vn 0 -1 0
vn 0 1 0

# texcoords
vt 0.974609 0.5
vt 0.982422 0.5
vt 0.986328 0.5

# verts
v 0.2 1.6 -0.3
v 0.2 1.6 -0.4
v 0.2 1.7 -0.3
v 0.2 1.7 -0.4
v 0.2 1.7 -0.6
v 0.2 1.8 -0.2
v 0.2 1.8 -0.3
v 0.2 1.8 -0.5
v 0.2 1.9 -0.1
v 0.2 1.9 -0.2
v 0.2 1.9 -0.4
v 0.2 1.9 -0.5
v 0.2 1.9 -0.6
v 0.2 2 0.1
v 0.2 2 0
v 0.2 2 -0.1
v 0.2 2.1 0.1
v 0.2 2.1 0
v 0.2 2.3 0.2
v 0.2 2.3 0.1
v 0.2 2.3 -0.3
v 0.2 2.3 -0.4
v 0.2 2.4 -0.1
v 0.2 2.4 -0.2
v 0.2 2.4 -0.3
v 0.2 2.4 -0.5
v 0.2 2.5 -0.1
v 0.2 2.5 -0.2
v 0.2 2.6 0
v 0.2 2.6 -0.1
v 0.2 2.9 0
v 0.2 2.9 -0.4
v 0.2 3.3 0.2
v 0.2 3.3 -0.4
v 0.3 1.6 -0.4
v 0.3 1.6 -0.6
v 0.3 1.7 -0.4
v 0.3 1.7 -0.6
v 0.3 1.9 -0.5
v 0.3 1.9 -0.6
v 0.3 2 -0.5
v 0.3 2 -0.6
v 0.3 2.4 -0.2
v 0.3 2.4 -0.3
v 0.3 2.5 -0.2
v 0.3 2.5 -0.3
v 0.3 2.6 0
v 0.3 2.6 -0.1
v 0.3 2.7 0
v 0.3 2.7 -0.1
v 0.3 2.7 -0.2
v 0.3 2.9 0
v 0.3 2.9 -0.1
v 0.3 2.9 -0.2
v 0.4 1.6 -0.2
v 0.4 1.6 -0.3
v 0.4 1.7 -0.2
v 0.4 1.7 -0.3
v 0.4 2 0.2
v 0.4 2 0.1
v 0.4 2.1 0.2
v 0.4 2.1 0.1
v 0.4 2.3 0.2
v 0.4 2.3 0.1
v 0.4 2.4 -0.3
v 0.4 2.4 -0.4
v 0.4 2.5 -0.1
v 0.4 2.5 -0.2
v 0.4 2.5 -0.3
v 0.4 2.5 -0.4
v 0.4 2.6 -0.1
v 0.4 2.6 -0.2
v 0.4 2.7 -0.1
v 0.4 2.7 -0.2
v 0.4 2.7 -0.3
v 0.4 2.7 -0.4
v 0.4 2.8 -0.2
v 0.4 2.8 -0.4
v 0.4 2.9 -0.2
v 0.4 2.9 -0.4
v 0.3 1.8 -0.2
v 0.3 1.8 -0.3
v 0.3 1.9 -0.1
v 0.3 1.9 -0.2
v 0.3 1.9 -0.3
v 0.3 2 -0.1
v 0.3 2 -0.2
v 0.4 1.9 -0.2
v 0.4 1.9 -0.3
v 0.4 2 -0.2
v 0.4 2 -0.3
v 0.5 1.6 -0.2
v 0.5 1.6 -0.3
v 0.5 1.7 -0.2
v 0.5 1.7 -0.3
v 0.5 2.4 -0.3
v 0.5 2.4 -0.4
v 0.5 2.5 -0.3
v 0.5 2.5 -0.4
v 0.6 1.9 -0.5
v 0.6 1.9 -0.6
v 0.6 2 0.2
v 0.6 2 0
v 0.6 2 -0.5
v 0.6 2 -0.6
v 0.6 2.1 0.2
v 0.6 2.1 0
v 0.6 2.2 0.1
v 0.6 2.2 0
v 0.6 2.3 0.2
v 0.6 2.3 0.1
v 0.6 2.6 0
v 0.6 2.6 -0.2
v 0.6 2.6 -0.3
v 0.6 2.7 0
v 0.6 2.7 -0.2
v 0.6 2.7 -0.3
v 0.6 2.7 -0.4
v 0.6 2.8 0
v 0.6 2.8 -0.2
v 0.6 2.8 -0.3
v 0.6 2.9 0
v 0.6 2.9 -0.2
v 0.6 2.9 -0.3
v 0.6 2.9 -0.4
v 0.7 1.6 -0.3
v 0.7 1.6 -0.6
v 0.7 1.7 -0.5
v 0.7 1.7 -0.6
v 0.7 1.8 -0.5
v 0.7 1.8 -0.6
v 0.7 1.9 -0.5
v 0.7 1.9 -0.6
v 0.7 2 0
v 0.7 2 -0.1
v 0.7 2 -0.3
v 0.7 2.2 0.1
v 0.7 2.2 0
v 0.7 2.2 -0.1
v 0.7 2.3 0.2
v 0.7 2.3 0.1
v 0.7 2.3 0
v 0.7 2.4 -0.3
v 0.7 2.4 -0.5
v 0.7 2.6 0.2
v 0.7 2.6 0.1
v 0.7 2.6 0
v 0.7 2.6 -0.3
v 0.7 2.7 0.1
v 0.7 2.7 0
v 0.7 2.8 0.1
v 0.7 2.8 0
v 0.7 2.8 -0.2
v 0.7 2.8 -0.3
v 0.7 2.9 0
v 0.7 2.9 -0.2
v 0.7 2.9 -0.3
v 0.7 2.9 -0.4
v 0.7 3.1 -0.3
v 0.7 3.1 -0.4
v 0.7 3.3 0.2
v 0.7 3.3 -0.4
v 0.2 2.3 0.2
v 0.2 3.3 0.2
v 0.4 2 0.2
v 0.4 2.1 0.2
v 0.4 2.3 0.2
v 0.5 2.5 0.2
v 0.5 2.6 0.2
v 0.6 2 0.2
v 0.6 2.1 0.2
v 0.6 2.3 0.2
v 0.6 2.5 0.2
v 0.7 2.3 0.2
v 0.7 2.6 0.2
v 0.7 3.3 0.2
v 0.2 2 0.1
v 0.2 2.1 0.1
v 0.2 2.3 0.1
v 0.4 2 0.1
v 0.4 2.1 0.1
v 0.4 2.3 0.1
v 0.6 2.2 0.1
v 0.6 2.3 0.1
v 0.7 2.2 0.1
v 0.7 2.3 0.1
v 0.6 2 0
v 0.6 2.1 0
v 0.6 2.2 0
v 0.7 2 0
v 0.7 2.2 0
v 0.2 1.9 -0.1
v 0.2 2 -0.1
v 0.3 1.9 -0.1
v 0.3 2 -0.1
v 0.2 1.8 -0.2
v 0.2 1.9 -0.2
v 0.3 1.8 -0.2
v 0.3 1.9 -0.2
v 0.3 2 -0.2
v 0.4 1.6 -0.2
v 0.4 1.7 -0.2
v 0.4 1.9 -0.2
v 0.4 2 -0.2
v 0.5 1.6 -0.2
v 0.5 1.7 -0.2
v 0.6 2.8 -0.2
v 0.6 2.9 -0.2
v 0.7 2.8 -0.2
v 0.7 2.9 -0.2
v 0.2 1.6 -0.3
v 0.2 1.7 -0.3
v 0.2 1.8 -0.3
v 0.3 1.7 -0.3
v 0.3 1.8 -0.3
v 0.3 1.9 -0.3
v 0.4 1.6 -0.3
v 0.4 1.7 -0.3
v 0.4 1.9 -0.3
v 0.4 2 -0.3
v 0.5 1.6 -0.3
v 0.5 1.7 -0.3
v 0.7 1.6 -0.3
v 0.7 2 -0.3
v 0.2 2.6 0
v 0.2 2.9 0
v 0.3 2.6 0
v 0.3 2.7 0
v 0.3 2.9 0
v 0.6 2.6 0
v 0.6 2.7 0
v 0.6 2.8 0
v 0.6 2.9 0
v 0.7 2.6 0
v 0.7 2.7 0
v 0.7 2.8 0
v 0.7 2.9 0
v 0.2 2.5 -0.1
v 0.2 2.6 -0.1
v 0.3 2.5 -0.1
v 0.3 2.6 -0.1
v 0.3 2.7 -0.1
v 0.4 2.5 -0.1
v 0.4 2.6 -0.1
v 0.4 2.7 -0.1
v 0.2 2.4 -0.2
v 0.2 2.5 -0.2
v 0.3 2.4 -0.2
v 0.3 2.5 -0.2
v 0.3 2.7 -0.2
v 0.3 2.9 -0.2
v 0.4 2.7 -0.2
v 0.4 2.8 -0.2
v 0.4 2.9 -0.2
v 0.3 2.4 -0.3
v 0.3 2.5 -0.3
v 0.4 2.4 -0.3
v 0.4 2.5 -0.3
v 0.4 2.7 -0.3
v 0.5 2.4 -0.3
v 0.5 2.5 -0.3
v 0.5 2.6 -0.3
v 0.6 2.6 -0.3
v 0.6 2.7 -0.3
v 0.6 2.8 -0.3
v 0.6 2.9 -0.3
v 0.7 2.4 -0.3
v 0.7 2.6 -0.3
v 0.7 2.8 -0.3
v 0.7 2.9 -0.3
v 0.2 1.6 -0.4
v 0.2 1.7 -0.4
v 0.2 2.9 -0.4
v 0.2 3.3 -0.4
v 0.3 1.6 -0.4
v 0.3 1.7 -0.4
v 0.3 3.1 -0.4
v 0.3 3.2 -0.4
v 0.4 2.4 -0.4
v 0.4 2.5 -0.4
v 0.4 2.7 -0.4
v 0.4 2.8 -0.4
v 0.4 2.9 -0.4
v 0.5 2.4 -0.4
v 0.5 2.5 -0.4
v 0.5 2.8 -0.4
v 0.5 2.9 -0.4
v 0.6 2.7 -0.4
v 0.6 2.9 -0.4
v 0.6 3.1 -0.4
v 0.6 3.2 -0.4
v 0.7 2.9 -0.4
v 0.7 3.1 -0.4
v 0.7 3.3 -0.4
v 0.2 1.9 -0.5
v 0.2 2.4 -0.5
v 0.3 1.9 -0.5
v 0.3 2 -0.5
v 0.3 2.4 -0.5
v 0.6 1.9 -0.5
v 0.6 2 -0.5
v 0.7 1.9 -0.5
v 0.7 2.4 -0.5
v 0.2 1.7 -0.6
v 0.2 1.9 -0.6
v 0.3 1.6 -0.6
v 0.3 1.7 -0.6
v 0.3 1.8 -0.6
v 0.3 1.9 -0.6
v 0.3 2 -0.6
v 0.6 1.9 -0.6
v 0.6 2 -0.6
v 0.7 1.6 -0.6
v 0.7 1.7 -0.6
v 0.7 1.8 -0.6
v 0.7 1.9 -0.6
v 0.4 1.6 -0.2
v 0.5 1.6 -0.2
v 0.2 1.6 -0.3
v 0.4 1.6 -0.3
v 0.5 1.6 -0.3
v 0.7 1.6 -0.3
v 0.2 1.6 -0.4
v 0.3 1.6 -0.4
v 0.3 1.6 -0.6
v 0.7 1.6 -0.6
v 0.2 1.7 -0.4
v 0.3 1.7 -0.4
v 0.2 1.7 -0.6
v 0.3 1.7 -0.6
v 0.2 1.8 -0.2
v 0.3 1.8 -0.2
v 0.2 1.8 -0.3
v 0.3 1.8 -0.3
v 0.2 1.9 -0.1
v 0.3 1.9 -0.1
v 0.2 1.9 -0.2
v 0.3 1.9 -0.2
v 0.4 1.9 -0.2
v 0.3 1.9 -0.3
v 0.4 1.9 -0.3
v 0.4 2 0.2
v 0.6 2 0.2
v 0.2 2 0.1
v 0.4 2 0.1
v 0.5 2 0.1
v 0.2 2 0
v 0.4 2 0
v 0.5 2 0
v 0.6 2 0
v 0.7 2 0
v 0.2 2 -0.1
v 0.3 2 -0.1
v 0.6 2 -0.1
v 0.7 2 -0.1
v 0.3 2 -0.2
v 0.4 2 -0.2
v 0.4 2 -0.3
v 0.7 2 -0.3
v 0.6 2.2 0.1
v 0.7 2.2 0.1
v 0.6 2.2 0
v 0.7 2.2 0
v 0.2 2.3 0.2
v 0.4 2.3 0.2
v 0.6 2.3 0.2
v 0.7 2.3 0.2
v 0.2 2.3 0.1
v 0.4 2.3 0.1
v 0.6 2.3 0.1
v 0.7 2.3 0.1
v 0.3 2.7 -0.1
v 0.4 2.7 -0.1
v 0.3 2.7 -0.2
v 0.4 2.7 -0.2
v 0.4 2.7 -0.3
v 0.6 2.7 -0.3
v 0.4 2.7 -0.4
v 0.6 2.7 -0.4
v 0.6 2.8 -0.2
v 0.7 2.8 -0.2
v 0.6 2.8 -0.3
v 0.7 2.8 -0.3
v 0.2 2.9 0
v 0.3 2.9 0
v 0.6 2.9 0
v 0.7 2.9 0
v 0.3 2.9 -0.1
v 0.3 2.9 -0.2
v 0.4 2.9 -0.2
v 0.6 2.9 -0.2
v 0.7 2.9 -0.2
v 0.6 2.9 -0.3
v 0.7 2.9 -0.3
v 0.2 2.9 -0.4
v 0.4 2.9 -0.4
v 0.6 2.9 -0.4
v 0.7 2.9 -0.4
v 0.4 1.7 -0.2
v 0.5 1.7 -0.2
v 0.4 1.7 -0.3
v 0.5 1.7 -0.3
v 0.2 1.9 -0.5
v 0.3 1.9 -0.5
v 0.6 1.9 -0.5
v 0.7 1.9 -0.5
v 0.2 1.9 -0.6
v 0.3 1.9 -0.6
v 0.6 1.9 -0.6
v 0.7 1.9 -0.6
v 0.3 2 -0.5
v 0.6 2 -0.5
v 0.3 2 -0.6
v 0.6 2 -0.6
v 0.2 2.4 -0.2
v 0.3 2.4 -0.2
v 0.2 2.4 -0.3
v 0.3 2.4 -0.3
v 0.4 2.4 -0.3
v 0.5 2.4 -0.3
v 0.7 2.4 -0.3
v 0.4 2.4 -0.4
v 0.5 2.4 -0.4
v 0.2 2.4 -0.5
v 0.3 2.4 -0.5
v 0.7 2.4 -0.5
v 0.2 2.5 -0.1
v 0.3 2.5 -0.1
v 0.4 2.5 -0.1
v 0.2 2.5 -0.2
v 0.3 2.5 -0.2
v 0.4 2.5 -0.2
v 0.3 2.5 -0.3
v 0.4 2.5 -0.3
v 0.5 2.5 -0.3
v 0.4 2.5 -0.4
v 0.5 2.5 -0.4
v 0.2 2.6 0
v 0.3 2.6 0
v 0.6 2.6 0
v 0.7 2.6 0
v 0.2 2.6 -0.1
v 0.3 2.6 -0.1
v 0.6 2.6 -0.2
v 0.6 2.6 -0.3
v 0.7 2.6 -0.3
v 0.2 3.3 0.2
v 0.7 3.3 0.2
v 0.2 3.3 -0.4
v 0.7 3.3 -0.4

# faces
f 3/1/1 2/1/1 1/1/1
f 4/1/1 2/1/1 3/1/1
f 7/2/1 4/2/1 3/2/1
f 7/2/1 5/2/1 4/2/1
f 8/2/1 5/2/1 7/2/1
f 10/1/1 7/1/1 6/1/1
f 10/1/1 8/1/1 7/1/1
f 11/1/1 8/1/1 10/1/1
f 12/2/1 5/2/1 8/2/1
f 12/1/1 8/1/1 11/1/1
f 13/2/1 5/2/1 12/2/1
f 16/1/1 11/1/1 10/1/1
f 16/1/1 10/1/1 9/1/1
f 17/2/1 15/2/1 14/2/1
f 18/1/1 16/1/1 15/1/1
f 18/2/1 15/2/1 17/2/1
f 20/1/1 18/1/1 17/1/1
f 21/1/1 11/1/1 16/1/1
f 21/1/1 16/1/1 18/1/1
f 21/1/1 18/1/1 20/1/1
f 22/2/1 12/2/1 11/2/1
f 22/1/1 11/1/1 21/1/1
f 23/1/1 21/1/1 20/1/1
f 23/1/1 20/1/1 19/1/1
f 24/1/1 21/1/1 23/1/1
f 25/2/1 22/2/1 21/2/1
f 25/1/1 21/1/1 24/1/1
f 26/2/1 12/2/1 22/2/1
f 26/2/1 22/2/1 25/2/1
f 27/2/1 24/2/1 23/2/1
f 27/1/1 23/1/1 19/1/1
f 28/2/1 24/2/1 27/2/1
f 29/1/1 27/1/1 19/1/1
f 30/1/1 27/1/1 29/1/1
f 31/1/1 29/1/1 19/1/1
f 33/1/1 31/1/1 19/1/1
f 33/1/1 32/1/1 31/1/1
f 34/1/1 32/1/1 33/1/1
f 37/1/1 36/1/1 35/1/1
f 38/1/1 36/1/1 37/1/1
f 41/1/1 40/1/1 39/1/1
f 42/1/1 40/1/1 41/1/1
f 45/1/1 44/1/1 43/1/1
f 46/1/1 44/1/1 45/1/1
f 49/3/1 48/3/1 47/3/1
f 50/3/1 48/3/1 49/3/1
f 52/1/1 50/1/1 49/1/1
f 53/3/1 51/3/1 50/3/1
f 53/1/1 50/1/1 52/1/1
f 54/3/1 51/3/1 53/3/1
f 57/1/1 56/1/1 55/1/1
f 58/1/1 56/1/1 57/1/1
f 61/2/1 60/2/1 59/2/1
f 62/2/1 60/2/1 61/2/1
f 63/1/1 62/1/1 61/1/1
f 64/1/1 62/1/1 63/1/1
f 69/1/1 66/1/1 65/1/1
f 70/1/1 66/1/1 69/1/1
f 71/1/1 68/1/1 67/1/1
f 72/3/1 69/3/1 68/3/1
f 72/1/1 68/1/1 71/1/1
f 73/3/1 72/3/1 71/3/1
f 74/3/1 69/3/1 72/3/1
f 74/3/1 72/3/1 73/3/1
f 75/3/1 69/3/1 74/3/1
f 77/1/1 76/1/1 75/1/1
f 77/1/1 75/1/1 74/1/1
f 78/1/1 76/1/1 77/1/1
f 79/3/1 78/3/1 77/3/1
f 80/3/1 78/3/1 79/3/1
f 81/1/2 82/1/2 84/1/2
f 84/1/2 82/1/2 85/1/2
f 83/1/2 84/1/2 86/1/2
f 86/1/2 84/1/2 87/1/2
f 88/1/2 89/1/2 90/1/2
f 90/1/2 89/1/2 91/1/2
f 92/1/2 93/1/2 94/1/2
f 94/1/2 93/1/2 95/1/2
f 96/1/2 97/1/2 98/1/2
f 98/1/2 97/1/2 99/1/2
f 100/1/2 101/1/2 104/1/2
f 104/1/2 101/1/2 105/1/2
f 102/2/2 103/2/2 106/2/2
f 106/2/2 103/2/2 107/2/2
f 106/1/2 107/1/2 108/1/2
f 108/1/2 107/1/2 109/1/2
f 106/1/2 108/1/2 110/1/2
f 110/1/2 108/1/2 111/1/2
f 112/1/2 113/1/2 115/1/2
f 113/3/2 114/3/2 116/3/2
f 115/1/2 113/1/2 116/1/2
f 116/3/2 114/3/2 117/3/2
f 115/1/2 116/1/2 119/1/2
f 117/1/2 118/1/2 119/1/2
f 116/1/2 117/1/2 119/1/2
f 119/1/2 118/1/2 120/1/2
f 120/1/2 118/1/2 121/1/2
f 119/1/2 120/1/2 122/1/2
f 122/1/2 120/1/2 123/1/2
f 121/1/2 118/1/2 124/1/2
f 124/1/2 118/1/2 125/1/2
f 126/1/2 127/1/2 128/1/2
f 128/1/2 127/1/2 129/1/2
f 126/1/2 128/1/2 130/1/2
f 128/2/2 129/2/2 130/2/2
f 130/2/2 129/2/2 131/2/2
f 126/1/2 130/1/2 132/1/2
f 130/1/2 131/1/2 132/1/2
f 132/1/2 131/1/2 133/1/2
f 126/1/2 132/1/2 136/1/2
f 134/2/2 135/2/2 138/2/2
f 135/1/2 136/1/2 139/1/2
f 138/2/2 135/2/2 139/2/2
f 137/2/2 138/2/2 141/2/2
f 138/1/2 139/1/2 142/1/2
f 141/2/2 138/2/2 142/2/2
f 139/1/2 136/1/2 143/1/2
f 142/1/2 139/1/2 143/1/2
f 141/1/2 142/1/2 143/1/2
f 136/1/2 132/1/2 143/1/2
f 143/1/2 132/1/2 144/1/2
f 140/2/2 141/2/2 145/2/2
f 141/1/2 143/1/2 146/1/2
f 145/2/2 141/2/2 146/2/2
f 146/1/2 143/1/2 147/1/2
f 147/1/2 143/1/2 148/1/2
f 145/1/2 146/1/2 149/1/2
f 146/1/2 147/1/2 149/1/2
f 149/1/2 147/1/2 150/1/2
f 145/1/2 149/1/2 151/1/2
f 149/3/2 150/3/2 151/3/2
f 151/3/2 150/3/2 152/3/2
f 151/1/2 152/1/2 155/1/2
f 153/3/2 154/3/2 156/3/2
f 156/3/2 154/3/2 157/3/2
f 156/1/2 157/1/2 159/1/2
f 157/3/2 158/3/2 159/3/2
f 155/1/2 156/1/2 159/1/2
f 159/3/2 158/3/2 160/3/2
f 151/1/2 155/1/2 161/1/2
f 145/1/2 151/1/2 161/1/2
f 159/1/2 160/1/2 161/1/2
f 155/1/2 159/1/2 161/1/2
f 161/1/2 160/1/2 162/1/2
f 167/1/3 164/1/3 163/1/3
f 168/1/3 164/1/3 167/1/3
f 168/1/3 167/1/3 166/1/3
f 169/1/3 164/1/3 168/1/3
f 170/2/3 166/2/3 165/2/3
f 171/1/3 168/1/3 166/1/3
f 171/2/3 166/2/3 170/2/3
f 172/1/3 168/1/3 171/1/3
f 173/2/3 169/2/3 168/2/3
f 173/1/3 168/1/3 172/1/3
f 174/2/3 173/2/3 172/2/3
f 175/1/3 164/1/3 169/1/3
f 175/2/3 173/2/3 174/2/3
f 175/2/3 169/2/3 173/2/3
f 176/1/3 164/1/3 175/1/3
f 180/2/3 178/2/3 177/2/3
f 181/1/3 179/1/3 178/1/3
f 181/2/3 178/2/3 180/2/3
f 182/1/3 179/1/3 181/1/3
f 185/2/3 184/2/3 183/2/3
f 186/2/3 184/2/3 185/2/3
f 190/2/3 188/2/3 187/2/3
f 190/2/3 189/2/3 188/2/3
f 191/2/3 189/2/3 190/2/3
f 194/1/3 193/1/3 192/1/3
f 195/1/3 193/1/3 194/1/3
f 198/1/3 197/1/3 196/1/3
f 199/1/3 197/1/3 198/1/3
f 203/1/3 200/1/3 199/1/3
f 204/1/3 200/1/3 203/1/3
f 205/1/3 202/1/3 201/1/3
f 206/1/3 202/1/3 205/1/3
f 209/3/3 208/3/3 207/3/3
f 210/3/3 208/3/3 209/3/3
f 214/1/3 212/1/3 211/1/3
f 214/2/3 213/2/3 212/2/3
f 215/2/3 213/2/3 214/2/3
f 217/1/3 214/1/3 211/1/3
f 217/1/3 216/1/3 215/1/3
f 217/1/3 215/1/3 214/1/3
f 218/1/3 216/1/3 217/1/3
f 219/1/3 216/1/3 218/1/3
f 222/1/3 220/1/3 219/1/3
f 222/1/3 219/1/3 218/1/3
f 223/1/3 222/1/3 221/1/3
f 224/1/3 220/1/3 222/1/3
f 224/1/3 222/1/3 223/1/3
f 225/1/4 226/1/4 227/1/4
f 227/1/4 226/1/4 228/1/4
f 228/1/4 226/1/4 229/1/4
f 230/1/4 231/1/4 234/1/4
f 231/3/4 232/3/4 235/3/4
f 234/1/4 231/1/4 235/1/4
f 232/1/4 233/1/4 236/1/4
f 235/3/4 232/3/4 236/3/4
f 236/1/4 233/1/4 237/1/4
f 238/1/4 239/1/4 240/1/4
f 240/1/4 239/1/4 241/1/4
f 240/1/4 241/1/4 243/1/4
f 241/3/4 242/3/4 244/3/4
f 243/1/4 241/1/4 244/1/4
f 244/3/4 242/3/4 245/3/4
f 246/2/4 247/2/4 248/2/4
f 248/2/4 247/2/4 249/2/4
f 250/3/4 251/3/4 252/3/4
f 252/3/4 251/3/4 253/3/4
f 253/3/4 251/3/4 254/3/4
f 255/1/4 256/1/4 257/1/4
f 257/1/4 256/1/4 258/1/4
f 258/3/4 259/3/4 261/3/4
f 261/3/4 259/3/4 262/3/4
f 260/1/4 261/1/4 263/1/4
f 262/3/4 259/3/4 263/3/4
f 261/1/4 262/1/4 263/1/4
f 263/3/4 259/3/4 264/3/4
f 260/1/4 263/1/4 267/1/4
f 267/1/4 263/1/4 268/1/4
f 265/3/4 266/3/4 269/3/4
f 269/3/4 266/3/4 270/3/4
f 271/1/4 272/1/4 275/1/4
f 275/1/4 272/1/4 276/1/4
f 273/1/4 274/1/4 277/1/4
f 277/1/4 274/1/4 278/1/4
f 273/1/4 277/1/4 283/1/4
f 279/1/4 280/1/4 284/1/4
f 284/1/4 280/1/4 285/1/4
f 281/1/4 282/1/4 286/1/4
f 282/3/4 283/3/4 286/3/4
f 283/1/4 277/1/4 287/1/4
f 286/3/4 283/3/4 287/3/4
f 281/1/4 286/1/4 288/1/4
f 286/1/4 287/1/4 288/1/4
f 287/1/4 277/1/4 289/1/4
f 288/1/4 287/1/4 289/1/4
f 277/3/4 278/3/4 290/3/4
f 289/1/4 277/1/4 290/1/4
f 278/1/4 274/1/4 291/1/4
f 290/3/4 278/3/4 291/3/4
f 289/3/4 290/3/4 292/3/4
f 290/1/4 291/1/4 293/1/4
f 292/3/4 290/3/4 293/3/4
f 291/1/4 274/1/4 294/1/4
f 293/1/4 291/1/4 294/1/4
f 295/2/4 296/2/4 297/2/4
f 297/2/4 296/2/4 298/2/4
f 298/2/4 296/2/4 299/2/4
f 298/1/4 299/1/4 301/1/4
f 300/1/4 301/1/4 302/1/4
f 301/1/4 299/1/4 303/1/4
f 302/1/4 301/1/4 303/1/4
f 304/2/4 305/2/4 307/2/4
f 307/2/4 305/2/4 308/2/4
f 308/2/4 305/2/4 309/2/4
f 308/1/4 309/1/4 311/1/4
f 309/1/4 310/1/4 311/1/4
f 311/1/4 310/1/4 312/1/4
f 306/1/4 307/1/4 313/1/4
f 307/2/4 308/2/4 314/2/4
f 313/1/4 307/1/4 314/1/4
f 308/1/4 311/1/4 315/1/4
f 314/2/4 308/2/4 315/2/4
f 315/1/4 311/1/4 316/1/4
f 320/1/5 318/1/5 317/1/5
f 321/1/5 318/1/5 320/1/5
f 323/1/5 320/1/5 319/1/5
f 323/1/5 322/1/5 321/1/5
f 323/1/5 321/1/5 320/1/5
f 324/1/5 322/1/5 323/1/5
f 325/1/5 322/1/5 324/1/5
f 326/1/5 322/1/5 325/1/5
f 329/2/5 328/2/5 327/2/5
f 330/2/5 328/2/5 329/2/5
f 333/1/5 332/1/5 331/1/5
f 334/1/5 332/1/5 333/1/5
f 337/1/5 336/1/5 335/1/5
f 338/1/5 336/1/5 337/1/5
f 340/1/5 339/1/5 338/1/5
f 341/1/5 339/1/5 340/1/5
f 345/2/5 343/2/5 342/2/5
f 346/2/5 343/2/5 345/2/5
f 347/2/5 345/2/5 344/2/5
f 348/1/5 346/1/5 345/1/5
f 348/2/5 345/2/5 347/2/5
f 349/2/5 343/2/5 346/2/5
f 349/1/5 346/1/5 348/1/5
f 350/2/5 343/2/5 349/2/5
f 352/1/5 348/1/5 347/1/5
f 352/1/5 349/1/5 348/1/5
f 352/1/5 350/1/5 349/1/5
f 353/1/5 350/1/5 352/1/5
f 354/2/5 351/2/5 350/2/5
f 354/1/5 350/1/5 353/1/5
f 355/2/5 351/2/5 354/2/5
f 356/1/5 354/1/5 353/1/5
f 356/1/5 355/1/5 354/1/5
f 357/1/5 355/1/5 356/1/5
f 358/1/5 355/1/5 357/1/5
f 359/1/5 355/1/5 358/1/5
f 362/2/5 361/2/5 360/2/5
f 363/2/5 361/2/5 362/2/5
f 368/1/5 365/1/5 364/1/5
f 369/1/5 365/1/5 368/1/5
f 370/2/5 367/2/5 366/2/5
f 371/2/5 367/2/5 370/2/5
f 374/3/5 373/3/5 372/3/5
f 375/3/5 373/3/5 374/3/5
f 378/1/5 377/1/5 376/1/5
f 379/1/5 377/1/5 378/1/5
f 382/3/5 381/3/5 380/3/5
f 383/3/5 381/3/5 382/3/5
f 388/1/5 385/1/5 384/1/5
f 389/1/5 388/1/5 384/1/5
f 391/1/5 387/1/5 386/1/5
f 392/1/5 387/1/5 391/1/5
f 395/1/5 390/1/5 389/1/5
f 395/1/5 389/1/5 384/1/5
f 396/1/5 390/1/5 395/1/5
f 397/3/5 394/3/5 393/3/5
f 398/3/5 394/3/5 397/3/5
f 399/1/6 400/1/6 401/1/6
f 401/1/6 400/1/6 402/1/6
f 403/2/6 404/2/6 407/2/6
f 407/2/6 404/2/6 408/2/6
f 405/1/6 406/1/6 409/1/6
f 409/1/6 406/1/6 410/1/6
f 411/1/6 412/1/6 413/1/6
f 413/1/6 412/1/6 414/1/6
f 415/1/6 416/1/6 417/1/6
f 417/1/6 416/1/6 418/1/6
f 418/1/6 419/1/6 422/1/6
f 420/1/6 421/1/6 423/1/6
f 417/2/6 418/2/6 424/2/6
f 422/1/6 423/1/6 425/1/6
f 424/2/6 418/2/6 425/2/6
f 418/1/6 422/1/6 425/1/6
f 423/1/6 421/1/6 426/1/6
f 425/1/6 423/1/6 426/1/6
f 427/2/6 428/2/6 430/2/6
f 428/1/6 429/1/6 431/1/6
f 430/2/6 428/2/6 431/2/6
f 431/1/6 429/1/6 432/1/6
f 431/1/6 432/1/6 433/1/6
f 433/1/6 432/1/6 434/1/6
f 434/1/6 435/1/6 436/1/6
f 436/1/6 435/1/6 437/1/6
f 438/1/6 439/1/6 442/1/6
f 442/1/6 439/1/6 443/1/6
f 440/1/6 441/1/6 444/1/6
f 444/1/6 441/1/6 445/1/6
f 445/1/6 441/1/6 446/1/6
f 447/1/6 448/1/6 449/1/6
f 449/1/6 448/1/6 450/1/6
