# MagicaVoxel @ Ephtracy

# group
o 

# material
mtllib mob1-2.mtl
usemtl palette

# normals
vn -1 0 0
vn 1 0 0
vn 0 0 1
vn 0 0 -1
vn 0 -1 0
vn 0 1 0

# texcoords
vt 0.974609 0.5
vt 0.982422 0.5
vt 0.986328 0.5

# verts
v 0.9 3.4 0.1
v 0.9 3.4 -0.4
v 0.9 3.5 -0.3
v 0.9 3.5 -0.4
v 0.9 3.6 -0.2
v 0.9 3.6 -0.3
v 0.9 3.6 -0.4
v 0.9 3.9 0.1
v 0.9 3.9 0
v 0.9 3.9 -0.2
v 0.9 3.9 -0.3
v 0.9 4.3 0.2
v 0.9 4.3 0.1
v 0.9 4.3 0
v 0.9 4.4 0.2
v 0.9 4.4 0.1
v 0.9 4.8 -0.3
v 0.9 4.8 -0.4
v 0.9 5.3 -0.3
v 0.9 5.3 -0.4
v 0.9 5.4 0.2
v 0.9 5.4 0.1
v 0.9 5.6 0.1
v 0.9 5.6 -0.3
v 1 3.4 0.2
v 1 3.4 0.1
v 1 3.5 0.2
v 1 3.5 0.1
v 1 3.9 0.1
v 1 4 0.2
v 1 4 0.1
v 1 4.3 0.2
v 1 4.3 0.1
v 1 4.7 -0.3
v 1 4.7 -0.4
v 1 4.8 -0.3
v 1 4.8 -0.4
v 1.1 3.6 -0.3
v 1.1 3.6 -0.4
v 1.1 3.7 -0.3
v 1.1 3.7 -0.4
v 1.2 3.6 0.1
v 1.2 3.6 0
v 1.2 3.7 0.1
v 1.2 3.7 0
v 1 5.3 0.2
v 1 5.3 0.1
v 1 5.4 0.2
v 1 5.4 0.1
v 1.1 3.6 0.2
v 1.1 3.6 0.1
v 1.1 3.6 0
v 1.1 3.7 0.2
v 1.1 3.7 0.1
v 1.1 3.7 0
v 1.1 4.7 -0.3
v 1.1 4.7 -0.4
v 1.1 4.8 -0.3
v 1.1 4.8 -0.4
v 1.1 5.3 0.1
v 1.1 5.3 0
v 1.1 5.6 0.1
v 1.1 5.6 0
v 1.2 3.6 -0.3
v 1.2 3.6 -0.4
v 1.2 3.7 0.2
v 1.2 3.7 0.1
v 1.2 3.7 0
v 1.2 3.7 -0.3
v 1.2 3.7 -0.4
v 1.2 3.8 0.2
v 1.2 3.8 0.1
v 1.2 3.8 0
v 1.2 3.8 -0.2
v 1.2 3.8 -0.3
v 1.2 3.9 0.1
v 1.2 4.1 -0.2
v 1.2 4.1 -0.3
v 1.2 4.6 -0.2
v 1.2 4.6 -0.3
v 1.2 4.7 0.1
v 1.2 4.7 -0.2
v 1.2 4.8 -0.2
v 1.2 4.8 -0.3
v 1.2 4.8 -0.4
v 1.2 4.9 0.2
v 1.2 4.9 0.1
v 1.2 4.9 -0.2
v 1.2 4.9 -0.3
v 1.2 4.9 -0.4
v 1.2 5.4 0
v 1.2 5.4 -0.1
v 1.2 5.4 -0.2
v 1.2 5.4 -0.3
v 1.2 5.6 0
v 1.2 5.6 -0.1
v 1.2 5.6 -0.2
v 1.2 5.6 -0.3
v 1.3 3.4 0.2
v 1.3 3.4 0.1
v 1.3 3.4 -0.3
v 1.3 3.4 -0.4
v 1.3 3.5 0.1
v 1.3 3.5 -0.3
v 1.3 3.5 -0.4
v 1.3 3.6 0.2
v 1.3 3.6 0.1
v 1.3 3.6 -0.2
v 1.3 3.6 -0.3
v 1.3 3.6 -0.4
v 1.3 3.8 0.1
v 1.3 3.8 0
v 1.3 3.8 -0.2
v 1.3 3.8 -0.3
v 1.3 3.9 0.1
v 1.3 3.9 0
v 1.3 4 0
v 1.3 4 -0.2
v 1.3 4.1 -0.2
v 1.3 4.1 -0.3
v 1.3 4.5 -0.2
v 1.3 4.5 -0.3
v 1.3 4.6 -0.2
v 1.3 4.6 -0.3
v 1.3 4.7 0.1
v 1.3 4.7 -0.2
v 1.3 4.8 0
v 1.3 4.8 -0.1
v 1.3 4.9 0.2
v 1.3 4.9 0.1
v 1.3 4.9 -0.1
v 1.3 4.9 -0.2
v 1.3 4.9 -0.3
v 1.3 4.9 -0.4
v 1.3 5 0.1
v 1.3 5 0
v 1.3 5 -0.2
v 1.3 5.1 0
v 1.3 5.1 -0.3
v 1.3 5.2 0.1
v 1.3 5.2 -0.3
v 1.3 5.3 0.2
v 1.3 5.3 0
v 1.3 5.3 -0.3
v 1.3 5.3 -0.4
v 1.3 5.4 0
v 1.3 5.4 -0.1
v 1.3 5.4 -0.2
v 1.3 5.4 -0.3
v 1.3 5.6 -0.1
v 1.3 5.6 -0.2
v 1.4 3.4 0.1
v 1.4 3.4 -0.1
v 1.4 3.4 -0.3
v 1.4 3.5 0.1
v 1.4 3.5 0
v 1.4 3.5 -0.1
v 1.4 3.5 -0.2
v 1.4 3.6 -0.1
v 1.4 3.6 -0.2
v 1.4 3.6 -0.3
v 1.4 3.7 0.1
v 1.4 3.7 0
v 1.4 3.8 0
v 1.4 3.8 -0.1
v 1.4 4 0
v 1.4 4 -0.2
v 0.9 4.3 0.2
v 0.9 4.4 0.2
v 0.9 5.4 0.2
v 1 3.4 0.2
v 1 3.5 0.2
v 1 4 0.2
v 1 4.3 0.2
v 1 4.4 0.2
v 1 5.3 0.2
v 1 5.4 0.2
v 1.1 3.5 0.2
v 1.1 3.6 0.2
v 1.1 3.7 0.2
v 1.1 3.8 0.2
v 1.1 4 0.2
v 1.2 3.7 0.2
v 1.2 3.8 0.2
v 1.2 4.9 0.2
v 1.2 5.3 0.2
v 1.3 3.4 0.2
v 1.3 3.6 0.2
v 1.3 4.9 0.2
v 1.3 5.3 0.2
v 0.9 3.4 0.1
v 0.9 3.9 0.1
v 0.9 4.3 0.1
v 0.9 5.4 0.1
v 0.9 5.6 0.1
v 1 3.4 0.1
v 1 3.5 0.1
v 1 3.9 0.1
v 1 4 0.1
v 1 4.3 0.1
v 1 5.3 0.1
v 1 5.4 0.1
v 1.1 5.3 0.1
v 1.1 5.6 0.1
v 1.2 3.6 0.1
v 1.2 3.7 0.1
v 1.2 3.8 0.1
v 1.2 3.9 0.1
v 1.2 4.7 0.1
v 1.2 4.9 0.1
v 1.3 3.4 0.1
v 1.3 3.5 0.1
v 1.3 3.6 0.1
v 1.3 3.8 0.1
v 1.3 3.9 0.1
v 1.3 4.7 0.1
v 1.3 4.9 0.1
v 1.4 3.4 0.1
v 1.4 3.5 0.1
v 1.4 3.7 0.1
v 1.1 3.6 0
v 1.1 3.7 0
v 1.1 5.3 0
v 1.1 5.6 0
v 1.2 3.6 0
v 1.2 3.7 0
v 1.2 3.8 0
v 1.2 5.3 0
v 1.2 5.4 0
v 1.2 5.6 0
v 1.3 3.7 0
v 1.3 3.8 0
v 1.3 3.9 0
v 1.3 4 0
v 1.3 5.3 0
v 1.3 5.4 0
v 1.4 3.7 0
v 1.4 3.8 0
v 1.4 4 0
v 1.2 5.4 -0.1
v 1.2 5.6 -0.1
v 1.3 5.4 -0.1
v 1.3 5.6 -0.1
v 1.2 3.8 -0.2
v 1.2 4.1 -0.2
v 1.2 4.6 -0.2
v 1.2 4.7 -0.2
v 1.2 4.8 -0.2
v 1.2 4.9 -0.2
v 1.2 5.4 -0.2
v 1.2 5.6 -0.2
v 1.3 3.6 -0.2
v 1.3 3.8 -0.2
v 1.3 4 -0.2
v 1.3 4.1 -0.2
v 1.3 4.6 -0.2
v 1.3 4.7 -0.2
v 1.3 4.9 -0.2
v 1.3 5.4 -0.2
v 1.3 5.6 -0.2
v 1.4 3.6 -0.2
v 1.4 4 -0.2
v 0.9 3.6 -0.3
v 0.9 3.9 -0.3
v 0.9 4.8 -0.3
v 0.9 5.3 -0.3
v 0.9 5.6 -0.3
v 1 3.6 -0.3
v 1 3.9 -0.3
v 1 4.7 -0.3
v 1 4.8 -0.3
v 1.1 3.6 -0.3
v 1.1 3.7 -0.3
v 1.1 4.7 -0.3
v 1.1 4.8 -0.3
v 1.2 3.6 -0.3
v 1.2 3.7 -0.3
v 1.2 3.8 -0.3
v 1.2 4.1 -0.3
v 1.2 4.5 -0.3
v 1.2 4.6 -0.3
v 1.2 4.8 -0.3
v 1.2 5.4 -0.3
v 1.2 5.6 -0.3
v 1.3 3.4 -0.3
v 1.3 3.5 -0.3
v 1.3 3.6 -0.3
v 1.3 3.8 -0.3
v 1.3 4.1 -0.3
v 1.3 4.5 -0.3
v 1.3 4.6 -0.3
v 1.3 5.3 -0.3
v 1.3 5.4 -0.3
v 1.4 3.4 -0.3
v 1.4 3.6 -0.3
v 0.9 3.4 -0.4
v 0.9 3.5 -0.4
v 0.9 3.6 -0.4
v 0.9 4.8 -0.4
v 0.9 5.3 -0.4
v 1 3.4 -0.4
v 1 3.5 -0.4
v 1 4.7 -0.4
v 1 4.8 -0.4
v 1.1 3.5 -0.4
v 1.1 3.6 -0.4
v 1.1 3.7 -0.4
v 1.1 4.7 -0.4
v 1.1 4.8 -0.4
v 1.2 3.6 -0.4
v 1.2 3.7 -0.4
v 1.2 4.8 -0.4
v 1.2 4.9 -0.4
v 1.3 3.4 -0.4
v 1.3 3.5 -0.4
v 1.3 3.6 -0.4
v 1.3 4.9 -0.4
v 1.3 5.3 -0.4
v 1 3.4 0.2
v 1.3 3.4 0.2
v 0.9 3.4 0.1
v 1 3.4 0.1
v 1.3 3.4 0.1
v 1.4 3.4 0.1
v 1.3 3.4 -0.1
v 1.4 3.4 -0.1
v 1 3.4 -0.3
v 1.3 3.4 -0.3
v 1.4 3.4 -0.3
v 0.9 3.4 -0.4
v 1 3.4 -0.4
v 1.3 3.4 -0.4
v 1.1 3.7 0.2
v 1.2 3.7 0.2
v 1.1 3.7 0.1
v 1.2 3.7 0.1
v 1.1 3.7 0
v 1.2 3.7 0
v 1.2 3.8 0.1
v 1.3 3.8 0.1
v 1.2 3.8 0
v 1.3 3.8 0
v 1.2 4.1 -0.2
v 1.3 4.1 -0.2
v 1.2 4.1 -0.3
v 1.3 4.1 -0.3
v 0.9 4.3 0.2
v 1 4.3 0.2
v 0.9 4.3 0.1
v 1 4.3 0.1
v 1 4.7 -0.3
v 1.1 4.7 -0.3
v 1 4.7 -0.4
v 1.1 4.7 -0.4
v 0.9 4.8 -0.3
v 1 4.8 -0.3
v 1.1 4.8 -0.3
v 1.2 4.8 -0.3
v 0.9 4.8 -0.4
v 1 4.8 -0.4
v 1.1 4.8 -0.4
v 1.2 4.8 -0.4
v 1.2 4.9 0.2
v 1.3 4.9 0.2
v 1.2 4.9 0.1
v 1.3 4.9 0.1
v 1.2 4.9 -0.2
v 1.3 4.9 -0.2
v 1.2 4.9 -0.3
v 1.3 4.9 -0.3
v 1.2 4.9 -0.4
v 1.3 4.9 -0.4
v 1.1 3.6 0.2
v 1.3 3.6 0.2
v 1.1 3.6 0.1
v 1.2 3.6 0.1
v 1.3 3.6 0.1
v 1.1 3.6 0
v 1.2 3.6 0
v 1.3 3.6 -0.2
v 1.4 3.6 -0.2
v 0.9 3.6 -0.3
v 1 3.6 -0.3
v 1.1 3.6 -0.3
v 1.2 3.6 -0.3
v 1.3 3.6 -0.3
v 1.4 3.6 -0.3
v 0.9 3.6 -0.4
v 1.1 3.6 -0.4
v 1.2 3.6 -0.4
v 1.3 3.6 -0.4
v 1.2 3.7 0.1
v 1.4 3.7 0.1
v 1.2 3.7 0
v 1.3 3.7 0
v 1.4 3.7 0
v 1.1 3.7 -0.3
v 1.2 3.7 -0.3
v 1.1 3.7 -0.4
v 1.2 3.7 -0.4
v 1.2 3.8 -0.2
v 1.3 3.8 -0.2
v 1.2 3.8 -0.3
v 1.3 3.8 -0.3
v 1.3 4 0
v 1.4 4 0
v 1.3 4 -0.2
v 1.4 4 -0.2
v 1.2 4.6 -0.2
v 1.3 4.6 -0.2
v 1.2 4.6 -0.3
v 1.3 4.6 -0.3
v 1 5.3 0.2
v 1.2 5.3 0.2
v 1.3 5.3 0.2
v 1 5.3 0.1
v 1.1 5.3 0.1
v 1.1 5.3 0
v 1.2 5.3 0
v 1.3 5.3 0
v 0.9 5.3 -0.3
v 1.3 5.3 -0.3
v 0.9 5.3 -0.4
v 1.3 5.3 -0.4
v 0.9 5.4 0.2
v 1 5.4 0.2
v 0.9 5.4 0.1
v 1 5.4 0.1
v 1.2 5.4 0
v 1.3 5.4 0
v 1.2 5.4 -0.1
v 1.3 5.4 -0.1
v 1.2 5.4 -0.2
v 1.3 5.4 -0.2
v 1.2 5.4 -0.3
v 1.3 5.4 -0.3
v 0.9 5.6 0.1
v 1.1 5.6 0.1
v 1.1 5.6 0
v 1.2 5.6 0
v 1.2 5.6 -0.1
v 1.3 5.6 -0.1
v 1.2 5.6 -0.2
v 1.3 5.6 -0.2
v 0.9 5.6 -0.3
v 1.2 5.6 -0.3

# faces
f 3/1/1 2/1/1 1/1/1
f 4/1/1 2/1/1 3/1/1
f 5/1/1 3/1/1 1/1/1
f 6/2/1 4/2/1 3/2/1
f 6/1/1 3/1/1 5/1/1
f 7/2/1 4/2/1 6/2/1
f 8/1/1 5/1/1 1/1/1
f 9/1/1 5/1/1 8/1/1
f 10/2/1 6/2/1 5/2/1
f 10/1/1 5/1/1 9/1/1
f 11/2/1 6/2/1 10/2/1
f 13/2/1 9/2/1 8/2/1
f 14/1/1 10/1/1 9/1/1
f 14/1/1 11/1/1 10/1/1
f 14/2/1 9/2/1 13/2/1
f 15/2/1 13/2/1 12/2/1
f 16/1/1 14/1/1 13/1/1
f 16/2/1 13/2/1 15/2/1
f 17/1/1 11/1/1 14/1/1
f 17/1/1 14/1/1 16/1/1
f 17/1/1 16/1/1 15/1/1
f 19/1/1 17/1/1 15/1/1
f 19/1/1 18/1/1 17/1/1
f 20/1/1 18/1/1 19/1/1
f 21/1/1 19/1/1 15/1/1
f 22/1/1 19/1/1 21/1/1
f 23/1/1 19/1/1 22/1/1
f 24/1/1 19/1/1 23/1/1
f 27/1/1 26/1/1 25/1/1
f 28/1/1 26/1/1 27/1/1
f 29/2/1 28/2/1 27/2/1
f 30/2/1 29/2/1 27/2/1
f 31/2/1 29/2/1 30/2/1
f 32/1/1 31/1/1 30/1/1
f 33/1/1 31/1/1 32/1/1
f 36/1/1 35/1/1 34/1/1
f 37/1/1 35/1/1 36/1/1
f 40/1/1 39/1/1 38/1/1
f 41/1/1 39/1/1 40/1/1
f 44/1/1 43/1/1 42/1/1
f 45/1/1 43/1/1 44/1/1
f 46/1/2 47/1/2 48/1/2
f 48/1/2 47/1/2 49/1/2
f 50/2/2 51/2/2 53/2/2
f 51/1/2 52/1/2 54/1/2
f 53/2/2 51/2/2 54/2/2
f 54/1/2 52/1/2 55/1/2
f 56/1/2 57/1/2 58/1/2
f 58/1/2 57/1/2 59/1/2
f 60/1/2 61/1/2 62/1/2
f 62/1/2 61/1/2 63/1/2
f 64/1/2 65/1/2 69/1/2
f 69/1/2 65/1/2 70/1/2
f 67/2/2 68/2/2 71/2/2
f 66/2/2 67/2/2 71/2/2
f 71/2/2 68/2/2 72/2/2
f 72/2/2 68/2/2 73/2/2
f 71/1/2 72/1/2 76/1/2
f 74/1/2 75/1/2 77/1/2
f 77/1/2 75/1/2 78/1/2
f 71/1/2 76/1/2 81/1/2
f 79/1/2 80/1/2 82/1/2
f 82/1/2 80/1/2 83/1/2
f 83/1/2 80/1/2 84/1/2
f 71/1/2 81/1/2 86/1/2
f 86/1/2 81/1/2 87/1/2
f 83/3/2 84/3/2 88/3/2
f 84/1/2 85/1/2 89/1/2
f 88/3/2 84/3/2 89/3/2
f 89/1/2 85/1/2 90/1/2
f 91/1/2 92/1/2 95/1/2
f 95/1/2 92/1/2 96/1/2
f 93/1/2 94/1/2 97/1/2
f 97/1/2 94/1/2 98/1/2
f 99/1/2 100/1/2 103/1/2
f 101/2/2 102/2/2 104/2/2
f 104/2/2 102/2/2 105/2/2
f 99/1/2 103/1/2 106/1/2
f 106/1/2 103/1/2 107/1/2
f 104/1/2 105/1/2 109/1/2
f 109/1/2 105/1/2 110/1/2
f 108/1/2 109/1/2 113/1/2
f 113/1/2 109/1/2 114/1/2
f 111/2/2 112/2/2 115/2/2
f 115/2/2 112/2/2 116/2/2
f 115/1/2 116/1/2 117/1/2
f 117/1/2 118/1/2 119/1/2
f 117/1/2 119/1/2 121/1/2
f 119/2/2 120/2/2 121/2/2
f 121/2/2 120/2/2 122/2/2
f 117/1/2 121/1/2 123/1/2
f 121/1/2 122/1/2 123/1/2
f 123/1/2 122/1/2 124/1/2
f 115/1/2 117/1/2 125/1/2
f 117/1/2 123/1/2 125/1/2
f 125/1/2 123/1/2 126/1/2
f 125/3/2 126/3/2 127/3/2
f 127/3/2 126/3/2 128/3/2
f 125/3/2 127/3/2 130/3/2
f 128/3/2 126/3/2 131/3/2
f 127/1/2 128/1/2 131/1/2
f 131/3/2 126/3/2 132/3/2
f 129/3/2 130/3/2 135/3/2
f 130/3/2 127/3/2 135/3/2
f 127/1/2 131/1/2 136/1/2
f 135/3/2 127/3/2 136/3/2
f 131/1/2 132/1/2 136/1/2
f 132/3/2 133/3/2 137/3/2
f 136/1/2 132/1/2 137/1/2
f 135/1/2 136/1/2 138/1/2
f 136/3/2 137/3/2 138/3/2
f 137/3/2 133/3/2 139/3/2
f 138/3/2 137/3/2 139/3/2
f 133/1/2 134/1/2 139/1/2
f 135/1/2 138/1/2 140/1/2
f 129/3/2 135/3/2 140/3/2
f 138/1/2 139/1/2 140/1/2
f 139/1/2 134/1/2 141/1/2
f 140/1/2 139/1/2 141/1/2
f 129/3/2 140/3/2 142/3/2
f 140/3/2 141/3/2 142/3/2
f 142/3/2 141/3/2 143/3/2
f 141/1/2 134/1/2 144/1/2
f 143/3/2 141/3/2 144/3/2
f 144/1/2 134/1/2 145/1/2
f 143/1/2 144/1/2 146/1/2
f 146/1/2 144/1/2 147/1/2
f 147/1/2 144/1/2 148/1/2
f 148/1/2 144/1/2 149/1/2
f 147/1/2 148/1/2 150/1/2
f 150/1/2 148/1/2 151/1/2
f 152/2/2 153/2/2 155/2/2
f 155/2/2 153/2/2 156/2/2
f 153/1/2 154/1/2 157/1/2
f 156/2/2 153/2/2 157/2/2
f 157/1/2 154/1/2 158/1/2
f 156/2/2 157/2/2 159/2/2
f 157/2/2 158/2/2 159/2/2
f 158/1/2 154/1/2 160/1/2
f 159/2/2 158/2/2 160/2/2
f 160/1/2 154/1/2 161/1/2
f 155/1/2 156/1/2 162/1/2
f 156/2/2 159/2/2 163/2/2
f 162/1/2 156/1/2 163/1/2
f 163/2/2 159/2/2 164/2/2
f 159/1/2 160/1/2 165/1/2
f 164/2/2 159/2/2 165/2/2
f 164/1/2 165/1/2 166/1/2
f 165/1/2 160/1/2 167/1/2
f 166/1/2 165/1/2 167/1/2
f 174/2/3 169/2/3 168/2/3
f 175/1/3 170/1/3 169/1/3
f 175/2/3 169/2/3 174/2/3
f 176/1/3 170/1/3 175/1/3
f 177/1/3 170/1/3 176/1/3
f 178/2/3 173/2/3 172/2/3
f 178/1/3 172/1/3 171/1/3
f 179/2/3 173/2/3 178/2/3
f 180/2/3 173/2/3 179/2/3
f 181/2/3 173/2/3 180/2/3
f 182/1/3 174/1/3 173/1/3
f 182/2/3 173/2/3 181/2/3
f 182/1/3 176/1/3 175/1/3
f 182/1/3 175/1/3 174/1/3
f 183/2/3 181/2/3 180/2/3
f 184/1/3 182/1/3 181/1/3
f 184/2/3 181/2/3 183/2/3
f 185/1/3 176/1/3 182/1/3
f 185/1/3 182/1/3 184/1/3
f 186/1/3 176/1/3 185/1/3
f 187/1/3 179/1/3 178/1/3
f 187/1/3 178/1/3 171/1/3
f 188/1/3 179/1/3 187/1/3
f 189/3/3 186/3/3 185/3/3
f 190/3/3 186/3/3 189/3/3
f 196/1/3 192/1/3 191/1/3
f 197/1/3 192/1/3 196/1/3
f 198/2/3 193/2/3 192/2/3
f 198/1/3 192/1/3 197/1/3
f 199/2/3 193/2/3 198/2/3
f 200/2/3 193/2/3 199/2/3
f 202/1/3 195/1/3 194/1/3
f 203/1/3 202/1/3 201/1/3
f 204/1/3 195/1/3 202/1/3
f 204/1/3 202/1/3 203/1/3
f 213/1/3 206/1/3 205/1/3
f 214/2/3 208/2/3 207/2/3
f 215/1/3 209/1/3 208/1/3
f 215/2/3 208/2/3 214/2/3
f 216/3/3 210/3/3 209/3/3
f 216/1/3 209/1/3 215/1/3
f 217/3/3 210/3/3 216/3/3
f 218/2/3 212/2/3 211/2/3
f 219/1/3 213/1/3 212/1/3
f 219/2/3 212/2/3 218/2/3
f 220/1/3 206/1/3 213/1/3
f 220/1/3 213/1/3 219/1/3
f 225/1/3 222/1/3 221/1/3
f 226/1/3 222/1/3 225/1/3
f 228/1/3 224/1/3 223/1/3
f 229/1/3 224/1/3 228/1/3
f 230/1/3 224/1/3 229/1/3
f 231/1/3 227/1/3 226/1/3
f 232/1/3 227/1/3 231/1/3
f 235/1/3 229/1/3 228/1/3
f 236/1/3 229/1/3 235/1/3
f 237/2/3 232/2/3 231/2/3
f 238/1/3 234/1/3 233/1/3
f 238/2/3 232/2/3 237/2/3
f 238/1/3 233/1/3 232/1/3
f 239/1/3 234/1/3 238/1/3
f 242/1/3 241/1/3 240/1/3
f 243/1/3 241/1/3 242/1/3
f 244/1/4 245/1/4 253/1/4
f 253/1/4 245/1/4 254/1/4
f 254/1/4 245/1/4 255/1/4
f 246/1/4 247/1/4 256/1/4
f 247/3/4 248/3/4 257/3/4
f 256/1/4 247/1/4 257/1/4
f 248/3/4 249/3/4 257/3/4
f 257/3/4 249/3/4 258/3/4
f 250/1/4 251/1/4 259/1/4
f 259/1/4 251/1/4 260/1/4
f 253/1/4 254/1/4 261/1/4
f 252/1/4 253/1/4 261/1/4
f 261/1/4 254/1/4 262/1/4
f 263/2/4 264/2/4 268/2/4
f 264/1/4 265/1/4 269/1/4
f 268/2/4 264/2/4 269/2/4
f 269/1/4 265/1/4 270/1/4
f 270/1/4 265/1/4 271/1/4
f 268/1/4 269/1/4 272/1/4
f 269/1/4 270/1/4 272/1/4
f 272/1/4 270/1/4 273/1/4
f 273/1/4 270/1/4 274/1/4
f 274/1/4 275/1/4 277/1/4
f 273/1/4 274/1/4 277/1/4
f 277/1/4 275/1/4 278/1/4
f 278/1/4 275/1/4 279/1/4
f 279/1/4 275/1/4 280/1/4
f 280/1/4 275/1/4 281/1/4
f 281/1/4 275/1/4 282/1/4
f 266/1/4 267/1/4 283/1/4
f 283/1/4 267/1/4 284/1/4
f 276/1/4 277/1/4 287/1/4
f 277/1/4 278/1/4 287/1/4
f 287/1/4 278/1/4 288/1/4
f 279/2/4 280/2/4 289/2/4
f 280/1/4 281/1/4 290/1/4
f 289/2/4 280/2/4 290/2/4
f 290/1/4 281/1/4 291/1/4
f 266/1/4 283/1/4 292/1/4
f 292/1/4 283/1/4 293/1/4
f 285/1/4 286/1/4 294/1/4
f 286/1/4 287/1/4 294/1/4
f 294/1/4 287/1/4 295/1/4
f 296/1/4 297/1/4 301/1/4
f 297/2/4 298/2/4 302/2/4
f 301/1/4 297/1/4 302/1/4
f 299/1/4 300/1/4 304/1/4
f 302/2/4 298/2/4 305/2/4
f 301/2/4 302/2/4 305/2/4
f 305/2/4 298/2/4 306/2/4
f 303/1/4 304/1/4 308/1/4
f 304/1/4 300/1/4 309/1/4
f 308/1/4 304/1/4 309/1/4
f 306/1/4 307/1/4 310/1/4
f 305/1/4 306/1/4 310/1/4
f 310/1/4 307/1/4 311/1/4
f 309/1/4 300/1/4 312/1/4
f 312/1/4 300/1/4 313/1/4
f 301/2/4 305/2/4 314/2/4
f 305/1/4 310/1/4 315/1/4
f 314/2/4 305/2/4 315/2/4
f 315/1/4 310/1/4 316/1/4
f 313/1/4 300/1/4 317/1/4
f 317/1/4 300/1/4 318/1/4
f 322/1/5 320/1/5 319/1/5
f 323/1/5 320/1/5 322/1/5
f 325/1/5 322/1/5 321/1/5
f 325/2/5 324/2/5 323/2/5
f 325/1/5 323/1/5 322/1/5
f 326/2/5 324/2/5 325/2/5
f 327/1/5 325/1/5 321/1/5
f 327/1/5 326/1/5 325/1/5
f 328/1/5 326/1/5 327/1/5
f 329/1/5 326/1/5 328/1/5
f 330/1/5 327/1/5 321/1/5
f 331/2/5 328/2/5 327/2/5
f 331/1/5 327/1/5 330/1/5
f 332/2/5 328/2/5 331/2/5
f 335/2/5 334/2/5 333/2/5
f 336/2/5 334/2/5 335/2/5
f 337/2/5 336/2/5 335/2/5
f 338/2/5 336/2/5 337/2/5
f 341/2/5 340/2/5 339/2/5
f 342/2/5 340/2/5 341/2/5
f 345/2/5 344/2/5 343/2/5
f 346/2/5 344/2/5 345/2/5
f 349/2/5 348/2/5 347/2/5
f 350/2/5 348/2/5 349/2/5
f 353/1/5 352/1/5 351/1/5
f 354/1/5 352/1/5 353/1/5
f 359/1/5 356/1/5 355/1/5
f 360/1/5 356/1/5 359/1/5
f 361/1/5 358/1/5 357/1/5
f 362/1/5 358/1/5 361/1/5
f 365/3/5 364/3/5 363/3/5
f 366/3/5 364/3/5 365/3/5
f 369/3/5 368/3/5 367/3/5
f 370/3/5 368/3/5 369/3/5
f 371/1/5 370/1/5 369/1/5
f 372/1/5 370/1/5 371/1/5
f 373/1/6 374/1/6 375/1/6
f 375/1/6 374/1/6 376/1/6
f 376/1/6 374/1/6 377/1/6
f 375/1/6 376/1/6 378/1/6
f 378/1/6 376/1/6 379/1/6
f 380/1/6 381/1/6 386/1/6
f 386/1/6 381/1/6 387/1/6
f 383/2/6 384/2/6 388/2/6
f 382/2/6 383/2/6 388/2/6
f 388/2/6 384/2/6 389/2/6
f 385/1/6 386/1/6 390/1/6
f 390/1/6 386/1/6 391/1/6
f 392/1/6 393/1/6 394/1/6
f 394/1/6 393/1/6 395/1/6
f 395/1/6 393/1/6 396/1/6
f 397/1/6 398/1/6 399/1/6
f 399/1/6 398/1/6 400/1/6
f 401/1/6 402/1/6 403/1/6
f 403/1/6 402/1/6 404/1/6
f 405/1/6 406/1/6 407/1/6
f 407/1/6 406/1/6 408/1/6
f 409/1/6 410/1/6 411/1/6
f 411/1/6 410/1/6 412/1/6
f 413/1/6 414/1/6 416/1/6
f 416/1/6 414/1/6 417/1/6
f 417/1/6 414/1/6 418/1/6
f 414/3/6 415/3/6 419/3/6
f 418/1/6 414/1/6 419/1/6
f 419/3/6 415/3/6 420/3/6
f 421/1/6 422/1/6 423/1/6
f 423/1/6 422/1/6 424/1/6
f 425/1/6 426/1/6 427/1/6
f 427/1/6 426/1/6 428/1/6
f 429/1/6 430/1/6 431/1/6
f 431/1/6 430/1/6 432/1/6
f 433/1/6 434/1/6 435/1/6
f 435/1/6 434/1/6 436/1/6
f 437/1/6 438/1/6 439/1/6
f 439/1/6 440/1/6 441/1/6
f 439/1/6 441/1/6 443/1/6
f 441/1/6 442/1/6 443/1/6
f 443/1/6 442/1/6 444/1/6
f 437/1/6 439/1/6 445/1/6
f 439/1/6 443/1/6 445/1/6
f 445/1/6 443/1/6 446/1/6
