# MagicaVoxel @ Ephtracy

# group
o 

# material
mtllib mob1-5.mtl
usemtl palette

# normals
vn -1 0 0
vn 1 0 0
vn 0 0 1
vn 0 0 -1
vn 0 -1 0
vn 0 1 0

# texcoords
vt 0.974609 0.5
vt 0.978516 0.5
vt 0.982422 0.5
vt 0.986328 0.5

# verts
v -0.9 3.7 0.1
v -0.9 3.7 0
v -0.9 3.7 -0.3
v -0.9 3.7 -0.4
v -0.9 4.1 0.1
v -0.9 4.1 0
v -0.9 4.1 -0.3
v -0.9 4.1 -0.4
v -0.9 4.6 0.2
v -0.9 4.6 0.1
v -0.9 5.3 0.2
v -0.9 5.3 0.1
v -0.9 5.4 -0.2
v -0.9 5.4 -0.4
v -0.9 5.8 0.1
v -0.9 5.8 -0.2
v -0.8 3.4 0.2
v -0.8 3.4 -0.3
v -0.8 3.6 0.1
v -0.8 3.6 0
v -0.8 3.6 -0.3
v -0.8 3.6 -0.4
v -0.8 3.7 0.1
v -0.8 3.7 0
v -0.8 3.7 -0.3
v -0.8 3.7 -0.4
v -0.8 4.1 0.1
v -0.8 4.6 0.2
v -0.8 4.6 0.1
v -0.8 5.3 0.2
v -0.8 5.3 0.1
v -0.8 5.4 -0.2
v -0.8 5.4 -0.4
v -0.8 5.8 0.2
v -0.8 5.8 0.1
v -0.8 5.8 -0.2
v -0.8 5.8 -0.4
v -0.7 3.3 0.2
v -0.7 3.3 -0.3
v -0.7 3.4 0.2
v -0.7 3.4 -0.3
v -0.7 3.5 -0.3
v -0.7 3.5 -0.4
v -0.7 3.6 -0.3
v -0.7 3.6 -0.4
v -0.7 4.5 0.3
v -0.7 4.5 0.2
v -0.7 4.7 -0.4
v -0.7 4.7 -0.5
v -0.7 4.9 0.3
v -0.7 4.9 0.2
v -0.7 5 0.3
v -0.7 5 0.2
v -0.7 5.5 -0.4
v -0.7 5.5 -0.5
v -0.7 5.6 0.3
v -0.7 5.6 0.2
v -0.6 3.4 -0.3
v -0.6 3.4 -0.4
v -0.6 3.5 -0.3
v -0.6 3.5 -0.4
v -0.6 4 -0.4
v -0.6 4 -0.5
v -0.6 4.6 -0.4
v -0.6 4.6 -0.5
v -0.6 4.7 -0.4
v -0.6 4.7 -0.5
v -0.6 5 -0.5
v -0.6 5 -0.6
v -0.6 5.5 -0.5
v -0.6 5.5 -0.6
v -0.5 3.3 -0.3
v -0.5 3.3 -0.4
v -0.5 3.4 -0.3
v -0.5 3.4 -0.4
v -0.4 3.5 -0.4
v -0.4 3.5 -0.5
v -0.4 4 -0.4
v -0.4 4 -0.5
v 0.1 5 -0.5
v 0.1 5 -0.6
v 0.1 5.5 -0.5
v 0.1 5.5 -0.6
v -0.1 5 -0.5
v -0.1 5 -0.6
v -0.1 5.1 -0.5
v -0.1 5.1 -0.6
v -0.1 5.5 -0.5
v -0.1 5.5 -0.6
v 0.4 3.5 -0.4
v 0.4 3.5 -0.5
v 0.4 3.6 -0.4
v 0.4 3.6 -0.5
v 0.4 4 -0.4
v 0.4 4 -0.5
v 0.5 3.3 -0.3
v 0.5 3.3 -0.4
v 0.5 3.4 -0.3
v 0.5 3.4 -0.4
v 0.6 3.4 -0.3
v 0.6 3.4 -0.4
v 0.6 3.5 -0.3
v 0.6 3.5 -0.4
v 0.6 4 -0.4
v 0.6 4 -0.5
v 0.6 4.7 -0.4
v 0.6 4.7 -0.5
v 0.6 5 -0.5
v 0.6 5 -0.6
v 0.6 5.1 -0.5
v 0.6 5.1 -0.6
v 0.6 5.5 -0.5
v 0.6 5.5 -0.6
v 0.7 3.3 0.2
v 0.7 3.3 -0.3
v 0.7 3.4 0.2
v 0.7 3.4 -0.3
v 0.7 3.5 -0.3
v 0.7 3.5 -0.4
v 0.7 3.6 -0.3
v 0.7 3.6 -0.4
v 0.7 4.5 0.3
v 0.7 4.5 0.2
v 0.7 4.7 -0.4
v 0.7 4.7 -0.5
v 0.7 4.8 0.3
v 0.7 4.8 0.2
v 0.7 5 0.3
v 0.7 5 0.2
v 0.7 5.3 0.3
v 0.7 5.3 0.2
v 0.7 5.5 -0.4
v 0.7 5.5 -0.5
v 0.7 5.6 0.3
v 0.7 5.6 0.2
v 0.8 3.4 0.2
v 0.8 3.4 -0.3
v 0.8 3.6 -0.3
v 0.8 3.6 -0.4
v 0.8 3.7 0.1
v 0.8 3.7 -0.4
v 0.8 4.6 0.2
v 0.8 4.6 0.1
v 0.8 5.3 0.2
v 0.8 5.3 0.1
v 0.8 5.4 -0.2
v 0.8 5.4 -0.4
v 0.8 5.8 0.2
v 0.8 5.8 0.1
v 0.8 5.8 -0.2
v 0.8 5.8 -0.4
v 0.9 3.7 0.1
v 0.9 3.7 -0.4
v 0.9 4.6 0.2
v 0.9 4.6 0.1
v 0.9 5.3 0.2
v 0.9 5.3 0.1
v 0.9 5.4 -0.2
v 0.9 5.4 -0.4
v 0.9 5.8 0.1
v 0.9 5.8 -0.2
v -0.7 4.5 0.3
v -0.7 4.9 0.3
v -0.7 5 0.3
v -0.7 5.6 0.3
v -0.6 4.6 0.3
v -0.6 4.7 0.3
v -0.5 4.5 0.3
v -0.5 4.6 0.3
v -0.5 4.7 0.3
v -0.5 4.8 0.3
v -0.4 4.6 0.3
v -0.4 4.8 0.3
v -0.2 4.6 0.3
v -0.2 4.7 0.3
v -0.2 4.8 0.3
v -0.2 4.9 0.3
v -0.2 5 0.3
v -0.1 4.5 0.3
v -0.1 4.6 0.3
v -0.1 4.7 0.3
v -0.1 4.8 0.3
v 0 4.6 0.3
v 0 4.9 0.3
v 0.1 4.6 0.3
v 0.1 4.9 0.3
v 0.2 4.5 0.3
v 0.2 4.6 0.3
v 0.2 4.7 0.3
v 0.2 4.8 0.3
v 0.2 4.9 0.3
v 0.2 5 0.3
v 0.3 4.6 0.3
v 0.3 4.7 0.3
v 0.3 4.8 0.3
v 0.3 4.9 0.3
v 0.4 4.7 0.3
v 0.4 4.8 0.3
v 0.5 4.6 0.3
v 0.5 4.7 0.3
v 0.6 4.5 0.3
v 0.6 4.8 0.3
v 0.6 4.9 0.3
v 0.6 5 0.3
v 0.6 5.3 0.3
v 0.7 4.5 0.3
v 0.7 4.8 0.3
v 0.7 5 0.3
v 0.7 5.3 0.3
v 0.7 5.6 0.3
v -0.9 4.6 0.2
v -0.9 5.3 0.2
v -0.8 3.4 0.2
v -0.8 4.6 0.2
v -0.8 5.3 0.2
v -0.8 5.8 0.2
v -0.7 3.3 0.2
v -0.7 3.4 0.2
v -0.7 4.5 0.2
v -0.7 4.9 0.2
v -0.7 5 0.2
v -0.7 5.6 0.2
v -0.6 3.9 0.2
v -0.6 4.1 0.2
v -0.5 4.1 0.2
v -0.5 4.3 0.2
v -0.5 4.5 0.2
v -0.4 4.1 0.2
v -0.4 4.3 0.2
v -0.3 3.9 0.2
v -0.3 4.1 0.2
v -0.3 4.3 0.2
v -0.3 4.4 0.2
v -0.3 4.5 0.2
v -0.2 4 0.2
v -0.2 4.3 0.2
v -0.1 4 0.2
v -0.1 4.4 0.2
v -0.1 4.5 0.2
v 0.1 3.4 0.2
v 0.1 3.7 0.2
v 0.1 4.2 0.2
v 0.1 4.4 0.2
v 0.2 3.5 0.2
v 0.2 3.6 0.2
v 0.2 4 0.2
v 0.2 4.2 0.2
v 0.2 4.3 0.2
v 0.2 4.4 0.2
v 0.2 4.5 0.2
v 0.3 3.3 0.2
v 0.3 3.4 0.2
v 0.3 3.5 0.2
v 0.3 4 0.2
v 0.3 4.3 0.2
v 0.4 3.4 0.2
v 0.4 3.5 0.2
v 0.5 3.9 0.2
v 0.5 4.1 0.2
v 0.5 4.2 0.2
v 0.5 4.3 0.2
v 0.5 4.4 0.2
v 0.6 3.3 0.2
v 0.6 3.5 0.2
v 0.6 3.6 0.2
v 0.6 3.7 0.2
v 0.6 3.9 0.2
v 0.6 4.1 0.2
v 0.6 4.2 0.2
v 0.6 4.4 0.2
v 0.6 4.5 0.2
v 0.7 3.3 0.2
v 0.7 3.4 0.2
v 0.7 4.5 0.2
v 0.7 4.8 0.2
v 0.7 5 0.2
v 0.7 5.3 0.2
v 0.7 5.6 0.2
v 0.8 3.4 0.2
v 0.8 4.6 0.2
v 0.8 5.3 0.2
v 0.8 5.8 0.2
v 0.9 4.6 0.2
v 0.9 5.3 0.2
v -0.9 3.7 0.1
v -0.9 4.1 0.1
v -0.9 4.6 0.1
v -0.9 5.3 0.1
v -0.9 5.8 0.1
v -0.8 3.7 0.1
v -0.8 4.1 0.1
v -0.8 4.6 0.1
v -0.8 5.3 0.1
v -0.8 5.8 0.1
v 0.8 3.7 0.1
v 0.8 4.6 0.1
v 0.8 5.3 0.1
v 0.8 5.8 0.1
v 0.9 3.7 0.1
v 0.9 4.6 0.1
v 0.9 5.3 0.1
v 0.9 5.8 0.1
v -0.9 5.4 -0.2
v -0.9 5.8 -0.2
v -0.8 5.4 -0.2
v -0.8 5.8 -0.2
v 0.8 5.4 -0.2
v 0.8 5.8 -0.2
v 0.9 5.4 -0.2
v 0.9 5.8 -0.2
v -0.8 3.4 -0.3
v -0.8 3.6 -0.3
v -0.7 3.3 -0.3
v -0.7 3.4 -0.3
v -0.7 3.5 -0.3
v -0.7 3.6 -0.3
v -0.6 3.4 -0.3
v -0.6 3.5 -0.3
v -0.5 3.3 -0.3
v -0.5 3.4 -0.3
v 0.5 3.3 -0.3
v 0.5 3.4 -0.3
v 0.6 3.4 -0.3
v 0.6 3.5 -0.3
v 0.7 3.3 -0.3
v 0.7 3.4 -0.3
v 0.7 3.5 -0.3
v 0.7 3.6 -0.3
v 0.8 3.4 -0.3
v 0.8 3.6 -0.3
v -0.9 3.7 -0.4
v -0.9 4.1 -0.4
v -0.9 5.4 -0.4
v -0.8 3.6 -0.4
v -0.8 3.7 -0.4
v -0.8 3.8 -0.4
v -0.8 4.1 -0.4
v -0.8 5.4 -0.4
v -0.8 5.8 -0.4
v -0.7 3.5 -0.4
v -0.7 3.6 -0.4
v -0.7 3.7 -0.4
v -0.7 3.8 -0.4
v -0.7 4.7 -0.4
v -0.7 5.5 -0.4
v -0.6 3.4 -0.4
v -0.6 3.5 -0.4
v -0.6 3.6 -0.4
v -0.6 3.7 -0.4
v -0.6 4 -0.4
v -0.6 4.6 -0.4
v -0.6 4.7 -0.4
v -0.5 3.3 -0.4
v -0.5 3.4 -0.4
v -0.5 3.5 -0.4
v -0.5 3.6 -0.4
v -0.5 4 -0.4
v -0.4 3.3 -0.4
v -0.4 3.5 -0.4
v -0.4 4 -0.4
v 0.4 3.5 -0.4
v 0.4 3.6 -0.4
v 0.4 4 -0.4
v 0.5 3.3 -0.4
v 0.5 3.4 -0.4
v 0.6 3.4 -0.4
v 0.6 3.5 -0.4
v 0.6 4 -0.4
v 0.6 4.7 -0.4
v 0.7 3.5 -0.4
v 0.7 3.6 -0.4
v 0.7 4.7 -0.4
v 0.7 5.5 -0.4
v 0.8 3.6 -0.4
v 0.8 3.7 -0.4
v 0.8 5.4 -0.4
v 0.8 5.8 -0.4
v 0.9 3.7 -0.4
v 0.9 5.4 -0.4
v -0.7 4.7 -0.5
v -0.7 5.5 -0.5
v -0.6 4 -0.5
v -0.6 4.6 -0.5
v -0.6 4.7 -0.5
v -0.6 5 -0.5
v -0.6 5.5 -0.5
v -0.5 4 -0.5
v -0.5 4.6 -0.5
v -0.4 3.5 -0.5
v -0.4 4 -0.5
v -0.3 3.6 -0.5
v -0.3 4 -0.5
v -0.1 3.6 -0.5
v -0.1 4.3 -0.5
v -0.1 5 -0.5
v -0.1 5.1 -0.5
v -0.1 5.5 -0.5
v 0 3.6 -0.5
v 0 4.3 -0.5
v 0.1 5 -0.5
v 0.1 5.5 -0.5
v 0.4 3.5 -0.5
v 0.4 3.6 -0.5
v 0.4 4 -0.5
v 0.6 4 -0.5
v 0.6 4.7 -0.5
v 0.6 5 -0.5
v 0.6 5.1 -0.5
v 0.6 5.5 -0.5
v 0.7 4.7 -0.5
v 0.7 5.5 -0.5
v -0.6 5 -0.6
v -0.6 5.5 -0.6
v -0.5 5.2 -0.6
v -0.5 5.5 -0.6
v -0.4 5.1 -0.6
v -0.4 5.2 -0.6
v -0.1 5 -0.6
v -0.1 5.1 -0.6
v -0.1 5.5 -0.6
v 0.1 5 -0.6
v 0.1 5.5 -0.6
v 0.2 5.2 -0.6
v 0.2 5.5 -0.6
v 0.3 5.1 -0.6
v 0.3 5.2 -0.6
v 0.6 5 -0.6
v 0.6 5.1 -0.6
v 0.6 5.5 -0.6
v -0.7 3.3 0.2
v 0.3 3.3 0.2
v 0.6 3.3 0.2
v 0.7 3.3 0.2
v -0.5 3.3 0.1
v -0.4 3.3 0.1
v 0.3 3.3 0.1
v 0.6 3.3 0.1
v -0.5 3.3 0
v -0.4 3.3 0
v -0.7 3.3 -0.3
v -0.5 3.3 -0.3
v -0.4 3.3 -0.3
v 0.5 3.3 -0.3
v 0.7 3.3 -0.3
v -0.5 3.3 -0.4
v -0.4 3.3 -0.4
v 0.5 3.3 -0.4
v -0.8 3.4 0.2
v -0.7 3.4 0.2
v 0.7 3.4 0.2
v 0.8 3.4 0.2
v -0.8 3.4 -0.3
v -0.7 3.4 -0.3
v -0.6 3.4 -0.3
v -0.5 3.4 -0.3
v 0.5 3.4 -0.3
v 0.6 3.4 -0.3
v 0.7 3.4 -0.3
v 0.8 3.4 -0.3
v -0.6 3.4 -0.4
v -0.5 3.4 -0.4
v 0.5 3.4 -0.4
v 0.6 3.4 -0.4
v -0.7 3.5 -0.3
v -0.6 3.5 -0.3
v 0.6 3.5 -0.3
v 0.7 3.5 -0.3
v -0.7 3.5 -0.4
v -0.6 3.5 -0.4
v -0.4 3.5 -0.4
v 0.4 3.5 -0.4
v 0.6 3.5 -0.4
v 0.7 3.5 -0.4
v -0.4 3.5 -0.5
v 0.4 3.5 -0.5
v -0.8 3.6 -0.3
v -0.7 3.6 -0.3
v 0.7 3.6 -0.3
v 0.8 3.6 -0.3
v -0.8 3.6 -0.4
v -0.7 3.6 -0.4
v 0.7 3.6 -0.4
v 0.8 3.6 -0.4
v -0.9 3.7 0.1
v -0.8 3.7 0.1
v 0.8 3.7 0.1
v 0.9 3.7 0.1
v -0.9 3.7 0
v -0.8 3.7 0
v -0.9 3.7 -0.3
v -0.8 3.7 -0.3
v -0.9 3.7 -0.4
v -0.8 3.7 -0.4
v 0.8 3.7 -0.4
v 0.9 3.7 -0.4
v -0.6 4 -0.4
v -0.5 4 -0.4
v -0.4 4 -0.4
v 0.4 4 -0.4
v 0.6 4 -0.4
v -0.6 4 -0.5
v -0.5 4 -0.5
v -0.4 4 -0.5
v 0.4 4 -0.5
v 0.6 4 -0.5
v -0.7 4.5 0.3
v -0.5 4.5 0.3
v -0.1 4.5 0.3
v 0.2 4.5 0.3
v 0.6 4.5 0.3
v 0.7 4.5 0.3
v -0.7 4.5 0.2
v -0.5 4.5 0.2
v -0.3 4.5 0.2
v -0.1 4.5 0.2
v 0.2 4.5 0.2
v 0.6 4.5 0.2
v 0.7 4.5 0.2
v -0.9 4.6 0.2
v -0.8 4.6 0.2
v 0.8 4.6 0.2
v 0.9 4.6 0.2
v -0.9 4.6 0.1
v -0.8 4.6 0.1
v 0.8 4.6 0.1
v 0.9 4.6 0.1
v -0.7 4.7 -0.4
v -0.6 4.7 -0.4
v 0.6 4.7 -0.4
v 0.7 4.7 -0.4
v -0.7 4.7 -0.5
v -0.6 4.7 -0.5
v 0.6 4.7 -0.5
v 0.7 4.7 -0.5
v -0.6 5 -0.5
v -0.1 5 -0.5
v 0.1 5 -0.5
v 0.6 5 -0.5
v -0.6 5 -0.6
v -0.1 5 -0.6
v 0.1 5 -0.6
v 0.6 5 -0.6
v -0.9 5.3 0.2
v -0.8 5.3 0.2
v 0.8 5.3 0.2
v 0.9 5.3 0.2
v -0.9 5.3 0.1
v -0.8 5.3 0.1
v 0.8 5.3 0.1
v 0.9 5.3 0.1
v -0.9 5.4 -0.2
v -0.8 5.4 -0.2
v 0.8 5.4 -0.2
v 0.9 5.4 -0.2
v -0.9 5.4 -0.4
v -0.8 5.4 -0.4
v 0.8 5.4 -0.4
v 0.9 5.4 -0.4
v -0.7 5.5 -0.4
v 0.7 5.5 -0.4
v -0.7 5.5 -0.5
v -0.6 5.5 -0.5
v -0.5 5.5 -0.5
v -0.1 5.5 -0.5
v 0.1 5.5 -0.5
v 0.2 5.5 -0.5
v 0.6 5.5 -0.5
v 0.7 5.5 -0.5
v -0.6 5.5 -0.6
v -0.5 5.5 -0.6
v -0.1 5.5 -0.6
v 0.1 5.5 -0.6
v 0.2 5.5 -0.6
v 0.6 5.5 -0.6
v -0.7 5.6 0.3
v 0.7 5.6 0.3
v -0.7 5.6 0.2
v 0.7 5.6 0.2
v -0.8 5.8 0.2
v 0.8 5.8 0.2
v -0.9 5.8 0.1
v -0.8 5.8 0.1
v 0.8 5.8 0.1
v 0.9 5.8 0.1
v -0.9 5.8 -0.2
v -0.8 5.8 -0.2
v 0.8 5.8 -0.2
v 0.9 5.8 -0.2
v -0.8 5.8 -0.4
v 0.8 5.8 -0.4

# faces
f 5/3/1 2/3/1 1/3/1
f 6/1/1 3/1/1 2/1/1
f 6/3/1 2/3/1 5/3/1
f 7/3/1 4/3/1 3/3/1
f 7/1/1 3/1/1 6/1/1
f 8/3/1 4/3/1 7/3/1
f 10/1/1 6/1/1 5/1/1
f 10/1/1 7/1/1 6/1/1
f 10/1/1 8/1/1 7/1/1
f 11/1/1 10/1/1 9/1/1
f 12/1/1 8/1/1 10/1/1
f 12/1/1 10/1/1 11/1/1
f 13/1/1 8/1/1 12/1/1
f 14/1/1 8/1/1 13/1/1
f 15/1/1 13/1/1 12/1/1
f 16/1/1 13/1/1 15/1/1
f 19/1/1 18/1/1 17/1/1
f 20/1/1 18/1/1 19/1/1
f 21/1/1 18/1/1 20/1/1
f 23/1/1 19/1/1 17/1/1
f 23/3/1 20/3/1 19/3/1
f 24/1/1 21/1/1 20/1/1
f 24/3/1 20/3/1 23/3/1
f 25/3/1 22/3/1 21/3/1
f 25/1/1 21/1/1 24/1/1
f 26/3/1 22/3/1 25/3/1
f 27/1/1 23/1/1 17/1/1
f 28/1/1 27/1/1 17/1/1
f 29/1/1 27/1/1 28/1/1
f 34/1/1 31/1/1 30/1/1
f 35/1/1 31/1/1 34/1/1
f 36/1/1 33/1/1 32/1/1
f 37/1/1 33/1/1 36/1/1
f 40/1/1 39/1/1 38/1/1
f 41/1/1 39/1/1 40/1/1
f 44/3/1 43/3/1 42/3/1
f 45/3/1 43/3/1 44/3/1
f 50/1/1 47/1/1 46/1/1
f 51/1/1 47/1/1 50/1/1
f 52/4/1 51/4/1 50/4/1
f 53/4/1 51/4/1 52/4/1
f 54/1/1 49/1/1 48/1/1
f 55/1/1 49/1/1 54/1/1
f 56/1/1 53/1/1 52/1/1
f 57/1/1 53/1/1 56/1/1
f 60/3/1 59/3/1 58/3/1
f 61/3/1 59/3/1 60/3/1
f 64/3/1 63/3/1 62/3/1
f 65/3/1 63/3/1 64/3/1
f 66/1/1 65/1/1 64/1/1
f 67/1/1 65/1/1 66/1/1
f 70/3/1 69/3/1 68/3/1
f 71/3/1 69/3/1 70/3/1
f 74/3/1 73/3/1 72/3/1
f 75/3/1 73/3/1 74/3/1
f 78/3/1 77/3/1 76/3/1
f 79/3/1 77/3/1 78/3/1
f 82/3/1 81/3/1 80/3/1
f 83/3/1 81/3/1 82/3/1
f 84/3/2 85/3/2 86/3/2
f 86/3/2 85/3/2 87/3/2
f 86/1/2 87/1/2 88/1/2
f 88/1/2 87/1/2 89/1/2
f 90/3/2 91/3/2 92/3/2
f 92/3/2 91/3/2 93/3/2
f 92/1/2 93/1/2 94/1/2
f 94/1/2 93/1/2 95/1/2
f 96/1/2 97/1/2 98/1/2
f 98/1/2 97/1/2 99/1/2
f 100/1/2 101/1/2 102/1/2
f 102/1/2 101/1/2 103/1/2
f 104/1/2 105/1/2 106/1/2
f 106/1/2 105/1/2 107/1/2
f 108/3/2 109/3/2 110/3/2
f 110/3/2 109/3/2 111/3/2
f 110/1/2 111/1/2 112/1/2
f 112/1/2 111/1/2 113/1/2
f 114/1/2 115/1/2 116/1/2
f 116/1/2 115/1/2 117/1/2
f 118/1/2 119/1/2 120/1/2
f 120/1/2 119/1/2 121/1/2
f 122/2/2 123/2/2 126/2/2
f 126/2/2 123/2/2 127/2/2
f 126/4/2 127/4/2 128/4/2
f 128/4/2 127/4/2 129/4/2
f 128/2/2 129/2/2 130/2/2
f 130/2/2 129/2/2 131/2/2
f 124/1/2 125/1/2 132/1/2
f 132/1/2 125/1/2 133/1/2
f 130/1/2 131/1/2 134/1/2
f 134/1/2 131/1/2 135/1/2
f 136/1/2 137/1/2 138/1/2
f 136/1/2 138/1/2 140/1/2
f 138/1/2 139/1/2 140/1/2
f 140/1/2 139/1/2 141/1/2
f 136/1/2 140/1/2 142/1/2
f 142/1/2 140/1/2 143/1/2
f 144/1/2 145/1/2 148/1/2
f 148/1/2 145/1/2 149/1/2
f 146/1/2 147/1/2 150/1/2
f 150/1/2 147/1/2 151/1/2
f 152/1/2 153/1/2 155/1/2
f 154/1/2 155/1/2 156/1/2
f 155/1/2 153/1/2 157/1/2
f 156/1/2 155/1/2 157/1/2
f 157/1/2 153/1/2 158/1/2
f 158/1/2 153/1/2 159/1/2
f 157/1/2 158/1/2 160/1/2
f 160/1/2 158/1/2 161/1/2
f 166/1/3 163/1/3 162/1/3
f 167/1/3 163/1/3 166/1/3
f 168/1/3 166/1/3 162/1/3
f 169/4/3 167/4/3 166/4/3
f 169/1/3 166/1/3 168/1/3
f 170/1/3 163/1/3 167/1/3
f 170/4/3 167/4/3 169/4/3
f 171/1/3 163/1/3 170/1/3
f 172/4/3 169/4/3 168/4/3
f 172/4/3 170/4/3 169/4/3
f 172/4/3 171/4/3 170/4/3
f 173/1/3 163/1/3 171/1/3
f 173/4/3 171/4/3 172/4/3
f 174/4/3 172/4/3 168/4/3
f 174/1/3 173/1/3 172/1/3
f 175/1/3 173/1/3 174/1/3
f 176/1/3 163/1/3 173/1/3
f 176/1/3 173/1/3 175/1/3
f 177/4/3 164/4/3 163/4/3
f 177/1/3 163/1/3 176/1/3
f 178/1/3 165/1/3 164/1/3
f 178/4/3 164/4/3 177/4/3
f 179/4/3 175/4/3 174/4/3
f 179/4/3 174/4/3 168/4/3
f 180/4/3 175/4/3 179/4/3
f 181/1/3 176/1/3 175/1/3
f 181/4/3 175/4/3 180/4/3
f 182/4/3 177/4/3 176/4/3
f 182/1/3 176/1/3 181/1/3
f 183/4/3 181/4/3 180/4/3
f 183/2/3 180/2/3 179/2/3
f 183/4/3 182/4/3 181/4/3
f 184/4/3 177/4/3 182/4/3
f 184/4/3 182/4/3 183/4/3
f 184/1/3 178/1/3 177/1/3
f 185/2/3 183/2/3 179/2/3
f 185/1/3 184/1/3 183/1/3
f 186/1/3 178/1/3 184/1/3
f 186/1/3 184/1/3 185/1/3
f 187/2/3 185/2/3 179/2/3
f 188/4/3 186/4/3 185/4/3
f 188/2/3 185/2/3 187/2/3
f 189/4/3 186/4/3 188/4/3
f 190/4/3 186/4/3 189/4/3
f 191/1/3 178/1/3 186/1/3
f 191/4/3 186/4/3 190/4/3
f 192/1/3 165/1/3 178/1/3
f 192/1/3 178/1/3 191/1/3
f 193/4/3 188/4/3 187/4/3
f 193/4/3 189/4/3 188/4/3
f 194/1/3 190/1/3 189/1/3
f 194/4/3 189/4/3 193/4/3
f 195/4/3 191/4/3 190/4/3
f 195/1/3 190/1/3 194/1/3
f 195/4/3 192/4/3 191/4/3
f 196/4/3 192/4/3 195/4/3
f 197/1/3 194/1/3 193/1/3
f 197/1/3 195/1/3 194/1/3
f 197/1/3 196/1/3 195/1/3
f 198/1/3 196/1/3 197/1/3
f 199/4/3 193/4/3 187/4/3
f 199/1/3 197/1/3 193/1/3
f 200/4/3 198/4/3 197/4/3
f 200/1/3 197/1/3 199/1/3
f 201/4/3 199/4/3 187/4/3
f 201/4/3 200/4/3 199/4/3
f 202/1/3 196/1/3 198/1/3
f 202/4/3 200/4/3 201/4/3
f 202/4/3 198/4/3 200/4/3
f 203/4/3 192/4/3 196/4/3
f 203/1/3 196/1/3 202/1/3
f 204/1/3 165/1/3 192/1/3
f 204/4/3 192/4/3 203/4/3
f 205/1/3 165/1/3 204/1/3
f 206/2/3 202/2/3 201/2/3
f 207/4/3 203/4/3 202/4/3
f 207/2/3 202/2/3 206/2/3
f 207/4/3 204/4/3 203/4/3
f 208/2/3 205/2/3 204/2/3
f 208/4/3 204/4/3 207/4/3
f 209/1/3 165/1/3 205/1/3
f 209/2/3 205/2/3 208/2/3
f 210/1/3 165/1/3 209/1/3
f 214/1/3 212/1/3 211/1/3
f 215/1/3 212/1/3 214/1/3
f 218/1/3 214/1/3 213/1/3
f 218/1/3 216/1/3 215/1/3
f 218/1/3 215/1/3 214/1/3
f 219/1/3 216/1/3 218/1/3
f 220/1/3 216/1/3 219/1/3
f 221/1/3 216/1/3 220/1/3
f 222/1/3 216/1/3 221/1/3
f 223/1/3 218/1/3 217/1/3
f 223/1/3 219/1/3 218/1/3
f 224/1/3 219/1/3 223/1/3
f 225/4/3 224/4/3 223/4/3
f 225/1/3 219/1/3 224/1/3
f 226/1/3 219/1/3 225/1/3
f 227/1/3 219/1/3 226/1/3
f 228/4/3 225/4/3 223/4/3
f 228/4/3 226/4/3 225/4/3
f 229/1/3 227/1/3 226/1/3
f 229/4/3 226/4/3 228/4/3
f 230/1/3 223/1/3 217/1/3
f 230/4/3 228/4/3 223/4/3
f 231/1/3 229/1/3 228/1/3
f 231/4/3 228/4/3 230/4/3
f 232/1/3 227/1/3 229/1/3
f 232/1/3 229/1/3 231/1/3
f 233/1/3 227/1/3 232/1/3
f 234/1/3 227/1/3 233/1/3
f 235/1/3 231/1/3 230/1/3
f 235/1/3 232/1/3 231/1/3
f 236/4/3 233/4/3 232/4/3
f 236/1/3 232/1/3 235/1/3
f 237/1/3 235/1/3 230/1/3
f 237/4/3 236/4/3 235/4/3
f 238/2/3 234/2/3 233/2/3
f 238/4/3 236/4/3 237/4/3
f 238/4/3 233/4/3 236/4/3
f 239/2/3 234/2/3 238/2/3
f 240/1/3 230/1/3 217/1/3
f 240/1/3 237/1/3 230/1/3
f 240/1/3 238/1/3 237/1/3
f 241/1/3 238/1/3 240/1/3
f 242/1/3 238/1/3 241/1/3
f 243/2/3 239/2/3 238/2/3
f 243/1/3 238/1/3 242/1/3
f 244/4/3 241/4/3 240/4/3
f 245/4/3 241/4/3 244/4/3
f 246/1/3 242/1/3 241/1/3
f 247/4/3 243/4/3 242/4/3
f 247/1/3 242/1/3 246/1/3
f 248/4/3 243/4/3 247/4/3
f 249/2/3 239/2/3 243/2/3
f 249/4/3 243/4/3 248/4/3
f 250/2/3 239/2/3 249/2/3
f 251/1/3 240/1/3 217/1/3
f 252/4/3 244/4/3 240/4/3
f 252/1/3 240/1/3 251/1/3
f 253/1/3 245/1/3 244/1/3
f 253/4/3 244/4/3 252/4/3
f 254/4/3 248/4/3 247/4/3
f 254/1/3 246/1/3 241/1/3
f 254/4/3 247/4/3 246/4/3
f 255/2/3 250/2/3 249/2/3
f 255/4/3 248/4/3 254/4/3
f 255/2/3 249/2/3 248/2/3
f 256/1/3 253/1/3 252/1/3
f 256/4/3 252/4/3 251/4/3
f 257/1/3 245/1/3 253/1/3
f 257/1/3 253/1/3 256/1/3
f 258/1/3 255/1/3 254/1/3
f 258/1/3 254/1/3 241/1/3
f 259/1/3 255/1/3 258/1/3
f 260/1/3 255/1/3 259/1/3
f 261/2/3 250/2/3 255/2/3
f 261/1/3 255/1/3 260/1/3
f 262/2/3 250/2/3 261/2/3
f 263/4/3 256/4/3 251/4/3
f 263/4/3 257/4/3 256/4/3
f 264/1/3 245/1/3 257/1/3
f 264/4/3 257/4/3 263/4/3
f 265/4/3 241/4/3 245/4/3
f 265/1/3 245/1/3 264/1/3
f 266/1/3 258/1/3 241/1/3
f 266/4/3 241/4/3 265/4/3
f 267/4/3 259/4/3 258/4/3
f 267/1/3 258/1/3 266/1/3
f 268/1/3 260/1/3 259/1/3
f 268/4/3 259/4/3 267/4/3
f 269/4/3 262/4/3 261/4/3
f 269/1/3 260/1/3 268/1/3
f 269/4/3 261/4/3 260/4/3
f 270/2/3 250/2/3 262/2/3
f 270/4/3 262/4/3 269/4/3
f 271/2/3 250/2/3 270/2/3
f 272/1/3 264/1/3 263/1/3
f 272/1/3 269/1/3 268/1/3
f 272/1/3 271/1/3 270/1/3
f 272/1/3 270/1/3 269/1/3
f 272/1/3 266/1/3 265/1/3
f 272/1/3 265/1/3 264/1/3
f 272/1/3 268/1/3 267/1/3
f 272/1/3 267/1/3 266/1/3
f 273/1/3 271/1/3 272/1/3
f 274/1/3 271/1/3 273/1/3
f 278/1/3 216/1/3 222/1/3
f 279/1/3 277/1/3 276/1/3
f 279/1/3 278/1/3 277/1/3
f 279/1/3 274/1/3 273/1/3
f 279/1/3 276/1/3 275/1/3
f 279/1/3 275/1/3 274/1/3
f 280/1/3 278/1/3 279/1/3
f 281/1/3 278/1/3 280/1/3
f 282/1/3 216/1/3 278/1/3
f 282/1/3 278/1/3 281/1/3
f 283/1/3 281/1/3 280/1/3
f 284/1/3 281/1/3 283/1/3
f 290/3/3 286/3/3 285/3/3
f 291/1/3 287/1/3 286/1/3
f 291/3/3 286/3/3 290/3/3
f 292/1/3 287/1/3 291/1/3
f 293/1/3 289/1/3 288/1/3
f 294/1/3 289/1/3 293/1/3
f 299/1/3 296/1/3 295/1/3
f 300/1/3 296/1/3 299/1/3
f 301/1/3 298/1/3 297/1/3
f 302/1/3 298/1/3 301/1/3
f 303/1/4 304/1/4 305/1/4
f 305/1/4 304/1/4 306/1/4
f 307/1/4 308/1/4 309/1/4
f 309/1/4 308/1/4 310/1/4
f 311/1/4 312/1/4 314/1/4
f 314/1/4 312/1/4 315/1/4
f 315/1/4 312/1/4 316/1/4
f 313/1/4 314/1/4 317/1/4
f 314/1/4 315/1/4 317/1/4
f 317/1/4 315/1/4 318/1/4
f 313/1/4 317/1/4 319/1/4
f 319/1/4 317/1/4 320/1/4
f 321/1/4 322/1/4 323/1/4
f 321/1/4 323/1/4 325/1/4
f 323/1/4 324/1/4 325/1/4
f 325/1/4 324/1/4 326/1/4
f 326/1/4 324/1/4 327/1/4
f 326/1/4 327/1/4 329/1/4
f 327/1/4 328/1/4 329/1/4
f 329/1/4 328/1/4 330/1/4
f 331/3/4 332/3/4 335/3/4
f 335/3/4 332/3/4 336/3/4
f 332/1/4 333/1/4 337/1/4
f 336/3/4 332/3/4 337/3/4
f 337/1/4 333/1/4 338/1/4
f 335/3/4 336/3/4 341/3/4
f 334/3/4 335/3/4 341/3/4
f 341/3/4 336/3/4 342/3/4
f 338/1/4 339/1/4 343/1/4
f 342/3/4 336/3/4 343/3/4
f 337/1/4 338/1/4 343/1/4
f 336/1/4 337/1/4 343/1/4
f 343/1/4 339/1/4 344/1/4
f 344/1/4 339/1/4 345/1/4
f 341/3/4 342/3/4 347/3/4
f 340/3/4 341/3/4 347/3/4
f 347/3/4 342/3/4 348/3/4
f 343/1/4 344/1/4 349/1/4
f 348/3/4 342/3/4 349/3/4
f 342/1/4 343/1/4 349/1/4
f 349/1/4 344/1/4 350/1/4
f 350/1/4 344/1/4 351/1/4
f 351/1/4 344/1/4 352/1/4
f 347/3/4 348/3/4 354/3/4
f 346/3/4 347/3/4 354/3/4
f 354/3/4 348/3/4 355/3/4
f 349/1/4 350/1/4 356/1/4
f 355/3/4 348/3/4 356/3/4
f 348/1/4 349/1/4 356/1/4
f 356/1/4 350/1/4 357/1/4
f 354/3/4 355/3/4 358/3/4
f 353/3/4 354/3/4 358/3/4
f 356/1/4 357/1/4 359/1/4
f 358/3/4 355/3/4 359/3/4
f 355/1/4 356/1/4 359/1/4
f 359/1/4 357/1/4 360/1/4
f 358/1/4 359/1/4 361/1/4
f 358/1/4 361/1/4 364/1/4
f 362/1/4 363/1/4 364/1/4
f 361/1/4 362/1/4 364/1/4
f 364/1/4 363/1/4 365/1/4
f 365/1/4 363/1/4 366/1/4
f 366/1/4 363/1/4 367/1/4
f 367/1/4 363/1/4 368/1/4
f 367/1/4 368/1/4 370/1/4
f 368/1/4 369/1/4 370/1/4
f 370/1/4 369/1/4 371/1/4
f 371/1/4 369/1/4 372/1/4
f 345/1/4 339/1/4 373/1/4
f 371/1/4 372/1/4 374/1/4
f 372/1/4 373/1/4 374/1/4
f 374/1/4 373/1/4 375/1/4
f 375/1/4 373/1/4 376/1/4
f 373/1/4 339/1/4 377/1/4
f 376/1/4 373/1/4 377/1/4
f 375/1/4 376/1/4 378/1/4
f 378/1/4 376/1/4 379/1/4
f 380/1/4 381/1/4 384/1/4
f 384/1/4 381/1/4 385/1/4
f 385/1/4 381/1/4 386/1/4
f 382/3/4 383/3/4 387/3/4
f 383/1/4 384/1/4 388/1/4
f 387/3/4 383/3/4 388/3/4
f 384/1/4 385/1/4 388/1/4
f 387/1/4 388/1/4 390/1/4
f 389/3/4 390/3/4 391/3/4
f 390/1/4 388/1/4 392/1/4
f 391/3/4 390/3/4 392/3/4
f 389/3/4 391/3/4 393/3/4
f 391/1/4 392/1/4 393/1/4
f 392/1/4 388/1/4 394/1/4
f 393/1/4 392/1/4 394/1/4
f 388/1/4 385/1/4 395/1/4
f 394/1/4 388/1/4 395/1/4
f 393/3/4 394/3/4 398/3/4
f 389/3/4 393/3/4 398/3/4
f 396/1/4 397/1/4 399/1/4
f 398/3/4 394/3/4 399/3/4
f 395/1/4 396/1/4 399/1/4
f 394/1/4 395/1/4 399/1/4
f 398/1/4 399/1/4 400/1/4
f 399/1/4 397/1/4 400/1/4
f 400/1/4 397/1/4 401/1/4
f 389/3/4 398/3/4 402/3/4
f 398/1/4 400/1/4 403/1/4
f 402/3/4 398/3/4 403/3/4
f 403/1/4 400/1/4 404/1/4
f 404/1/4 400/1/4 405/1/4
f 405/1/4 400/1/4 406/1/4
f 406/1/4 400/1/4 407/1/4
f 408/1/4 409/1/4 410/1/4
f 407/1/4 408/1/4 410/1/4
f 406/1/4 407/1/4 410/1/4
f 410/1/4 409/1/4 411/1/4
f 412/3/4 413/3/4 414/3/4
f 414/3/4 413/3/4 415/3/4
f 412/3/4 414/3/4 416/3/4
f 414/1/4 415/1/4 417/1/4
f 416/3/4 414/3/4 417/3/4
f 412/3/4 416/3/4 418/3/4
f 416/1/4 417/1/4 419/1/4
f 418/3/4 416/3/4 419/3/4
f 417/1/4 415/1/4 420/1/4
f 419/1/4 417/1/4 420/1/4
f 421/3/4 422/3/4 423/3/4
f 423/3/4 422/3/4 424/3/4
f 421/3/4 423/3/4 425/3/4
f 423/1/4 424/1/4 426/1/4
f 425/3/4 423/3/4 426/3/4
f 421/3/4 425/3/4 427/3/4
f 425/1/4 426/1/4 428/1/4
f 427/3/4 425/3/4 428/3/4
f 426/1/4 424/1/4 429/1/4
f 428/1/4 426/1/4 429/1/4
f 434/1/5 431/1/5 430/1/5
f 435/1/5 431/1/5 434/1/5
f 436/4/5 432/4/5 431/4/5
f 436/1/5 431/1/5 435/1/5
f 437/1/5 433/1/5 432/1/5
f 437/4/5 432/4/5 436/4/5
f 438/3/5 435/3/5 434/3/5
f 438/1/5 434/1/5 430/1/5
f 439/1/5 436/1/5 435/1/5
f 439/3/5 435/3/5 438/3/5
f 439/1/5 437/1/5 436/1/5
f 440/1/5 438/1/5 430/1/5
f 440/1/5 439/1/5 438/1/5
f 441/1/5 439/1/5 440/1/5
f 442/1/5 437/1/5 439/1/5
f 442/1/5 439/1/5 441/1/5
f 443/1/5 437/1/5 442/1/5
f 444/1/5 433/1/5 437/1/5
f 444/1/5 437/1/5 443/1/5
f 445/3/5 442/3/5 441/3/5
f 446/1/5 443/1/5 442/1/5
f 446/3/5 442/3/5 445/3/5
f 447/1/5 443/1/5 446/1/5
f 452/1/5 449/1/5 448/1/5
f 453/1/5 449/1/5 452/1/5
f 458/1/5 451/1/5 450/1/5
f 459/1/5 451/1/5 458/1/5
f 460/3/5 455/3/5 454/3/5
f 461/3/5 455/3/5 460/3/5
f 462/1/5 457/1/5 456/1/5
f 463/1/5 457/1/5 462/1/5
f 468/3/5 465/3/5 464/3/5
f 469/3/5 465/3/5 468/3/5
f 472/1/5 467/1/5 466/1/5
f 473/1/5 467/1/5 472/1/5
f 474/3/5 471/3/5 470/3/5
f 475/3/5 471/3/5 474/3/5
f 480/3/5 477/3/5 476/3/5
f 481/3/5 477/3/5 480/3/5
f 482/1/5 479/1/5 478/1/5
f 483/1/5 479/1/5 482/1/5
f 488/3/5 485/3/5 484/3/5
f 489/3/5 485/3/5 488/3/5
f 490/1/5 489/1/5 488/1/5
f 491/1/5 489/1/5 490/1/5
f 492/3/5 491/3/5 490/3/5
f 493/3/5 491/3/5 492/3/5
f 494/1/5 487/1/5 486/1/5
f 495/1/5 487/1/5 494/1/5
f 501/3/5 497/3/5 496/3/5
f 502/1/5 498/1/5 497/1/5
f 502/3/5 497/3/5 501/3/5
f 503/1/5 498/1/5 502/1/5
f 504/1/5 500/1/5 499/1/5
f 505/1/5 500/1/5 504/1/5
f 512/1/5 507/1/5 506/1/5
f 513/4/5 508/4/5 507/4/5
f 513/1/5 507/1/5 512/1/5
f 514/4/5 508/4/5 513/4/5
f 515/2/5 509/2/5 508/2/5
f 515/4/5 508/4/5 514/4/5
f 516/4/5 510/4/5 509/4/5
f 516/2/5 509/2/5 515/2/5
f 517/2/5 511/2/5 510/2/5
f 517/4/5 510/4/5 516/4/5
f 518/2/5 511/2/5 517/2/5
f 523/1/5 520/1/5 519/1/5
f 524/1/5 520/1/5 523/1/5
f 525/1/5 522/1/5 521/1/5
f 526/1/5 522/1/5 525/1/5
f 531/1/5 528/1/5 527/1/5
f 532/1/5 528/1/5 531/1/5
f 533/1/5 530/1/5 529/1/5
f 534/1/5 530/1/5 533/1/5
f 539/3/5 536/3/5 535/3/5
f 540/3/5 536/3/5 539/3/5
f 541/3/5 538/3/5 537/3/5
f 542/3/5 538/3/5 541/3/5
f 543/1/6 544/1/6 547/1/6
f 547/1/6 544/1/6 548/1/6
f 545/1/6 546/1/6 549/1/6
f 549/1/6 546/1/6 550/1/6
f 551/1/6 552/1/6 555/1/6
f 555/1/6 552/1/6 556/1/6
f 553/1/6 554/1/6 557/1/6
f 557/1/6 554/1/6 558/1/6
f 559/1/6 560/1/6 561/1/6
f 561/1/6 560/1/6 562/1/6
f 562/1/6 560/1/6 563/1/6
f 563/1/6 560/1/6 564/1/6
f 564/1/6 560/1/6 565/1/6
f 565/1/6 560/1/6 566/1/6
f 566/1/6 560/1/6 567/1/6
f 567/1/6 560/1/6 568/1/6
f 562/3/6 563/3/6 569/3/6
f 563/1/6 564/1/6 570/1/6
f 569/3/6 563/3/6 570/3/6
f 570/1/6 564/1/6 571/1/6
f 565/3/6 566/3/6 572/3/6
f 566/1/6 567/1/6 573/1/6
f 572/3/6 566/3/6 573/3/6
f 573/1/6 567/1/6 574/1/6
f 575/1/6 576/1/6 577/1/6
f 577/1/6 576/1/6 578/1/6
f 579/1/6 580/1/6 582/1/6
f 582/1/6 580/1/6 583/1/6
f 581/1/6 582/1/6 585/1/6
f 583/1/6 584/1/6 585/1/6
f 582/1/6 583/1/6 585/1/6
f 585/1/6 584/1/6 586/1/6
f 586/1/6 584/1/6 587/1/6
f 587/1/6 584/1/6 588/1/6
f 586/1/6 587/1/6 589/1/6
f 589/1/6 587/1/6 590/1/6
