# MagicaVoxel @ Ephtracy

# group
o 

# material
mtllib mob1-9.mtl
usemtl palette

# normals
vn -1 0 0
vn 1 0 0
vn 0 0 1
vn 0 0 -1
vn 0 -1 0
vn 0 1 0

# texcoords
vt 0.974609 0.5
vt 0.982422 0.5
vt 0.986328 0.5

# verts
v 0.2 0 0.2
v 0.2 0 -0.1
v 0.2 0 -0.5
v 0.2 0 -0.7
v 0.2 0.1 -0.3
v 0.2 0.1 -0.5
v 0.2 0.1 -0.6
v 0.2 0.1 -0.7
v 0.2 0.2 0.2
v 0.2 0.2 0.1
v 0.2 0.2 -0.1
v 0.2 0.2 -0.3
v 0.2 0.2 -0.4
v 0.2 0.2 -0.6
v 0.2 0.4 0.1
v 0.2 0.4 -0.4
v 0.2 0.7 -0.1
v 0.2 0.7 -0.2
v 0.2 0.8 -0.1
v 0.2 0.8 -0.2
v 0.2 0.9 -0.2
v 0.2 0.9 -0.3
v 0.2 1 0
v 0.2 1 -0.1
v 0.2 1 -0.3
v 0.2 1 -0.4
v 0.2 1.1 -0.3
v 0.2 1.1 -0.4
v 0.2 1.3 0
v 0.2 1.3 -0.1
v 0.2 1.4 -0.3
v 0.2 1.4 -0.4
v 0.2 1.5 -0.1
v 0.2 1.5 -0.2
v 0.2 1.6 -0.2
v 0.2 1.6 -0.3
v 0.3 0 -0.1
v 0.3 0 -0.4
v 0.3 0 -0.5
v 0.3 0.1 -0.2
v 0.3 0.1 -0.3
v 0.3 0.1 -0.4
v 0.3 0.1 -0.5
v 0.3 0.2 -0.1
v 0.3 0.2 -0.2
v 0.3 0.2 -0.3
v 0.3 0.2 -0.4
v 0.3 0.2 -0.5
v 0.3 0.4 0
v 0.3 0.4 -0.4
v 0.3 0.5 0.1
v 0.3 0.5 0
v 0.3 0.7 -0.1
v 0.3 0.7 -0.2
v 0.3 0.7 -0.3
v 0.3 0.7 -0.5
v 0.3 0.8 0.1
v 0.3 0.8 0
v 0.3 0.8 -0.1
v 0.3 0.8 -0.2
v 0.3 0.8 -0.3
v 0.3 0.9 -0.2
v 0.3 0.9 -0.3
v 0.3 1 0
v 0.3 1 -0.1
v 0.3 1.1 -0.4
v 0.3 1.1 -0.6
v 0.3 1.3 -0.5
v 0.3 1.3 -0.6
v 0.3 1.4 -0.3
v 0.3 1.4 -0.4
v 0.3 1.4 -0.5
v 0.3 1.4 -0.6
v 0.3 1.6 -0.2
v 0.3 1.6 -0.3
v 0.3 1.8 -0.2
v 0.3 1.8 -0.6
v 0.4 0.2 0.2
v 0.4 0.2 0.1
v 0.4 0.2 -0.5
v 0.4 0.2 -0.6
v 0.4 0.3 0.2
v 0.4 0.3 0.1
v 0.4 0.3 -0.5
v 0.4 0.3 -0.6
v 0.4 0.4 0.1
v 0.4 0.4 0
v 0.4 0.5 0.1
v 0.4 0.5 0
v 0.4 0.7 -0.3
v 0.4 0.7 -0.4
v 0.4 0.7 -0.5
v 0.4 0.8 -0.3
v 0.4 0.8 -0.4
v 0.4 0.8 -0.5
v 0.4 0.9 -0.3
v 0.4 0.9 -0.5
v 0.5 0.9 -0.3
v 0.5 0.9 -0.4
v 0.5 1 -0.3
v 0.5 1 -0.4
v 0.5 1.1 -0.3
v 0.5 1.1 -0.4
v 0.3 1 -0.3
v 0.3 1 -0.4
v 0.3 1.1 0
v 0.3 1.1 -0.1
v 0.3 1.1 -0.3
v 0.3 1.1 -0.4
v 0.3 1.2 -0.1
v 0.3 1.3 0
v 0.3 1.3 -0.1
v 0.5 0.1 0.2
v 0.5 0.1 0.1
v 0.5 0.2 0.1
v 0.5 0.2 -0.2
v 0.5 0.3 0.2
v 0.5 0.3 0.1
v 0.5 0.4 0.1
v 0.5 0.4 -0.2
v 0.5 0.5 0.1
v 0.5 0.5 0
v 0.5 0.7 0
v 0.5 0.7 -0.1
v 0.5 0.7 -0.4
v 0.5 0.7 -0.5
v 0.5 0.8 0.1
v 0.5 0.8 0
v 0.5 0.8 -0.1
v 0.5 0.8 -0.4
v 0.5 0.8 -0.5
v 0.5 0.9 -0.1
v 0.5 0.9 -0.4
v 0.5 0.9 -0.5
v 0.5 1.1 0
v 0.5 1.1 -0.1
v 0.5 1.4 -0.1
v 0.5 1.4 -0.2
v 0.5 1.4 -0.3
v 0.5 1.5 -0.1
v 0.5 1.5 -0.2
v 0.5 1.6 -0.3
v 0.5 1.6 -0.4
v 0.5 1.7 -0.4
v 0.5 1.7 -0.5
v 0.5 1.8 -0.2
v 0.5 1.8 -0.5
v 0.6 0 0.2
v 0.6 0 -0.4
v 0.6 0.1 0.2
v 0.6 0.1 0.1
v 0.6 0.1 -0.3
v 0.6 0.1 -0.4
v 0.6 0.2 0.1
v 0.6 0.2 -0.2
v 0.6 0.2 -0.3
v 0.6 0.2 -0.5
v 0.6 0.2 -0.6
v 0.6 0.3 -0.2
v 0.6 0.3 -0.4
v 0.6 0.3 -0.5
v 0.6 0.3 -0.6
v 0.6 0.4 0.1
v 0.6 0.4 -0.2
v 0.6 0.5 0.1
v 0.6 0.5 0
v 0.6 0.7 0
v 0.6 0.7 -0.1
v 0.6 0.7 -0.3
v 0.6 0.7 -0.4
v 0.6 0.7 -0.5
v 0.6 1 -0.3
v 0.6 1 -0.4
v 0.6 1.1 -0.4
v 0.6 1.1 -0.6
v 0.6 1.3 -0.4
v 0.6 1.3 -0.5
v 0.6 1.3 -0.6
v 0.6 1.4 -0.5
v 0.6 1.4 -0.6
v 0.6 1.6 -0.4
v 0.6 1.6 -0.5
v 0.6 1.7 -0.4
v 0.6 1.7 -0.5
v 0.6 1.8 -0.5
v 0.6 1.8 -0.6
v 0.7 0 -0.4
v 0.7 0 -0.7
v 0.7 0.1 -0.3
v 0.7 0.1 -0.4
v 0.7 0.1 -0.5
v 0.7 0.1 -0.6
v 0.7 0.1 -0.7
v 0.7 0.2 -0.2
v 0.7 0.2 -0.3
v 0.7 0.2 -0.4
v 0.7 0.2 -0.5
v 0.7 0.2 -0.6
v 0.7 0.3 -0.2
v 0.7 0.3 -0.4
v 0.7 0.3 -0.5
v 0.7 0.7 -0.1
v 0.7 0.7 -0.3
v 0.7 1 -0.3
v 0.7 1 -0.4
v 0.7 1.2 -0.1
v 0.7 1.2 -0.2
v 0.7 1.3 -0.1
v 0.7 1.3 -0.2
v 0.7 1.3 -0.4
v 0.7 1.3 -0.5
v 0.7 1.4 -0.1
v 0.7 1.4 -0.3
v 0.7 1.4 -0.4
v 0.7 1.4 -0.5
v 0.7 1.6 -0.3
v 0.7 1.6 -0.5
v 0.2 0 0.2
v 0.2 0.2 0.2
v 0.3 0.1 0.2
v 0.3 0.2 0.2
v 0.4 0.2 0.2
v 0.4 0.3 0.2
v 0.5 0.1 0.2
v 0.5 0.3 0.2
v 0.6 0 0.2
v 0.6 0.1 0.2
v 0.2 0.2 0.1
v 0.2 0.4 0.1
v 0.3 0.2 0.1
v 0.3 0.5 0.1
v 0.3 0.8 0.1
v 0.4 0.2 0.1
v 0.4 0.3 0.1
v 0.4 0.4 0.1
v 0.4 0.5 0.1
v 0.5 0.1 0.1
v 0.5 0.2 0.1
v 0.5 0.3 0.1
v 0.5 0.4 0.1
v 0.5 0.5 0.1
v 0.5 0.8 0.1
v 0.6 0.1 0.1
v 0.6 0.2 0.1
v 0.6 0.4 0.1
v 0.6 0.5 0.1
v 0.2 1 0
v 0.2 1.3 0
v 0.3 0.4 0
v 0.3 0.5 0
v 0.3 0.8 0
v 0.3 1 0
v 0.3 1.1 0
v 0.3 1.3 0
v 0.4 0.4 0
v 0.4 0.5 0
v 0.5 0.5 0
v 0.5 0.7 0
v 0.5 0.8 0
v 0.5 1.1 0
v 0.6 0.5 0
v 0.6 0.7 0
v 0.2 0.7 -0.1
v 0.2 0.8 -0.1
v 0.2 1 -0.1
v 0.2 1.3 -0.1
v 0.2 1.5 -0.1
v 0.3 0.7 -0.1
v 0.3 0.8 -0.1
v 0.3 1 -0.1
v 0.3 1.1 -0.1
v 0.3 1.2 -0.1
v 0.3 1.3 -0.1
v 0.3 1.4 -0.1
v 0.4 1.2 -0.1
v 0.4 1.3 -0.1
v 0.5 0.7 -0.1
v 0.5 0.8 -0.1
v 0.5 0.9 -0.1
v 0.5 1.1 -0.1
v 0.5 1.2 -0.1
v 0.5 1.3 -0.1
v 0.5 1.4 -0.1
v 0.5 1.5 -0.1
v 0.6 0.7 -0.1
v 0.6 0.9 -0.1
v 0.6 1.1 -0.1
v 0.6 1.3 -0.1
v 0.6 1.4 -0.1
v 0.7 0.7 -0.1
v 0.7 1.2 -0.1
v 0.7 1.3 -0.1
v 0.7 1.4 -0.1
v 0.2 1.5 -0.2
v 0.2 1.6 -0.2
v 0.3 1.6 -0.2
v 0.3 1.8 -0.2
v 0.5 0.2 -0.2
v 0.5 0.4 -0.2
v 0.5 1.5 -0.2
v 0.5 1.8 -0.2
v 0.6 0.2 -0.2
v 0.6 0.3 -0.2
v 0.6 0.4 -0.2
v 0.7 0.2 -0.2
v 0.7 0.3 -0.2
v 0.2 0.1 -0.3
v 0.2 0.2 -0.3
v 0.3 0.1 -0.3
v 0.3 0.2 -0.3
v 0.5 1.4 -0.3
v 0.5 1.6 -0.3
v 0.6 0.1 -0.3
v 0.6 0.2 -0.3
v 0.7 0.1 -0.3
v 0.7 0.2 -0.3
v 0.7 1.4 -0.3
v 0.7 1.6 -0.3
v 0.5 1.6 -0.4
v 0.5 1.7 -0.4
v 0.6 0 -0.4
v 0.6 0.1 -0.4
v 0.6 1.6 -0.4
v 0.6 1.7 -0.4
v 0.7 0 -0.4
v 0.7 0.1 -0.4
v 0.2 0 -0.5
v 0.2 0.1 -0.5
v 0.3 0 -0.5
v 0.3 0.1 -0.5
v 0.5 1.7 -0.5
v 0.5 1.8 -0.5
v 0.6 1.7 -0.5
v 0.6 1.8 -0.5
v 0.2 0 -0.1
v 0.2 0.2 -0.1
v 0.3 0 -0.1
v 0.3 0.2 -0.1
v 0.2 0.7 -0.2
v 0.2 0.8 -0.2
v 0.2 0.9 -0.2
v 0.3 0.7 -0.2
v 0.3 0.8 -0.2
v 0.3 0.9 -0.2
v 0.2 0.9 -0.3
v 0.2 1 -0.3
v 0.2 1.4 -0.3
v 0.2 1.6 -0.3
v 0.3 0.7 -0.3
v 0.3 0.8 -0.3
v 0.3 0.9 -0.3
v 0.3 1 -0.3
v 0.3 1.1 -0.3
v 0.3 1.4 -0.3
v 0.3 1.6 -0.3
v 0.4 0.7 -0.3
v 0.4 0.8 -0.3
v 0.4 0.9 -0.3
v 0.5 0.9 -0.3
v 0.5 1 -0.3
v 0.5 1.1 -0.3
v 0.6 0.7 -0.3
v 0.6 1 -0.3
v 0.7 0.7 -0.3
v 0.7 1 -0.3
v 0.2 0.2 -0.4
v 0.2 0.4 -0.4
v 0.2 1 -0.4
v 0.2 1.1 -0.4
v 0.2 1.4 -0.4
v 0.3 0.2 -0.4
v 0.3 0.4 -0.4
v 0.3 1 -0.4
v 0.3 1.1 -0.4
v 0.3 1.4 -0.4
v 0.5 0.7 -0.4
v 0.5 0.8 -0.4
v 0.5 0.9 -0.4
v 0.5 1 -0.4
v 0.5 1.1 -0.4
v 0.6 0.7 -0.4
v 0.6 1 -0.4
v 0.6 1.1 -0.4
v 0.6 1.3 -0.4
v 0.7 1 -0.4
v 0.7 1.3 -0.4
v 0.3 0.2 -0.5
v 0.3 0.7 -0.5
v 0.4 0.2 -0.5
v 0.4 0.3 -0.5
v 0.4 0.7 -0.5
v 0.4 0.8 -0.5
v 0.4 0.9 -0.5
v 0.5 0.7 -0.5
v 0.5 0.8 -0.5
v 0.5 0.9 -0.5
v 0.6 0.2 -0.5
v 0.6 0.3 -0.5
v 0.6 0.7 -0.5
v 0.6 1.3 -0.5
v 0.6 1.4 -0.5
v 0.6 1.6 -0.5
v 0.7 0.2 -0.5
v 0.7 0.3 -0.5
v 0.7 1.3 -0.5
v 0.7 1.4 -0.5
v 0.7 1.6 -0.5
v 0.2 0.1 -0.6
v 0.2 0.2 -0.6
v 0.3 1.1 -0.6
v 0.3 1.3 -0.6
v 0.3 1.4 -0.6
v 0.3 1.8 -0.6
v 0.4 0.2 -0.6
v 0.4 0.3 -0.6
v 0.6 0.2 -0.6
v 0.6 0.3 -0.6
v 0.6 1.1 -0.6
v 0.6 1.3 -0.6
v 0.6 1.4 -0.6
v 0.6 1.8 -0.6
v 0.7 0.1 -0.6
v 0.7 0.2 -0.6
v 0.2 0 -0.7
v 0.2 0.1 -0.7
v 0.7 0 -0.7
v 0.7 0.1 -0.7
v 0.2 0 0.2
v 0.6 0 0.2
v 0.3 0 0.1
v 0.5 0 0.1
v 0.2 0 -0.1
v 0.3 0 -0.1
v 0.4 0 -0.1
v 0.3 0 -0.4
v 0.4 0 -0.4
v 0.5 0 -0.4
v 0.6 0 -0.4
v 0.7 0 -0.4
v 0.2 0 -0.5
v 0.3 0 -0.5
v 0.3 0 -0.6
v 0.6 0 -0.6
v 0.2 0 -0.7
v 0.7 0 -0.7
v 0.2 0.1 -0.3
v 0.3 0.1 -0.3
v 0.6 0.1 -0.3
v 0.7 0.1 -0.3
v 0.3 0.1 -0.4
v 0.6 0.1 -0.4
v 0.7 0.1 -0.4
v 0.2 0.1 -0.5
v 0.3 0.1 -0.5
v 0.2 0.2 -0.1
v 0.3 0.2 -0.1
v 0.3 0.2 -0.2
v 0.6 0.2 -0.2
v 0.7 0.2 -0.2
v 0.2 0.2 -0.3
v 0.3 0.2 -0.3
v 0.6 0.2 -0.3
v 0.7 0.2 -0.3
v 0.5 0.4 0.1
v 0.6 0.4 0.1
v 0.5 0.4 -0.2
v 0.6 0.4 -0.2
v 0.3 0.5 0.1
v 0.4 0.5 0.1
v 0.3 0.5 0
v 0.4 0.5 0
v 0.2 0.7 -0.1
v 0.3 0.7 -0.1
v 0.6 0.7 -0.1
v 0.7 0.7 -0.1
v 0.2 0.7 -0.2
v 0.3 0.7 -0.2
v 0.6 0.7 -0.3
v 0.7 0.7 -0.3
v 0.2 0.9 -0.2
v 0.3 0.9 -0.2
v 0.2 0.9 -0.3
v 0.3 0.9 -0.3
v 0.2 1 0
v 0.3 1 0
v 0.2 1 -0.1
v 0.3 1 -0.1
v 0.2 1 -0.3
v 0.3 1 -0.3
v 0.6 1 -0.3
v 0.7 1 -0.3
v 0.2 1 -0.4
v 0.3 1 -0.4
v 0.6 1 -0.4
v 0.7 1 -0.4
v 0.3 1.1 -0.3
v 0.5 1.1 -0.3
v 0.3 1.1 -0.4
v 0.5 1.1 -0.4
v 0.6 1.1 -0.4
v 0.3 1.1 -0.6
v 0.6 1.1 -0.6
v 0.6 1.3 -0.4
v 0.7 1.3 -0.4
v 0.6 1.3 -0.5
v 0.7 1.3 -0.5
v 0.5 0.1 0.2
v 0.6 0.1 0.2
v 0.5 0.1 0.1
v 0.6 0.1 0.1
v 0.2 0.1 -0.6
v 0.7 0.1 -0.6
v 0.2 0.1 -0.7
v 0.7 0.1 -0.7
v 0.2 0.2 0.2
v 0.3 0.2 0.2
v 0.4 0.2 0.2
v 0.2 0.2 0.1
v 0.3 0.2 0.1
v 0.4 0.2 0.1
v 0.5 0.2 0.1
v 0.6 0.2 0.1
v 0.5 0.2 -0.2
v 0.6 0.2 -0.2
v 0.2 0.2 -0.4
v 0.3 0.2 -0.4
v 0.3 0.2 -0.5
v 0.4 0.2 -0.5
v 0.6 0.2 -0.5
v 0.7 0.2 -0.5
v 0.2 0.2 -0.6
v 0.4 0.2 -0.6
v 0.6 0.2 -0.6
v 0.7 0.2 -0.6
v 0.4 0.3 0.2
v 0.5 0.3 0.2
v 0.4 0.3 0.1
v 0.5 0.3 0.1
v 0.6 0.3 -0.2
v 0.7 0.3 -0.2
v 0.6 0.3 -0.4
v 0.7 0.3 -0.4
v 0.4 0.3 -0.5
v 0.6 0.3 -0.5
v 0.7 0.3 -0.5
v 0.4 0.3 -0.6
v 0.6 0.3 -0.6
v 0.2 0.4 0.1
v 0.4 0.4 0.1
v 0.3 0.4 0
v 0.4 0.4 0
v 0.2 0.4 -0.4
v 0.3 0.4 -0.4
v 0.5 0.5 0.1
v 0.6 0.5 0.1
v 0.5 0.5 0
v 0.6 0.5 0
v 0.5 0.7 0
v 0.6 0.7 0
v 0.5 0.7 -0.1
v 0.6 0.7 -0.1
v 0.3 0.7 -0.3
v 0.4 0.7 -0.3
v 0.4 0.7 -0.4
v 0.5 0.7 -0.4
v 0.6 0.7 -0.4
v 0.3 0.7 -0.5
v 0.4 0.7 -0.5
v 0.5 0.7 -0.5
v 0.6 0.7 -0.5
v 0.3 0.8 0.1
v 0.5 0.8 0.1
v 0.3 0.8 0
v 0.5 0.8 0
v 0.4 0.9 -0.3
v 0.5 0.9 -0.3
v 0.5 0.9 -0.4
v 0.4 0.9 -0.5
v 0.5 0.9 -0.5
v 0.3 1.1 0
v 0.5 1.1 0
v 0.3 1.1 -0.1
v 0.5 1.1 -0.1
v 0.2 1.3 0
v 0.3 1.3 0
v 0.2 1.3 -0.1
v 0.3 1.3 -0.1
v 0.5 1.4 -0.1
v 0.6 1.4 -0.1
v 0.7 1.4 -0.1
v 0.5 1.4 -0.2
v 0.6 1.4 -0.2
v 0.2 1.4 -0.3
v 0.3 1.4 -0.3
v 0.5 1.4 -0.3
v 0.7 1.4 -0.3
v 0.2 1.4 -0.4
v 0.3 1.4 -0.4
v 0.2 1.5 -0.1
v 0.5 1.5 -0.1
v 0.2 1.5 -0.2
v 0.5 1.5 -0.2
v 0.2 1.6 -0.2
v 0.3 1.6 -0.2
v 0.2 1.6 -0.3
v 0.3 1.6 -0.3
v 0.5 1.6 -0.3
v 0.7 1.6 -0.3
v 0.5 1.6 -0.4
v 0.6 1.6 -0.4
v 0.6 1.6 -0.5
v 0.7 1.6 -0.5
v 0.5 1.7 -0.4
v 0.6 1.7 -0.4
v 0.5 1.7 -0.5
v 0.6 1.7 -0.5
v 0.3 1.8 -0.2
v 0.5 1.8 -0.2
v 0.5 1.8 -0.5
v 0.6 1.8 -0.5
v 0.3 1.8 -0.6
v 0.6 1.8 -0.6

# faces
f 6/2/1 4/2/1 3/2/1
f 7/2/1 4/2/1 6/2/1
f 8/2/1 4/2/1 7/2/1
f 9/2/1 2/2/1 1/2/1
f 10/2/1 2/2/1 9/2/1
f 11/2/1 2/2/1 10/2/1
f 12/2/1 6/2/1 5/2/1
f 12/2/1 7/2/1 6/2/1
f 13/2/1 7/2/1 12/2/1
f 14/2/1 7/2/1 13/2/1
f 15/1/1 11/1/1 10/1/1
f 15/1/1 13/1/1 12/1/1
f 15/1/1 12/1/1 11/1/1
f 16/1/1 13/1/1 15/1/1
f 19/3/1 18/3/1 17/3/1
f 20/3/1 18/3/1 19/3/1
f 21/1/1 20/1/1 19/1/1
f 24/1/1 21/1/1 19/1/1
f 24/1/1 22/1/1 21/1/1
f 25/1/1 22/1/1 24/1/1
f 27/1/1 25/1/1 24/1/1
f 27/3/1 26/3/1 25/3/1
f 28/3/1 26/3/1 27/3/1
f 29/3/1 24/3/1 23/3/1
f 30/1/1 27/1/1 24/1/1
f 30/3/1 24/3/1 29/3/1
f 30/1/1 28/1/1 27/1/1
f 31/1/1 28/1/1 30/1/1
f 32/1/1 28/1/1 31/1/1
f 33/1/1 31/1/1 30/1/1
f 34/1/1 31/1/1 33/1/1
f 35/1/1 31/1/1 34/1/1
f 36/1/1 31/1/1 35/1/1
f 40/2/1 38/2/1 37/2/1
f 41/2/1 38/2/1 40/2/1
f 42/1/1 39/1/1 38/1/1
f 42/2/1 38/2/1 41/2/1
f 43/1/1 39/1/1 42/1/1
f 44/2/1 40/2/1 37/2/1
f 45/1/1 41/1/1 40/1/1
f 45/2/1 40/2/1 44/2/1
f 46/1/1 41/1/1 45/1/1
f 50/1/1 48/1/1 47/1/1
f 52/1/1 50/1/1 49/1/1
f 53/1/1 50/1/1 52/1/1
f 53/1/1 52/1/1 51/1/1
f 54/1/1 50/1/1 53/1/1
f 55/1/1 50/1/1 54/1/1
f 56/1/1 48/1/1 50/1/1
f 56/1/1 50/1/1 55/1/1
f 57/1/1 53/1/1 51/1/1
f 58/1/1 53/1/1 57/1/1
f 59/1/1 53/1/1 58/1/1
f 60/3/1 55/3/1 54/3/1
f 61/3/1 55/3/1 60/3/1
f 62/1/1 61/1/1 60/1/1
f 63/1/1 61/1/1 62/1/1
f 64/3/1 59/3/1 58/3/1
f 65/3/1 59/3/1 64/3/1
f 68/1/1 67/1/1 66/1/1
f 69/1/1 67/1/1 68/1/1
f 71/1/1 68/1/1 66/1/1
f 72/3/1 69/3/1 68/3/1
f 72/1/1 68/1/1 71/1/1
f 73/3/1 69/3/1 72/3/1
f 75/1/1 71/1/1 70/1/1
f 75/1/1 72/1/1 71/1/1
f 75/1/1 73/1/1 72/1/1
f 76/1/1 75/1/1 74/1/1
f 77/1/1 73/1/1 75/1/1
f 77/1/1 75/1/1 76/1/1
f 82/1/1 79/1/1 78/1/1
f 83/1/1 79/1/1 82/1/1
f 84/2/1 81/2/1 80/2/1
f 85/2/1 81/2/1 84/2/1
f 88/1/1 87/1/1 86/1/1
f 89/1/1 87/1/1 88/1/1
f 93/1/1 91/1/1 90/1/1
f 94/3/1 92/3/1 91/3/1
f 94/1/1 91/1/1 93/1/1
f 95/3/1 92/3/1 94/3/1
f 96/1/1 94/1/1 93/1/1
f 96/1/1 95/1/1 94/1/1
f 97/1/1 95/1/1 96/1/1
f 100/1/1 99/1/1 98/1/1
f 101/1/1 99/1/1 100/1/1
f 102/3/1 101/3/1 100/3/1
f 103/3/1 101/3/1 102/3/1
f 104/3/2 105/3/2 108/3/2
f 108/3/2 105/3/2 109/3/2
f 106/3/2 107/3/2 110/3/2
f 106/3/2 110/3/2 111/3/2
f 111/3/2 110/3/2 112/3/2
f 113/1/2 114/1/2 115/1/2
f 113/1/2 115/1/2 117/1/2
f 115/1/2 116/1/2 117/1/2
f 117/1/2 116/1/2 118/1/2
f 118/1/2 116/1/2 119/1/2
f 119/1/2 116/1/2 120/1/2
f 121/1/2 122/1/2 123/1/2
f 123/1/2 124/1/2 127/1/2
f 121/1/2 123/1/2 127/1/2
f 127/1/2 124/1/2 128/1/2
f 128/1/2 124/1/2 129/1/2
f 125/3/2 126/3/2 130/3/2
f 130/3/2 126/3/2 131/3/2
f 128/3/2 129/3/2 132/3/2
f 130/1/2 131/1/2 133/1/2
f 133/1/2 131/1/2 134/1/2
f 128/3/2 132/3/2 135/3/2
f 135/3/2 132/3/2 136/3/2
f 137/1/2 138/1/2 140/1/2
f 138/1/2 139/1/2 140/1/2
f 140/1/2 139/1/2 141/1/2
f 141/1/2 139/1/2 142/1/2
f 142/1/2 143/1/2 144/1/2
f 141/1/2 142/1/2 146/1/2
f 144/1/2 145/1/2 146/1/2
f 142/1/2 144/1/2 146/1/2
f 146/1/2 145/1/2 147/1/2
f 148/2/2 149/2/2 150/2/2
f 150/2/2 149/2/2 151/2/2
f 151/2/2 149/2/2 152/2/2
f 152/2/2 149/2/2 153/2/2
f 151/1/2 152/1/2 154/1/2
f 154/1/2 152/1/2 155/1/2
f 155/1/2 152/1/2 156/1/2
f 157/2/2 158/2/2 161/2/2
f 161/2/2 158/2/2 162/2/2
f 159/1/2 160/1/2 164/1/2
f 160/1/2 161/1/2 164/1/2
f 163/1/2 164/1/2 165/1/2
f 165/1/2 164/1/2 166/1/2
f 166/1/2 164/1/2 167/1/2
f 167/1/2 164/1/2 168/1/2
f 164/1/2 161/1/2 169/1/2
f 168/1/2 164/1/2 169/1/2
f 169/1/2 161/1/2 170/1/2
f 170/1/2 161/1/2 171/1/2
f 169/1/2 170/1/2 172/1/2
f 172/1/2 170/1/2 173/1/2
f 174/1/2 175/1/2 176/1/2
f 176/1/2 175/1/2 177/1/2
f 177/1/2 175/1/2 178/1/2
f 177/3/2 178/3/2 179/3/2
f 179/3/2 178/3/2 180/3/2
f 179/1/2 180/1/2 182/1/2
f 181/1/2 182/1/2 183/1/2
f 182/1/2 180/1/2 184/1/2
f 183/1/2 182/1/2 184/1/2
f 184/1/2 180/1/2 185/1/2
f 185/1/2 180/1/2 186/1/2
f 187/2/2 188/2/2 190/2/2
f 190/2/2 188/2/2 191/2/2
f 191/2/2 188/2/2 192/2/2
f 192/2/2 188/2/2 193/2/2
f 189/2/2 190/2/2 195/2/2
f 190/1/2 191/1/2 196/1/2
f 195/2/2 190/2/2 196/2/2
f 191/2/2 192/2/2 197/2/2
f 196/1/2 191/1/2 197/1/2
f 197/2/2 192/2/2 198/2/2
f 194/1/2 195/1/2 199/1/2
f 195/1/2 196/1/2 199/1/2
f 196/2/2 197/2/2 200/2/2
f 199/1/2 196/1/2 200/1/2
f 200/2/2 197/2/2 201/2/2
f 202/1/2 203/1/2 204/1/2
f 202/1/2 204/1/2 206/1/2
f 204/1/2 205/1/2 206/1/2
f 206/1/2 205/1/2 207/1/2
f 206/3/2 207/3/2 208/3/2
f 207/1/2 205/1/2 209/1/2
f 208/3/2 207/3/2 209/3/2
f 209/1/2 205/1/2 210/1/2
f 208/1/2 209/1/2 212/1/2
f 209/1/2 210/1/2 212/1/2
f 212/1/2 210/1/2 213/1/2
f 210/3/2 211/3/2 214/3/2
f 213/1/2 210/1/2 214/1/2
f 214/3/2 211/3/2 215/3/2
f 213/1/2 214/1/2 216/1/2
f 214/1/2 215/1/2 216/1/2
f 216/1/2 215/1/2 217/1/2
f 220/2/3 219/2/3 218/2/3
f 221/2/3 219/2/3 220/2/3
f 222/1/3 221/1/3 220/1/3
f 224/2/3 220/2/3 218/2/3
f 224/1/3 223/1/3 222/1/3
f 224/1/3 222/1/3 220/1/3
f 225/1/3 223/1/3 224/1/3
f 226/2/3 224/2/3 218/2/3
f 227/2/3 224/2/3 226/2/3
f 230/1/3 229/1/3 228/1/3
f 233/1/3 229/1/3 230/1/3
f 234/1/3 229/1/3 233/1/3
f 235/1/3 229/1/3 234/1/3
f 236/1/3 232/1/3 231/1/3
f 239/1/3 235/1/3 234/1/3
f 239/1/3 236/1/3 235/1/3
f 240/1/3 236/1/3 239/1/3
f 241/1/3 232/1/3 236/1/3
f 241/1/3 236/1/3 240/1/3
f 242/1/3 232/1/3 241/1/3
f 243/1/3 238/1/3 237/1/3
f 244/1/3 238/1/3 243/1/3
f 245/1/3 241/1/3 240/1/3
f 246/1/3 241/1/3 245/1/3
f 252/3/3 248/3/3 247/3/3
f 253/3/3 248/3/3 252/3/3
f 254/3/3 248/3/3 253/3/3
f 255/1/3 250/1/3 249/1/3
f 256/1/3 250/1/3 255/1/3
f 259/3/3 252/3/3 251/3/3
f 259/3/3 253/3/3 252/3/3
f 260/3/3 253/3/3 259/3/3
f 261/1/3 258/1/3 257/1/3
f 262/1/3 258/1/3 261/1/3
f 268/3/3 264/3/3 263/3/3
f 269/1/3 265/1/3 264/1/3
f 269/3/3 264/3/3 268/3/3
f 270/1/3 265/1/3 269/1/3
f 273/1/3 267/1/3 266/1/3
f 274/1/3 267/1/3 273/1/3
f 275/1/3 272/1/3 271/1/3
f 275/3/3 274/3/3 273/3/3
f 275/3/3 273/3/3 272/3/3
f 276/3/3 274/3/3 275/3/3
f 280/1/3 275/1/3 271/1/3
f 280/1/3 276/1/3 275/1/3
f 281/1/3 276/1/3 280/1/3
f 282/3/3 274/3/3 276/3/3
f 282/1/3 276/1/3 281/1/3
f 283/1/3 267/1/3 274/1/3
f 283/3/3 274/3/3 282/3/3
f 284/1/3 267/1/3 283/1/3
f 285/1/3 279/1/3 278/1/3
f 285/1/3 278/1/3 277/1/3
f 286/3/3 280/3/3 279/3/3
f 286/1/3 279/1/3 285/1/3
f 287/1/3 281/1/3 280/1/3
f 287/3/3 280/3/3 286/3/3
f 288/3/3 282/3/3 281/3/3
f 288/3/3 283/3/3 282/3/3
f 289/3/3 283/3/3 288/3/3
f 290/1/3 287/1/3 286/1/3
f 290/1/3 286/1/3 285/1/3
f 291/1/3 281/1/3 287/1/3
f 291/1/3 287/1/3 290/1/3
f 291/3/3 288/3/3 281/3/3
f 292/1/3 289/1/3 288/1/3
f 292/3/3 288/3/3 291/3/3
f 293/1/3 289/1/3 292/1/3
f 296/1/3 295/1/3 294/1/3
f 300/1/3 296/1/3 294/1/3
f 300/1/3 297/1/3 296/1/3
f 301/1/3 297/1/3 300/1/3
f 302/1/3 299/1/3 298/1/3
f 303/1/3 299/1/3 302/1/3
f 304/1/3 299/1/3 303/1/3
f 305/1/3 303/1/3 302/1/3
f 306/1/3 303/1/3 305/1/3
f 309/2/3 308/2/3 307/2/3
f 310/2/3 308/2/3 309/2/3
f 315/2/3 314/2/3 313/2/3
f 316/2/3 314/2/3 315/2/3
f 317/1/3 312/1/3 311/1/3
f 318/1/3 312/1/3 317/1/3
f 323/1/3 320/1/3 319/1/3
f 324/1/3 320/1/3 323/1/3
f 325/2/3 322/2/3 321/2/3
f 326/2/3 322/2/3 325/2/3
f 329/2/3 328/2/3 327/2/3
f 330/2/3 328/2/3 329/2/3
f 333/1/3 332/1/3 331/1/3
f 334/1/3 332/1/3 333/1/3
f 335/2/4 336/2/4 337/2/4
f 337/2/4 336/2/4 338/2/4
f 339/3/4 340/3/4 342/3/4
f 340/1/4 341/1/4 343/1/4
f 342/3/4 340/3/4 343/3/4
f 343/1/4 341/1/4 344/1/4
f 345/1/4 346/1/4 351/1/4
f 351/1/4 346/1/4 352/1/4
f 347/1/4 348/1/4 354/1/4
f 354/1/4 348/1/4 355/1/4
f 349/3/4 350/3/4 356/3/4
f 350/1/4 351/1/4 357/1/4
f 356/3/4 350/3/4 357/3/4
f 351/1/4 352/1/4 357/1/4
f 357/1/4 352/1/4 358/1/4
f 358/1/4 352/1/4 359/1/4
f 352/3/4 353/3/4 360/3/4
f 359/1/4 352/1/4 360/1/4
f 360/3/4 353/3/4 361/3/4
f 362/1/4 363/1/4 364/1/4
f 364/1/4 363/1/4 365/1/4
f 366/1/4 367/1/4 371/1/4
f 371/1/4 367/1/4 372/1/4
f 368/3/4 369/3/4 373/3/4
f 369/1/4 370/1/4 374/1/4
f 373/3/4 369/3/4 374/3/4
f 374/1/4 370/1/4 375/1/4
f 376/1/4 377/1/4 381/1/4
f 377/1/4 378/1/4 381/1/4
f 378/1/4 379/1/4 381/1/4
f 379/3/4 380/3/4 382/3/4
f 381/1/4 379/1/4 382/1/4
f 382/3/4 380/3/4 383/3/4
f 383/1/4 384/1/4 385/1/4
f 382/1/4 383/1/4 385/1/4
f 385/1/4 384/1/4 386/1/4
f 387/1/4 388/1/4 389/1/4
f 389/1/4 388/1/4 390/1/4
f 390/1/4 388/1/4 391/1/4
f 390/1/4 391/1/4 394/1/4
f 391/3/4 392/3/4 394/3/4
f 392/1/4 393/1/4 395/1/4
f 394/3/4 392/3/4 395/3/4
f 395/1/4 393/1/4 396/1/4
f 390/1/4 394/1/4 398/1/4
f 398/1/4 394/1/4 399/1/4
f 397/2/4 398/2/4 403/2/4
f 403/2/4 398/2/4 404/2/4
f 400/3/4 401/3/4 405/3/4
f 401/1/4 402/1/4 406/1/4
f 405/3/4 401/3/4 406/3/4
f 406/1/4 402/1/4 407/1/4
f 408/2/4 409/2/4 414/2/4
f 408/2/4 414/2/4 416/2/4
f 414/2/4 415/2/4 416/2/4
f 416/2/4 415/2/4 417/2/4
f 410/1/4 411/1/4 418/1/4
f 411/3/4 412/3/4 419/3/4
f 418/1/4 411/1/4 419/1/4
f 412/1/4 413/1/4 420/1/4
f 419/3/4 412/3/4 420/3/4
f 420/1/4 413/1/4 421/1/4
f 408/2/4 416/2/4 422/2/4
f 422/2/4 416/2/4 423/2/4
f 424/2/4 425/2/4 426/2/4
f 426/2/4 425/2/4 427/2/4
f 430/2/5 429/2/5 428/2/5
f 431/2/5 429/2/5 430/2/5
f 432/2/5 430/2/5 428/2/5
f 433/1/5 431/1/5 430/1/5
f 433/2/5 430/2/5 432/2/5
f 434/1/5 431/1/5 433/1/5
f 435/2/5 434/2/5 433/2/5
f 436/1/5 431/1/5 434/1/5
f 436/2/5 434/2/5 435/2/5
f 437/2/5 429/2/5 431/2/5
f 437/1/5 431/1/5 436/1/5
f 438/2/5 429/2/5 437/2/5
f 441/1/5 436/1/5 435/1/5
f 441/1/5 437/1/5 436/1/5
f 441/1/5 438/1/5 437/1/5
f 442/1/5 438/1/5 441/1/5
f 442/2/5 441/2/5 440/2/5
f 443/2/5 439/2/5 438/2/5
f 443/1/5 438/1/5 442/1/5
f 444/2/5 442/2/5 440/2/5
f 444/2/5 443/2/5 442/2/5
f 445/2/5 439/2/5 443/2/5
f 445/2/5 443/2/5 444/2/5
f 450/2/5 447/2/5 446/2/5
f 451/2/5 449/2/5 448/2/5
f 452/2/5 449/2/5 451/2/5
f 453/2/5 450/2/5 446/2/5
f 454/2/5 450/2/5 453/2/5
f 457/1/5 456/1/5 455/1/5
f 460/1/5 457/1/5 455/1/5
f 461/1/5 457/1/5 460/1/5
f 462/1/5 459/1/5 458/1/5
f 463/1/5 459/1/5 462/1/5
f 466/1/5 465/1/5 464/1/5
f 467/1/5 465/1/5 466/1/5
f 470/1/5 469/1/5 468/1/5
f 471/1/5 469/1/5 470/1/5
f 476/3/5 473/3/5 472/3/5
f 477/3/5 473/3/5 476/3/5
f 478/1/5 475/1/5 474/1/5
f 479/1/5 475/1/5 478/1/5
f 482/1/5 481/1/5 480/1/5
f 483/1/5 481/1/5 482/1/5
f 486/3/5 485/3/5 484/3/5
f 487/3/5 485/3/5 486/3/5
f 492/3/5 489/3/5 488/3/5
f 493/3/5 489/3/5 492/3/5
f 494/1/5 491/1/5 490/1/5
f 495/1/5 491/1/5 494/1/5
f 498/1/5 497/1/5 496/1/5
f 499/1/5 497/1/5 498/1/5
f 501/1/5 499/1/5 498/1/5
f 501/1/5 500/1/5 499/1/5
f 502/1/5 500/1/5 501/1/5
f 505/3/5 504/3/5 503/3/5
f 506/3/5 504/3/5 505/3/5
f 507/2/6 508/2/6 509/2/6
f 509/2/6 508/2/6 510/2/6
f 511/2/6 512/2/6 513/2/6
f 513/2/6 512/2/6 514/2/6
f 515/2/6 516/2/6 518/2/6
f 516/1/6 517/1/6 519/1/6
f 518/2/6 516/2/6 519/2/6
f 519/1/6 517/1/6 520/1/6
f 521/1/6 522/1/6 523/1/6
f 523/1/6 522/1/6 524/1/6
f 525/2/6 526/2/6 527/2/6
f 527/2/6 528/2/6 531/2/6
f 525/2/6 527/2/6 531/2/6
f 531/2/6 528/2/6 532/2/6
f 529/2/6 530/2/6 533/2/6
f 533/2/6 530/2/6 534/2/6
f 535/1/6 536/1/6 537/1/6
f 537/1/6 536/1/6 538/1/6
f 539/1/6 540/1/6 541/1/6
f 541/1/6 540/1/6 542/1/6
f 541/2/6 542/2/6 544/2/6
f 544/2/6 542/2/6 545/2/6
f 543/2/6 544/2/6 546/2/6
f 546/2/6 544/2/6 547/2/6
f 548/1/6 549/1/6 550/1/6
f 550/1/6 549/1/6 551/1/6
f 548/1/6 550/1/6 552/1/6
f 552/1/6 550/1/6 553/1/6
f 554/1/6 555/1/6 556/1/6
f 556/1/6 555/1/6 557/1/6
f 558/1/6 559/1/6 560/1/6
f 560/1/6 559/1/6 561/1/6
f 562/1/6 563/1/6 564/1/6
f 562/1/6 564/1/6 567/1/6
f 567/1/6 564/1/6 568/1/6
f 565/1/6 566/1/6 569/1/6
f 569/1/6 566/1/6 570/1/6
f 571/1/6 572/1/6 573/1/6
f 573/1/6 572/1/6 574/1/6
f 575/1/6 576/1/6 577/1/6
f 575/1/6 577/1/6 578/1/6
f 578/1/6 577/1/6 579/1/6
f 580/3/6 581/3/6 582/3/6
f 582/3/6 581/3/6 583/3/6
f 584/3/6 585/3/6 586/3/6
f 586/3/6 585/3/6 587/3/6
f 588/3/6 589/3/6 591/3/6
f 589/1/6 590/1/6 592/1/6
f 591/3/6 589/3/6 592/3/6
f 591/1/6 592/1/6 595/1/6
f 592/1/6 590/1/6 596/1/6
f 595/1/6 592/1/6 596/1/6
f 593/1/6 594/1/6 597/1/6
f 597/1/6 594/1/6 598/1/6
f 599/1/6 600/1/6 601/1/6
f 601/1/6 600/1/6 602/1/6
f 603/1/6 604/1/6 605/1/6
f 605/1/6 604/1/6 606/1/6
f 607/1/6 608/1/6 609/1/6
f 609/1/6 608/1/6 610/1/6
f 610/1/6 608/1/6 611/1/6
f 611/1/6 608/1/6 612/1/6
f 613/1/6 614/1/6 615/1/6
f 615/1/6 614/1/6 616/1/6
f 617/1/6 618/1/6 619/1/6
f 617/1/6 619/1/6 621/1/6
f 619/1/6 620/1/6 621/1/6
f 621/1/6 620/1/6 622/1/6
