# MagicaVoxel @ Ephtracy

# group
o 

# material
mtllib mob1-3.mtl
usemtl palette

# normals
vn -1 0 0
vn 1 0 0
vn 0 0 1
vn 0 0 -1
vn 0 -1 0
vn 0 1 0

# texcoords
vt 0.943359 0.5
vt 0.974609 0.5
vt 0.982422 0.5
vt 0.986328 0.5

# verts
v -1.5 0.9 0
v -1.5 0.9 -0.3
v -1.5 1 0.1
v -1.5 1 0
v -1.5 1 -0.3
v -1.5 1 -0.4
v -1.5 1.4 0.1
v -1.5 1.4 0
v -1.5 1.5 0
v -1.5 1.5 -0.3
v -1.5 1.6 -0.1
v -1.5 1.6 -0.3
v -1.5 1.6 -0.4
v -1.5 1.7 0
v -1.5 1.7 -0.1
v -1.5 1.8 -0.1
v -1.5 1.8 -0.3
v -1.5 1.9 -0.2
v -1.5 1.9 -0.3
v -1.5 2 0
v -1.5 2 -0.1
v -1.5 2 -0.2
v -1.5 2.3 0
v -1.5 2.3 -0.2
v -1.5 2.3 -0.3
v -1.5 2.4 -0.1
v -1.5 2.4 -0.2
v -1.5 2.5 -0.1
v -1.5 2.5 -0.2
v -1.5 2.6 0
v -1.5 2.6 -0.2
v -1.5 2.8 -0.1
v -1.5 2.8 -0.2
v -1.5 2.9 0
v -1.5 2.9 -0.1
v -1.5 2.9 -0.3
v -1.4 0.9 0.1
v -1.4 0.9 0
v -1.4 0.9 -0.3
v -1.4 0.9 -0.4
v -1.4 1 0.1
v -1.4 1 0
v -1.4 1 -0.3
v -1.4 1 -0.4
v -1.4 1.4 0.1
v -1.4 1.4 0
v -1.4 1.5 0
v -1.4 1.6 0.1
v -1.4 1.6 0
v -1.4 1.6 -0.3
v -1.4 1.6 -0.4
v -1.4 1.7 0.1
v -1.4 1.7 0
v -1.4 1.7 -0.1
v -1.4 1.8 0
v -1.4 1.8 -0.1
v -1.4 1.8 -0.3
v -1.4 1.9 0.1
v -1.4 1.9 0
v -1.4 1.9 -0.3
v -1.4 1.9 -0.4
v -1.4 2 0
v -1.4 2 -0.1
v -1.4 2.1 0.1
v -1.4 2.1 0
v -1.4 2.2 -0.2
v -1.4 2.2 -0.4
v -1.4 2.3 0
v -1.4 2.3 -0.2
v -1.4 2.3 -0.3
v -1.4 2.5 0.1
v -1.4 2.5 0
v -1.4 2.6 0
v -1.4 2.9 0.1
v -1.4 2.9 0
v -1.4 2.9 -0.1
v -1.4 2.9 -0.3
v -1.4 2.9 -0.4
v -1.4 3.4 0
v -1.4 3.4 -0.3
v -1.3 1.9 0.1
v -1.3 1.9 0
v -1.3 1.9 -0.2
v -1.3 1.9 -0.3
v -1.3 1.9 -0.4
v -1.3 2 0
v -1.3 2 -0.2
v -1.3 2 -0.3
v -1.3 2.1 0.1
v -1.3 2.1 0
v -1.3 2.2 -0.2
v -1.3 2.2 -0.4
v -1.1 1.1 -0.3
v -1.1 1.1 -0.4
v -1.1 1.2 -0.2
v -1.1 1.2 -0.3
v -1.1 1.2 -0.4
v -1.1 1.4 -0.2
v -1.1 1.4 -0.3
v -1 1.2 -0.3
v -1 1.2 -0.4
v -1 1.4 -0.3
v -1 1.4 -0.4
v -1 1.7 0
v -1 1.7 -0.1
v -1 1.9 0
v -1 1.9 -0.1
v -1 2 0
v -1 2 -0.1
v -1.3 1.1 -0.3
v -1.3 1.1 -0.4
v -1.3 1.2 -0.2
v -1.3 1.2 -0.3
v -1.3 1.4 -0.2
v -1.3 1.4 -0.3
v -1.3 1.6 -0.3
v -1.3 1.6 -0.4
v -1.2 1.6 0.1
v -1.2 1.6 0
v -1.2 1.6 -0.3
v -1.2 1.6 -0.4
v -1.2 1.7 0
v -1.2 1.7 -0.1
v -1.2 1.7 -0.3
v -1.2 1.7 -0.4
v -1.2 1.8 0.1
v -1.2 1.8 0
v -1.2 2 0
v -1.2 2 -0.1
v -1.2 2.2 0.1
v -1.2 2.2 0
v -1.2 2.2 -0.3
v -1.2 2.2 -0.4
v -1.2 2.5 0.1
v -1.2 2.5 0
v -1.2 2.6 -0.3
v -1.2 2.6 -0.4
v -1.2 2.8 -0.2
v -1.2 2.8 -0.4
v -1.2 2.9 -0.3
v -1.2 2.9 -0.4
v -1.2 3 -0.2
v -1.2 3 -0.3
v -1.1 0.9 0.1
v -1.1 0.9 0
v -1.1 0.9 -0.3
v -1.1 0.9 -0.4
v -1.1 1 0.1
v -1.1 1 0
v -1.1 1 -0.3
v -1.1 1 -0.4
v -1.1 1.5 0.1
v -1.1 1.5 0
v -1.1 1.6 0.1
v -1.1 1.6 0
v -1.1 2.5 0.1
v -1.1 2.5 0
v -1.1 2.6 -0.1
v -1.1 2.6 -0.3
v -1.1 2.7 -0.3
v -1.1 2.7 -0.4
v -1.1 2.8 -0.2
v -1.1 2.8 -0.4
v -1.1 2.9 0.1
v -1.1 2.9 0
v -1.1 2.9 -0.1
v -1.1 2.9 -0.2
v -1.1 3 -0.2
v -1.1 3 -0.3
v -1.1 3.2 -0.2
v -1.1 3.2 -0.3
v -1 0.9 -0.2
v -1 0.9 -0.3
v -1 1 -0.2
v -1 1 -0.3
v -1 1.4 -0.1
v -1 1.4 -0.3
v -1 1.6 -0.1
v -1 1.6 -0.2
v -1 1.6 -0.3
v -1 1.7 -0.3
v -1 1.7 -0.4
v -1 1.8 -0.3
v -1 1.8 -0.4
v -1 2.2 -0.3
v -1 2.2 -0.4
v -1 2.6 -0.2
v -1 2.6 -0.3
v -1 2.6 -0.4
v -1 2.7 -0.3
v -1 2.7 -0.4
v -1 2.9 0
v -1 2.9 -0.1
v -1 2.9 -0.2
v -1 3.2 -0.2
v -1 3.2 -0.3
v -1 3.4 0
v -1 3.4 -0.3
v -0.9 0.9 0
v -0.9 0.9 -0.2
v -0.9 1 0.1
v -0.9 1 0
v -0.9 1 -0.2
v -0.9 1 -0.4
v -0.9 1.4 -0.1
v -0.9 1.4 -0.4
v -0.9 1.5 0.1
v -0.9 1.5 0
v -0.9 1.6 0
v -0.9 1.6 -0.1
v -0.9 1.6 -0.2
v -0.9 1.9 0
v -0.9 1.9 -0.1
v -0.9 2.2 0
v -0.9 2.2 -0.1
v -0.9 2.6 -0.1
v -0.9 2.6 -0.2
v -0.9 2.9 0
v -0.9 2.9 -0.1
v -1.5 1 0.1
v -1.5 1.4 0.1
v -1.4 0.9 0.1
v -1.4 1 0.1
v -1.4 1.4 0.1
v -1.4 1.6 0.1
v -1.4 1.7 0.1
v -1.4 1.9 0.1
v -1.4 2.1 0.1
v -1.4 2.5 0.1
v -1.4 2.9 0.1
v -1.3 1.7 0.1
v -1.3 1.8 0.1
v -1.3 1.9 0.1
v -1.3 2.1 0.1
v -1.3 2.2 0.1
v -1.3 2.5 0.1
v -1.2 1.6 0.1
v -1.2 1.8 0.1
v -1.2 2.2 0.1
v -1.2 2.5 0.1
v -1.1 0.9 0.1
v -1.1 1 0.1
v -1.1 1.5 0.1
v -1.1 1.6 0.1
v -1.1 2.5 0.1
v -1.1 2.9 0.1
v -0.9 1 0.1
v -0.9 1.5 0.1
v -1.5 0.9 0
v -1.5 1 0
v -1.5 1.4 0
v -1.5 1.5 0
v -1.5 1.7 0
v -1.5 2 0
v -1.5 2.3 0
v -1.5 2.6 0
v -1.5 2.9 0
v -1.4 0.9 0
v -1.4 1 0
v -1.4 1.4 0
v -1.4 1.5 0
v -1.4 1.6 0
v -1.4 1.7 0
v -1.4 1.9 0
v -1.4 2 0
v -1.4 2.1 0
v -1.4 2.3 0
v -1.4 2.5 0
v -1.4 2.6 0
v -1.4 2.9 0
v -1.4 3.4 0
v -1.3 1.9 0
v -1.3 2 0
v -1.3 2.1 0
v -1.2 1.6 0
v -1.2 1.7 0
v -1.2 2 0
v -1.2 2.2 0
v -1.2 2.5 0
v -1.1 0.9 0
v -1.1 1 0
v -1.1 1.5 0
v -1.1 1.6 0
v -1.1 2.5 0
v -1.1 2.9 0
v -1 1.7 0
v -1 1.9 0
v -1 2 0
v -1 2.9 0
v -1 3.4 0
v -0.9 0.9 0
v -0.9 1 0
v -0.9 1.5 0
v -0.9 1.6 0
v -0.9 1.9 0
v -0.9 2.2 0
v -0.9 2.9 0
v -1.5 1.7 -0.1
v -1.5 1.8 -0.1
v -1.5 2 -0.1
v -1.4 1.7 -0.1
v -1.4 1.8 -0.1
v -1.4 2 -0.1
v -1.2 1.7 -0.1
v -1.2 2 -0.1
v -1.1 1.9 -0.1
v -1.1 2 -0.1
v -1 1.7 -0.1
v -1 1.9 -0.1
v -1 2 -0.1
v -1.1 2.6 -0.3
v -1.1 2.7 -0.3
v -1 2.6 -0.3
v -1 2.7 -0.3
v -1.1 2.6 -0.1
v -1.1 2.9 -0.1
v -1 1.4 -0.1
v -1 1.6 -0.1
v -1 2.9 -0.1
v -0.9 1.4 -0.1
v -0.9 1.6 -0.1
v -0.9 2.6 -0.1
v -0.9 2.9 -0.1
v -1.5 1.9 -0.2
v -1.5 2 -0.2
v -1.5 2.3 -0.2
v -1.4 1.9 -0.2
v -1.4 2.2 -0.2
v -1.4 2.3 -0.2
v -1.3 1.2 -0.2
v -1.3 1.4 -0.2
v -1.3 1.9 -0.2
v -1.3 2 -0.2
v -1.3 2.2 -0.2
v -1.2 2.8 -0.2
v -1.2 3 -0.2
v -1.1 1.2 -0.2
v -1.1 1.4 -0.2
v -1.1 2.8 -0.2
v -1.1 2.9 -0.2
v -1.1 3 -0.2
v -1.1 3.2 -0.2
v -1 0.9 -0.2
v -1 1 -0.2
v -1 1.6 -0.2
v -1 2.6 -0.2
v -1 2.9 -0.2
v -1 3.2 -0.2
v -0.9 0.9 -0.2
v -0.9 1 -0.2
v -0.9 1.6 -0.2
v -0.9 2.6 -0.2
v -1.5 0.9 -0.3
v -1.5 1 -0.3
v -1.5 1.6 -0.3
v -1.5 1.8 -0.3
v -1.5 1.9 -0.3
v -1.5 2.3 -0.3
v -1.5 2.9 -0.3
v -1.4 0.9 -0.3
v -1.4 1 -0.3
v -1.4 1.6 -0.3
v -1.4 1.8 -0.3
v -1.4 1.9 -0.3
v -1.4 2.3 -0.3
v -1.4 2.9 -0.3
v -1.4 3.4 -0.3
v -1.3 1.1 -0.3
v -1.3 1.2 -0.3
v -1.3 1.4 -0.3
v -1.3 1.6 -0.3
v -1.2 1.6 -0.3
v -1.2 1.7 -0.3
v -1.2 2.2 -0.3
v -1.2 2.6 -0.3
v -1.2 2.9 -0.3
v -1.2 3 -0.3
v -1.1 0.9 -0.3
v -1.1 1 -0.3
v -1.1 1.1 -0.3
v -1.1 1.2 -0.3
v -1.1 1.4 -0.3
v -1.1 1.7 -0.3
v -1.1 2.2 -0.3
v -1.1 3 -0.3
v -1.1 3.2 -0.3
v -1 0.9 -0.3
v -1 1 -0.3
v -1 1.2 -0.3
v -1 1.4 -0.3
v -1 1.6 -0.3
v -1 1.7 -0.3
v -1 2.2 -0.3
v -1 2.6 -0.3
v -1 3.2 -0.3
v -1 3.4 -0.3
v -1.5 1 -0.4
v -1.5 1.6 -0.4
v -1.4 0.9 -0.4
v -1.4 1 -0.4
v -1.4 1.6 -0.4
v -1.4 1.9 -0.4
v -1.4 2.2 -0.4
v -1.4 2.9 -0.4
v -1.3 1.1 -0.4
v -1.3 1.6 -0.4
v -1.3 1.9 -0.4
v -1.3 2.2 -0.4
v -1.2 1.6 -0.4
v -1.2 1.7 -0.4
v -1.2 1.9 -0.4
v -1.2 2.2 -0.4
v -1.2 2.6 -0.4
v -1.2 2.8 -0.4
v -1.2 2.9 -0.4
v -1.1 0.9 -0.4
v -1.1 1 -0.4
v -1.1 1.1 -0.4
v -1.1 1.2 -0.4
v -1.1 1.7 -0.4
v -1.1 1.8 -0.4
v -1.1 1.9 -0.4
v -1.1 2.2 -0.4
v -1.1 2.7 -0.4
v -1.1 2.8 -0.4
v -1 1.2 -0.4
v -1 1.4 -0.4
v -1 1.7 -0.4
v -1 1.8 -0.4
v -1 2.2 -0.4
v -1 2.6 -0.4
v -1 2.7 -0.4
v -0.9 1 -0.4
v -0.9 1.4 -0.4
v -1.4 0.9 0.1
v -1.1 0.9 0.1
v -1.5 0.9 0
v -1.4 0.9 0
v -1.1 0.9 0
v -0.9 0.9 0
v -1 0.9 -0.2
v -0.9 0.9 -0.2
v -1.5 0.9 -0.3
v -1.4 0.9 -0.3
v -1.1 0.9 -0.3
v -1 0.9 -0.3
v -1.4 0.9 -0.4
v -1.1 0.9 -0.4
v -1.5 1 0.1
v -1.4 1 0.1
v -1.1 1 0.1
v -0.9 1 0.1
v -1.5 1 0
v -1.4 1 0
v -1.1 1 0
v -0.9 1 0
v -1 1 -0.2
v -0.9 1 -0.2
v -1.5 1 -0.3
v -1.4 1 -0.3
v -1.1 1 -0.3
v -1 1 -0.3
v -1.5 1 -0.4
v -1.4 1 -0.4
v -1.1 1 -0.4
v -0.9 1 -0.4
v -1.3 1.4 -0.2
v -1.1 1.4 -0.2
v -1.3 1.4 -0.3
v -1.1 1.4 -0.3
v -1 1.6 -0.1
v -0.9 1.6 -0.1
v -1 1.6 -0.2
v -0.9 1.6 -0.2
v -1.3 1.6 -0.3
v -1.2 1.6 -0.3
v -1.3 1.6 -0.4
v -1.2 1.6 -0.4
v -1.2 1.7 -0.3
v -1.1 1.7 -0.3
v -1 1.7 -0.3
v -1.2 1.7 -0.4
v -1.1 1.7 -0.4
v -1 1.7 -0.4
v -1.5 2 0
v -1.4 2 0
v -1.2 2 0
v -1 2 0
v -1.5 2 -0.1
v -1.4 2 -0.1
v -1.2 2 -0.1
v -1.1 2 -0.1
v -1 2 -0.1
v -1.4 2.1 0.1
v -1.3 2.1 0.1
v -1.4 2.1 0
v -1.3 2.1 0
v -1.4 2.2 -0.2
v -1.3 2.2 -0.2
v -1.4 2.2 -0.4
v -1.3 2.2 -0.4
v -1.5 2.3 -0.2
v -1.4 2.3 -0.2
v -1.5 2.3 -0.3
v -1.4 2.3 -0.3
v -1.2 2.5 0.1
v -1.1 2.5 0.1
v -1.2 2.5 0
v -1.1 2.5 0
v -1.2 2.6 -0.3
v -1 2.6 -0.3
v -1.2 2.6 -0.4
v -1 2.6 -0.4
v -1.1 2.9 -0.1
v -1 2.9 -0.1
v -1.1 2.9 -0.2
v -1 2.9 -0.2
v -1.2 3 -0.2
v -1.1 3 -0.2
v -1.2 3 -0.3
v -1.1 3 -0.3
v -1.1 3.2 -0.2
v -1 3.2 -0.2
v -1.1 3.2 -0.3
v -1 3.2 -0.3
v -1.3 1.1 -0.3
v -1.1 1.1 -0.3
v -1.3 1.1 -0.4
v -1.1 1.1 -0.4
v -1.3 1.2 -0.2
v -1.1 1.2 -0.2
v -1.3 1.2 -0.3
v -1.1 1.2 -0.3
v -1 1.2 -0.3
v -1.1 1.2 -0.4
v -1 1.2 -0.4
v -1.5 1.4 0.1
v -1.4 1.4 0.1
v -1.5 1.4 0
v -1.4 1.4 0
v -1 1.4 -0.1
v -0.9 1.4 -0.1
v -1 1.4 -0.3
v -1 1.4 -0.4
v -0.9 1.4 -0.4
v -1.1 1.5 0.1
v -0.9 1.5 0.1
v -1.1 1.5 0
v -0.9 1.5 0
v -1.2 1.6 0.1
v -1.1 1.6 0.1
v -1.2 1.6 0
v -1.1 1.6 0
v -1.5 1.6 -0.3
v -1.4 1.6 -0.3
v -1.5 1.6 -0.4
v -1.4 1.6 -0.4
v -1.5 1.7 0
v -1.4 1.7 0
v -1.2 1.7 0
v -1 1.7 0
v -1.5 1.7 -0.1
v -1.4 1.7 -0.1
v -1.2 1.7 -0.1
v -1 1.7 -0.1
v -1.4 1.9 0.1
v -1.3 1.9 0.1
v -1.4 1.9 0
v -1.3 1.9 0
v -1.5 1.9 -0.2
v -1.4 1.9 -0.2
v -1.3 1.9 -0.2
v -1.5 1.9 -0.3
v -1.4 1.9 -0.3
v -1.3 1.9 -0.3
v -1.4 1.9 -0.4
v -1.3 1.9 -0.4
v -1.2 2.2 -0.3
v -1.1 2.2 -0.3
v -1 2.2 -0.3
v -1.2 2.2 -0.4
v -1.1 2.2 -0.4
v -1 2.2 -0.4
v -1.1 2.6 -0.1
v -0.9 2.6 -0.1
v -1 2.6 -0.2
v -0.9 2.6 -0.2
v -1.1 2.6 -0.3
v -1 2.6 -0.3
v -1.1 2.7 -0.3
v -1 2.7 -0.3
v -1.1 2.7 -0.4
v -1 2.7 -0.4
v -1.2 2.8 -0.2
v -1.1 2.8 -0.2
v -1.2 2.8 -0.4
v -1.1 2.8 -0.4
v -1.4 2.9 0.1
v -1.1 2.9 0.1
v -1.5 2.9 0
v -1.4 2.9 0
v -1.1 2.9 0
v -1 2.9 0
v -0.9 2.9 0
v -1.5 2.9 -0.1
v -1.4 2.9 -0.1
v -1 2.9 -0.1
v -0.9 2.9 -0.1
v -1.5 2.9 -0.3
v -1.4 2.9 -0.3
v -1.2 2.9 -0.3
v -1.4 2.9 -0.4
v -1.2 2.9 -0.4
v -1.4 3.4 0
v -1 3.4 0
v -1.4 3.4 -0.3
v -1 3.4 -0.3

# faces
f 4/1/1 2/1/1 1/1/1
f 5/1/1 2/1/1 4/1/1
f 7/1/1 4/1/1 3/1/1
f 7/1/1 6/1/1 5/1/1
f 7/1/1 5/1/1 4/1/1
f 8/1/1 6/1/1 7/1/1
f 9/1/1 6/1/1 8/1/1
f 10/1/1 6/1/1 9/1/1
f 11/4/1 10/4/1 9/4/1
f 12/1/1 6/1/1 10/1/1
f 12/4/1 10/4/1 11/4/1
f 13/1/1 6/1/1 12/1/1
f 14/4/1 11/4/1 9/4/1
f 15/2/1 12/2/1 11/2/1
f 15/4/1 11/4/1 14/4/1
f 16/2/1 12/2/1 15/2/1
f 17/2/1 12/2/1 16/2/1
f 18/4/1 17/4/1 16/4/1
f 19/4/1 17/4/1 18/4/1
f 21/4/1 18/4/1 16/4/1
f 22/4/1 18/4/1 21/4/1
f 23/2/1 21/2/1 20/2/1
f 23/2/1 22/2/1 21/2/1
f 24/2/1 22/2/1 23/2/1
f 26/4/1 24/4/1 23/4/1
f 26/4/1 25/4/1 24/4/1
f 27/4/1 25/4/1 26/4/1
f 28/4/1 26/4/1 23/4/1
f 28/2/1 27/2/1 26/2/1
f 29/4/1 25/4/1 27/4/1
f 29/2/1 27/2/1 28/2/1
f 30/4/1 28/4/1 23/4/1
f 30/4/1 29/4/1 28/4/1
f 31/4/1 25/4/1 29/4/1
f 31/4/1 29/4/1 30/4/1
f 32/2/1 31/2/1 30/2/1
f 33/4/1 25/4/1 31/4/1
f 33/2/1 31/2/1 32/2/1
f 34/2/1 32/2/1 30/2/1
f 35/4/1 33/4/1 32/4/1
f 35/2/1 32/2/1 34/2/1
f 36/4/1 25/4/1 33/4/1
f 36/4/1 33/4/1 35/4/1
f 41/1/1 38/1/1 37/1/1
f 42/1/1 38/1/1 41/1/1
f 43/1/1 40/1/1 39/1/1
f 44/1/1 40/1/1 43/1/1
f 47/1/1 46/1/1 45/1/1
f 48/1/1 47/1/1 45/1/1
f 49/1/1 47/1/1 48/1/1
f 52/2/1 49/2/1 48/2/1
f 53/2/1 49/2/1 52/2/1
f 55/4/1 53/4/1 52/4/1
f 55/2/1 54/2/1 53/2/1
f 56/2/1 54/2/1 55/2/1
f 57/2/1 51/2/1 50/2/1
f 58/4/1 56/4/1 55/4/1
f 58/4/1 55/4/1 52/4/1
f 59/4/1 56/4/1 58/4/1
f 60/2/1 51/2/1 57/2/1
f 61/2/1 51/2/1 60/2/1
f 62/4/1 56/4/1 59/4/1
f 63/4/1 56/4/1 62/4/1
f 68/3/1 65/3/1 64/3/1
f 69/2/1 67/2/1 66/2/1
f 70/2/1 67/2/1 69/2/1
f 71/3/1 68/3/1 64/3/1
f 72/3/1 68/3/1 71/3/1
f 73/2/1 72/2/1 71/2/1
f 74/2/1 73/2/1 71/2/1
f 75/2/1 73/2/1 74/2/1
f 77/2/1 67/2/1 70/2/1
f 78/2/1 67/2/1 77/2/1
f 79/2/1 76/2/1 75/2/1
f 79/2/1 77/2/1 76/2/1
f 80/2/1 77/2/1 79/2/1
f 86/3/1 82/3/1 81/3/1
f 87/4/1 84/4/1 83/4/1
f 88/2/1 85/2/1 84/2/1
f 88/4/1 84/4/1 87/4/1
f 89/3/1 86/3/1 81/3/1
f 90/3/1 86/3/1 89/3/1
f 91/2/1 88/2/1 87/2/1
f 92/2/1 85/2/1 88/2/1
f 92/2/1 88/2/1 91/2/1
f 96/1/1 94/1/1 93/1/1
f 97/1/1 94/1/1 96/1/1
f 98/1/1 96/1/1 95/1/1
f 99/1/1 96/1/1 98/1/1
f 102/1/1 101/1/1 100/1/1
f 103/1/1 101/1/1 102/1/1
f 106/2/1 105/2/1 104/2/1
f 107/2/1 105/2/1 106/2/1
f 108/3/1 107/3/1 106/3/1
f 109/3/1 107/3/1 108/3/1
f 110/1/2 111/1/2 113/1/2
f 112/1/2 113/1/2 114/1/2
f 113/1/2 111/1/2 115/1/2
f 114/1/2 113/1/2 115/1/2
f 115/1/2 111/1/2 116/1/2
f 116/1/2 111/1/2 117/1/2
f 118/2/2 119/2/2 122/2/2
f 120/2/2 121/2/2 124/2/2
f 124/2/2 121/2/2 125/2/2
f 122/2/2 123/2/2 126/2/2
f 118/2/2 122/2/2 126/2/2
f 126/2/2 123/2/2 127/2/2
f 126/3/2 127/3/2 128/3/2
f 127/2/2 123/2/2 128/2/2
f 128/2/2 123/2/2 129/2/2
f 126/3/2 128/3/2 130/3/2
f 130/3/2 128/3/2 131/3/2
f 130/2/2 131/2/2 134/2/2
f 134/2/2 131/2/2 135/2/2
f 132/2/2 133/2/2 136/2/2
f 136/2/2 133/2/2 137/2/2
f 138/2/2 139/2/2 140/2/2
f 140/2/2 139/2/2 141/2/2
f 138/2/2 140/2/2 142/2/2
f 142/2/2 140/2/2 143/2/2
f 144/1/2 145/1/2 148/1/2
f 148/1/2 145/1/2 149/1/2
f 146/1/2 147/1/2 150/1/2
f 150/1/2 147/1/2 151/1/2
f 152/1/2 153/1/2 154/1/2
f 154/1/2 153/1/2 155/1/2
f 158/2/2 159/2/2 160/2/2
f 158/2/2 160/2/2 162/2/2
f 160/2/2 161/2/2 162/2/2
f 162/2/2 161/2/2 163/2/2
f 156/2/2 157/2/2 164/2/2
f 164/2/2 157/2/2 165/2/2
f 158/2/2 162/2/2 166/2/2
f 166/2/2 162/2/2 167/2/2
f 168/2/2 169/2/2 170/2/2
f 170/2/2 169/2/2 171/2/2
f 172/1/2 173/1/2 174/1/2
f 174/1/2 173/1/2 175/1/2
f 176/1/2 177/1/2 178/1/2
f 178/1/2 177/1/2 179/1/2
f 179/1/2 177/1/2 180/1/2
f 179/2/2 180/2/2 181/2/2
f 179/2/2 181/2/2 183/2/2
f 181/2/2 182/2/2 183/2/2
f 183/2/2 182/2/2 184/2/2
f 179/2/2 183/2/2 185/2/2
f 183/3/2 184/3/2 185/3/2
f 185/3/2 184/3/2 186/3/2
f 179/2/2 185/2/2 187/2/2
f 187/2/2 185/2/2 188/2/2
f 188/2/2 189/2/2 190/2/2
f 190/2/2 189/2/2 191/2/2
f 192/2/2 193/2/2 195/2/2
f 193/2/2 194/2/2 195/2/2
f 192/2/2 195/2/2 197/2/2
f 195/2/2 196/2/2 197/2/2
f 197/2/2 196/2/2 198/2/2
f 199/1/2 200/1/2 202/1/2
f 202/1/2 200/1/2 203/1/2
f 201/1/2 202/1/2 205/1/2
f 203/1/2 204/1/2 205/1/2
f 202/1/2 203/1/2 205/1/2
f 205/1/2 204/1/2 206/1/2
f 201/1/2 205/1/2 207/1/2
f 207/1/2 205/1/2 208/1/2
f 208/1/2 205/1/2 209/1/2
f 209/1/2 205/1/2 210/1/2
f 209/2/2 210/2/2 212/2/2
f 210/2/2 211/2/2 212/2/2
f 212/2/2 211/2/2 213/2/2
f 212/3/2 213/3/2 214/3/2
f 213/2/2 211/2/2 215/2/2
f 214/3/2 213/3/2 215/3/2
f 214/2/2 215/2/2 216/2/2
f 215/2/2 211/2/2 216/2/2
f 216/2/2 211/2/2 217/2/2
f 214/2/2 216/2/2 218/2/2
f 218/2/2 216/2/2 219/2/2
f 223/1/3 221/1/3 220/1/3
f 224/1/3 221/1/3 223/1/3
f 231/2/3 226/2/3 225/2/3
f 231/4/3 227/4/3 226/4/3
f 232/4/3 227/4/3 231/4/3
f 233/4/3 227/4/3 232/4/3
f 234/3/3 229/3/3 228/3/3
f 235/3/3 229/3/3 234/3/3
f 236/2/3 230/2/3 229/2/3
f 236/3/3 229/3/3 235/3/3
f 237/1/3 223/1/3 222/1/3
f 237/1/3 224/1/3 223/1/3
f 237/1/3 225/1/3 224/1/3
f 237/2/3 231/2/3 225/2/3
f 237/2/3 232/2/3 231/2/3
f 238/3/3 234/3/3 233/3/3
f 238/2/3 232/2/3 237/2/3
f 238/3/3 235/3/3 234/3/3
f 238/3/3 233/3/3 232/3/3
f 239/2/3 236/2/3 235/2/3
f 239/3/3 235/3/3 238/3/3
f 240/2/3 230/2/3 236/2/3
f 240/2/3 236/2/3 239/2/3
f 241/1/3 237/1/3 222/1/3
f 242/1/3 237/1/3 241/1/3
f 243/1/3 237/1/3 242/1/3
f 244/1/3 237/1/3 243/1/3
f 245/2/3 230/2/3 240/2/3
f 246/2/3 230/2/3 245/2/3
f 247/1/3 243/1/3 242/1/3
f 248/1/3 243/1/3 247/1/3
f 258/1/3 250/1/3 249/1/3
f 259/1/3 250/1/3 258/1/3
f 260/1/3 252/1/3 251/1/3
f 261/4/3 253/4/3 252/4/3
f 261/1/3 252/1/3 260/1/3
f 262/4/3 253/4/3 261/4/3
f 263/4/3 253/4/3 262/4/3
f 265/2/3 255/2/3 254/2/3
f 266/2/3 255/2/3 265/2/3
f 267/4/3 256/4/3 255/4/3
f 267/2/3 255/2/3 266/2/3
f 268/4/3 256/4/3 267/4/3
f 269/2/3 257/2/3 256/2/3
f 269/4/3 256/4/3 268/4/3
f 270/2/3 257/2/3 269/2/3
f 272/4/3 265/4/3 264/4/3
f 273/2/3 266/2/3 265/2/3
f 273/4/3 265/4/3 272/4/3
f 274/2/3 266/2/3 273/2/3
f 283/2/3 276/2/3 275/2/3
f 284/2/3 279/2/3 278/2/3
f 285/2/3 271/2/3 270/2/3
f 286/2/3 276/2/3 283/2/3
f 288/3/3 278/3/3 277/3/3
f 289/2/3 285/2/3 284/2/3
f 289/2/3 271/2/3 285/2/3
f 290/2/3 271/2/3 289/2/3
f 291/1/3 281/1/3 280/1/3
f 292/1/3 281/1/3 291/1/3
f 293/1/3 283/1/3 282/1/3
f 294/2/3 287/2/3 286/2/3
f 294/1/3 283/1/3 293/1/3
f 294/2/3 286/2/3 283/2/3
f 295/3/3 288/3/3 287/3/3
f 295/2/3 287/2/3 294/2/3
f 296/2/3 284/2/3 278/2/3
f 296/3/3 288/3/3 295/3/3
f 296/3/3 278/3/3 288/3/3
f 296/2/3 289/2/3 284/2/3
f 297/2/3 289/2/3 296/2/3
f 301/2/3 299/2/3 298/2/3
f 302/4/3 300/4/3 299/4/3
f 302/2/3 299/2/3 301/2/3
f 303/4/3 300/4/3 302/4/3
f 306/2/3 305/2/3 304/2/3
f 307/2/3 305/2/3 306/2/3
f 308/2/3 306/2/3 304/2/3
f 309/3/3 307/3/3 306/3/3
f 309/2/3 306/2/3 308/2/3
f 310/3/3 307/3/3 309/3/3
f 313/2/3 312/2/3 311/2/3
f 314/2/3 312/2/3 313/2/3
f 315/2/4 316/2/4 319/2/4
f 317/1/4 318/1/4 320/1/4
f 320/1/4 318/1/4 321/1/4
f 315/2/4 319/2/4 322/2/4
f 322/2/4 319/2/4 323/2/4
f 324/4/4 325/4/4 327/4/4
f 325/2/4 326/2/4 328/2/4
f 328/2/4 326/2/4 329/2/4
f 327/4/4 325/4/4 332/4/4
f 325/2/4 328/2/4 333/2/4
f 332/4/4 325/4/4 333/4/4
f 333/2/4 328/2/4 334/2/4
f 330/1/4 331/1/4 337/1/4
f 337/1/4 331/1/4 338/1/4
f 335/2/4 336/2/4 339/2/4
f 339/2/4 336/2/4 340/2/4
f 340/2/4 336/2/4 341/2/4
f 341/2/4 342/2/4 347/2/4
f 340/2/4 341/2/4 347/2/4
f 347/2/4 342/2/4 348/2/4
f 343/1/4 344/1/4 349/1/4
f 349/1/4 344/1/4 350/1/4
f 345/2/4 346/2/4 351/2/4
f 351/2/4 346/2/4 352/2/4
f 353/1/4 354/1/4 360/1/4
f 360/1/4 354/1/4 361/1/4
f 355/2/4 356/2/4 362/2/4
f 356/4/4 357/4/4 363/4/4
f 362/2/4 356/2/4 363/2/4
f 363/4/4 357/4/4 364/4/4
f 358/4/4 359/4/4 365/4/4
f 365/4/4 359/4/4 366/4/4
f 370/1/4 371/1/4 372/1/4
f 366/2/4 367/2/4 376/2/4
f 376/2/4 367/2/4 377/2/4
f 368/1/4 369/1/4 380/1/4
f 380/1/4 369/1/4 381/1/4
f 370/1/4 372/1/4 382/1/4
f 372/2/4 373/2/4 383/2/4
f 374/2/4 375/2/4 384/2/4
f 377/2/4 367/2/4 385/2/4
f 385/2/4 367/2/4 386/2/4
f 378/1/4 379/1/4 387/1/4
f 387/1/4 379/1/4 388/1/4
f 381/1/4 382/1/4 389/1/4
f 382/1/4 372/1/4 390/1/4
f 389/1/4 382/1/4 390/1/4
f 372/2/4 383/2/4 391/2/4
f 390/1/4 372/1/4 391/1/4
f 391/2/4 383/2/4 392/2/4
f 384/2/4 375/2/4 393/2/4
f 393/2/4 375/2/4 394/2/4
f 386/2/4 367/2/4 395/2/4
f 395/2/4 367/2/4 396/2/4
f 397/1/4 398/1/4 400/1/4
f 400/1/4 398/1/4 401/1/4
f 399/1/4 400/1/4 405/1/4
f 400/1/4 401/1/4 405/1/4
f 401/2/4 402/2/4 406/2/4
f 405/1/4 401/1/4 406/1/4
f 406/2/4 402/2/4 407/2/4
f 403/2/4 404/2/4 408/2/4
f 406/2/4 407/2/4 409/2/4
f 407/2/4 408/2/4 409/2/4
f 409/2/4 408/2/4 410/2/4
f 410/2/4 408/2/4 411/2/4
f 408/2/4 404/2/4 412/2/4
f 411/2/4 408/2/4 412/2/4
f 412/2/4 404/2/4 413/2/4
f 413/2/4 404/2/4 414/2/4
f 414/2/4 404/2/4 415/2/4
f 399/1/4 405/1/4 416/1/4
f 416/1/4 405/1/4 417/1/4
f 417/1/4 405/1/4 418/1/4
f 410/3/4 411/3/4 420/3/4
f 420/3/4 411/3/4 421/3/4
f 411/2/4 412/2/4 422/2/4
f 421/3/4 411/3/4 422/3/4
f 422/2/4 412/2/4 423/2/4
f 413/2/4 414/2/4 424/2/4
f 424/2/4 414/2/4 425/2/4
f 418/1/4 419/1/4 426/1/4
f 417/1/4 418/1/4 426/1/4
f 420/2/4 421/2/4 428/2/4
f 422/3/4 423/3/4 429/3/4
f 428/2/4 421/2/4 429/2/4
f 421/3/4 422/3/4 429/3/4
f 429/3/4 423/3/4 430/3/4
f 413/2/4 424/2/4 431/2/4
f 431/2/4 424/2/4 432/2/4
f 426/1/4 427/1/4 433/1/4
f 417/1/4 426/1/4 433/1/4
f 433/1/4 427/1/4 434/1/4
f 438/1/5 436/1/5 435/1/5
f 439/1/5 436/1/5 438/1/5
f 441/1/5 438/1/5 437/1/5
f 441/1/5 440/1/5 439/1/5
f 441/1/5 439/1/5 438/1/5
f 442/1/5 440/1/5 441/1/5
f 443/1/5 441/1/5 437/1/5
f 444/1/5 441/1/5 443/1/5
f 445/1/5 441/1/5 444/1/5
f 446/1/5 441/1/5 445/1/5
f 447/1/5 445/1/5 444/1/5
f 448/1/5 445/1/5 447/1/5
f 453/1/5 450/1/5 449/1/5
f 454/1/5 450/1/5 453/1/5
f 455/1/5 452/1/5 451/1/5
f 456/1/5 452/1/5 455/1/5
f 462/1/5 458/1/5 457/1/5
f 463/1/5 460/1/5 459/1/5
f 464/1/5 460/1/5 463/1/5
f 465/1/5 462/1/5 461/1/5
f 466/1/5 458/1/5 462/1/5
f 466/1/5 462/1/5 465/1/5
f 469/1/5 468/1/5 467/1/5
f 470/1/5 468/1/5 469/1/5
f 473/2/5 472/2/5 471/2/5
f 474/2/5 472/2/5 473/2/5
f 477/2/5 476/2/5 475/2/5
f 478/2/5 476/2/5 477/2/5
f 482/3/5 480/3/5 479/3/5
f 483/2/5 481/2/5 480/2/5
f 483/3/5 480/3/5 482/3/5
f 484/2/5 481/2/5 483/2/5
f 489/2/5 486/2/5 485/2/5
f 490/2/5 486/2/5 489/2/5
f 491/3/5 488/3/5 487/3/5
f 492/3/5 488/3/5 491/3/5
f 493/3/5 488/3/5 492/3/5
f 496/3/5 495/3/5 494/3/5
f 497/3/5 495/3/5 496/3/5
f 500/2/5 499/2/5 498/2/5
f 501/2/5 499/2/5 500/2/5
f 504/4/5 503/4/5 502/4/5
f 505/4/5 503/4/5 504/4/5
f 508/2/5 507/2/5 506/2/5
f 509/2/5 507/2/5 508/2/5
f 512/2/5 511/2/5 510/2/5
f 513/2/5 511/2/5 512/2/5
f 516/2/5 515/2/5 514/2/5
f 517/2/5 515/2/5 516/2/5
f 520/2/5 519/2/5 518/2/5
f 521/2/5 519/2/5 520/2/5
f 524/2/5 523/2/5 522/2/5
f 525/2/5 523/2/5 524/2/5
f 526/1/6 527/1/6 528/1/6
f 528/1/6 527/1/6 529/1/6
f 530/1/6 531/1/6 532/1/6
f 532/1/6 531/1/6 533/1/6
f 533/1/6 534/1/6 535/1/6
f 535/1/6 534/1/6 536/1/6
f 537/1/6 538/1/6 539/1/6
f 539/1/6 538/1/6 540/1/6
f 541/1/6 542/1/6 543/1/6
f 543/1/6 542/1/6 544/1/6
f 544/1/6 542/1/6 545/1/6
f 546/1/6 547/1/6 548/1/6
f 548/1/6 547/1/6 549/1/6
f 550/1/6 551/1/6 552/1/6
f 552/1/6 551/1/6 553/1/6
f 554/1/6 555/1/6 556/1/6
f 556/1/6 555/1/6 557/1/6
f 558/4/6 559/4/6 562/4/6
f 562/4/6 559/4/6 563/4/6
f 560/2/6 561/2/6 564/2/6
f 564/2/6 561/2/6 565/2/6
f 566/4/6 567/4/6 568/4/6
f 568/4/6 567/4/6 569/4/6
f 570/4/6 571/4/6 573/4/6
f 571/2/6 572/2/6 574/2/6
f 573/4/6 571/4/6 574/4/6
f 574/2/6 572/2/6 575/2/6
f 574/2/6 575/2/6 576/2/6
f 576/2/6 575/2/6 577/2/6
f 578/2/6 579/2/6 581/2/6
f 579/3/6 580/3/6 582/3/6
f 581/2/6 579/2/6 582/2/6
f 582/3/6 580/3/6 583/3/6
f 584/2/6 585/2/6 586/2/6
f 586/2/6 585/2/6 587/2/6
f 584/2/6 586/2/6 588/2/6
f 588/2/6 586/2/6 589/2/6
f 590/2/6 591/2/6 592/2/6
f 592/2/6 591/2/6 593/2/6
f 594/2/6 595/2/6 596/2/6
f 596/2/6 595/2/6 597/2/6
f 598/2/6 599/2/6 601/2/6
f 601/2/6 599/2/6 602/2/6
f 600/2/6 601/2/6 605/2/6
f 605/2/6 601/2/6 606/2/6
f 603/2/6 604/2/6 607/2/6
f 607/2/6 604/2/6 608/2/6
f 605/4/6 606/4/6 609/4/6
f 609/4/6 606/4/6 610/4/6
f 610/2/6 611/2/6 612/2/6
f 612/2/6 611/2/6 613/2/6
f 614/2/6 615/2/6 616/2/6
f 616/2/6 615/2/6 617/2/6
