# MagicaVoxel @ Ephtracy

# group
o 

# material
mtllib mob1-0.mtl
usemtl palette

# normals
vn -1 0 0
vn 1 0 0
vn 0 0 1
vn 0 0 -1
vn 0 -1 0
vn 0 1 0

# texcoords
vt 0.939453 0.5
vt 0.943359 0.5
vt 0.947266 0.5
vt 0.970703 0.5
vt 0.974609 0.5
vt 0.982422 0.5

# verts
v -0.5 4.6 0.2
v -0.5 4.6 0.1
v -0.5 5.5 0.1
v -0.5 5.5 -0.2
v -0.5 6.2 -0.2
v -0.5 6.2 -0.4
v -0.5 6.6 0.2
v -0.5 6.6 0.1
v -0.5 6.6 -0.4
v -0.5 6.6 -0.6
v -0.5 6.9 0.1
v -0.5 6.9 -0.6
v -0.4 4.6 0.3
v -0.4 4.6 0.2
v -0.4 5.7 -0.2
v -0.4 5.7 -0.3
v -0.4 5.9 -0.3
v -0.4 5.9 -0.7
v -0.4 6 -0.3
v -0.4 6 -0.4
v -0.4 6.1 -0.4
v -0.4 6.1 -0.5
v -0.4 6.2 -0.2
v -0.4 6.2 -0.4
v -0.4 6.2 -0.5
v -0.4 6.2 -0.7
v -0.4 6.4 -0.5
v -0.4 6.4 -0.7
v -0.4 6.5 0.3
v -0.4 6.5 0.2
v -0.4 6.6 0.2
v -0.4 6.6 0.1
v -0.4 6.6 -0.4
v -0.4 6.6 -0.5
v -0.4 6.8 0.2
v -0.4 6.8 0.1
v -0.3 5.5 -0.2
v -0.3 5.5 -0.4
v -0.3 5.7 -0.2
v -0.3 5.7 -0.3
v -0.3 5.7 -0.4
v -0.3 5.7 -0.5
v -0.3 5.8 -0.6
v -0.3 5.8 -0.7
v -0.3 5.8 -0.9
v -0.3 5.8 -1
v -0.3 5.9 -0.3
v -0.3 5.9 -0.5
v -0.3 5.9 -0.6
v -0.3 5.9 -0.7
v -0.3 6.1 -0.7
v -0.3 6.1 -0.9
v -0.3 6.2 -0.7
v -0.3 6.2 -0.8
v -0.3 6.2 -1
v -0.3 6.3 -0.7
v -0.3 6.3 -0.8
v -0.3 6.4 -0.5
v -0.3 6.4 -0.6
v -0.3 6.4 -0.7
v -0.3 6.6 -0.5
v -0.3 6.6 -0.6
v -0.3 6.6 -0.7
v -0.3 6.8 -0.6
v -0.3 6.8 -0.7
v -0.3 6.9 -0.6
v -0.3 6.9 -0.7
v -0.2 5.7 -0.9
v -0.2 5.7 -1
v -0.2 5.7 -1.1
v -0.2 5.8 -0.9
v -0.2 5.8 -1
v -0.2 6 -1
v -0.2 6 -1.1
v 0.4 6.5 0.3
v 0.4 6.5 0.2
v 0.4 6.8 0.3
v 0.4 6.8 0.2
v -0.4 4.6 0.2
v -0.4 4.6 0.1
v -0.4 5.5 0.2
v -0.4 5.5 0.1
v 0.2 5.7 -0.4
v 0.2 5.7 -0.5
v 0.2 5.7 -0.9
v 0.2 5.7 -1
v 0.2 5.7 -1.1
v 0.2 5.8 -0.9
v 0.2 5.8 -1
v 0.2 5.9 -0.4
v 0.2 5.9 -0.5
v 0.2 6 -1
v 0.2 6 -1.1
v 0.3 5.5 -0.2
v 0.3 5.5 -0.4
v 0.3 5.6 -0.2
v 0.3 5.8 -0.2
v 0.3 5.8 -0.3
v 0.3 5.8 -0.6
v 0.3 5.8 -0.7
v 0.3 5.8 -0.9
v 0.3 5.8 -1
v 0.3 5.9 -0.2
v 0.3 5.9 -0.3
v 0.3 5.9 -0.4
v 0.3 5.9 -0.6
v 0.3 5.9 -0.7
v 0.3 6.1 -0.7
v 0.3 6.1 -0.9
v 0.3 6.2 -0.8
v 0.3 6.2 -1
v 0.3 6.3 -0.7
v 0.3 6.3 -0.8
v 0.3 6.5 -0.6
v 0.3 6.5 -0.7
v 0.3 6.6 -0.6
v 0.3 6.6 -0.7
v 0.3 6.8 -0.6
v 0.3 6.8 -0.7
v 0.3 6.9 -0.6
v 0.3 6.9 -0.7
v 0.4 4.6 0.3
v 0.4 4.6 0.2
v 0.4 5.5 0.2
v 0.4 5.9 -0.3
v 0.4 5.9 -0.5
v 0.4 5.9 -0.6
v 0.4 5.9 -0.7
v 0.4 6 0.3
v 0.4 6 0.2
v 0.4 6 -0.3
v 0.4 6 -0.5
v 0.4 6.1 -0.5
v 0.4 6.1 -0.6
v 0.4 6.2 -0.5
v 0.4 6.2 -0.7
v 0.5 5.5 0.2
v 0.5 5.5 -0.2
v 0.5 5.9 -0.2
v 0.5 5.9 -0.3
v 0.5 6 0.3
v 0.5 6 0.2
v 0.5 6 -0.3
v 0.5 6 -0.5
v 0.5 6.2 -0.5
v 0.5 6.2 -0.7
v 0.5 6.5 -0.6
v 0.5 6.5 -0.7
v 0.5 6.8 0.3
v 0.5 6.8 0.1
v 0.5 6.9 0.1
v 0.5 6.9 -0.6
v -0.4 4.6 0.3
v -0.4 6.5 0.3
v 0.2 5.5 0.3
v 0.2 5.8 0.3
v 0.3 5.5 0.3
v 0.3 5.8 0.3
v 0.4 4.6 0.3
v 0.4 6 0.3
v 0.4 6.5 0.3
v 0.4 6.8 0.3
v 0.5 6 0.3
v 0.5 6.8 0.3
v -0.5 4.6 0.2
v -0.5 6.6 0.2
v -0.4 4.6 0.2
v -0.4 6.5 0.2
v -0.4 6.6 0.2
v -0.4 6.8 0.2
v 0.4 5.5 0.2
v 0.4 6 0.2
v 0.4 6.5 0.2
v 0.4 6.8 0.2
v 0.5 5.5 0.2
v 0.5 6 0.2
v -0.5 6.6 0.1
v -0.5 6.9 0.1
v -0.4 6.6 0.1
v -0.4 6.8 0.1
v 0.5 6.8 0.1
v 0.5 6.9 0.1
v -0.3 5.8 -0.6
v -0.3 5.9 -0.6
v 0.3 5.8 -0.6
v 0.3 5.9 -0.6
v -0.2 5.7 -0.9
v -0.2 5.8 -0.9
v 0.2 5.7 -0.9
v 0.2 5.8 -0.9
v -0.4 4.6 0.2
v -0.4 5.5 0.2
v 0.3 5.5 0.2
v 0.4 4.6 0.2
v 0.4 5.5 0.2
v -0.5 4.6 0.1
v -0.5 5.5 0.1
v -0.4 4.6 0.1
v -0.4 5.5 0.1
v -0.5 5.5 -0.2
v -0.5 6.2 -0.2
v -0.4 5.5 -0.2
v -0.4 5.7 -0.2
v -0.4 6.2 -0.2
v -0.3 5.5 -0.2
v -0.3 5.7 -0.2
v 0.3 5.5 -0.2
v 0.3 5.6 -0.2
v 0.3 5.8 -0.2
v 0.3 5.9 -0.2
v 0.4 5.5 -0.2
v 0.4 5.6 -0.2
v 0.4 5.9 -0.2
v 0.5 5.5 -0.2
v 0.5 5.9 -0.2
v -0.4 5.7 -0.3
v -0.4 5.9 -0.3
v -0.3 5.7 -0.3
v -0.3 5.9 -0.3
v 0.4 5.9 -0.3
v 0.4 6 -0.3
v 0.5 5.9 -0.3
v 0.5 6 -0.3
v -0.5 6.2 -0.4
v -0.5 6.6 -0.4
v -0.4 6.2 -0.4
v -0.4 6.6 -0.4
v -0.3 5.5 -0.4
v -0.3 5.7 -0.4
v 0.2 5.5 -0.4
v 0.2 5.7 -0.4
v 0.2 5.9 -0.4
v 0.3 5.5 -0.4
v 0.3 5.9 -0.4
v -0.4 6.4 -0.5
v -0.4 6.6 -0.5
v -0.3 5.7 -0.5
v -0.3 5.9 -0.5
v -0.3 6.4 -0.5
v -0.3 6.6 -0.5
v 0.2 5.7 -0.5
v 0.2 5.9 -0.5
v 0.4 6 -0.5
v 0.4 6.1 -0.5
v 0.4 6.2 -0.5
v 0.5 6 -0.5
v 0.5 6.2 -0.5
v -0.5 6.6 -0.6
v -0.5 6.9 -0.6
v -0.4 6.6 -0.6
v -0.4 6.8 -0.6
v -0.3 6.6 -0.6
v -0.3 6.8 -0.6
v -0.3 6.9 -0.6
v 0.3 6.5 -0.6
v 0.3 6.6 -0.6
v 0.3 6.8 -0.6
v 0.3 6.9 -0.6
v 0.4 6.5 -0.6
v 0.4 6.8 -0.6
v 0.5 6.5 -0.6
v 0.5 6.9 -0.6
v -0.4 5.9 -0.7
v -0.4 6.2 -0.7
v -0.4 6.4 -0.7
v -0.3 5.9 -0.7
v -0.3 6.1 -0.7
v -0.3 6.2 -0.7
v -0.3 6.3 -0.7
v -0.3 6.4 -0.7
v -0.3 6.6 -0.7
v -0.3 6.8 -0.7
v -0.3 6.9 -0.7
v -0.2 6.4 -0.7
v -0.2 6.6 -0.7
v -0.1 6.4 -0.7
v -0.1 6.6 -0.7
v 0.1 6.4 -0.7
v 0.1 6.6 -0.7
v 0.2 6.4 -0.7
v 0.2 6.6 -0.7
v 0.3 5.9 -0.7
v 0.3 6.1 -0.7
v 0.3 6.3 -0.7
v 0.3 6.4 -0.7
v 0.3 6.5 -0.7
v 0.3 6.6 -0.7
v 0.3 6.8 -0.7
v 0.3 6.9 -0.7
v 0.4 5.9 -0.7
v 0.4 6.2 -0.7
v 0.4 6.5 -0.7
v 0.5 6.2 -0.7
v 0.5 6.5 -0.7
v -0.3 6.2 -0.8
v -0.3 6.3 -0.8
v 0.3 6.2 -0.8
v 0.3 6.3 -0.8
v -0.3 5.8 -1
v -0.3 6.2 -1
v -0.2 5.8 -1
v -0.2 6 -1
v 0.2 5.8 -1
v 0.2 6 -1
v 0.3 5.8 -1
v 0.3 6.2 -1
v -0.2 5.7 -1.1
v -0.2 6 -1.1
v 0.2 5.7 -1.1
v 0.2 6 -1.1
v -0.4 4.6 0.3
v 0.4 4.6 0.3
v -0.5 4.6 0.2
v -0.4 4.6 0.2
v 0.4 4.6 0.2
v -0.5 4.6 0.1
v -0.4 4.6 0.1
v -0.4 5.5 0.2
v 0.3 5.5 0.2
v 0.4 5.5 0.2
v 0.5 5.5 0.2
v -0.5 5.5 0.1
v -0.4 5.5 0.1
v 0.3 5.5 0.1
v 0.4 5.5 0.1
v 0.3 5.5 -0.1
v 0.4 5.5 -0.1
v -0.5 5.5 -0.2
v -0.4 5.5 -0.2
v -0.3 5.5 -0.2
v 0.2 5.5 -0.2
v 0.3 5.5 -0.2
v 0.4 5.5 -0.2
v 0.5 5.5 -0.2
v -0.3 5.5 -0.4
v 0.2 5.5 -0.4
v 0.3 5.5 -0.4
v -0.4 5.7 -0.2
v -0.3 5.7 -0.2
v -0.4 5.7 -0.3
v -0.3 5.7 -0.3
v -0.3 5.7 -0.4
v 0.2 5.7 -0.4
v -0.3 5.7 -0.5
v 0.2 5.7 -0.5
v -0.2 5.7 -0.9
v 0.2 5.7 -0.9
v -0.2 5.7 -1
v 0.2 5.7 -1
v -0.2 5.7 -1.1
v 0.2 5.7 -1.1
v -0.3 5.8 -0.6
v 0.3 5.8 -0.6
v -0.3 5.8 -0.7
v -0.2 5.8 -0.7
v 0.2 5.8 -0.7
v 0.3 5.8 -0.7
v -0.3 5.8 -0.9
v -0.2 5.8 -0.9
v 0.2 5.8 -0.9
v 0.3 5.8 -0.9
v -0.3 5.8 -1
v -0.2 5.8 -1
v 0.2 5.8 -1
v 0.3 5.8 -1
v 0.3 5.9 -0.2
v 0.4 5.9 -0.2
v 0.5 5.9 -0.2
v -0.4 5.9 -0.3
v -0.3 5.9 -0.3
v 0.3 5.9 -0.3
v 0.4 5.9 -0.3
v 0.5 5.9 -0.3
v 0.2 5.9 -0.4
v 0.3 5.9 -0.4
v -0.3 5.9 -0.5
v 0.2 5.9 -0.5
v 0.3 5.9 -0.5
v 0.4 5.9 -0.5
v -0.3 5.9 -0.6
v 0.3 5.9 -0.6
v 0.4 5.9 -0.6
v -0.4 5.9 -0.7
v -0.3 5.9 -0.7
v 0.3 5.9 -0.7
v 0.4 5.9 -0.7
v 0.4 6 0.3
v 0.5 6 0.3
v 0.4 6 0.2
v 0.5 6 0.2
v 0.4 6 -0.3
v 0.5 6 -0.3
v 0.4 6 -0.5
v 0.5 6 -0.5
v -0.5 6.2 -0.2
v -0.4 6.2 -0.2
v -0.5 6.2 -0.4
v -0.4 6.2 -0.4
v 0.4 6.2 -0.5
v 0.5 6.2 -0.5
v 0.4 6.2 -0.7
v 0.5 6.2 -0.7
v -0.5 6.6 -0.4
v -0.4 6.6 -0.4
v -0.4 6.6 -0.5
v -0.3 6.6 -0.5
v -0.5 6.6 -0.6
v -0.4 6.6 -0.6
v -0.3 6.6 -0.6
v -0.2 6 -1
v 0.2 6 -1
v -0.2 6 -1.1
v 0.2 6 -1.1
v -0.3 6.2 -0.8
v 0.3 6.2 -0.8
v -0.3 6.2 -1
v 0.3 6.2 -1
v -0.3 6.3 -0.7
v 0.3 6.3 -0.7
v -0.3 6.3 -0.8
v 0.3 6.3 -0.8
v -0.4 6.4 -0.5
v -0.3 6.4 -0.5
v -0.3 6.4 -0.6
v -0.4 6.4 -0.7
v -0.3 6.4 -0.7
v -0.4 6.5 0.3
v 0.4 6.5 0.3
v -0.4 6.5 0.2
v 0.4 6.5 0.2
v 0.3 6.5 -0.6
v 0.4 6.5 -0.6
v 0.5 6.5 -0.6
v 0.3 6.5 -0.7
v 0.4 6.5 -0.7
v 0.5 6.5 -0.7
v -0.5 6.6 0.2
v -0.4 6.6 0.2
v -0.5 6.6 0.1
v -0.4 6.6 0.1
v 0.4 6.8 0.3
v 0.5 6.8 0.3
v -0.4 6.8 0.2
v 0.4 6.8 0.2
v -0.4 6.8 0.1
v 0.5 6.8 0.1
v -0.5 6.9 0.1
v 0.5 6.9 0.1
v -0.5 6.9 -0.6
v -0.3 6.9 -0.6
v 0.3 6.9 -0.6
v 0.5 6.9 -0.6
v -0.3 6.9 -0.7
v 0.3 6.9 -0.7

# faces
f 3/1/1 2/1/1 1/1/1
f 5/1/1 4/1/1 3/1/1
f 7/1/1 3/1/1 1/1/1
f 7/1/1 6/1/1 5/1/1
f 7/1/1 5/1/1 3/1/1
f 8/1/1 6/1/1 7/1/1
f 9/1/1 6/1/1 8/1/1
f 11/1/1 10/1/1 9/1/1
f 11/1/1 9/1/1 8/1/1
f 12/1/1 10/1/1 11/1/1
f 17/5/1 16/5/1 15/5/1
f 19/5/1 17/5/1 15/5/1
f 19/6/1 18/6/1 17/6/1
f 20/6/1 18/6/1 19/6/1
f 21/5/1 20/5/1 19/5/1
f 21/6/1 18/6/1 20/6/1
f 22/6/1 18/6/1 21/6/1
f 23/5/1 19/5/1 15/5/1
f 23/5/1 21/5/1 19/5/1
f 23/5/1 22/5/1 21/5/1
f 24/5/1 22/5/1 23/5/1
f 25/6/1 18/6/1 22/6/1
f 25/5/1 22/5/1 24/5/1
f 26/6/1 18/6/1 25/6/1
f 27/5/1 25/5/1 24/5/1
f 27/5/1 26/5/1 25/5/1
f 28/5/1 26/5/1 27/5/1
f 29/1/1 14/1/1 13/1/1
f 30/1/1 14/1/1 29/1/1
f 33/5/1 27/5/1 24/5/1
f 34/5/1 27/5/1 33/5/1
f 35/1/1 32/1/1 31/1/1
f 36/1/1 32/1/1 35/1/1
f 39/5/1 38/5/1 37/5/1
f 40/5/1 38/5/1 39/5/1
f 41/5/1 38/5/1 40/5/1
f 47/5/1 42/5/1 41/5/1
f 47/5/1 41/5/1 40/5/1
f 48/5/1 42/5/1 47/5/1
f 49/5/1 44/5/1 43/5/1
f 50/2/1 45/2/1 44/2/1
f 50/5/1 44/5/1 49/5/1
f 51/2/1 45/2/1 50/2/1
f 52/5/1 46/5/1 45/5/1
f 52/2/1 45/2/1 51/2/1
f 53/5/1 52/5/1 51/5/1
f 54/5/1 52/5/1 53/5/1
f 55/5/1 46/5/1 52/5/1
f 55/5/1 52/5/1 54/5/1
f 56/5/1 54/5/1 53/5/1
f 57/5/1 54/5/1 56/5/1
f 61/5/1 59/5/1 58/5/1
f 62/4/1 60/4/1 59/4/1
f 62/5/1 59/5/1 61/5/1
f 63/4/1 60/4/1 62/4/1
f 64/5/1 63/5/1 62/5/1
f 65/5/1 63/5/1 64/5/1
f 66/1/1 65/1/1 64/1/1
f 67/1/1 65/1/1 66/1/1
f 71/5/1 69/5/1 68/5/1
f 72/2/1 70/2/1 69/2/1
f 72/5/1 69/5/1 71/5/1
f 73/2/1 70/2/1 72/2/1
f 74/2/1 70/2/1 73/2/1
f 77/1/1 76/1/1 75/1/1
f 78/1/1 76/1/1 77/1/1
f 79/1/2 80/1/2 81/1/2
f 81/1/2 80/1/2 82/1/2
f 85/5/2 86/5/2 88/5/2
f 86/2/2 87/2/2 89/2/2
f 88/5/2 86/5/2 89/5/2
f 83/5/2 84/5/2 90/5/2
f 90/5/2 84/5/2 91/5/2
f 89/2/2 87/2/2 92/2/2
f 92/2/2 87/2/2 93/2/2
f 94/6/2 95/6/2 96/6/2
f 96/6/2 95/6/2 97/6/2
f 97/6/2 95/6/2 98/6/2
f 97/5/2 98/5/2 103/5/2
f 98/6/2 95/6/2 104/6/2
f 103/5/2 98/5/2 104/5/2
f 104/6/2 95/6/2 105/6/2
f 99/5/2 100/5/2 106/5/2
f 100/2/2 101/2/2 107/2/2
f 106/5/2 100/5/2 107/5/2
f 107/2/2 101/2/2 108/2/2
f 101/5/2 102/5/2 109/5/2
f 108/2/2 101/2/2 109/2/2
f 108/5/2 109/5/2 110/5/2
f 109/5/2 102/5/2 111/5/2
f 110/5/2 109/5/2 111/5/2
f 108/5/2 110/5/2 112/5/2
f 112/5/2 110/5/2 113/5/2
f 114/4/2 115/4/2 116/4/2
f 116/4/2 115/4/2 117/4/2
f 116/5/2 117/5/2 118/5/2
f 118/5/2 117/5/2 119/5/2
f 118/1/2 119/1/2 120/1/2
f 120/1/2 119/1/2 121/1/2
f 122/1/2 123/1/2 124/1/2
f 122/1/2 124/1/2 129/1/2
f 129/1/2 124/1/2 130/1/2
f 125/5/2 126/5/2 131/5/2
f 126/6/2 127/6/2 132/6/2
f 131/5/2 126/5/2 132/5/2
f 132/6/2 127/6/2 133/6/2
f 127/5/2 128/5/2 134/5/2
f 133/6/2 127/6/2 134/6/2
f 133/5/2 134/5/2 135/5/2
f 134/5/2 128/5/2 136/5/2
f 135/5/2 134/5/2 136/5/2
f 137/1/2 138/1/2 139/1/2
f 137/1/2 139/1/2 142/1/2
f 139/1/2 140/1/2 142/1/2
f 142/1/2 140/1/2 143/1/2
f 141/1/2 142/1/2 145/1/2
f 143/1/2 144/1/2 145/1/2
f 142/1/2 143/1/2 145/1/2
f 145/1/2 146/1/2 147/1/2
f 147/1/2 146/1/2 148/1/2
f 141/1/2 145/1/2 149/1/2
f 145/1/2 147/1/2 149/1/2
f 149/1/2 147/1/2 150/1/2
f 150/1/2 147/1/2 151/1/2
f 151/1/2 147/1/2 152/1/2
f 155/1/3 154/1/3 153/1/3
f 156/1/3 154/1/3 155/1/3
f 157/1/3 155/1/3 153/1/3
f 157/6/3 156/6/3 155/6/3
f 158/1/3 154/1/3 156/1/3
f 158/6/3 156/6/3 157/6/3
f 159/1/3 157/1/3 153/1/3
f 159/1/3 158/1/3 157/1/3
f 160/1/3 154/1/3 158/1/3
f 160/1/3 158/1/3 159/1/3
f 161/1/3 154/1/3 160/1/3
f 163/1/3 162/1/3 161/1/3
f 163/1/3 161/1/3 160/1/3
f 164/1/3 162/1/3 163/1/3
f 167/1/3 166/1/3 165/1/3
f 168/1/3 166/1/3 167/1/3
f 169/1/3 166/1/3 168/1/3
f 173/1/3 170/1/3 169/1/3
f 173/1/3 169/1/3 168/1/3
f 174/1/3 170/1/3 173/1/3
f 175/1/3 172/1/3 171/1/3
f 176/1/3 172/1/3 175/1/3
f 179/1/3 178/1/3 177/1/3
f 180/1/3 178/1/3 179/1/3
f 181/1/3 178/1/3 180/1/3
f 182/1/3 178/1/3 181/1/3
f 185/5/3 184/5/3 183/5/3
f 186/5/3 184/5/3 185/5/3
f 189/5/3 188/5/3 187/5/3
f 190/5/3 188/5/3 189/5/3
f 191/1/4 192/1/4 193/1/4
f 191/1/4 193/1/4 194/1/4
f 194/1/4 193/1/4 195/1/4
f 196/1/4 197/1/4 198/1/4
f 198/1/4 197/1/4 199/1/4
f 200/1/4 201/1/4 202/1/4
f 202/1/4 201/1/4 203/1/4
f 203/1/4 201/1/4 204/1/4
f 202/5/4 203/5/4 205/5/4
f 205/5/4 203/5/4 206/5/4
f 207/6/4 208/6/4 211/6/4
f 209/5/4 210/5/4 212/5/4
f 211/6/4 208/6/4 212/6/4
f 208/5/4 209/5/4 212/5/4
f 212/5/4 210/5/4 213/5/4
f 211/1/4 212/1/4 214/1/4
f 212/1/4 213/1/4 214/1/4
f 214/1/4 213/1/4 215/1/4
f 216/5/4 217/5/4 218/5/4
f 218/5/4 217/5/4 219/5/4
f 220/1/4 221/1/4 222/1/4
f 222/1/4 221/1/4 223/1/4
f 224/1/4 225/1/4 226/1/4
f 226/1/4 225/1/4 227/1/4
f 228/5/4 229/5/4 230/5/4
f 230/5/4 229/5/4 231/5/4
f 230/6/4 231/6/4 233/6/4
f 231/6/4 232/6/4 233/6/4
f 233/6/4 232/6/4 234/6/4
f 235/5/4 236/5/4 239/5/4
f 239/5/4 236/5/4 240/5/4
f 237/5/4 238/5/4 241/5/4
f 241/5/4 238/5/4 242/5/4
f 243/1/4 244/1/4 246/1/4
f 244/1/4 245/1/4 246/1/4
f 246/1/4 245/1/4 247/1/4
f 248/1/4 249/1/4 250/1/4
f 250/1/4 249/1/4 251/1/4
f 250/5/4 251/5/4 252/5/4
f 251/1/4 249/1/4 253/1/4
f 252/5/4 251/5/4 253/5/4
f 253/1/4 249/1/4 254/1/4
f 255/5/4 256/5/4 259/5/4
f 256/5/4 257/5/4 259/5/4
f 257/1/4 258/1/4 260/1/4
f 259/5/4 257/5/4 260/5/4
f 259/1/4 260/1/4 261/1/4
f 260/1/4 258/1/4 262/1/4
f 261/1/4 260/1/4 262/1/4
f 263/6/4 264/6/4 266/6/4
f 266/6/4 264/6/4 267/6/4
f 264/5/4 265/5/4 268/5/4
f 267/6/4 264/6/4 268/6/4
f 268/5/4 265/5/4 269/5/4
f 269/5/4 265/5/4 270/5/4
f 270/4/4 271/4/4 274/4/4
f 269/5/4 270/5/4 274/5/4
f 271/5/4 272/5/4 275/5/4
f 274/4/4 271/4/4 275/4/4
f 269/5/4 274/5/4 276/5/4
f 274/3/4 275/3/4 276/3/4
f 275/5/4 272/5/4 277/5/4
f 276/3/4 275/3/4 277/3/4
f 269/5/4 276/5/4 278/5/4
f 276/5/4 277/5/4 278/5/4
f 277/5/4 272/5/4 279/5/4
f 278/5/4 277/5/4 279/5/4
f 269/5/4 278/5/4 280/5/4
f 278/3/4 279/3/4 280/3/4
f 279/5/4 272/5/4 281/5/4
f 280/3/4 279/3/4 281/3/4
f 269/5/4 280/5/4 284/5/4
f 280/4/4 281/4/4 285/4/4
f 284/5/4 280/5/4 285/5/4
f 285/4/4 281/4/4 286/4/4
f 281/5/4 272/5/4 287/5/4
f 286/4/4 281/4/4 287/4/4
f 272/1/4 273/1/4 288/1/4
f 287/5/4 272/5/4 288/5/4
f 288/1/4 273/1/4 289/1/4
f 282/5/4 283/5/4 290/5/4
f 284/5/4 285/5/4 290/5/4
f 283/5/4 284/5/4 290/5/4
f 285/5/4 286/5/4 290/5/4
f 290/5/4 286/5/4 291/5/4
f 291/5/4 286/5/4 292/5/4
f 291/1/4 292/1/4 293/1/4
f 293/1/4 292/1/4 294/1/4
f 295/5/4 296/5/4 297/5/4
f 297/5/4 296/5/4 298/5/4
f 299/5/4 300/5/4 301/5/4
f 301/5/4 300/5/4 302/5/4
f 302/5/4 300/5/4 304/5/4
f 303/5/4 304/5/4 305/5/4
f 304/5/4 300/5/4 306/5/4
f 305/5/4 304/5/4 306/5/4
f 307/2/4 308/2/4 309/2/4
f 309/2/4 308/2/4 310/2/4
f 314/1/5 312/1/5 311/1/5
f 315/1/5 312/1/5 314/1/5
f 316/1/5 314/1/5 313/1/5
f 317/1/5 314/1/5 316/1/5
f 323/5/5 319/5/5 318/5/5
f 324/6/5 320/6/5 319/6/5
f 324/5/5 319/5/5 323/5/5
f 325/1/5 321/1/5 320/1/5
f 325/6/5 320/6/5 324/6/5
f 326/5/5 324/5/5 323/5/5
f 326/5/5 325/5/5 324/5/5
f 327/1/5 321/1/5 325/1/5
f 327/5/5 325/5/5 326/5/5
f 328/1/5 323/1/5 322/1/5
f 329/5/5 326/5/5 323/5/5
f 329/1/5 323/1/5 328/1/5
f 330/5/5 326/5/5 329/5/5
f 331/5/5 326/5/5 330/5/5
f 332/6/5 327/6/5 326/6/5
f 332/5/5 326/5/5 331/5/5
f 333/1/5 321/1/5 327/1/5
f 333/6/5 327/6/5 332/6/5
f 334/1/5 321/1/5 333/1/5
f 335/5/5 331/5/5 330/5/5
f 336/6/5 332/6/5 331/6/5
f 336/5/5 331/5/5 335/5/5
f 337/6/5 332/6/5 336/6/5
f 340/5/5 339/5/5 338/5/5
f 341/5/5 339/5/5 340/5/5
f 344/5/5 343/5/5 342/5/5
f 345/5/5 343/5/5 344/5/5
f 348/5/5 347/5/5 346/5/5
f 349/5/5 347/5/5 348/5/5
f 350/2/5 349/2/5 348/2/5
f 351/2/5 349/2/5 350/2/5
f 354/5/5 353/5/5 352/5/5
f 355/5/5 353/5/5 354/5/5
f 356/5/5 353/5/5 355/5/5
f 357/5/5 353/5/5 356/5/5
f 358/2/5 355/2/5 354/2/5
f 359/5/5 356/5/5 355/5/5
f 359/2/5 355/2/5 358/2/5
f 360/2/5 357/2/5 356/2/5
f 360/5/5 356/5/5 359/5/5
f 361/2/5 357/2/5 360/2/5
f 362/5/5 359/5/5 358/5/5
f 363/5/5 359/5/5 362/5/5
f 364/5/5 361/5/5 360/5/5
f 365/5/5 361/5/5 364/5/5
f 371/5/5 367/5/5 366/5/5
f 372/1/5 368/1/5 367/1/5
f 372/5/5 367/5/5 371/5/5
f 373/1/5 368/1/5 372/1/5
f 375/5/5 372/5/5 371/5/5
f 376/6/5 370/6/5 369/6/5
f 377/5/5 375/5/5 374/5/5
f 378/5/5 372/5/5 375/5/5
f 378/5/5 375/5/5 377/5/5
f 379/5/5 372/5/5 378/5/5
f 380/6/5 376/6/5 369/6/5
f 380/5/5 377/5/5 376/5/5
f 380/5/5 378/5/5 377/5/5
f 381/6/5 379/6/5 378/6/5
f 381/5/5 378/5/5 380/5/5
f 382/6/5 379/6/5 381/6/5
f 383/6/5 380/6/5 369/6/5
f 384/6/5 380/6/5 383/6/5
f 385/5/5 382/5/5 381/5/5
f 386/5/5 382/5/5 385/5/5
f 389/1/5 388/1/5 387/1/5
f 390/1/5 388/1/5 389/1/5
f 393/1/5 392/1/5 391/1/5
f 394/1/5 392/1/5 393/1/5
f 397/1/5 396/1/5 395/1/5
f 398/1/5 396/1/5 397/1/5
f 401/1/5 400/1/5 399/1/5
f 402/1/5 400/1/5 401/1/5
f 405/1/5 404/1/5 403/1/5
f 407/1/5 405/1/5 403/1/5
f 408/5/5 406/5/5 405/5/5
f 408/1/5 405/1/5 407/1/5
f 409/5/5 406/5/5 408/5/5
f 410/2/6 411/2/6 412/2/6
f 412/2/6 411/2/6 413/2/6
f 414/5/6 415/5/6 416/5/6
f 416/5/6 415/5/6 417/5/6
f 418/5/6 419/5/6 420/5/6
f 420/5/6 419/5/6 421/5/6
f 422/5/6 423/5/6 424/5/6
f 422/5/6 424/5/6 425/5/6
f 425/5/6 424/5/6 426/5/6
f 427/1/6 428/1/6 429/1/6
f 429/1/6 428/1/6 430/1/6
f 431/5/6 432/5/6 434/5/6
f 432/1/6 433/1/6 435/1/6
f 434/5/6 432/5/6 435/5/6
f 435/1/6 433/1/6 436/1/6
f 437/1/6 438/1/6 439/1/6
f 439/1/6 438/1/6 440/1/6
f 441/1/6 442/1/6 444/1/6
f 443/1/6 444/1/6 445/1/6
f 444/1/6 442/1/6 446/1/6
f 445/1/6 444/1/6 446/1/6
f 447/1/6 448/1/6 449/1/6
f 449/1/6 448/1/6 450/1/6
f 450/1/6 448/1/6 451/1/6
f 451/1/6 448/1/6 452/1/6
f 450/1/6 451/1/6 453/1/6
f 453/1/6 451/1/6 454/1/6
