# MagicaVoxel @ Ephtracy

# group
o 

# material
mtllib mountain_5.mtl
usemtl palette

# normals
vn -1 0 0
vn 1 0 0
vn 0 0 1
vn 0 0 -1
vn 0 -1 0
vn 0 1 0

# texcoords
vt 0.376953 0.5
vt 0.380859 0.5
vt 0.384766 0.5
vt 0.662109 0.5
vt 0.666016 0.5
vt 0.673828 0.5
vt 0.900391 0.5

# verts
v 0 2 0
v 0 2 -0.1
v 0 2 -0.5
v 0 2 -0.6
v 0 2 -0.7
v 0 2 -0.8
v 0 2.1 0
v 0 2.1 -0.1
v 0 2.1 -0.5
v 0 2.1 -0.6
v 0 2.1 -0.7
v 0 2.1 -0.8
v 0 2.2 -0.1
v 0 2.2 -0.2
v 0 2.2 -0.6
v 0 2.2 -0.7
v 0 2.4 -0.5
v 0 2.4 -0.6
v 0 2.5 -0.4
v 0 2.5 -0.5
v 0 2.7 -0.2
v 0 2.7 -0.4
v 0.1 2.1 -0.7
v 0.1 2.1 -0.8
v 0.1 2.2 -0.6
v 0.1 2.2 -0.7
v 0.1 2.2 -0.8
v 0.1 2.3 -0.6
v 0.1 2.3 -0.7
v 0.1 2.5 -0.4
v 0.1 2.5 -0.5
v 0.1 2.6 -0.4
v 0.1 2.6 -0.5
v 0.1 2.7 -0.2
v 0.1 2.7 -0.4
v 0.1 2.8 -0.2
v 0.1 2.8 -0.5
v 0.2 2.2 -0.7
v 0.2 2.2 -0.8
v 0.2 2.3 -0.6
v 0.2 2.3 -0.7
v 0.2 2.4 -0.6
v 0.2 2.4 -0.7
v 0.2 2.4 -0.8
v 0.2 2.8 -0.2
v 0.2 2.8 -0.4
v 0.2 2.9 -0.2
v 0.2 2.9 -0.3
v 0.2 3 -0.3
v 0.2 3 -0.4
v 0.3 2.4 -0.5
v 0.3 2.4 -0.6
v 0.3 2.4 -0.7
v 0.3 2.4 -0.8
v 0.3 2.5 -0.4
v 0.3 2.5 -0.5
v 0.3 2.5 -0.6
v 0.3 2.5 -0.7
v 0.3 2.5 -0.8
v 0.3 2.6 -0.4
v 0.3 2.6 -0.5
v 0.3 2.7 -0.4
v 0.3 2.7 -0.5
v 0.4 2.5 -0.5
v 0.4 2.5 -0.6
v 0.4 2.5 -0.7
v 0.4 2.5 -0.8
v 0.4 2.6 -0.5
v 0.4 2.6 -0.8
v 0.2 2.5 -0.4
v 0.2 2.5 -0.5
v 0.2 2.6 -0.4
v 0.2 2.6 -0.5
v 0.2 2.8 -0.4
v 0.2 2.8 -0.5
v 0.4 2.6 -0.4
v 0.4 2.6 -0.5
v 0.4 2.7 -0.2
v 0.4 2.7 -0.3
v 0.4 2.7 -0.4
v 0.4 2.7 -0.5
v 0.4 2.8 -0.3
v 0.4 2.8 -0.4
v 0.4 2.9 -0.2
v 0.4 2.9 -0.3
v 0.4 2.9 -0.4
v 0.4 3 -0.3
v 0.4 3 -0.4
v 0.5 2.5 -0.2
v 0.5 2.5 -0.3
v 0.5 2.5 -0.5
v 0.5 2.5 -0.7
v 0.5 2.5 -0.8
v 0.5 2.6 -0.3
v 0.5 2.6 -0.4
v 0.5 2.6 -0.5
v 0.5 2.6 -0.7
v 0.5 2.6 -0.8
v 0.5 2.7 -0.2
v 0.5 2.7 -0.3
v 0.5 2.7 -0.4
v 0.6 2.2 -0.2
v 0.6 2.2 -0.4
v 0.6 2.2 -0.5
v 0.6 2.2 -0.7
v 0.6 2.2 -0.8
v 0.6 2.3 -0.4
v 0.6 2.3 -0.5
v 0.6 2.3 -0.7
v 0.6 2.3 -0.8
v 0.6 2.4 -0.2
v 0.6 2.4 -0.3
v 0.6 2.4 -0.6
v 0.6 2.4 -0.7
v 0.6 2.5 -0.2
v 0.6 2.5 -0.3
v 0.6 2.5 -0.5
v 0.6 2.5 -0.6
v 0.6 2.5 -0.7
v 0.6 2.5 -0.8
v 0.6 2.6 -0.5
v 0.6 2.6 -0.6
v 0.6 2.6 -0.7
v 0.7 2.1 -0.1
v 0.7 2.1 -0.2
v 0.7 2.1 -0.5
v 0.7 2.1 -0.6
v 0.7 2.1 -0.7
v 0.7 2.1 -0.8
v 0.7 2.2 -0.1
v 0.7 2.2 -0.2
v 0.7 2.2 -0.4
v 0.7 2.2 -0.5
v 0.7 2.2 -0.7
v 0.7 2.2 -0.8
v 0.7 2.3 -0.4
v 0.7 2.3 -0.5
v 0.8 2 0
v 0.8 2 -0.5
v 0.8 2 -0.6
v 0.8 2 -0.8
v 0.8 2.1 0
v 0.8 2.1 -0.5
v 0.8 2.1 -0.6
v 0.8 2.1 -0.8
v 0 2 0
v 0 2.1 0
v 0.1 2 0
v 0.1 2.1 0
v 0.5 2 0
v 0.5 2.1 0
v 0.6 2 0
v 0.6 2.1 0
v 0.7 2 0
v 0.7 2.1 0
v 0.8 2 0
v 0.8 2.1 0
v 0 2.1 -0.1
v 0 2.2 -0.1
v 0.1 2.1 -0.1
v 0.5 2.1 -0.1
v 0.6 2.1 -0.1
v 0.7 2.1 -0.1
v 0.7 2.2 -0.1
v 0 2.2 -0.2
v 0 2.7 -0.2
v 0.1 2.7 -0.2
v 0.1 2.8 -0.2
v 0.2 2.8 -0.2
v 0.2 2.9 -0.2
v 0.4 2.7 -0.2
v 0.4 2.9 -0.2
v 0.5 2.4 -0.2
v 0.5 2.5 -0.2
v 0.5 2.7 -0.2
v 0.6 2.2 -0.2
v 0.6 2.4 -0.2
v 0.6 2.5 -0.2
v 0.2 2.9 -0.3
v 0.2 3 -0.3
v 0.4 2.9 -0.3
v 0.4 3 -0.3
v 0.6 2.2 -0.4
v 0.6 2.3 -0.4
v 0.7 2.2 -0.4
v 0.7 2.3 -0.4
v 0.5 2.5 -0.5
v 0.5 2.6 -0.5
v 0.6 2.5 -0.5
v 0.6 2.6 -0.5
v 0 2.5 -0.4
v 0 2.7 -0.4
v 0.1 2.5 -0.4
v 0.1 2.6 -0.4
v 0.1 2.7 -0.4
v 0.2 2.5 -0.4
v 0.2 2.6 -0.4
v 0.2 2.8 -0.4
v 0.2 3 -0.4
v 0.3 2.5 -0.4
v 0.3 2.6 -0.4
v 0.3 2.7 -0.4
v 0.3 2.8 -0.4
v 0.3 2.9 -0.4
v 0.4 2.6 -0.4
v 0.4 2.7 -0.4
v 0.4 2.8 -0.4
v 0.4 2.9 -0.4
v 0.4 3 -0.4
v 0.5 2.6 -0.4
v 0.5 2.7 -0.4
v 0 2.4 -0.5
v 0 2.5 -0.5
v 0.1 2.4 -0.5
v 0.1 2.5 -0.5
v 0.1 2.6 -0.5
v 0.1 2.8 -0.5
v 0.2 2.4 -0.5
v 0.2 2.5 -0.5
v 0.2 2.6 -0.5
v 0.2 2.8 -0.5
v 0.3 2.4 -0.5
v 0.3 2.5 -0.5
v 0.3 2.6 -0.5
v 0.3 2.7 -0.5
v 0.4 2.5 -0.5
v 0.4 2.6 -0.5
v 0.4 2.7 -0.5
v 0.6 2.2 -0.5
v 0.6 2.3 -0.5
v 0.7 2.2 -0.5
v 0.7 2.3 -0.5
v 0 2.2 -0.6
v 0 2.4 -0.6
v 0.1 2.2 -0.6
v 0.1 2.3 -0.6
v 0.2 2.3 -0.6
v 0.2 2.4 -0.6
v 0 2.1 -0.7
v 0 2.2 -0.7
v 0.1 2.1 -0.7
v 0.1 2.2 -0.7
v 0.1 2.3 -0.7
v 0.2 2.2 -0.7
v 0.2 2.3 -0.7
v 0.5 2.5 -0.7
v 0.5 2.6 -0.7
v 0.6 2.5 -0.7
v 0.6 2.6 -0.7
v 0 2 -0.8
v 0 2.1 -0.8
v 0.1 2 -0.8
v 0.1 2.1 -0.8
v 0.1 2.2 -0.8
v 0.2 2 -0.8
v 0.2 2.1 -0.8
v 0.2 2.2 -0.8
v 0.2 2.4 -0.8
v 0.3 2 -0.8
v 0.3 2.1 -0.8
v 0.3 2.3 -0.8
v 0.3 2.4 -0.8
v 0.3 2.5 -0.8
v 0.4 2 -0.8
v 0.4 2.1 -0.8
v 0.4 2.3 -0.8
v 0.4 2.5 -0.8
v 0.4 2.6 -0.8
v 0.5 2 -0.8
v 0.5 2.1 -0.8
v 0.5 2.2 -0.8
v 0.5 2.5 -0.8
v 0.5 2.6 -0.8
v 0.6 2 -0.8
v 0.6 2.1 -0.8
v 0.6 2.2 -0.8
v 0.6 2.3 -0.8
v 0.6 2.5 -0.8
v 0.7 2 -0.8
v 0.7 2.1 -0.8
v 0.7 2.2 -0.8
v 0.8 2 -0.8
v 0.8 2.1 -0.8
v 0 2 0
v 0.1 2 0
v 0.5 2 0
v 0.6 2 0
v 0.7 2 0
v 0.8 2 0
v 0 2 -0.1
v 0.1 2 -0.1
v 0.2 2 -0.1
v 0.3 2 -0.1
v 0.5 2 -0.1
v 0.6 2 -0.1
v 0.7 2 -0.1
v 0.1 2 -0.2
v 0.2 2 -0.2
v 0.3 2 -0.2
v 0.4 2 -0.2
v 0.5 2 -0.2
v 0.6 2 -0.2
v 0.7 2 -0.2
v 0.1 2 -0.3
v 0.2 2 -0.3
v 0.3 2 -0.3
v 0.4 2 -0.3
v 0.5 2 -0.3
v 0.6 2 -0.3
v 0.7 2 -0.3
v 0.1 2 -0.4
v 0.2 2 -0.4
v 0.3 2 -0.4
v 0.4 2 -0.4
v 0.5 2 -0.4
v 0.7 2 -0.4
v 0 2 -0.5
v 0.1 2 -0.5
v 0.2 2 -0.5
v 0.3 2 -0.5
v 0.4 2 -0.5
v 0.5 2 -0.5
v 0.6 2 -0.5
v 0.7 2 -0.5
v 0.8 2 -0.5
v 0 2 -0.6
v 0.1 2 -0.6
v 0.2 2 -0.6
v 0.3 2 -0.6
v 0.5 2 -0.6
v 0.6 2 -0.6
v 0.7 2 -0.6
v 0.8 2 -0.6
v 0 2 -0.7
v 0.1 2 -0.7
v 0.2 2 -0.7
v 0.3 2 -0.7
v 0.4 2 -0.7
v 0.5 2 -0.7
v 0.6 2 -0.7
v 0.7 2 -0.7
v 0 2 -0.8
v 0.1 2 -0.8
v 0.2 2 -0.8
v 0.3 2 -0.8
v 0.4 2 -0.8
v 0.5 2 -0.8
v 0.6 2 -0.8
v 0.7 2 -0.8
v 0.8 2 -0.8
v 0 2.1 0
v 0.1 2.1 0
v 0.5 2.1 0
v 0.6 2.1 0
v 0.7 2.1 0
v 0.8 2.1 0
v 0 2.1 -0.1
v 0.1 2.1 -0.1
v 0.5 2.1 -0.1
v 0.6 2.1 -0.1
v 0.7 2.1 -0.1
v 0.7 2.1 -0.2
v 0.7 2.1 -0.5
v 0.8 2.1 -0.5
v 0.7 2.1 -0.6
v 0.8 2.1 -0.6
v 0 2.1 -0.7
v 0.1 2.1 -0.7
v 0.7 2.1 -0.7
v 0 2.1 -0.8
v 0.1 2.1 -0.8
v 0.7 2.1 -0.8
v 0.8 2.1 -0.8
v 0 2.2 -0.1
v 0.7 2.2 -0.1
v 0 2.2 -0.2
v 0.6 2.2 -0.2
v 0.7 2.2 -0.2
v 0.6 2.2 -0.4
v 0.7 2.2 -0.4
v 0.6 2.2 -0.5
v 0.7 2.2 -0.5
v 0 2.2 -0.6
v 0.1 2.2 -0.6
v 0 2.2 -0.7
v 0.1 2.2 -0.7
v 0.2 2.2 -0.7
v 0.6 2.2 -0.7
v 0.7 2.2 -0.7
v 0.1 2.2 -0.8
v 0.2 2.2 -0.8
v 0.6 2.2 -0.8
v 0.7 2.2 -0.8
v 0.6 2.3 -0.4
v 0.7 2.3 -0.4
v 0.6 2.3 -0.5
v 0.7 2.3 -0.5
v 0.1 2.3 -0.6
v 0.2 2.3 -0.6
v 0.1 2.3 -0.7
v 0.2 2.3 -0.7
v 0 2.4 -0.5
v 0.1 2.4 -0.5
v 0.2 2.4 -0.5
v 0.3 2.4 -0.5
v 0 2.4 -0.6
v 0.2 2.4 -0.6
v 0.3 2.4 -0.6
v 0.2 2.4 -0.7
v 0.3 2.4 -0.7
v 0.2 2.4 -0.8
v 0.3 2.4 -0.8
v 0.5 2.5 -0.2
v 0.6 2.5 -0.2
v 0.5 2.5 -0.3
v 0.6 2.5 -0.3
v 0 2.5 -0.4
v 0.1 2.5 -0.4
v 0.2 2.5 -0.4
v 0.3 2.5 -0.4
v 0 2.5 -0.5
v 0.1 2.5 -0.5
v 0.2 2.5 -0.5
v 0.3 2.5 -0.5
v 0.4 2.5 -0.5
v 0.5 2.5 -0.5
v 0.6 2.5 -0.5
v 0.3 2.5 -0.6
v 0.4 2.5 -0.6
v 0.3 2.5 -0.7
v 0.4 2.5 -0.7
v 0.5 2.5 -0.7
v 0.6 2.5 -0.7
v 0.3 2.5 -0.8
v 0.4 2.5 -0.8
v 0.5 2.5 -0.8
v 0.6 2.5 -0.8
v 0.4 2.6 -0.4
v 0.5 2.6 -0.4
v 0.4 2.6 -0.5
v 0.5 2.6 -0.5
v 0.6 2.6 -0.5
v 0.5 2.6 -0.6
v 0.6 2.6 -0.6
v 0.5 2.6 -0.7
v 0.6 2.6 -0.7
v 0.4 2.6 -0.8
v 0.5 2.6 -0.8
v 0 2.7 -0.2
v 0.1 2.7 -0.2
v 0.4 2.7 -0.2
v 0.5 2.7 -0.2
v 0.4 2.7 -0.3
v 0.5 2.7 -0.3
v 0 2.7 -0.4
v 0.1 2.7 -0.4
v 0.3 2.7 -0.4
v 0.4 2.7 -0.4
v 0.5 2.7 -0.4
v 0.3 2.7 -0.5
v 0.4 2.7 -0.5
v 0.1 2.8 -0.2
v 0.2 2.8 -0.2
v 0.2 2.8 -0.4
v 0.1 2.8 -0.5
v 0.2 2.8 -0.5
v 0.2 2.9 -0.2
v 0.4 2.9 -0.2
v 0.2 2.9 -0.3
v 0.4 2.9 -0.3
v 0.2 3 -0.3
v 0.4 3 -0.3
v 0.2 3 -0.4
v 0.4 3 -0.4

# faces
f 7/5/1 2/5/1 1/5/1
f 8/7/1 3/7/1 2/7/1
f 8/5/1 2/5/1 7/5/1
f 9/5/1 4/5/1 3/5/1
f 9/7/1 3/7/1 8/7/1
f 10/7/1 5/7/1 4/7/1
f 10/5/1 4/5/1 9/5/1
f 11/4/1 6/4/1 5/4/1
f 11/7/1 5/7/1 10/7/1
f 12/4/1 6/4/1 11/4/1
f 13/1/1 10/1/1 9/1/1
f 13/1/1 9/1/1 8/1/1
f 14/1/1 10/1/1 13/1/1
f 15/2/1 11/2/1 10/2/1
f 15/1/1 10/1/1 14/1/1
f 16/2/1 11/2/1 15/2/1
f 17/1/1 15/1/1 14/1/1
f 18/1/1 15/1/1 17/1/1
f 19/1/1 17/1/1 14/1/1
f 20/1/1 17/1/1 19/1/1
f 21/1/1 19/1/1 14/1/1
f 22/1/1 19/1/1 21/1/1
f 26/2/1 24/2/1 23/2/1
f 27/2/1 24/2/1 26/2/1
f 28/3/1 26/3/1 25/3/1
f 29/3/1 26/3/1 28/3/1
f 32/3/1 31/3/1 30/3/1
f 33/3/1 31/3/1 32/3/1
f 35/1/1 33/1/1 32/1/1
f 36/1/1 35/1/1 34/1/1
f 37/1/1 33/1/1 35/1/1
f 37/1/1 35/1/1 36/1/1
f 41/3/1 39/3/1 38/3/1
f 42/1/1 41/1/1 40/1/1
f 43/3/1 39/3/1 41/3/1
f 43/1/1 41/1/1 42/1/1
f 44/3/1 39/3/1 43/3/1
f 47/1/1 46/1/1 45/1/1
f 48/1/1 46/1/1 47/1/1
f 49/1/1 46/1/1 48/1/1
f 50/1/1 46/1/1 49/1/1
f 56/1/1 52/1/1 51/1/1
f 57/2/1 53/2/1 52/2/1
f 57/1/1 52/1/1 56/1/1
f 58/3/1 54/3/1 53/3/1
f 58/2/1 53/2/1 57/2/1
f 59/3/1 54/3/1 58/3/1
f 60/3/1 56/3/1 55/3/1
f 61/3/1 56/3/1 60/3/1
f 62/1/1 61/1/1 60/1/1
f 63/1/1 61/1/1 62/1/1
f 68/1/1 65/1/1 64/1/1
f 68/1/1 67/1/1 66/1/1
f 68/1/1 66/1/1 65/1/1
f 69/1/1 67/1/1 68/1/1
f 70/3/2 71/3/2 72/3/2
f 72/3/2 71/3/2 73/3/2
f 72/1/2 73/1/2 74/1/2
f 74/1/2 73/1/2 75/1/2
f 76/1/2 77/1/2 80/1/2
f 80/1/2 77/1/2 81/1/2
f 78/1/2 79/1/2 82/1/2
f 79/1/2 80/1/2 82/1/2
f 82/1/2 80/1/2 83/1/2
f 78/1/2 82/1/2 84/1/2
f 82/3/2 83/3/2 85/3/2
f 84/1/2 82/1/2 85/1/2
f 85/3/2 83/3/2 86/3/2
f 85/1/2 86/1/2 87/1/2
f 87/1/2 86/1/2 88/1/2
f 89/1/2 90/1/2 94/1/2
f 90/1/2 91/1/2 94/1/2
f 94/1/2 91/1/2 95/1/2
f 95/1/2 91/1/2 96/1/2
f 92/1/2 93/1/2 97/1/2
f 97/1/2 93/1/2 98/1/2
f 89/1/2 94/1/2 99/1/2
f 94/3/2 95/3/2 100/3/2
f 99/1/2 94/1/2 100/1/2
f 100/3/2 95/3/2 101/3/2
f 102/1/2 103/1/2 107/1/2
f 104/1/2 105/1/2 108/1/2
f 105/2/2 106/2/2 109/2/2
f 108/1/2 105/1/2 109/1/2
f 109/2/2 106/2/2 110/2/2
f 107/1/2 108/1/2 111/1/2
f 102/1/2 107/1/2 111/1/2
f 109/1/2 110/1/2 111/1/2
f 108/1/2 109/1/2 111/1/2
f 111/1/2 110/1/2 112/1/2
f 112/1/2 110/1/2 113/1/2
f 113/1/2 110/1/2 114/1/2
f 111/2/2 112/2/2 115/2/2
f 112/1/2 113/1/2 116/1/2
f 115/2/2 112/2/2 116/2/2
f 116/1/2 113/1/2 117/1/2
f 113/3/2 114/3/2 118/3/2
f 117/1/2 113/1/2 118/1/2
f 114/1/2 110/1/2 119/1/2
f 118/3/2 114/3/2 119/3/2
f 119/1/2 110/1/2 120/1/2
f 117/3/2 118/3/2 121/3/2
f 118/1/2 119/1/2 122/1/2
f 121/3/2 118/3/2 122/3/2
f 122/1/2 119/1/2 123/1/2
f 124/1/2 125/1/2 130/1/2
f 125/3/2 126/3/2 131/3/2
f 130/1/2 125/1/2 131/1/2
f 131/3/2 126/3/2 132/3/2
f 126/1/2 127/1/2 133/1/2
f 132/3/2 126/3/2 133/3/2
f 127/1/2 128/1/2 133/1/2
f 128/3/2 129/3/2 134/3/2
f 133/1/2 128/1/2 134/1/2
f 134/3/2 129/3/2 135/3/2
f 132/3/2 133/3/2 136/3/2
f 136/3/2 133/3/2 137/3/2
f 138/7/2 139/7/2 142/7/2
f 139/2/2 140/2/2 143/2/2
f 142/7/2 139/7/2 143/7/2
f 140/7/2 141/7/2 144/7/2
f 143/2/2 140/2/2 144/2/2
f 144/7/2 141/7/2 145/7/2
f 148/5/3 147/5/3 146/5/3
f 149/5/3 147/5/3 148/5/3
f 150/7/3 149/7/3 148/7/3
f 151/7/3 149/7/3 150/7/3
f 152/4/3 151/4/3 150/4/3
f 153/4/3 151/4/3 152/4/3
f 154/6/3 153/6/3 152/6/3
f 155/6/3 153/6/3 154/6/3
f 156/7/3 155/7/3 154/7/3
f 157/7/3 155/7/3 156/7/3
f 160/1/3 159/1/3 158/1/3
f 161/1/3 159/1/3 160/1/3
f 162/1/3 159/1/3 161/1/3
f 163/1/3 159/1/3 162/1/3
f 164/1/3 159/1/3 163/1/3
f 167/1/3 166/1/3 165/1/3
f 169/1/3 168/1/3 167/1/3
f 171/1/3 167/1/3 165/1/3
f 171/1/3 170/1/3 169/1/3
f 171/1/3 169/1/3 167/1/3
f 172/1/3 170/1/3 171/1/3
f 173/1/3 171/1/3 165/1/3
f 174/1/3 171/1/3 173/1/3
f 175/1/3 171/1/3 174/1/3
f 176/1/3 173/1/3 165/1/3
f 177/2/3 174/2/3 173/2/3
f 177/1/3 173/1/3 176/1/3
f 178/2/3 174/2/3 177/2/3
f 181/1/3 180/1/3 179/1/3
f 182/1/3 180/1/3 181/1/3
f 185/3/3 184/3/3 183/3/3
f 186/3/3 184/3/3 185/3/3
f 189/3/3 188/3/3 187/3/3
f 190/3/3 188/3/3 189/3/3
f 191/1/4 192/1/4 193/1/4
f 193/1/4 192/1/4 194/1/4
f 194/1/4 192/1/4 195/1/4
f 196/1/4 197/1/4 200/1/4
f 198/1/4 199/1/4 200/1/4
f 197/1/4 198/1/4 200/1/4
f 200/1/4 199/1/4 201/1/4
f 201/1/4 199/1/4 202/1/4
f 202/1/4 199/1/4 203/1/4
f 203/1/4 199/1/4 204/1/4
f 202/1/4 203/1/4 206/1/4
f 203/3/4 204/3/4 207/3/4
f 206/1/4 203/1/4 207/1/4
f 204/1/4 199/1/4 208/1/4
f 207/3/4 204/3/4 208/3/4
f 208/1/4 199/1/4 209/1/4
f 205/3/4 206/3/4 210/3/4
f 210/3/4 206/3/4 211/3/4
f 212/1/4 213/1/4 214/1/4
f 214/1/4 213/1/4 215/1/4
f 214/3/4 215/3/4 218/3/4
f 215/3/4 216/3/4 218/3/4
f 218/3/4 216/3/4 219/3/4
f 216/1/4 217/1/4 220/1/4
f 219/3/4 216/3/4 220/3/4
f 220/1/4 217/1/4 221/1/4
f 218/2/4 219/2/4 222/2/4
f 222/2/4 219/2/4 223/2/4
f 223/3/4 224/3/4 226/3/4
f 224/1/4 225/1/4 227/1/4
f 226/3/4 224/3/4 227/3/4
f 227/1/4 225/1/4 228/1/4
f 229/3/4 230/3/4 231/3/4
f 231/3/4 230/3/4 232/3/4
f 233/1/4 234/1/4 235/1/4
f 235/1/4 234/1/4 236/1/4
f 236/1/4 234/1/4 237/1/4
f 237/1/4 234/1/4 238/1/4
f 239/2/4 240/2/4 241/2/4
f 241/2/4 240/2/4 242/2/4
f 242/3/4 243/3/4 244/3/4
f 244/3/4 243/3/4 245/3/4
f 246/1/4 247/1/4 248/1/4
f 248/1/4 247/1/4 249/1/4
f 250/4/4 251/4/4 252/4/4
f 252/4/4 251/4/4 253/4/4
f 252/6/4 253/6/4 255/6/4
f 253/2/4 254/2/4 256/2/4
f 255/6/4 253/6/4 256/6/4
f 256/2/4 254/2/4 257/2/4
f 255/7/4 256/7/4 259/7/4
f 257/3/4 258/3/4 260/3/4
f 259/7/4 256/7/4 260/7/4
f 256/3/4 257/3/4 260/3/4
f 260/3/4 258/3/4 261/3/4
f 261/3/4 258/3/4 262/3/4
f 259/5/4 260/5/4 264/5/4
f 260/1/4 261/1/4 265/1/4
f 264/5/4 260/5/4 265/5/4
f 262/3/4 263/3/4 266/3/4
f 265/1/4 261/1/4 266/1/4
f 261/3/4 262/3/4 266/3/4
f 266/3/4 263/3/4 267/3/4
f 264/7/4 265/7/4 269/7/4
f 265/2/4 266/2/4 270/2/4
f 269/7/4 265/7/4 270/7/4
f 270/2/4 266/2/4 271/2/4
f 267/1/4 268/1/4 272/1/4
f 266/1/4 267/1/4 272/1/4
f 272/1/4 268/1/4 273/1/4
f 269/4/4 270/4/4 274/4/4
f 270/3/4 271/3/4 275/3/4
f 274/4/4 270/4/4 275/4/4
f 271/2/4 266/2/4 276/2/4
f 275/3/4 271/3/4 276/3/4
f 266/1/4 272/1/4 277/1/4
f 276/2/4 266/2/4 277/2/4
f 277/1/4 272/1/4 278/1/4
f 274/6/4 275/6/4 279/6/4
f 275/3/4 276/3/4 280/3/4
f 279/6/4 275/6/4 280/6/4
f 280/3/4 276/3/4 281/3/4
f 279/7/4 280/7/4 282/7/4
f 282/7/4 280/7/4 283/7/4
f 290/5/5 285/5/5 284/5/5
f 291/7/5 286/7/5 285/7/5
f 291/5/5 285/5/5 290/5/5
f 292/7/5 286/7/5 291/7/5
f 293/7/5 286/7/5 292/7/5
f 294/4/5 287/4/5 286/4/5
f 294/7/5 286/7/5 293/7/5
f 295/6/5 288/6/5 287/6/5
f 295/4/5 287/4/5 294/4/5
f 296/7/5 289/7/5 288/7/5
f 296/6/5 288/6/5 295/6/5
f 297/7/5 291/7/5 290/7/5
f 297/7/5 292/7/5 291/7/5
f 298/6/5 293/6/5 292/6/5
f 298/7/5 292/7/5 297/7/5
f 299/7/5 294/7/5 293/7/5
f 299/6/5 293/6/5 298/6/5
f 300/7/5 294/7/5 299/7/5
f 301/5/5 295/5/5 294/5/5
f 301/7/5 294/7/5 300/7/5
f 301/5/5 296/5/5 295/5/5
f 302/5/5 296/5/5 301/5/5
f 303/7/5 289/7/5 296/7/5
f 303/5/5 296/5/5 302/5/5
f 304/7/5 297/7/5 290/7/5
f 304/6/5 298/6/5 297/6/5
f 305/7/5 300/7/5 299/7/5
f 305/6/5 298/6/5 304/6/5
f 305/7/5 299/7/5 298/7/5
f 306/7/5 300/7/5 305/7/5
f 307/6/5 301/6/5 300/6/5
f 307/7/5 300/7/5 306/7/5
f 308/7/5 302/7/5 301/7/5
f 308/6/5 301/6/5 307/6/5
f 309/6/5 303/6/5 302/6/5
f 309/7/5 302/7/5 308/7/5
f 310/7/5 289/7/5 303/7/5
f 310/6/5 303/6/5 309/6/5
f 311/7/5 304/7/5 290/7/5
f 311/7/5 305/7/5 304/7/5
f 312/4/5 306/4/5 305/4/5
f 312/7/5 305/7/5 311/7/5
f 313/6/5 307/6/5 306/6/5
f 313/4/5 306/4/5 312/4/5
f 314/7/5 309/7/5 308/7/5
f 314/6/5 307/6/5 313/6/5
f 314/7/5 308/7/5 307/7/5
f 314/7/5 310/7/5 309/7/5
f 315/7/5 310/7/5 314/7/5
f 316/7/5 289/7/5 310/7/5
f 316/7/5 310/7/5 315/7/5
f 317/7/5 311/7/5 290/7/5
f 318/5/5 312/5/5 311/5/5
f 318/7/5 311/7/5 317/7/5
f 319/7/5 313/7/5 312/7/5
f 319/5/5 312/5/5 318/5/5
f 319/7/5 314/7/5 313/7/5
f 320/7/5 314/7/5 319/7/5
f 321/5/5 315/5/5 314/5/5
f 321/7/5 314/7/5 320/7/5
f 322/4/5 316/4/5 315/4/5
f 322/5/5 315/5/5 321/5/5
f 323/4/5 316/4/5 322/4/5
f 324/7/5 289/7/5 316/7/5
f 324/4/5 316/4/5 323/4/5
f 325/7/5 289/7/5 324/7/5
f 326/5/5 318/5/5 317/5/5
f 327/7/5 319/7/5 318/7/5
f 327/5/5 318/5/5 326/5/5
f 328/5/5 320/5/5 319/5/5
f 328/7/5 319/7/5 327/7/5
f 329/7/5 321/7/5 320/7/5
f 329/5/5 320/5/5 328/5/5
f 329/7/5 322/7/5 321/7/5
f 330/4/5 323/4/5 322/4/5
f 330/7/5 322/7/5 329/7/5
f 331/5/5 324/5/5 323/5/5
f 331/4/5 323/4/5 330/4/5
f 332/2/5 325/2/5 324/2/5
f 332/5/5 324/5/5 331/5/5
f 333/2/5 325/2/5 332/2/5
f 334/7/5 327/7/5 326/7/5
f 335/4/5 328/4/5 327/4/5
f 335/7/5 327/7/5 334/7/5
f 336/6/5 329/6/5 328/6/5
f 336/4/5 328/4/5 335/4/5
f 337/7/5 331/7/5 330/7/5
f 337/6/5 329/6/5 336/6/5
f 337/7/5 330/7/5 329/7/5
f 337/7/5 333/7/5 332/7/5
f 337/7/5 332/7/5 331/7/5
f 338/7/5 333/7/5 337/7/5
f 339/7/5 333/7/5 338/7/5
f 340/7/5 333/7/5 339/7/5
f 341/7/5 333/7/5 340/7/5
f 342/4/5 335/4/5 334/4/5
f 343/6/5 336/6/5 335/6/5
f 343/4/5 335/4/5 342/4/5
f 344/7/5 337/7/5 336/7/5
f 344/6/5 336/6/5 343/6/5
f 345/5/5 338/5/5 337/5/5
f 345/7/5 337/7/5 344/7/5
f 346/7/5 339/7/5 338/7/5
f 346/5/5 338/5/5 345/5/5
f 347/4/5 340/4/5 339/4/5
f 347/7/5 339/7/5 346/7/5
f 348/6/5 341/6/5 340/6/5
f 348/4/5 340/4/5 347/4/5
f 349/7/5 333/7/5 341/7/5
f 349/6/5 341/6/5 348/6/5
f 350/7/5 333/7/5 349/7/5
f 351/5/6 352/5/6 357/5/6
f 352/7/6 353/7/6 358/7/6
f 357/5/6 352/5/6 358/5/6
f 353/4/6 354/4/6 359/4/6
f 358/7/6 353/7/6 359/7/6
f 354/6/6 355/6/6 360/6/6
f 359/4/6 354/4/6 360/4/6
f 355/7/6 356/7/6 361/7/6
f 360/6/6 355/6/6 361/6/6
f 361/7/6 356/7/6 362/7/6
f 362/7/6 356/7/6 363/7/6
f 363/7/6 356/7/6 364/7/6
f 363/2/6 364/2/6 365/2/6
f 365/2/6 364/2/6 366/2/6
f 365/7/6 366/7/6 369/7/6
f 367/4/6 368/4/6 370/4/6
f 370/4/6 368/4/6 371/4/6
f 369/7/6 366/7/6 372/7/6
f 372/7/6 366/7/6 373/7/6
f 374/1/6 375/1/6 376/1/6
f 376/1/6 375/1/6 377/1/6
f 377/1/6 375/1/6 378/1/6
f 377/3/6 378/3/6 379/3/6
f 379/3/6 378/3/6 380/3/6
f 383/2/6 384/2/6 385/2/6
f 385/2/6 384/2/6 386/2/6
f 381/1/6 382/1/6 388/1/6
f 388/1/6 382/1/6 389/1/6
f 386/2/6 387/2/6 390/2/6
f 390/2/6 387/2/6 391/2/6
f 388/3/6 389/3/6 392/3/6
f 392/3/6 389/3/6 393/3/6
f 394/3/6 395/3/6 396/3/6
f 396/3/6 395/3/6 397/3/6
f 398/3/6 399/3/6 400/3/6
f 400/3/6 399/3/6 401/3/6
f 402/1/6 403/1/6 406/1/6
f 404/1/6 405/1/6 406/1/6
f 403/1/6 404/1/6 406/1/6
f 406/1/6 405/1/6 407/1/6
f 407/1/6 405/1/6 408/1/6
f 407/1/6 408/1/6 409/1/6
f 409/1/6 408/1/6 410/1/6
f 409/3/6 410/3/6 411/3/6
f 411/3/6 410/3/6 412/3/6
f 413/2/6 414/2/6 415/2/6
f 415/2/6 414/2/6 416/2/6
f 417/1/6 418/1/6 421/1/6
f 421/1/6 418/1/6 422/1/6
f 419/2/6 420/2/6 423/2/6
f 423/2/6 420/2/6 424/2/6
f 415/1/6 416/1/6 426/1/6
f 426/1/6 416/1/6 427/1/6
f 424/1/6 425/1/6 428/1/6
f 428/1/6 425/1/6 429/1/6
f 428/2/6 429/2/6 430/2/6
f 430/2/6 429/2/6 431/2/6
f 430/3/6 431/3/6 434/3/6
f 434/3/6 431/3/6 435/3/6
f 432/1/6 433/1/6 436/1/6
f 436/1/6 433/1/6 437/1/6
f 438/1/6 439/1/6 440/1/6
f 440/1/6 439/1/6 441/1/6
f 440/1/6 441/1/6 443/1/6
f 441/3/6 442/3/6 443/3/6
f 443/3/6 442/3/6 444/3/6
f 440/1/6 443/1/6 445/1/6
f 443/1/6 444/1/6 445/1/6
f 445/1/6 444/1/6 446/1/6
f 440/1/6 445/1/6 447/1/6
f 447/1/6 445/1/6 448/1/6
f 451/1/6 452/1/6 453/1/6
f 453/1/6 452/1/6 454/1/6
f 449/1/6 450/1/6 455/1/6
f 455/1/6 450/1/6 456/1/6
f 453/3/6 454/3/6 458/3/6
f 458/3/6 454/3/6 459/3/6
f 457/1/6 458/1/6 460/1/6
f 460/1/6 458/1/6 461/1/6
f 462/1/6 463/1/6 464/1/6
f 462/1/6 464/1/6 465/1/6
f 465/1/6 464/1/6 466/1/6
f 467/1/6 468/1/6 469/1/6
f 469/1/6 468/1/6 470/1/6
f 471/1/6 472/1/6 473/1/6
f 473/1/6 472/1/6 474/1/6
