# MagicaVoxel @ Ephtracy

# group
o 

# material
mtllib mountain_2.mtl
usemtl palette

# normals
vn -1 0 0
vn 1 0 0
vn 0 0 1
vn 0 0 -1
vn 0 -1 0
vn 0 1 0

# texcoords
vt 0.376953 0.5
vt 0.380859 0.5
vt 0.384766 0.5
vt 0.900391 0.5

# verts
v 0 2 0
v 0 2 -0.6
v 0 2 -0.7
v 0 2 -0.8
v 0 2.1 0
v 0 2.1 -0.6
v 0 2.1 -0.7
v 0 2.1 -0.8
v 0.1 2.1 0
v 0.1 2.1 -0.1
v 0.1 2.1 -0.3
v 0.1 2.1 -0.6
v 0.1 2.1 -0.7
v 0.1 2.1 -0.8
v 0.1 2.2 0
v 0.1 2.2 -0.1
v 0.1 2.2 -0.3
v 0.1 2.2 -0.8
v 0.2 2.2 0
v 0.2 2.2 -0.1
v 0.2 2.2 -0.3
v 0.2 2.2 -0.4
v 0.2 2.2 -0.5
v 0.2 2.2 -0.8
v 0.2 2.3 0
v 0.2 2.3 -0.1
v 0.2 2.3 -0.2
v 0.2 2.3 -0.3
v 0.2 2.3 -0.4
v 0.2 2.3 -0.5
v 0.2 2.4 -0.5
v 0.2 2.4 -0.6
v 0.2 2.5 0
v 0.2 2.5 -0.1
v 0.2 2.5 -0.2
v 0.2 2.5 -0.3
v 0.2 2.5 -0.5
v 0.2 2.5 -0.6
v 0.2 2.5 -0.8
v 0.3 2.5 0
v 0.3 2.5 -0.1
v 0.3 2.5 -0.2
v 0.3 2.5 -0.3
v 0.3 2.5 -0.4
v 0.3 2.5 -0.5
v 0.3 2.5 -0.6
v 0.3 2.5 -0.8
v 0.3 2.6 0
v 0.3 2.6 -0.2
v 0.3 2.6 -0.4
v 0.3 2.6 -0.8
v 0.3 2.7 0
v 0.3 2.7 -0.3
v 0.3 2.7 -0.4
v 0.3 2.7 -0.8
v 0.3 2.8 -0.3
v 0.3 2.8 -0.4
v 0.4 2.7 -0.1
v 0.4 2.7 -0.2
v 0.4 2.7 -0.4
v 0.4 2.7 -0.6
v 0.4 2.7 -0.7
v 0.4 2.8 -0.1
v 0.4 2.8 -0.2
v 0.4 2.8 -0.4
v 0.4 2.8 -0.6
v 0.4 2.8 -0.7
v 0.5 2.4 0
v 0.5 2.4 -0.1
v 0.5 2.4 -0.2
v 0.5 2.4 -0.4
v 0.5 2.4 -0.5
v 0.5 2.4 -0.7
v 0.5 2.5 0
v 0.5 2.5 -0.1
v 0.5 2.5 -0.2
v 0.5 2.5 -0.4
v 0.5 2.5 -0.5
v 0.5 2.5 -0.7
v 0.5 2.5 -0.8
v 0.5 2.6 -0.2
v 0.5 2.6 -0.3
v 0.5 2.6 -0.4
v 0.5 2.6 -0.6
v 0.5 2.6 -0.7
v 0.5 2.6 -0.8
v 0.5 2.7 0
v 0.5 2.7 -0.1
v 0.5 2.7 -0.2
v 0.5 2.7 -0.3
v 0.5 2.7 -0.4
v 0.5 2.7 -0.7
v 0.5 2.7 -0.8
v 0.5 2.8 -0.1
v 0.5 2.8 -0.2
v 0.5 2.8 -0.3
v 0.5 2.8 -0.6
v 0.5 2.8 -0.7
v 0.6 2.2 0
v 0.6 2.2 -0.2
v 0.6 2.2 -0.3
v 0.6 2.2 -0.4
v 0.6 2.2 -0.5
v 0.6 2.2 -0.6
v 0.6 2.2 -0.7
v 0.6 2.2 -0.8
v 0.6 2.3 0
v 0.6 2.3 -0.1
v 0.6 2.3 -0.2
v 0.6 2.3 -0.3
v 0.6 2.3 -0.4
v 0.6 2.3 -0.7
v 0.6 2.3 -0.8
v 0.6 2.4 0
v 0.6 2.4 -0.1
v 0.6 2.4 -0.2
v 0.6 2.4 -0.4
v 0.6 2.4 -0.5
v 0.6 2.4 -0.7
v 0.6 2.4 -0.8
v 0.6 2.5 -0.1
v 0.6 2.5 -0.2
v 0.6 2.5 -0.4
v 0.6 2.5 -0.5
v 0.6 2.5 -0.7
v 0.6 2.5 -0.8
v 0.7 2.1 0
v 0.7 2.1 -0.1
v 0.7 2.1 -0.2
v 0.7 2.1 -0.5
v 0.7 2.1 -0.6
v 0.7 2.1 -0.7
v 0.7 2.1 -0.8
v 0.7 2.2 0
v 0.7 2.2 -0.2
v 0.7 2.2 -0.5
v 0.7 2.2 -0.6
v 0.7 2.2 -0.7
v 0.7 2.2 -0.8
v 0.8 2 0
v 0.8 2 -0.1
v 0.8 2 -0.5
v 0.8 2 -0.6
v 0.8 2 -0.8
v 0.8 2.1 0
v 0.8 2.1 -0.1
v 0.8 2.1 -0.5
v 0.8 2.1 -0.6
v 0.8 2.1 -0.8
v 0 2 0
v 0 2.1 0
v 0.1 2.1 0
v 0.1 2.2 0
v 0.2 2.1 0
v 0.2 2.2 0
v 0.2 2.3 0
v 0.2 2.5 0
v 0.3 2.5 0
v 0.3 2.6 0
v 0.3 2.7 0
v 0.4 2.3 0
v 0.4 2.4 0
v 0.4 2.5 0
v 0.4 2.6 0
v 0.4 2.7 0
v 0.5 2.2 0
v 0.5 2.3 0
v 0.5 2.4 0
v 0.5 2.5 0
v 0.5 2.7 0
v 0.6 2.2 0
v 0.6 2.3 0
v 0.6 2.4 0
v 0.7 2 0
v 0.7 2.1 0
v 0.7 2.2 0
v 0.8 2 0
v 0.8 2.1 0
v 0.4 2.7 -0.1
v 0.4 2.8 -0.1
v 0.5 2.4 -0.1
v 0.5 2.5 -0.1
v 0.5 2.7 -0.1
v 0.5 2.8 -0.1
v 0.6 2.4 -0.1
v 0.6 2.5 -0.1
v 0.3 2.7 -0.3
v 0.3 2.8 -0.3
v 0.5 2.7 -0.3
v 0.5 2.8 -0.3
v 0.5 2.4 -0.4
v 0.5 2.5 -0.4
v 0.6 2.4 -0.4
v 0.6 2.5 -0.4
v 0.5 2.4 -0.7
v 0.5 2.5 -0.7
v 0.6 2.4 -0.7
v 0.6 2.5 -0.7
v 0.4 2.7 -0.2
v 0.4 2.8 -0.2
v 0.5 2.4 -0.2
v 0.5 2.5 -0.2
v 0.5 2.7 -0.2
v 0.5 2.8 -0.2
v 0.6 2.4 -0.2
v 0.6 2.5 -0.2
v 0.3 2.7 -0.4
v 0.3 2.8 -0.4
v 0.4 2.7 -0.4
v 0.4 2.8 -0.4
v 0.5 2.4 -0.5
v 0.5 2.5 -0.5
v 0.6 2.4 -0.5
v 0.6 2.5 -0.5
v 0.4 2.7 -0.7
v 0.4 2.8 -0.7
v 0.5 2.7 -0.7
v 0.5 2.8 -0.7
v 0 2 -0.8
v 0 2.1 -0.8
v 0.1 2.1 -0.8
v 0.1 2.2 -0.8
v 0.2 2.2 -0.8
v 0.2 2.5 -0.8
v 0.3 2.5 -0.8
v 0.3 2.6 -0.8
v 0.3 2.7 -0.8
v 0.5 2.2 -0.8
v 0.5 2.3 -0.8
v 0.5 2.4 -0.8
v 0.5 2.5 -0.8
v 0.5 2.6 -0.8
v 0.5 2.7 -0.8
v 0.6 2.1 -0.8
v 0.6 2.2 -0.8
v 0.6 2.3 -0.8
v 0.6 2.4 -0.8
v 0.6 2.5 -0.8
v 0.7 2.1 -0.8
v 0.7 2.2 -0.8
v 0.8 2 -0.8
v 0.8 2.1 -0.8
v 0 2 0
v 0.7 2 0
v 0.8 2 0
v 0.7 2 -0.1
v 0.8 2 -0.1
v 0.7 2 -0.5
v 0.8 2 -0.5
v 0 2 -0.6
v 0.1 2 -0.6
v 0.7 2 -0.6
v 0.8 2 -0.6
v 0 2 -0.7
v 0.1 2 -0.7
v 0 2 -0.8
v 0.8 2 -0.8
v 0 2.1 0
v 0.1 2.1 0
v 0.7 2.1 0
v 0.8 2.1 0
v 0.1 2.1 -0.1
v 0.7 2.1 -0.1
v 0.8 2.1 -0.1
v 0.7 2.1 -0.2
v 0.1 2.1 -0.3
v 0.7 2.1 -0.5
v 0.8 2.1 -0.5
v 0 2.1 -0.6
v 0.1 2.1 -0.6
v 0.7 2.1 -0.6
v 0.8 2.1 -0.6
v 0 2.1 -0.7
v 0.1 2.1 -0.7
v 0.7 2.1 -0.7
v 0 2.1 -0.8
v 0.1 2.1 -0.8
v 0.7 2.1 -0.8
v 0.8 2.1 -0.8
v 0.1 2.2 0
v 0.2 2.2 0
v 0.6 2.2 0
v 0.7 2.2 0
v 0.1 2.2 -0.1
v 0.2 2.2 -0.1
v 0.6 2.2 -0.2
v 0.7 2.2 -0.2
v 0.1 2.2 -0.3
v 0.2 2.2 -0.3
v 0.6 2.2 -0.3
v 0.2 2.2 -0.4
v 0.6 2.2 -0.4
v 0.2 2.2 -0.5
v 0.6 2.2 -0.5
v 0.7 2.2 -0.5
v 0.6 2.2 -0.6
v 0.7 2.2 -0.6
v 0.6 2.2 -0.7
v 0.7 2.2 -0.7
v 0.1 2.2 -0.8
v 0.2 2.2 -0.8
v 0.6 2.2 -0.8
v 0.7 2.2 -0.8
v 0.5 2.4 0
v 0.6 2.4 0
v 0.5 2.4 -0.1
v 0.6 2.4 -0.1
v 0.5 2.4 -0.2
v 0.6 2.4 -0.2
v 0.5 2.4 -0.4
v 0.6 2.4 -0.4
v 0.5 2.4 -0.5
v 0.6 2.4 -0.5
v 0.5 2.4 -0.7
v 0.6 2.4 -0.7
v 0.2 2.5 0
v 0.3 2.5 0
v 0.2 2.5 -0.1
v 0.3 2.5 -0.1
v 0.5 2.5 -0.1
v 0.6 2.5 -0.1
v 0.2 2.5 -0.2
v 0.3 2.5 -0.2
v 0.5 2.5 -0.2
v 0.6 2.5 -0.2
v 0.2 2.5 -0.3
v 0.3 2.5 -0.3
v 0.3 2.5 -0.4
v 0.5 2.5 -0.4
v 0.6 2.5 -0.4
v 0.2 2.5 -0.5
v 0.3 2.5 -0.5
v 0.5 2.5 -0.5
v 0.6 2.5 -0.5
v 0.2 2.5 -0.6
v 0.3 2.5 -0.6
v 0.5 2.5 -0.7
v 0.6 2.5 -0.7
v 0.2 2.5 -0.8
v 0.3 2.5 -0.8
v 0.5 2.5 -0.8
v 0.6 2.5 -0.8
v 0.3 2.7 0
v 0.4 2.7 0
v 0.5 2.7 0
v 0.4 2.7 -0.1
v 0.5 2.7 -0.1
v 0.4 2.7 -0.2
v 0.5 2.7 -0.2
v 0.3 2.7 -0.3
v 0.5 2.7 -0.3
v 0.3 2.7 -0.4
v 0.4 2.7 -0.4
v 0.4 2.7 -0.6
v 0.4 2.7 -0.7
v 0.5 2.7 -0.7
v 0.3 2.7 -0.8
v 0.5 2.7 -0.8
v 0.4 2.8 -0.1
v 0.5 2.8 -0.1
v 0.4 2.8 -0.2
v 0.5 2.8 -0.2
v 0.3 2.8 -0.3
v 0.5 2.8 -0.3
v 0.3 2.8 -0.4
v 0.4 2.8 -0.4
v 0.4 2.8 -0.6
v 0.5 2.8 -0.6
v 0.4 2.8 -0.7
v 0.5 2.8 -0.7

# faces
f 5/4/1 2/4/1 1/4/1
f 6/3/1 3/3/1 2/3/1
f 6/4/1 2/4/1 5/4/1
f 7/4/1 4/4/1 3/4/1
f 7/3/1 3/3/1 6/3/1
f 8/4/1 4/4/1 7/4/1
f 15/2/1 10/2/1 9/2/1
f 16/3/1 11/3/1 10/3/1
f 16/2/1 10/2/1 15/2/1
f 17/1/1 14/1/1 13/1/1
f 17/3/1 11/3/1 16/3/1
f 17/1/1 12/1/1 11/1/1
f 17/1/1 13/1/1 12/1/1
f 18/1/1 14/1/1 17/1/1
f 25/1/1 20/1/1 19/1/1
f 25/1/1 21/1/1 20/1/1
f 25/1/1 22/1/1 21/1/1
f 26/1/1 22/1/1 25/1/1
f 27/1/1 22/1/1 26/1/1
f 28/1/1 22/1/1 27/1/1
f 29/3/1 23/3/1 22/3/1
f 29/1/1 22/1/1 28/1/1
f 30/1/1 24/1/1 23/1/1
f 30/3/1 23/3/1 29/3/1
f 31/1/1 29/1/1 28/1/1
f 31/1/1 24/1/1 30/1/1
f 31/1/1 30/1/1 29/1/1
f 32/1/1 24/1/1 31/1/1
f 33/2/1 26/2/1 25/2/1
f 34/1/1 27/1/1 26/1/1
f 34/2/1 26/2/1 33/2/1
f 35/3/1 28/3/1 27/3/1
f 35/1/1 27/1/1 34/1/1
f 36/1/1 31/1/1 28/1/1
f 36/3/1 28/3/1 35/3/1
f 37/3/1 32/3/1 31/3/1
f 37/1/1 31/1/1 36/1/1
f 38/1/1 24/1/1 32/1/1
f 38/3/1 32/3/1 37/3/1
f 39/1/1 24/1/1 38/1/1
f 48/1/1 41/1/1 40/1/1
f 48/1/1 42/1/1 41/1/1
f 49/2/1 43/2/1 42/2/1
f 49/1/1 42/1/1 48/1/1
f 49/2/1 44/2/1 43/2/1
f 50/1/1 47/1/1 46/1/1
f 50/2/1 44/2/1 49/2/1
f 50/1/1 46/1/1 45/1/1
f 50/1/1 45/1/1 44/1/1
f 51/1/1 47/1/1 50/1/1
f 52/2/1 49/2/1 48/2/1
f 52/2/1 50/2/1 49/2/1
f 52/2/1 51/2/1 50/2/1
f 53/2/1 51/2/1 52/2/1
f 54/2/1 51/2/1 53/2/1
f 55/2/1 51/2/1 54/2/1
f 56/2/1 54/2/1 53/2/1
f 57/2/1 54/2/1 56/2/1
f 63/2/1 59/2/1 58/2/1
f 64/2/1 59/2/1 63/2/1
f 65/2/1 61/2/1 60/2/1
f 66/3/1 62/3/1 61/3/1
f 66/2/1 61/2/1 65/2/1
f 67/3/1 62/3/1 66/3/1
f 68/2/2 69/2/2 74/2/2
f 74/2/2 69/2/2 75/2/2
f 70/1/2 71/1/2 76/1/2
f 76/1/2 71/1/2 77/1/2
f 72/2/2 73/2/2 78/2/2
f 78/2/2 73/2/2 79/2/2
f 76/1/2 77/1/2 81/1/2
f 74/3/2 75/3/2 81/3/2
f 75/3/2 76/3/2 81/3/2
f 81/1/2 77/1/2 82/1/2
f 78/2/2 79/2/2 83/2/2
f 82/1/2 77/1/2 83/1/2
f 77/2/2 78/2/2 83/2/2
f 83/2/2 79/2/2 84/2/2
f 79/1/2 80/1/2 85/1/2
f 84/2/2 79/2/2 85/2/2
f 85/1/2 80/1/2 86/1/2
f 74/3/2 81/3/2 87/3/2
f 87/3/2 81/3/2 88/3/2
f 81/2/2 82/2/2 89/2/2
f 88/3/2 81/3/2 89/3/2
f 82/3/2 83/3/2 90/3/2
f 89/2/2 82/2/2 90/2/2
f 83/2/2 84/2/2 91/2/2
f 90/3/2 83/3/2 91/3/2
f 84/3/2 85/3/2 92/3/2
f 85/2/2 86/2/2 92/2/2
f 92/2/2 86/2/2 93/2/2
f 88/2/2 89/2/2 94/2/2
f 94/2/2 89/2/2 95/2/2
f 90/2/2 91/2/2 96/2/2
f 84/3/2 92/3/2 97/3/2
f 96/2/2 91/2/2 97/2/2
f 91/2/2 84/2/2 97/2/2
f 97/3/2 92/3/2 98/3/2
f 99/2/2 100/2/2 107/2/2
f 107/2/2 100/2/2 108/2/2
f 100/1/2 101/1/2 109/1/2
f 108/2/2 100/2/2 109/2/2
f 101/3/2 102/3/2 110/3/2
f 109/1/2 101/1/2 110/1/2
f 102/1/2 103/1/2 111/1/2
f 110/3/2 102/3/2 111/3/2
f 103/1/2 104/1/2 111/1/2
f 104/1/2 105/1/2 111/1/2
f 105/3/2 106/3/2 112/3/2
f 111/1/2 105/1/2 112/1/2
f 112/3/2 106/3/2 113/3/2
f 107/3/2 108/3/2 114/3/2
f 110/1/2 111/1/2 115/1/2
f 114/3/2 108/3/2 115/3/2
f 108/1/2 109/1/2 115/1/2
f 109/1/2 110/1/2 115/1/2
f 115/1/2 111/1/2 116/1/2
f 111/2/2 112/2/2 117/2/2
f 116/1/2 111/1/2 117/1/2
f 117/2/2 112/2/2 118/2/2
f 112/1/2 113/1/2 119/1/2
f 118/2/2 112/2/2 119/2/2
f 119/1/2 113/1/2 120/1/2
f 115/2/2 116/2/2 121/2/2
f 121/2/2 116/2/2 122/2/2
f 117/2/2 118/2/2 123/2/2
f 123/2/2 118/2/2 124/2/2
f 119/2/2 120/2/2 125/2/2
f 125/2/2 120/2/2 126/2/2
f 127/1/2 128/1/2 134/1/2
f 128/1/2 129/1/2 134/1/2
f 129/3/2 130/3/2 135/3/2
f 134/1/2 129/1/2 135/1/2
f 130/2/2 131/2/2 136/2/2
f 135/3/2 130/3/2 136/3/2
f 131/1/2 132/1/2 137/1/2
f 136/2/2 131/2/2 137/2/2
f 132/2/2 133/2/2 138/2/2
f 137/1/2 132/1/2 138/1/2
f 138/2/2 133/2/2 139/2/2
f 140/2/2 141/2/2 145/2/2
f 141/4/2 142/4/2 146/4/2
f 145/2/2 141/2/2 146/2/2
f 142/2/2 143/2/2 147/2/2
f 146/4/2 142/4/2 147/4/2
f 143/4/2 144/4/2 148/4/2
f 147/2/2 143/2/2 148/2/2
f 148/4/2 144/4/2 149/4/2
f 152/4/3 151/4/3 150/4/3
f 154/4/3 152/4/3 150/4/3
f 154/2/3 153/2/3 152/2/3
f 155/2/3 153/2/3 154/2/3
f 158/2/3 157/2/3 156/2/3
f 161/1/3 155/1/3 154/1/3
f 161/1/3 156/1/3 155/1/3
f 161/2/3 158/2/3 156/2/3
f 162/2/3 158/2/3 161/2/3
f 163/1/3 159/1/3 158/1/3
f 163/2/3 158/2/3 162/2/3
f 164/2/3 160/2/3 159/2/3
f 164/1/3 159/1/3 163/1/3
f 165/2/3 160/2/3 164/2/3
f 166/1/3 161/1/3 154/1/3
f 167/3/3 162/3/3 161/3/3
f 167/1/3 161/1/3 166/1/3
f 168/2/3 163/2/3 162/2/3
f 168/3/3 162/3/3 167/3/3
f 169/3/3 164/3/3 163/3/3
f 169/2/3 163/2/3 168/2/3
f 169/3/3 165/3/3 164/3/3
f 170/3/3 165/3/3 169/3/3
f 171/2/3 167/2/3 166/2/3
f 171/1/3 166/1/3 154/1/3
f 172/3/3 168/3/3 167/3/3
f 172/2/3 167/2/3 171/2/3
f 173/3/3 168/3/3 172/3/3
f 174/4/3 154/4/3 150/4/3
f 175/1/3 171/1/3 154/1/3
f 175/4/3 154/4/3 174/4/3
f 176/1/3 171/1/3 175/1/3
f 177/2/3 175/2/3 174/2/3
f 178/2/3 175/2/3 177/2/3
f 183/2/3 180/2/3 179/2/3
f 184/2/3 180/2/3 183/2/3
f 185/2/3 182/2/3 181/2/3
f 186/2/3 182/2/3 185/2/3
f 189/2/3 188/2/3 187/2/3
f 190/2/3 188/2/3 189/2/3
f 193/2/3 192/2/3 191/2/3
f 194/2/3 192/2/3 193/2/3
f 197/2/3 196/2/3 195/2/3
f 198/2/3 196/2/3 197/2/3
f 199/2/4 200/2/4 203/2/4
f 203/2/4 200/2/4 204/2/4
f 201/2/4 202/2/4 205/2/4
f 205/2/4 202/2/4 206/2/4
f 207/2/4 208/2/4 209/2/4
f 209/2/4 208/2/4 210/2/4
f 211/2/4 212/2/4 213/2/4
f 213/2/4 212/2/4 214/2/4
f 215/3/4 216/3/4 217/3/4
f 217/3/4 216/3/4 218/3/4
f 219/4/4 220/4/4 221/4/4
f 221/1/4 222/1/4 223/1/4
f 223/1/4 224/1/4 225/1/4
f 221/1/4 223/1/4 228/1/4
f 223/1/4 225/1/4 228/1/4
f 225/1/4 226/1/4 228/1/4
f 228/1/4 226/1/4 229/1/4
f 229/1/4 226/1/4 230/1/4
f 230/1/4 226/1/4 231/1/4
f 226/2/4 227/2/4 232/2/4
f 231/1/4 226/1/4 232/1/4
f 232/2/4 227/2/4 233/2/4
f 219/4/4 221/4/4 234/4/4
f 221/1/4 228/1/4 234/1/4
f 228/3/4 229/3/4 235/3/4
f 234/1/4 228/1/4 235/1/4
f 229/1/4 230/1/4 236/1/4
f 235/3/4 229/3/4 236/3/4
f 230/2/4 231/2/4 237/2/4
f 236/1/4 230/1/4 237/1/4
f 237/2/4 231/2/4 238/2/4
f 234/2/4 235/2/4 239/2/4
f 219/4/4 234/4/4 239/4/4
f 239/2/4 235/2/4 240/2/4
f 219/4/4 239/4/4 241/4/4
f 241/4/4 239/4/4 242/4/4
f 246/4/5 244/4/5 243/4/5
f 246/2/5 245/2/5 244/2/5
f 247/2/5 245/2/5 246/2/5
f 248/4/5 246/4/5 243/4/5
f 248/4/5 247/4/5 246/4/5
f 249/4/5 247/4/5 248/4/5
f 250/4/5 248/4/5 243/4/5
f 251/4/5 248/4/5 250/4/5
f 252/2/5 249/2/5 248/2/5
f 252/4/5 248/4/5 251/4/5
f 253/2/5 249/2/5 252/2/5
f 254/3/5 251/3/5 250/3/5
f 255/4/5 252/4/5 251/4/5
f 255/3/5 251/3/5 254/3/5
f 255/4/5 253/4/5 252/4/5
f 256/4/5 255/4/5 254/4/5
f 257/4/5 253/4/5 255/4/5
f 257/4/5 255/4/5 256/4/5
f 258/4/6 259/4/6 262/4/6
f 260/2/6 261/2/6 263/2/6
f 263/2/6 261/2/6 264/2/6
f 263/4/6 264/4/6 265/4/6
f 258/4/6 262/4/6 266/4/6
f 265/4/6 264/4/6 267/4/6
f 267/4/6 264/4/6 268/4/6
f 258/4/6 266/4/6 269/4/6
f 269/4/6 266/4/6 270/4/6
f 267/2/6 268/2/6 271/2/6
f 271/2/6 268/2/6 272/2/6
f 269/3/6 270/3/6 273/3/6
f 273/3/6 270/3/6 274/3/6
f 271/4/6 272/4/6 275/4/6
f 273/4/6 274/4/6 276/4/6
f 276/4/6 274/4/6 277/4/6
f 275/4/6 272/4/6 278/4/6
f 278/4/6 272/4/6 279/4/6
f 280/2/6 281/2/6 284/2/6
f 284/2/6 281/2/6 285/2/6
f 282/1/6 283/1/6 286/1/6
f 286/1/6 283/1/6 287/1/6
f 284/3/6 285/3/6 288/3/6
f 288/3/6 285/3/6 289/3/6
f 286/3/6 287/3/6 290/3/6
f 288/1/6 289/1/6 291/1/6
f 290/3/6 287/3/6 292/3/6
f 288/1/6 291/1/6 293/1/6
f 292/3/6 287/3/6 294/3/6
f 294/3/6 287/3/6 295/3/6
f 294/2/6 295/2/6 296/2/6
f 296/2/6 295/2/6 297/2/6
f 296/1/6 297/1/6 298/1/6
f 298/1/6 297/1/6 299/1/6
f 288/1/6 293/1/6 300/1/6
f 300/1/6 293/1/6 301/1/6
f 298/2/6 299/2/6 302/2/6
f 302/2/6 299/2/6 303/2/6
f 304/3/6 305/3/6 306/3/6
f 306/3/6 305/3/6 307/3/6
f 308/1/6 309/1/6 310/1/6
f 310/1/6 309/1/6 311/1/6
f 312/2/6 313/2/6 314/2/6
f 314/2/6 313/2/6 315/2/6
f 316/2/6 317/2/6 318/2/6
f 318/2/6 317/2/6 319/2/6
f 318/1/6 319/1/6 322/1/6
f 322/1/6 319/1/6 323/1/6
f 320/2/6 321/2/6 324/2/6
f 324/2/6 321/2/6 325/2/6
f 322/3/6 323/3/6 326/3/6
f 326/3/6 323/3/6 327/3/6
f 326/1/6 327/1/6 328/1/6
f 326/1/6 328/1/6 331/1/6
f 331/1/6 328/1/6 332/1/6
f 329/2/6 330/2/6 333/2/6
f 333/2/6 330/2/6 334/2/6
f 331/3/6 332/3/6 335/3/6
f 335/3/6 332/3/6 336/3/6
f 335/1/6 336/1/6 339/1/6
f 339/1/6 336/1/6 340/1/6
f 337/2/6 338/2/6 341/2/6
f 341/2/6 338/2/6 342/2/6
f 343/2/6 344/2/6 346/2/6
f 344/3/6 345/3/6 346/3/6
f 346/3/6 345/3/6 347/3/6
f 343/2/6 346/2/6 348/2/6
f 343/2/6 348/2/6 350/2/6
f 348/2/6 349/2/6 350/2/6
f 350/2/6 349/2/6 351/2/6
f 352/2/6 353/2/6 354/2/6
f 352/2/6 354/2/6 355/2/6
f 352/2/6 355/2/6 357/2/6
f 355/2/6 356/2/6 357/2/6
f 357/2/6 356/2/6 358/2/6
f 359/2/6 360/2/6 361/2/6
f 361/2/6 360/2/6 362/2/6
f 363/2/6 364/2/6 365/2/6
f 365/2/6 364/2/6 366/2/6
f 366/2/6 364/2/6 367/2/6
f 367/2/6 364/2/6 368/2/6
f 367/3/6 368/3/6 369/3/6
f 369/3/6 368/3/6 370/3/6
