# MagicaVoxel @ Ephtracy

# group
o 

# material
mtllib block_1.mtl
usemtl palette

# normals
vn -1 0 0
vn 1 0 0
vn 0 0 1
vn 0 0 -1
vn 0 -1 0
vn 0 1 0

# texcoords
vt 0.232422 0.5
vt 0.376953 0.5
vt 0.380859 0.5
vt 0.400391 0.5
vt 0.404297 0.5
vt 0.658203 0.5
vt 0.662109 0.5
vt 0.666016 0.5
vt 0.673828 0.5
vt 0.845703 0.5
vt 0.900391 0.5

# verts
v 0 2 0
v 0 2 -0.8
v 0 2.1 0
v 0 2.1 -0.8
v 0.2 2.1 -0.7
v 0.2 2.1 -0.8
v 0.2 2.2 -0.7
v 0.2 2.2 -0.8
v 0.3 2.1 -0.6
v 0.3 2.1 -0.7
v 0.3 2.2 -0.6
v 0.3 2.2 -0.7
v 0.5 2.3 -0.2
v 0.5 2.3 -0.3
v 0.5 2.4 -0.1
v 0.5 2.4 -0.2
v 0.5 2.4 -0.3
v 0.5 2.5 -0.1
v 0.5 2.5 -0.2
v 0.5 2.5 -0.3
v 0.5 2.6 -0.1
v 0.5 2.6 -0.2
v 0.6 2.1 -0.2
v 0.6 2.1 -0.3
v 0.6 2.3 -0.2
v 0.6 2.3 -0.3
v 0.6 2.4 -0.3
v 0.6 2.4 -0.4
v 0.6 2.5 0
v 0.6 2.5 -0.1
v 0.6 2.5 -0.2
v 0.6 2.5 -0.3
v 0.6 2.5 -0.4
v 0.6 2.6 0
v 0.6 2.6 -0.1
v 0.6 2.6 -0.2
v 0.6 2.6 -0.3
v 0.6 2.7 -0.1
v 0.6 2.7 -0.2
v 0.4 2.1 -0.6
v 0.4 2.1 -0.7
v 0.4 2.1 -0.8
v 0.4 2.2 -0.6
v 0.4 2.2 -0.8
v 0.7 2.1 -0.2
v 0.7 2.1 -0.3
v 0.7 2.3 -0.2
v 0.7 2.3 -0.3
v 0.7 2.4 -0.1
v 0.7 2.4 -0.2
v 0.7 2.4 -0.3
v 0.7 2.4 -0.4
v 0.7 2.5 0
v 0.7 2.5 -0.1
v 0.7 2.5 -0.2
v 0.7 2.5 -0.3
v 0.7 2.5 -0.4
v 0.7 2.6 0
v 0.7 2.6 -0.1
v 0.7 2.6 -0.2
v 0.7 2.6 -0.3
v 0.7 2.7 -0.1
v 0.7 2.7 -0.2
v 0.8 2 0
v 0.8 2 -0.4
v 0.8 2 -0.5
v 0.8 2 -0.8
v 0.8 2.1 0
v 0.8 2.1 -0.4
v 0.8 2.1 -0.5
v 0.8 2.1 -0.8
v 0.8 2.3 -0.2
v 0.8 2.3 -0.3
v 0.8 2.4 -0.2
v 0.8 2.4 -0.3
v 0.8 2.5 -0.1
v 0.8 2.5 -0.2
v 0.8 2.5 -0.3
v 0.8 2.6 -0.1
v 0.8 2.6 -0.2
v 0 2 0
v 0 2.1 0
v 0.6 2.5 0
v 0.6 2.6 0
v 0.7 2.5 0
v 0.7 2.6 0
v 0.8 2 0
v 0.8 2.1 0
v 0.5 2.4 -0.1
v 0.5 2.5 -0.1
v 0.5 2.6 -0.1
v 0.6 2.4 -0.1
v 0.6 2.5 -0.1
v 0.6 2.6 -0.1
v 0.6 2.7 -0.1
v 0.7 2.4 -0.1
v 0.7 2.5 -0.1
v 0.7 2.6 -0.1
v 0.7 2.7 -0.1
v 0.8 2.5 -0.1
v 0.8 2.6 -0.1
v 0.5 2.3 -0.2
v 0.5 2.4 -0.2
v 0.6 2.1 -0.2
v 0.6 2.3 -0.2
v 0.6 2.4 -0.2
v 0.7 2.1 -0.2
v 0.7 2.3 -0.2
v 0.7 2.4 -0.2
v 0.7 2.5 -0.2
v 0.8 2.3 -0.2
v 0.8 2.4 -0.2
v 0.8 2.5 -0.2
v 0.3 2.1 -0.6
v 0.3 2.2 -0.6
v 0.4 2.1 -0.6
v 0.4 2.2 -0.6
v 0.2 2.1 -0.7
v 0.2 2.2 -0.7
v 0.3 2.1 -0.7
v 0.3 2.2 -0.7
v 0.5 2.5 -0.2
v 0.5 2.6 -0.2
v 0.6 2.5 -0.2
v 0.6 2.6 -0.2
v 0.6 2.7 -0.2
v 0.7 2.5 -0.2
v 0.7 2.6 -0.2
v 0.7 2.7 -0.2
v 0.8 2.5 -0.2
v 0.8 2.6 -0.2
v 0.5 2.3 -0.3
v 0.5 2.4 -0.3
v 0.5 2.5 -0.3
v 0.6 2.1 -0.3
v 0.6 2.3 -0.3
v 0.6 2.4 -0.3
v 0.6 2.5 -0.3
v 0.6 2.6 -0.3
v 0.7 2.1 -0.3
v 0.7 2.3 -0.3
v 0.7 2.4 -0.3
v 0.7 2.5 -0.3
v 0.7 2.6 -0.3
v 0.8 2.3 -0.3
v 0.8 2.4 -0.3
v 0.8 2.5 -0.3
v 0.6 2.4 -0.4
v 0.6 2.5 -0.4
v 0.7 2.4 -0.4
v 0.7 2.5 -0.4
v 0 2 -0.8
v 0 2.1 -0.8
v 0.1 2 -0.8
v 0.1 2.1 -0.8
v 0.2 2 -0.8
v 0.2 2.1 -0.8
v 0.2 2.2 -0.8
v 0.3 2.1 -0.8
v 0.3 2.2 -0.8
v 0.4 2.1 -0.8
v 0.4 2.2 -0.8
v 0.8 2 -0.8
v 0.8 2.1 -0.8
v 0 2 0
v 0.8 2 0
v 0.2 2 -0.1
v 0.3 2 -0.1
v 0.4 2 -0.1
v 0.5 2 -0.1
v 0.4 2 -0.2
v 0.5 2 -0.2
v 0.6 2 -0.2
v 0.3 2 -0.3
v 0.4 2 -0.3
v 0.5 2 -0.3
v 0.6 2 -0.3
v 0.2 2 -0.4
v 0.3 2 -0.4
v 0.4 2 -0.4
v 0.5 2 -0.4
v 0.7 2 -0.4
v 0.8 2 -0.4
v 0.3 2 -0.5
v 0.4 2 -0.5
v 0.6 2 -0.5
v 0.7 2 -0.5
v 0.8 2 -0.5
v 0.6 2 -0.6
v 0.7 2 -0.6
v 0.1 2 -0.7
v 0.2 2 -0.7
v 0.4 2 -0.7
v 0.5 2 -0.7
v 0 2 -0.8
v 0.1 2 -0.8
v 0.2 2 -0.8
v 0.8 2 -0.8
v 0.5 2.3 -0.2
v 0.6 2.3 -0.2
v 0.7 2.3 -0.2
v 0.8 2.3 -0.2
v 0.5 2.3 -0.3
v 0.6 2.3 -0.3
v 0.7 2.3 -0.3
v 0.8 2.3 -0.3
v 0.5 2.4 -0.1
v 0.6 2.4 -0.1
v 0.7 2.4 -0.1
v 0.5 2.4 -0.2
v 0.6 2.4 -0.2
v 0.7 2.4 -0.2
v 0.6 2.4 -0.3
v 0.7 2.4 -0.3
v 0.6 2.4 -0.4
v 0.7 2.4 -0.4
v 0.6 2.5 0
v 0.7 2.5 0
v 0.6 2.5 -0.1
v 0.7 2.5 -0.1
v 0.8 2.5 -0.1
v 0.7 2.5 -0.2
v 0.8 2.5 -0.2
v 0 2.1 0
v 0.8 2.1 0
v 0.2 2.1 -0.1
v 0.3 2.1 -0.1
v 0.4 2.1 -0.1
v 0.5 2.1 -0.1
v 0.4 2.1 -0.2
v 0.5 2.1 -0.2
v 0.6 2.1 -0.2
v 0.7 2.1 -0.2
v 0.3 2.1 -0.3
v 0.4 2.1 -0.3
v 0.5 2.1 -0.3
v 0.6 2.1 -0.3
v 0.7 2.1 -0.3
v 0.2 2.1 -0.4
v 0.3 2.1 -0.4
v 0.4 2.1 -0.4
v 0.5 2.1 -0.4
v 0.7 2.1 -0.4
v 0.8 2.1 -0.4
v 0.3 2.1 -0.5
v 0.4 2.1 -0.5
v 0.6 2.1 -0.5
v 0.7 2.1 -0.5
v 0.8 2.1 -0.5
v 0.3 2.1 -0.6
v 0.4 2.1 -0.6
v 0.6 2.1 -0.6
v 0.7 2.1 -0.6
v 0.1 2.1 -0.7
v 0.2 2.1 -0.7
v 0.3 2.1 -0.7
v 0.4 2.1 -0.7
v 0.5 2.1 -0.7
v 0 2.1 -0.8
v 0.1 2.1 -0.8
v 0.2 2.1 -0.8
v 0.4 2.1 -0.8
v 0.8 2.1 -0.8
v 0.3 2.2 -0.6
v 0.4 2.2 -0.6
v 0.2 2.2 -0.7
v 0.3 2.2 -0.7
v 0.2 2.2 -0.8
v 0.3 2.2 -0.8
v 0.4 2.2 -0.8
v 0.5 2.5 -0.2
v 0.6 2.5 -0.2
v 0.7 2.5 -0.2
v 0.8 2.5 -0.2
v 0.5 2.5 -0.3
v 0.6 2.5 -0.3
v 0.7 2.5 -0.3
v 0.8 2.5 -0.3
v 0.6 2.5 -0.4
v 0.7 2.5 -0.4
v 0.6 2.6 0
v 0.7 2.6 0
v 0.5 2.6 -0.1
v 0.6 2.6 -0.1
v 0.7 2.6 -0.1
v 0.8 2.6 -0.1
v 0.5 2.6 -0.2
v 0.6 2.6 -0.2
v 0.7 2.6 -0.2
v 0.8 2.6 -0.2
v 0.6 2.6 -0.3
v 0.7 2.6 -0.3
v 0.6 2.7 -0.1
v 0.7 2.7 -0.1
v 0.6 2.7 -0.2
v 0.7 2.7 -0.2

# faces
f 3/11/1 2/11/1 1/11/1
f 4/11/1 2/11/1 3/11/1
f 7/3/1 6/3/1 5/3/1
f 8/3/1 6/3/1 7/3/1
f 11/2/1 10/2/1 9/2/1
f 12/2/1 10/2/1 11/2/1
f 16/10/1 14/10/1 13/10/1
f 17/10/1 14/10/1 16/10/1
f 18/5/1 16/5/1 15/5/1
f 18/5/1 17/5/1 16/5/1
f 19/5/1 17/5/1 18/5/1
f 20/5/1 17/5/1 19/5/1
f 21/4/1 19/4/1 18/4/1
f 22/4/1 19/4/1 21/4/1
f 25/1/1 24/1/1 23/1/1
f 26/1/1 24/1/1 25/1/1
f 32/5/1 28/5/1 27/5/1
f 33/5/1 28/5/1 32/5/1
f 34/5/1 30/5/1 29/5/1
f 35/5/1 30/5/1 34/5/1
f 36/5/1 32/5/1 31/5/1
f 37/5/1 32/5/1 36/5/1
f 38/5/1 36/5/1 35/5/1
f 39/5/1 36/5/1 38/5/1
f 40/2/2 41/2/2 43/2/2
f 41/2/2 42/2/2 43/2/2
f 43/2/2 42/2/2 44/2/2
f 45/1/2 46/1/2 47/1/2
f 47/1/2 46/1/2 48/1/2
f 49/10/2 50/10/2 54/10/2
f 54/10/2 50/10/2 55/10/2
f 51/5/2 52/5/2 56/5/2
f 56/5/2 52/5/2 57/5/2
f 53/5/2 54/5/2 58/5/2
f 58/5/2 54/5/2 59/5/2
f 55/5/2 56/5/2 60/5/2
f 60/5/2 56/5/2 61/5/2
f 59/5/2 60/5/2 62/5/2
f 62/5/2 60/5/2 63/5/2
f 64/11/2 65/11/2 68/11/2
f 65/6/2 66/6/2 69/6/2
f 68/11/2 65/11/2 69/11/2
f 66/11/2 67/11/2 70/11/2
f 69/6/2 66/6/2 70/6/2
f 70/11/2 67/11/2 71/11/2
f 72/4/2 73/4/2 74/4/2
f 74/4/2 73/4/2 75/4/2
f 74/5/2 75/5/2 77/5/2
f 77/5/2 75/5/2 78/5/2
f 76/5/2 77/5/2 79/5/2
f 79/5/2 77/5/2 80/5/2
f 85/5/3 84/5/3 83/5/3
f 86/5/3 84/5/3 85/5/3
f 87/11/3 82/11/3 81/11/3
f 88/11/3 82/11/3 87/11/3
f 92/5/3 90/5/3 89/5/3
f 93/4/3 91/4/3 90/4/3
f 93/5/3 90/5/3 92/5/3
f 94/4/3 91/4/3 93/4/3
f 96/10/3 93/10/3 92/10/3
f 97/10/3 93/10/3 96/10/3
f 98/5/3 95/5/3 94/5/3
f 99/5/3 95/5/3 98/5/3
f 100/5/3 98/5/3 97/5/3
f 101/5/3 98/5/3 100/5/3
f 105/10/3 103/10/3 102/10/3
f 106/10/3 103/10/3 105/10/3
f 107/1/3 105/1/3 104/1/3
f 107/1/3 106/1/3 105/1/3
f 108/1/3 106/1/3 107/1/3
f 109/1/3 106/1/3 108/1/3
f 111/4/3 109/4/3 108/4/3
f 112/5/3 110/5/3 109/5/3
f 112/4/3 109/4/3 111/4/3
f 113/5/3 110/5/3 112/5/3
f 116/2/3 115/2/3 114/2/3
f 117/2/3 115/2/3 116/2/3
f 120/3/3 119/3/3 118/3/3
f 121/3/3 119/3/3 120/3/3
f 122/4/4 123/4/4 124/4/4
f 124/4/4 123/4/4 125/4/4
f 125/5/4 126/5/4 128/5/4
f 128/5/4 126/5/4 129/5/4
f 127/5/4 128/5/4 130/5/4
f 130/5/4 128/5/4 131/5/4
f 132/10/4 133/10/4 136/10/4
f 133/5/4 134/5/4 137/5/4
f 136/10/4 133/10/4 137/10/4
f 137/5/4 134/5/4 138/5/4
f 135/1/4 136/1/4 140/1/4
f 136/1/4 137/1/4 140/1/4
f 140/1/4 137/1/4 141/1/4
f 141/1/4 137/1/4 142/1/4
f 138/5/4 139/5/4 143/5/4
f 143/5/4 139/5/4 144/5/4
f 141/4/4 142/4/4 145/4/4
f 142/5/4 143/5/4 146/5/4
f 145/4/4 142/4/4 146/4/4
f 146/5/4 143/5/4 147/5/4
f 148/5/4 149/5/4 150/5/4
f 150/5/4 149/5/4 151/5/4
f 152/11/4 153/11/4 154/11/4
f 154/11/4 153/11/4 155/11/4
f 154/7/4 155/7/4 156/7/4
f 156/7/4 155/7/4 157/7/4
f 156/11/4 157/11/4 159/11/4
f 157/3/4 158/3/4 159/3/4
f 159/3/4 158/3/4 160/3/4
f 156/11/4 159/11/4 161/11/4
f 159/2/4 160/2/4 161/2/4
f 161/2/4 160/2/4 162/2/4
f 156/11/4 161/11/4 163/11/4
f 163/11/4 161/11/4 164/11/4
f 167/11/5 166/11/5 165/11/5
f 168/11/5 166/11/5 167/11/5
f 169/11/5 166/11/5 168/11/5
f 170/11/5 166/11/5 169/11/5
f 171/11/5 169/11/5 168/11/5
f 171/7/5 170/7/5 169/7/5
f 172/11/5 166/11/5 170/11/5
f 172/7/5 170/7/5 171/7/5
f 173/11/5 166/11/5 172/11/5
f 174/9/5 168/9/5 167/9/5
f 174/11/5 171/11/5 168/11/5
f 174/11/5 172/11/5 171/11/5
f 175/11/5 172/11/5 174/11/5
f 176/9/5 173/9/5 172/9/5
f 176/11/5 172/11/5 175/11/5
f 177/11/5 166/11/5 173/11/5
f 177/9/5 173/9/5 176/9/5
f 178/11/5 167/11/5 165/11/5
f 178/9/5 175/9/5 174/9/5
f 178/9/5 174/9/5 167/9/5
f 179/9/5 175/9/5 178/9/5
f 180/11/5 176/11/5 175/11/5
f 180/9/5 175/9/5 179/9/5
f 180/11/5 177/11/5 176/11/5
f 181/11/5 177/11/5 180/11/5
f 182/11/5 166/11/5 177/11/5
f 182/11/5 177/11/5 181/11/5
f 183/11/5 166/11/5 182/11/5
f 184/11/5 179/11/5 178/11/5
f 184/9/5 180/9/5 179/9/5
f 185/8/5 181/8/5 180/8/5
f 185/9/5 180/9/5 184/9/5
f 186/11/5 182/11/5 181/11/5
f 187/6/5 183/6/5 182/6/5
f 187/11/5 182/11/5 186/11/5
f 188/6/5 183/6/5 187/6/5
f 189/11/5 186/11/5 181/11/5
f 189/7/5 187/7/5 186/7/5
f 190/11/5 188/11/5 187/11/5
f 190/7/5 187/7/5 189/7/5
f 191/11/5 184/11/5 178/11/5
f 191/11/5 178/11/5 165/11/5
f 191/11/5 185/11/5 184/11/5
f 192/11/5 185/11/5 191/11/5
f 193/8/5 181/8/5 185/8/5
f 193/11/5 185/11/5 192/11/5
f 194/11/5 190/11/5 189/11/5
f 194/8/5 181/8/5 193/8/5
f 194/11/5 189/11/5 181/11/5
f 195/11/5 191/11/5 165/11/5
f 196/7/5 192/7/5 191/7/5
f 196/11/5 191/11/5 195/11/5
f 197/11/5 193/11/5 192/11/5
f 197/7/5 192/7/5 196/7/5
f 197/11/5 194/11/5 193/11/5
f 198/11/5 188/11/5 190/11/5
f 198/11/5 194/11/5 197/11/5
f 198/11/5 190/11/5 194/11/5
f 203/10/5 200/10/5 199/10/5
f 204/10/5 200/10/5 203/10/5
f 205/4/5 202/4/5 201/4/5
f 206/4/5 202/4/5 205/4/5
f 210/5/5 208/5/5 207/5/5
f 211/10/5 209/10/5 208/10/5
f 211/5/5 208/5/5 210/5/5
f 212/10/5 209/10/5 211/10/5
f 215/5/5 214/5/5 213/5/5
f 216/5/5 214/5/5 215/5/5
f 219/5/5 218/5/5 217/5/5
f 220/5/5 218/5/5 219/5/5
f 222/5/5 221/5/5 220/5/5
f 223/5/5 221/5/5 222/5/5
f 224/11/6 225/11/6 226/11/6
f 226/11/6 225/11/6 227/11/6
f 227/11/6 225/11/6 228/11/6
f 228/11/6 225/11/6 229/11/6
f 227/11/6 228/11/6 230/11/6
f 228/7/6 229/7/6 230/7/6
f 229/11/6 225/11/6 231/11/6
f 230/7/6 229/7/6 231/7/6
f 231/11/6 225/11/6 232/11/6
f 232/11/6 225/11/6 233/11/6
f 226/9/6 227/9/6 234/9/6
f 227/11/6 230/11/6 234/11/6
f 230/11/6 231/11/6 234/11/6
f 234/11/6 231/11/6 235/11/6
f 231/9/6 232/9/6 236/9/6
f 235/11/6 231/11/6 236/11/6
f 236/9/6 232/9/6 237/9/6
f 233/11/6 225/11/6 238/11/6
f 224/11/6 226/11/6 239/11/6
f 234/9/6 235/9/6 239/9/6
f 226/9/6 234/9/6 239/9/6
f 239/9/6 235/9/6 240/9/6
f 237/11/6 238/11/6 241/11/6
f 240/9/6 235/9/6 241/9/6
f 236/11/6 237/11/6 241/11/6
f 235/11/6 236/11/6 241/11/6
f 241/11/6 238/11/6 242/11/6
f 238/11/6 225/11/6 243/11/6
f 242/11/6 238/11/6 243/11/6
f 243/11/6 225/11/6 244/11/6
f 239/11/6 240/11/6 245/11/6
f 240/9/6 241/9/6 245/9/6
f 241/8/6 242/8/6 246/8/6
f 245/9/6 241/9/6 246/9/6
f 242/11/6 243/11/6 247/11/6
f 243/6/6 244/6/6 248/6/6
f 247/11/6 243/11/6 248/11/6
f 248/6/6 244/6/6 249/6/6
f 239/11/6 245/11/6 250/11/6
f 245/11/6 246/11/6 250/11/6
f 246/8/6 242/8/6 251/8/6
f 250/11/6 246/11/6 251/11/6
f 242/11/6 247/11/6 252/11/6
f 247/7/6 248/7/6 252/7/6
f 248/11/6 249/11/6 253/11/6
f 252/7/6 248/7/6 253/7/6
f 224/11/6 239/11/6 254/11/6
f 239/11/6 250/11/6 254/11/6
f 254/11/6 250/11/6 255/11/6
f 255/11/6 250/11/6 256/11/6
f 251/8/6 242/8/6 257/8/6
f 252/11/6 253/11/6 258/11/6
f 257/8/6 242/8/6 258/8/6
f 242/11/6 252/11/6 258/11/6
f 224/11/6 254/11/6 259/11/6
f 254/7/6 255/7/6 260/7/6
f 259/11/6 254/11/6 260/11/6
f 260/7/6 255/7/6 261/7/6
f 257/11/6 258/11/6 262/11/6
f 253/11/6 249/11/6 263/11/6
f 262/11/6 258/11/6 263/11/6
f 258/11/6 253/11/6 263/11/6
f 264/2/6 265/2/6 267/2/6
f 266/3/6 267/3/6 268/3/6
f 267/2/6 265/2/6 269/2/6
f 268/3/6 267/3/6 269/3/6
f 269/2/6 265/2/6 270/2/6
f 271/5/6 272/5/6 275/5/6
f 275/5/6 272/5/6 276/5/6
f 273/5/6 274/5/6 277/5/6
f 277/5/6 274/5/6 278/5/6
f 276/5/6 277/5/6 279/5/6
f 279/5/6 277/5/6 280/5/6
f 281/5/6 282/5/6 284/5/6
f 284/5/6 282/5/6 285/5/6
f 283/4/6 284/4/6 287/4/6
f 287/4/6 284/4/6 288/4/6
f 285/5/6 286/5/6 289/5/6
f 289/5/6 286/5/6 290/5/6
f 288/5/6 289/5/6 291/5/6
f 291/5/6 289/5/6 292/5/6
f 293/5/6 294/5/6 295/5/6
f 295/5/6 294/5/6 296/5/6
