# MagicaVoxel @ Ephtracy

# group
o 

# material
mtllib block_3.mtl
usemtl palette

# normals
vn -1 0 0
vn 1 0 0
vn 0 0 1
vn 0 0 -1
vn 0 -1 0
vn 0 1 0

# texcoords
vt 0.662109 0.5
vt 0.666016 0.5
vt 0.673828 0.5
vt 0.900391 0.5

# verts
v 0 2 0
v 0 2 -0.8
v 0 2.1 0
v 0 2.1 -0.8
v 0.8 2 0
v 0.8 2 -0.8
v 0.8 2.1 0
v 0.8 2.1 -0.8
v 0 2 0
v 0 2.1 0
v 0.1 2 0
v 0.1 2.1 0
v 0.2 2 0
v 0.2 2.1 0
v 0.4 2 0
v 0.4 2.1 0
v 0.5 2 0
v 0.5 2.1 0
v 0.6 2 0
v 0.6 2.1 0
v 0.7 2 0
v 0.7 2.1 0
v 0.8 2 0
v 0.8 2.1 0
v 0 2 -0.8
v 0 2.1 -0.8
v 0.1 2 -0.8
v 0.1 2.1 -0.8
v 0.2 2 -0.8
v 0.2 2.1 -0.8
v 0.8 2 -0.8
v 0.8 2.1 -0.8
v 0 2 0
v 0.1 2 0
v 0.2 2 0
v 0.4 2 0
v 0.5 2 0
v 0.6 2 0
v 0.7 2 0
v 0.8 2 0
v 0.1 2 -0.1
v 0.2 2 -0.1
v 0.4 2 -0.1
v 0.5 2 -0.1
v 0.6 2 -0.1
v 0.7 2 -0.1
v 0.2 2 -0.2
v 0.3 2 -0.2
v 0.6 2 -0.2
v 0.7 2 -0.2
v 0.2 2 -0.3
v 0.3 2 -0.3
v 0.4 2 -0.3
v 0.5 2 -0.3
v 0.6 2 -0.3
v 0.7 2 -0.3
v 0.2 2 -0.4
v 0.3 2 -0.4
v 0.4 2 -0.4
v 0.5 2 -0.4
v 0.6 2 -0.4
v 0.7 2 -0.4
v 0.1 2 -0.5
v 0.2 2 -0.5
v 0.4 2 -0.5
v 0.5 2 -0.5
v 0.6 2 -0.5
v 0.7 2 -0.5
v 0.1 2 -0.6
v 0.2 2 -0.6
v 0.3 2 -0.6
v 0.4 2 -0.6
v 0.5 2 -0.6
v 0.6 2 -0.6
v 0.7 2 -0.6
v 0.1 2 -0.7
v 0.2 2 -0.7
v 0.5 2 -0.7
v 0.6 2 -0.7
v 0 2 -0.8
v 0.1 2 -0.8
v 0.2 2 -0.8
v 0.8 2 -0.8
v 0 2.1 0
v 0.1 2.1 0
v 0.2 2.1 0
v 0.4 2.1 0
v 0.5 2.1 0
v 0.6 2.1 0
v 0.7 2.1 0
v 0.8 2.1 0
v 0.1 2.1 -0.1
v 0.2 2.1 -0.1
v 0.4 2.1 -0.1
v 0.5 2.1 -0.1
v 0.6 2.1 -0.1
v 0.7 2.1 -0.1
v 0.2 2.1 -0.2
v 0.3 2.1 -0.2
v 0.6 2.1 -0.2
v 0.7 2.1 -0.2
v 0.2 2.1 -0.3
v 0.3 2.1 -0.3
v 0.4 2.1 -0.3
v 0.5 2.1 -0.3
v 0.6 2.1 -0.3
v 0.7 2.1 -0.3
v 0.2 2.1 -0.4
v 0.3 2.1 -0.4
v 0.4 2.1 -0.4
v 0.5 2.1 -0.4
v 0.6 2.1 -0.4
v 0.7 2.1 -0.4
v 0.1 2.1 -0.5
v 0.2 2.1 -0.5
v 0.4 2.1 -0.5
v 0.5 2.1 -0.5
v 0.6 2.1 -0.5
v 0.7 2.1 -0.5
v 0.1 2.1 -0.6
v 0.2 2.1 -0.6
v 0.3 2.1 -0.6
v 0.4 2.1 -0.6
v 0.5 2.1 -0.6
v 0.6 2.1 -0.6
v 0.7 2.1 -0.6
v 0.1 2.1 -0.7
v 0.2 2.1 -0.7
v 0.5 2.1 -0.7
v 0.6 2.1 -0.7
v 0 2.1 -0.8
v 0.1 2.1 -0.8
v 0.2 2.1 -0.8
v 0.8 2.1 -0.8

# faces
f 3/4/1 2/4/1 1/4/1
f 4/4/1 2/4/1 3/4/1
f 5/4/2 6/4/2 7/4/2
f 7/4/2 6/4/2 8/4/2
f 11/4/3 10/4/3 9/4/3
f 12/4/3 10/4/3 11/4/3
f 13/3/3 12/3/3 11/3/3
f 14/3/3 12/3/3 13/3/3
f 15/4/3 14/4/3 13/4/3
f 16/4/3 14/4/3 15/4/3
f 17/2/3 16/2/3 15/2/3
f 18/2/3 16/2/3 17/2/3
f 19/4/3 18/4/3 17/4/3
f 20/4/3 18/4/3 19/4/3
f 21/3/3 20/3/3 19/3/3
f 22/3/3 20/3/3 21/3/3
f 23/4/3 22/4/3 21/4/3
f 24/4/3 22/4/3 23/4/3
f 25/4/4 26/4/4 27/4/4
f 27/4/4 26/4/4 28/4/4
f 27/3/4 28/3/4 29/3/4
f 29/3/4 28/3/4 30/3/4
f 29/4/4 30/4/4 31/4/4
f 31/4/4 30/4/4 32/4/4
f 41/4/5 34/4/5 33/4/5
f 41/3/5 35/3/5 34/3/5
f 42/4/5 36/4/5 35/4/5
f 42/3/5 35/3/5 41/3/5
f 43/2/5 37/2/5 36/2/5
f 43/4/5 36/4/5 42/4/5
f 44/4/5 38/4/5 37/4/5
f 44/2/5 37/2/5 43/2/5
f 45/3/5 39/3/5 38/3/5
f 45/4/5 38/4/5 44/4/5
f 46/4/5 40/4/5 39/4/5
f 46/3/5 39/3/5 45/3/5
f 47/4/5 44/4/5 43/4/5
f 47/4/5 42/4/5 41/4/5
f 47/4/5 43/4/5 42/4/5
f 48/4/5 44/4/5 47/4/5
f 49/3/5 45/3/5 44/3/5
f 49/1/5 46/1/5 45/1/5
f 50/4/5 40/4/5 46/4/5
f 50/1/5 46/1/5 49/1/5
f 51/1/5 48/1/5 47/1/5
f 51/4/5 47/4/5 41/4/5
f 52/4/5 44/4/5 48/4/5
f 52/1/5 48/1/5 51/1/5
f 53/4/5 44/4/5 52/4/5
f 54/3/5 49/3/5 44/3/5
f 54/4/5 44/4/5 53/4/5
f 55/4/5 50/4/5 49/4/5
f 55/3/5 49/3/5 54/3/5
f 56/4/5 40/4/5 50/4/5
f 56/4/5 50/4/5 55/4/5
f 57/4/5 51/4/5 41/4/5
f 57/3/5 53/3/5 52/3/5
f 57/3/5 52/3/5 51/3/5
f 58/3/5 53/3/5 57/3/5
f 59/4/5 55/4/5 54/4/5
f 59/3/5 53/3/5 58/3/5
f 59/4/5 54/4/5 53/4/5
f 60/4/5 55/4/5 59/4/5
f 61/2/5 56/2/5 55/2/5
f 61/4/5 55/4/5 60/4/5
f 62/4/5 40/4/5 56/4/5
f 62/2/5 56/2/5 61/2/5
f 63/4/5 41/4/5 33/4/5
f 63/4/5 58/4/5 57/4/5
f 63/4/5 57/4/5 41/4/5
f 64/4/5 58/4/5 63/4/5
f 65/2/5 60/2/5 59/2/5
f 65/3/5 59/3/5 58/3/5
f 66/4/5 61/4/5 60/4/5
f 66/2/5 60/2/5 65/2/5
f 66/4/5 62/4/5 61/4/5
f 67/4/5 62/4/5 66/4/5
f 68/4/5 40/4/5 62/4/5
f 68/4/5 62/4/5 67/4/5
f 69/4/5 63/4/5 33/4/5
f 69/2/5 64/2/5 63/2/5
f 70/4/5 58/4/5 64/4/5
f 70/2/5 64/2/5 69/2/5
f 71/3/5 65/3/5 58/3/5
f 71/4/5 58/4/5 70/4/5
f 72/4/5 67/4/5 66/4/5
f 72/3/5 65/3/5 71/3/5
f 72/4/5 66/4/5 65/4/5
f 73/4/5 67/4/5 72/4/5
f 74/1/5 68/1/5 67/1/5
f 74/4/5 67/4/5 73/4/5
f 75/4/5 40/4/5 68/4/5
f 75/1/5 68/1/5 74/1/5
f 76/4/5 70/4/5 69/4/5
f 76/4/5 69/4/5 33/4/5
f 76/4/5 71/4/5 70/4/5
f 76/4/5 72/4/5 71/4/5
f 76/4/5 73/4/5 72/4/5
f 77/4/5 73/4/5 76/4/5
f 78/3/5 74/3/5 73/3/5
f 78/4/5 73/4/5 77/4/5
f 79/4/5 75/4/5 74/4/5
f 79/3/5 74/3/5 78/3/5
f 80/4/5 76/4/5 33/4/5
f 81/3/5 77/3/5 76/3/5
f 81/4/5 76/4/5 80/4/5
f 82/4/5 78/4/5 77/4/5
f 82/3/5 77/3/5 81/3/5
f 82/4/5 79/4/5 78/4/5
f 83/4/5 40/4/5 75/4/5
f 83/4/5 79/4/5 82/4/5
f 83/4/5 75/4/5 79/4/5
f 84/4/6 85/4/6 92/4/6
f 85/3/6 86/3/6 92/3/6
f 86/4/6 87/4/6 93/4/6
f 92/3/6 86/3/6 93/3/6
f 87/2/6 88/2/6 94/2/6
f 93/4/6 87/4/6 94/4/6
f 88/4/6 89/4/6 95/4/6
f 94/2/6 88/2/6 95/2/6
f 89/3/6 90/3/6 96/3/6
f 95/4/6 89/4/6 96/4/6
f 90/4/6 91/4/6 97/4/6
f 96/3/6 90/3/6 97/3/6
f 94/4/6 95/4/6 98/4/6
f 92/4/6 93/4/6 98/4/6
f 93/4/6 94/4/6 98/4/6
f 98/4/6 95/4/6 99/4/6
f 95/3/6 96/3/6 100/3/6
f 96/1/6 97/1/6 100/1/6
f 97/4/6 91/4/6 101/4/6
f 100/1/6 97/1/6 101/1/6
f 98/1/6 99/1/6 102/1/6
f 92/4/6 98/4/6 102/4/6
f 99/4/6 95/4/6 103/4/6
f 102/1/6 99/1/6 103/1/6
f 103/4/6 95/4/6 104/4/6
f 95/3/6 100/3/6 105/3/6
f 104/4/6 95/4/6 105/4/6
f 100/4/6 101/4/6 106/4/6
f 105/3/6 100/3/6 106/3/6
f 101/4/6 91/4/6 107/4/6
f 106/4/6 101/4/6 107/4/6
f 92/4/6 102/4/6 108/4/6
f 103/3/6 104/3/6 108/3/6
f 102/3/6 103/3/6 108/3/6
f 108/3/6 104/3/6 109/3/6
f 105/4/6 106/4/6 110/4/6
f 109/3/6 104/3/6 110/3/6
f 104/4/6 105/4/6 110/4/6
f 110/4/6 106/4/6 111/4/6
f 106/2/6 107/2/6 112/2/6
f 111/4/6 106/4/6 112/4/6
f 107/4/6 91/4/6 113/4/6
f 112/2/6 107/2/6 113/2/6
f 84/4/6 92/4/6 114/4/6
f 108/4/6 109/4/6 114/4/6
f 92/4/6 108/4/6 114/4/6
f 114/4/6 109/4/6 115/4/6
f 110/2/6 111/2/6 116/2/6
f 109/3/6 110/3/6 116/3/6
f 111/4/6 112/4/6 117/4/6
f 116/2/6 111/2/6 117/2/6
f 112/4/6 113/4/6 117/4/6
f 117/4/6 113/4/6 118/4/6
f 113/4/6 91/4/6 119/4/6
f 118/4/6 113/4/6 119/4/6
f 84/4/6 114/4/6 120/4/6
f 114/2/6 115/2/6 120/2/6
f 115/4/6 109/4/6 121/4/6
f 120/2/6 115/2/6 121/2/6
f 109/3/6 116/3/6 122/3/6
f 121/4/6 109/4/6 122/4/6
f 117/4/6 118/4/6 123/4/6
f 122/3/6 116/3/6 123/3/6
f 116/4/6 117/4/6 123/4/6
f 123/4/6 118/4/6 124/4/6
f 118/1/6 119/1/6 125/1/6
f 124/4/6 118/4/6 125/4/6
f 119/4/6 91/4/6 126/4/6
f 125/1/6 119/1/6 126/1/6
f 120/4/6 121/4/6 127/4/6
f 84/4/6 120/4/6 127/4/6
f 121/4/6 122/4/6 127/4/6
f 122/4/6 123/4/6 127/4/6
f 123/4/6 124/4/6 127/4/6
f 127/4/6 124/4/6 128/4/6
f 124/3/6 125/3/6 129/3/6
f 128/4/6 124/4/6 129/4/6
f 125/4/6 126/4/6 130/4/6
f 129/3/6 125/3/6 130/3/6
f 84/4/6 127/4/6 131/4/6
f 127/3/6 128/3/6 132/3/6
f 131/4/6 127/4/6 132/4/6
f 128/4/6 129/4/6 133/4/6
f 132/3/6 128/3/6 133/3/6
f 129/4/6 130/4/6 133/4/6
f 126/4/6 91/4/6 134/4/6
f 133/4/6 130/4/6 134/4/6
f 130/4/6 126/4/6 134/4/6
