# MagicaVoxel @ Ephtracy

# group
o 

# material
mtllib CommonBluster.mtl
usemtl palette

# normals
vn -1 0 0
vn 1 0 0
vn 0 0 1
vn 0 0 -1
vn 0 -1 0
vn 0 1 0

# texcoords
vt 0.208984 0.5
vt 0.755859 0.5
vt 0.759766 0.5
vt 0.767578 0.5
vt 0.826172 0.5
vt 0.845703 0.5

# verts
v -0.7 0.1 0.2
v -0.7 0.1 0.1
v -0.7 0.1 -0.1
v -0.7 0.3 0.2
v -0.7 0.3 0.1
v -0.7 0.4 0.2
v -0.7 0.4 -0.1
v -0.4 -0.2 0.1
v -0.4 -0.2 0
v -0.4 0 0.2
v -0.4 0 0.1
v -0.4 0 0
v -0.4 0 -0.1
v -0.4 0.1 0.1
v -0.4 0.1 0
v -0.4 0.2 0.1
v -0.4 0.2 0
v -0.4 0.4 0.2
v -0.4 0.4 0.1
v -0.4 0.4 0
v -0.4 0.4 -0.1
v -0.6 0.1 0.2
v -0.6 0.1 0.1
v -0.6 0.1 0
v -0.6 0.1 -0.1
v -0.6 0.2 0.1
v -0.6 0.2 0
v -0.6 0.3 0.2
v -0.6 0.3 0.1
v -0.6 0.3 0
v -0.6 0.3 -0.1
v -0.5 0.3 0.2
v -0.5 0.3 0.1
v -0.5 0.3 0
v -0.5 0.3 -0.1
v -0.5 0.4 0.2
v -0.5 0.4 0.1
v -0.5 0.4 0
v -0.5 0.4 -0.1
v 0.1 -0.2 0.1
v 0.1 -0.2 0
v 0.1 0 0.1
v 0.1 0 0
v 1 0 0.2
v 1 0 -0.1
v 1 0.2 0.1
v 1 0.2 0
v 1 0.4 0.2
v 1 0.4 0.1
v 1 0.4 0
v 1 0.4 -0.1
v 2 0.2 0.1
v 2 0.2 0
v 2 0.4 0.1
v 2 0.4 0
v -0.7 0.1 0.2
v -0.7 0.3 0.2
v -0.7 0.4 0.2
v -0.6 0.1 0.2
v -0.6 0.3 0.2
v -0.5 0.3 0.2
v -0.5 0.4 0.2
v -0.4 0 0.2
v -0.4 0.4 0.2
v -0.3 0.3 0.2
v -0.3 0.4 0.2
v -0.2 0.3 0.2
v -0.2 0.4 0.2
v 1 0 0.2
v 1 0.4 0.2
v -0.6 0.1 0.1
v -0.6 0.2 0.1
v -0.6 0.3 0.1
v -0.5 0.3 0.1
v -0.5 0.4 0.1
v -0.4 -0.2 0.1
v -0.4 0 0.1
v -0.4 0.1 0.1
v -0.4 0.2 0.1
v -0.4 0.4 0.1
v 0.1 -0.2 0.1
v 0.1 0 0.1
v 1 0.2 0.1
v 1 0.4 0.1
v 1.2 0.2 0.1
v 1.2 0.3 0.1
v 1.3 0.2 0.1
v 1.3 0.3 0.1
v 1.4 0.2 0.1
v 1.4 0.3 0.1
v 1.5 0.2 0.1
v 1.5 0.3 0.1
v 1.6 0.2 0.1
v 1.6 0.3 0.1
v 1.7 0.2 0.1
v 1.7 0.3 0.1
v 1.8 0.2 0.1
v 1.8 0.3 0.1
v 1.9 0.2 0.1
v 1.9 0.3 0.1
v 2 0.2 0.1
v 2 0.4 0.1
v -0.6 0.1 0
v -0.6 0.2 0
v -0.6 0.3 0
v -0.5 0.3 0
v -0.5 0.4 0
v -0.4 -0.2 0
v -0.4 0 0
v -0.4 0.1 0
v -0.4 0.2 0
v -0.4 0.4 0
v 0.1 -0.2 0
v 0.1 0 0
v 1 0.2 0
v 1 0.4 0
v 1.2 0.2 0
v 1.2 0.3 0
v 1.3 0.2 0
v 1.3 0.3 0
v 1.4 0.2 0
v 1.4 0.3 0
v 1.5 0.2 0
v 1.5 0.3 0
v 1.6 0.2 0
v 1.6 0.3 0
v 1.7 0.2 0
v 1.7 0.3 0
v 1.8 0.2 0
v 1.8 0.3 0
v 1.9 0.2 0
v 1.9 0.3 0
v 2 0.2 0
v 2 0.4 0
v -0.7 0.1 -0.1
v -0.7 0.4 -0.1
v -0.6 0.1 -0.1
v -0.6 0.3 -0.1
v -0.5 0.3 -0.1
v -0.5 0.4 -0.1
v -0.4 0 -0.1
v -0.4 0.4 -0.1
v -0.3 0.3 -0.1
v -0.3 0.4 -0.1
v -0.2 0.3 -0.1
v -0.2 0.4 -0.1
v 1 0 -0.1
v 1 0.4 -0.1
v -0.4 -0.2 0.1
v 0.1 -0.2 0.1
v -0.4 -0.2 0
v 0.1 -0.2 0
v -0.4 0 0.2
v 1 0 0.2
v -0.4 0 0.1
v 0.1 0 0.1
v -0.4 0 0
v 0.1 0 0
v -0.4 0 -0.1
v 1 0 -0.1
v -0.7 0.1 0.2
v -0.6 0.1 0.2
v -0.7 0.1 0.1
v -0.6 0.1 0.1
v -0.4 0.1 0.1
v -0.6 0.1 0
v -0.4 0.1 0
v -0.7 0.1 -0.1
v -0.6 0.1 -0.1
v 1 0.2 0.1
v 1.2 0.2 0.1
v 1.3 0.2 0.1
v 1.4 0.2 0.1
v 1.5 0.2 0.1
v 1.6 0.2 0.1
v 1.7 0.2 0.1
v 1.8 0.2 0.1
v 1.9 0.2 0.1
v 2 0.2 0.1
v 1 0.2 0
v 1.2 0.2 0
v 1.3 0.2 0
v 1.4 0.2 0
v 1.5 0.2 0
v 1.6 0.2 0
v 1.7 0.2 0
v 1.8 0.2 0
v 1.9 0.2 0
v 2 0.2 0
v -0.6 0.3 0.2
v -0.5 0.3 0.2
v -0.6 0.3 0.1
v -0.5 0.3 0.1
v -0.6 0.3 0
v -0.5 0.3 0
v -0.6 0.3 -0.1
v -0.5 0.3 -0.1
v -0.7 0.4 0.2
v -0.5 0.4 0.2
v -0.4 0.4 0.2
v -0.3 0.4 0.2
v -0.2 0.4 0.2
v 1 0.4 0.2
v -0.5 0.4 0.1
v -0.4 0.4 0.1
v -0.3 0.4 0.1
v -0.2 0.4 0.1
v 0.8 0.4 0.1
v 0.9 0.4 0.1
v 1 0.4 0.1
v 2 0.4 0.1
v -0.5 0.4 0
v -0.4 0.4 0
v -0.3 0.4 0
v -0.2 0.4 0
v 0.8 0.4 0
v 0.9 0.4 0
v 1 0.4 0
v 2 0.4 0
v -0.7 0.4 -0.1
v -0.5 0.4 -0.1
v -0.4 0.4 -0.1
v -0.3 0.4 -0.1
v -0.2 0.4 -0.1
v 1 0.4 -0.1

# faces
f 4/6/1 2/6/1 1/6/1
f 5/5/1 3/5/1 2/5/1
f 5/6/1 2/6/1 4/6/1
f 6/5/1 5/5/1 4/5/1
f 7/5/1 3/5/1 5/5/1
f 7/5/1 5/5/1 6/5/1
f 11/4/1 9/4/1 8/4/1
f 12/4/1 9/4/1 11/4/1
f 14/3/1 11/3/1 10/3/1
f 14/3/1 13/3/1 12/3/1
f 14/3/1 12/3/1 11/3/1
f 15/3/1 13/3/1 14/3/1
f 16/3/1 14/3/1 10/3/1
f 17/3/1 13/3/1 15/3/1
f 18/3/1 16/3/1 10/3/1
f 19/3/1 16/3/1 18/3/1
f 20/3/1 13/3/1 17/3/1
f 21/3/1 13/3/1 20/3/1
f 22/6/2 23/6/2 26/6/2
f 24/5/2 25/5/2 27/5/2
f 22/6/2 26/6/2 28/6/2
f 28/6/2 26/6/2 29/6/2
f 27/5/2 25/5/2 30/5/2
f 30/5/2 25/5/2 31/5/2
f 32/5/2 33/5/2 36/5/2
f 36/5/2 33/5/2 37/5/2
f 34/5/2 35/5/2 38/5/2
f 38/5/2 35/5/2 39/5/2
f 40/4/2 41/4/2 42/4/2
f 42/4/2 41/4/2 43/4/2
f 44/3/2 45/3/2 46/3/2
f 46/3/2 45/3/2 47/3/2
f 44/3/2 46/3/2 48/3/2
f 48/3/2 46/3/2 49/3/2
f 47/3/2 45/3/2 50/3/2
f 50/3/2 45/3/2 51/3/2
f 52/4/2 53/4/2 54/4/2
f 54/4/2 53/4/2 55/4/2
f 59/6/3 57/6/3 56/6/3
f 60/5/3 58/5/3 57/5/3
f 60/6/3 57/6/3 59/6/3
f 61/5/3 58/5/3 60/5/3
f 62/5/3 58/5/3 61/5/3
f 65/3/3 64/3/3 63/3/3
f 66/3/3 64/3/3 65/3/3
f 67/3/3 65/3/3 63/3/3
f 67/1/3 66/1/3 65/1/3
f 68/1/3 66/1/3 67/1/3
f 69/3/3 67/3/3 63/3/3
f 69/3/3 68/3/3 67/3/3
f 70/3/3 68/3/3 69/3/3
f 74/5/3 73/5/3 72/5/3
f 78/6/3 72/6/3 71/6/3
f 79/5/3 74/5/3 72/5/3
f 79/6/3 72/6/3 78/6/3
f 79/5/3 75/5/3 74/5/3
f 80/5/3 75/5/3 79/5/3
f 81/4/3 77/4/3 76/4/3
f 82/4/3 77/4/3 81/4/3
f 85/4/3 84/4/3 83/4/3
f 86/4/3 84/4/3 85/4/3
f 87/2/3 86/2/3 85/2/3
f 88/4/3 84/4/3 86/4/3
f 88/2/3 86/2/3 87/2/3
f 89/4/3 88/4/3 87/4/3
f 90/4/3 84/4/3 88/4/3
f 90/4/3 88/4/3 89/4/3
f 91/2/3 90/2/3 89/2/3
f 92/4/3 84/4/3 90/4/3
f 92/2/3 90/2/3 91/2/3
f 93/4/3 92/4/3 91/4/3
f 94/4/3 84/4/3 92/4/3
f 94/4/3 92/4/3 93/4/3
f 95/2/3 94/2/3 93/2/3
f 96/4/3 84/4/3 94/4/3
f 96/2/3 94/2/3 95/2/3
f 97/4/3 96/4/3 95/4/3
f 98/4/3 84/4/3 96/4/3
f 98/4/3 96/4/3 97/4/3
f 99/2/3 98/2/3 97/2/3
f 100/4/3 84/4/3 98/4/3
f 100/2/3 98/2/3 99/2/3
f 101/4/3 100/4/3 99/4/3
f 102/4/3 84/4/3 100/4/3
f 102/4/3 100/4/3 101/4/3
f 104/5/4 105/5/4 106/5/4
f 103/6/4 104/6/4 110/6/4
f 104/5/4 106/5/4 111/5/4
f 110/6/4 104/6/4 111/6/4
f 106/5/4 107/5/4 111/5/4
f 111/5/4 107/5/4 112/5/4
f 108/4/4 109/4/4 113/4/4
f 113/4/4 109/4/4 114/4/4
f 115/4/4 116/4/4 117/4/4
f 117/4/4 116/4/4 118/4/4
f 117/2/4 118/2/4 119/2/4
f 118/4/4 116/4/4 120/4/4
f 119/2/4 118/2/4 120/2/4
f 119/4/4 120/4/4 121/4/4
f 120/4/4 116/4/4 122/4/4
f 121/4/4 120/4/4 122/4/4
f 121/2/4 122/2/4 123/2/4
f 122/4/4 116/4/4 124/4/4
f 123/2/4 122/2/4 124/2/4
f 123/4/4 124/4/4 125/4/4
f 124/4/4 116/4/4 126/4/4
f 125/4/4 124/4/4 126/4/4
f 125/2/4 126/2/4 127/2/4
f 126/4/4 116/4/4 128/4/4
f 127/2/4 126/2/4 128/2/4
f 127/4/4 128/4/4 129/4/4
f 128/4/4 116/4/4 130/4/4
f 129/4/4 128/4/4 130/4/4
f 129/2/4 130/2/4 131/2/4
f 130/4/4 116/4/4 132/4/4
f 131/2/4 130/2/4 132/2/4
f 131/4/4 132/4/4 133/4/4
f 132/4/4 116/4/4 134/4/4
f 133/4/4 132/4/4 134/4/4
f 135/5/4 136/5/4 137/5/4
f 137/5/4 136/5/4 138/5/4
f 138/5/4 136/5/4 139/5/4
f 139/5/4 136/5/4 140/5/4
f 141/3/4 142/3/4 143/3/4
f 143/3/4 142/3/4 144/3/4
f 141/3/4 143/3/4 145/3/4
f 143/1/4 144/1/4 145/1/4
f 145/1/4 144/1/4 146/1/4
f 141/3/4 145/3/4 147/3/4
f 145/3/4 146/3/4 147/3/4
f 147/3/4 146/3/4 148/3/4
f 151/4/5 150/4/5 149/4/5
f 152/4/5 150/4/5 151/4/5
f 155/3/5 154/3/5 153/3/5
f 156/3/5 154/3/5 155/3/5
f 158/3/5 154/3/5 156/3/5
f 159/3/5 158/3/5 157/3/5
f 160/3/5 154/3/5 158/3/5
f 160/3/5 158/3/5 159/3/5
f 163/6/5 162/6/5 161/6/5
f 164/6/5 162/6/5 163/6/5
f 166/5/5 164/5/5 163/5/5
f 166/6/5 165/6/5 164/6/5
f 167/6/5 165/6/5 166/6/5
f 168/5/5 166/5/5 163/5/5
f 169/5/5 166/5/5 168/5/5
f 180/4/5 171/4/5 170/4/5
f 181/2/5 172/2/5 171/2/5
f 181/4/5 171/4/5 180/4/5
f 182/4/5 173/4/5 172/4/5
f 182/2/5 172/2/5 181/2/5
f 183/2/5 174/2/5 173/2/5
f 183/4/5 173/4/5 182/4/5
f 184/4/5 175/4/5 174/4/5
f 184/2/5 174/2/5 183/2/5
f 185/2/5 176/2/5 175/2/5
f 185/4/5 175/4/5 184/4/5
f 186/4/5 177/4/5 176/4/5
f 186/2/5 176/2/5 185/2/5
f 187/2/5 178/2/5 177/2/5
f 187/4/5 177/4/5 186/4/5
f 188/4/5 179/4/5 178/4/5
f 188/2/5 178/2/5 187/2/5
f 189/4/5 179/4/5 188/4/5
f 192/5/5 191/5/5 190/5/5
f 193/5/5 191/5/5 192/5/5
f 196/5/5 195/5/5 194/5/5
f 197/5/5 195/5/5 196/5/5
f 198/5/6 199/5/6 204/5/6
f 200/3/6 201/3/6 205/3/6
f 201/1/6 202/1/6 206/1/6
f 205/3/6 201/3/6 206/3/6
f 202/3/6 203/3/6 207/3/6
f 206/1/6 202/1/6 207/1/6
f 207/3/6 203/3/6 208/3/6
f 208/3/6 203/3/6 209/3/6
f 209/3/6 203/3/6 210/3/6
f 198/5/6 204/5/6 212/5/6
f 204/5/6 205/5/6 212/5/6
f 205/3/6 206/3/6 213/3/6
f 212/5/6 205/5/6 213/5/6
f 206/3/6 207/3/6 213/3/6
f 207/3/6 208/3/6 213/3/6
f 213/3/6 208/3/6 214/3/6
f 214/3/6 208/3/6 215/3/6
f 208/1/6 209/1/6 216/1/6
f 215/3/6 208/3/6 216/3/6
f 209/3/6 210/3/6 217/3/6
f 216/1/6 209/1/6 217/1/6
f 210/4/6 211/4/6 218/4/6
f 217/3/6 210/3/6 218/3/6
f 218/4/6 211/4/6 219/4/6
f 198/5/6 212/5/6 220/5/6
f 220/5/6 212/5/6 221/5/6
f 213/3/6 214/3/6 222/3/6
f 214/1/6 215/1/6 223/1/6
f 222/3/6 214/3/6 223/3/6
f 216/3/6 217/3/6 224/3/6
f 223/1/6 215/1/6 224/1/6
f 215/3/6 216/3/6 224/3/6
f 217/3/6 218/3/6 224/3/6
f 224/3/6 218/3/6 225/3/6
