# MagicaVoxel @ Ephtracy

# group
o 

# material
mtllib CommonSword.mtl
usemtl palette

# normals
vn -1 0 0
vn 1 0 0
vn 0 0 1
vn 0 0 -1
vn 0 -1 0
vn 0 1 0

# texcoords
vt 0.244141 0.5
vt 0.248047 0.5
vt 0.310547 0.5
vt 0.802734 0.5
vt 0.810547 0.5
vt 0.931641 0.5
vt 0.939453 0.5

# verts
v -0.5 0.7 0.2
v -0.5 0.7 -0.1
v -0.5 0.8 0.2
v -0.5 0.8 -0.1
v -0.3 0.8 0.1
v -0.3 0.8 0
v -0.3 2.6 0.1
v -0.3 2.6 0
v -0.2 0 0.2
v -0.2 0 -0.1
v -0.2 0.1 0.2
v -0.2 0.1 -0.1
v -0.2 0.2 0.2
v -0.2 0.2 0.1
v -0.2 0.2 0
v -0.2 0.2 -0.1
v -0.2 0.3 0.1
v -0.2 0.3 0
v -0.2 0.4 0.1
v -0.2 0.4 0
v -0.2 0.5 0.1
v -0.2 0.5 0
v -0.2 0.6 0.2
v -0.2 0.6 0.1
v -0.2 0.6 0
v -0.2 0.6 -0.1
v -0.2 0.7 0.2
v -0.2 0.7 0.1
v -0.2 0.7 -0.1
v -0.2 2.6 0.1
v -0.2 2.6 0
v -0.2 2.9 0.1
v -0.2 2.9 0
v -0.1 0.2 0.2
v -0.1 0.2 0.1
v -0.1 0.2 0
v -0.1 0.2 -0.1
v -0.1 0.3 0.2
v -0.1 0.3 0.1
v -0.1 0.3 0
v -0.1 0.3 -0.1
v -0.1 0.4 0.2
v -0.1 0.4 0.1
v -0.1 0.4 0
v -0.1 0.4 -0.1
v -0.1 0.5 0.2
v -0.1 0.5 0.1
v -0.1 0.5 0
v -0.1 0.5 -0.1
v -0.1 0.6 0.2
v -0.1 0.6 0.1
v -0.1 0.6 0
v -0.1 0.6 -0.1
v 0 0.2 0.2
v 0 0.2 0.1
v 0 0.2 0
v 0 0.2 -0.1
v 0 0.3 0.2
v 0 0.3 0.1
v 0 0.3 0
v 0 0.3 -0.1
v 0 0.4 0.2
v 0 0.4 0.1
v 0 0.4 0
v 0 0.4 -0.1
v 0 0.5 0.2
v 0 0.5 0.1
v 0 0.5 0
v 0 0.5 -0.1
v 0 0.6 0.2
v 0 0.6 0.1
v 0 0.6 0
v 0 0.6 -0.1
v 0.1 0 0.2
v 0.1 0 -0.1
v 0.1 0.1 0.2
v 0.1 0.1 -0.1
v 0.1 0.2 0.2
v 0.1 0.2 0.1
v 0.1 0.2 0
v 0.1 0.2 -0.1
v 0.1 0.3 0.1
v 0.1 0.3 0
v 0.1 0.4 0.1
v 0.1 0.4 0
v 0.1 0.5 0.1
v 0.1 0.5 0
v 0.1 0.6 0.2
v 0.1 0.6 0.1
v 0.1 0.6 0
v 0.1 0.6 -0.1
v 0.1 0.7 0.2
v 0.1 0.7 0.1
v 0.1 0.7 -0.1
v 0.1 2.6 0.1
v 0.1 2.6 0
v 0.1 2.9 0.1
v 0.1 2.9 0
v 0.2 0.8 0.1
v 0.2 0.8 0
v 0.2 2.6 0.1
v 0.2 2.6 0
v 0.4 0.7 0.2
v 0.4 0.7 -0.1
v 0.4 0.8 0.2
v 0.4 0.8 -0.1
v -0.5 0.7 0.2
v -0.5 0.8 0.2
v -0.4 0.7 0.2
v -0.4 0.8 0.2
v -0.2 0 0.2
v -0.2 0.1 0.2
v -0.2 0.2 0.2
v -0.2 0.6 0.2
v -0.2 0.7 0.2
v -0.1 0.2 0.2
v -0.1 0.3 0.2
v -0.1 0.4 0.2
v -0.1 0.5 0.2
v -0.1 0.6 0.2
v 0 0.2 0.2
v 0 0.3 0.2
v 0 0.4 0.2
v 0 0.5 0.2
v 0 0.6 0.2
v 0.1 0 0.2
v 0.1 0.1 0.2
v 0.1 0.2 0.2
v 0.1 0.6 0.2
v 0.1 0.7 0.2
v 0.4 0.7 0.2
v 0.4 0.8 0.2
v -0.3 0.8 0.1
v -0.3 2.6 0.1
v -0.2 0.2 0.1
v -0.2 0.3 0.1
v -0.2 0.4 0.1
v -0.2 0.5 0.1
v -0.2 0.6 0.1
v -0.2 2.6 0.1
v -0.2 2.9 0.1
v -0.1 0.2 0.1
v -0.1 0.3 0.1
v -0.1 0.4 0.1
v -0.1 0.5 0.1
v -0.1 0.6 0.1
v -0.1 0.8 0.1
v -0.1 2.8 0.1
v 0 0.2 0.1
v 0 0.3 0.1
v 0 0.4 0.1
v 0 0.5 0.1
v 0 0.6 0.1
v 0 0.8 0.1
v 0 2.8 0.1
v 0.1 0.2 0.1
v 0.1 0.3 0.1
v 0.1 0.4 0.1
v 0.1 0.5 0.1
v 0.1 0.6 0.1
v 0.1 2.6 0.1
v 0.1 2.9 0.1
v 0.2 0.8 0.1
v 0.2 2.6 0.1
v -0.3 0.8 0
v -0.3 2.6 0
v -0.2 0.2 0
v -0.2 0.3 0
v -0.2 0.4 0
v -0.2 0.5 0
v -0.2 0.6 0
v -0.2 2.6 0
v -0.2 2.9 0
v -0.1 0.2 0
v -0.1 0.3 0
v -0.1 0.4 0
v -0.1 0.5 0
v -0.1 0.6 0
v -0.1 0.8 0
v -0.1 2.8 0
v 0 0.2 0
v 0 0.3 0
v 0 0.4 0
v 0 0.5 0
v 0 0.6 0
v 0 0.8 0
v 0 2.8 0
v 0.1 0.2 0
v 0.1 0.3 0
v 0.1 0.4 0
v 0.1 0.5 0
v 0.1 0.6 0
v 0.1 2.6 0
v 0.1 2.9 0
v 0.2 0.8 0
v 0.2 2.6 0
v -0.5 0.7 -0.1
v -0.5 0.8 -0.1
v -0.2 0 -0.1
v -0.2 0.1 -0.1
v -0.2 0.2 -0.1
v -0.2 0.6 -0.1
v -0.2 0.7 -0.1
v -0.1 0.2 -0.1
v -0.1 0.3 -0.1
v -0.1 0.4 -0.1
v -0.1 0.5 -0.1
v -0.1 0.6 -0.1
v 0 0.2 -0.1
v 0 0.3 -0.1
v 0 0.4 -0.1
v 0 0.5 -0.1
v 0 0.6 -0.1
v 0.1 0 -0.1
v 0.1 0.1 -0.1
v 0.1 0.2 -0.1
v 0.1 0.6 -0.1
v 0.1 0.7 -0.1
v 0.2 0.7 -0.1
v 0.2 0.8 -0.1
v 0.4 0.7 -0.1
v 0.4 0.8 -0.1
v -0.2 0 0.2
v 0.1 0 0.2
v -0.2 0 -0.1
v 0.1 0 -0.1
v -0.2 0.6 0.2
v -0.1 0.6 0.2
v 0 0.6 0.2
v 0.1 0.6 0.2
v -0.2 0.6 0.1
v -0.1 0.6 0.1
v 0 0.6 0.1
v 0.1 0.6 0.1
v -0.2 0.6 0
v -0.1 0.6 0
v 0 0.6 0
v 0.1 0.6 0
v -0.2 0.6 -0.1
v -0.1 0.6 -0.1
v 0 0.6 -0.1
v 0.1 0.6 -0.1
v -0.5 0.7 0.2
v -0.4 0.7 0.2
v -0.2 0.7 0.2
v 0.1 0.7 0.2
v 0.4 0.7 0.2
v -0.4 0.7 0.1
v -0.2 0.7 0.1
v 0.1 0.7 0.1
v 0.2 0.7 0.1
v -0.5 0.7 -0.1
v -0.2 0.7 -0.1
v 0.1 0.7 -0.1
v 0.2 0.7 -0.1
v 0.4 0.7 -0.1
v -0.2 0.2 0.2
v -0.1 0.2 0.2
v 0 0.2 0.2
v 0.1 0.2 0.2
v -0.2 0.2 0.1
v -0.1 0.2 0.1
v 0 0.2 0.1
v 0.1 0.2 0.1
v -0.2 0.2 0
v -0.1 0.2 0
v 0 0.2 0
v 0.1 0.2 0
v -0.2 0.2 -0.1
v -0.1 0.2 -0.1
v 0 0.2 -0.1
v 0.1 0.2 -0.1
v -0.5 0.8 0.2
v -0.4 0.8 0.2
v 0.4 0.8 0.2
v -0.4 0.8 0.1
v -0.3 0.8 0.1
v -0.1 0.8 0.1
v 0 0.8 0.1
v 0.2 0.8 0.1
v -0.3 0.8 0
v -0.1 0.8 0
v 0 0.8 0
v 0.2 0.8 0
v -0.5 0.8 -0.1
v 0.2 0.8 -0.1
v 0.4 0.8 -0.1
v -0.3 2.6 0.1
v -0.2 2.6 0.1
v 0.1 2.6 0.1
v 0.2 2.6 0.1
v -0.3 2.6 0
v -0.2 2.6 0
v 0.1 2.6 0
v 0.2 2.6 0
v -0.2 2.9 0.1
v 0.1 2.9 0.1
v -0.2 2.9 0
v 0.1 2.9 0

# faces
f 3/7/1 2/7/1 1/7/1
f 4/7/1 2/7/1 3/7/1
f 7/4/1 6/4/1 5/4/1
f 8/4/1 6/4/1 7/4/1
f 11/2/1 10/2/1 9/2/1
f 12/2/1 10/2/1 11/2/1
f 13/1/1 12/1/1 11/1/1
f 14/1/1 12/1/1 13/1/1
f 15/1/1 12/1/1 14/1/1
f 16/1/1 12/1/1 15/1/1
f 17/3/1 15/3/1 14/3/1
f 18/3/1 15/3/1 17/3/1
f 19/1/1 18/1/1 17/1/1
f 20/1/1 18/1/1 19/1/1
f 21/3/1 20/3/1 19/3/1
f 22/3/1 20/3/1 21/3/1
f 24/1/1 22/1/1 21/1/1
f 25/1/1 22/1/1 24/1/1
f 27/1/1 25/1/1 24/1/1
f 27/1/1 26/1/1 25/1/1
f 27/1/1 24/1/1 23/1/1
f 28/1/1 26/1/1 27/1/1
f 29/1/1 26/1/1 28/1/1
f 32/4/1 31/4/1 30/4/1
f 33/4/1 31/4/1 32/4/1
f 38/3/1 35/3/1 34/3/1
f 39/3/1 35/3/1 38/3/1
f 40/3/1 37/3/1 36/3/1
f 41/3/1 37/3/1 40/3/1
f 42/1/1 39/1/1 38/1/1
f 43/1/1 39/1/1 42/1/1
f 44/1/1 41/1/1 40/1/1
f 45/1/1 41/1/1 44/1/1
f 46/3/1 43/3/1 42/3/1
f 47/3/1 43/3/1 46/3/1
f 48/3/1 45/3/1 44/3/1
f 49/3/1 45/3/1 48/3/1
f 50/1/1 47/1/1 46/1/1
f 51/1/1 47/1/1 50/1/1
f 52/1/1 49/1/1 48/1/1
f 53/1/1 49/1/1 52/1/1
f 54/3/2 55/3/2 58/3/2
f 58/3/2 55/3/2 59/3/2
f 56/3/2 57/3/2 60/3/2
f 60/3/2 57/3/2 61/3/2
f 58/1/2 59/1/2 62/1/2
f 62/1/2 59/1/2 63/1/2
f 60/1/2 61/1/2 64/1/2
f 64/1/2 61/1/2 65/1/2
f 62/3/2 63/3/2 66/3/2
f 66/3/2 63/3/2 67/3/2
f 64/3/2 65/3/2 68/3/2
f 68/3/2 65/3/2 69/3/2
f 66/1/2 67/1/2 70/1/2
f 70/1/2 67/1/2 71/1/2
f 68/1/2 69/1/2 72/1/2
f 72/1/2 69/1/2 73/1/2
f 74/2/2 75/2/2 76/2/2
f 76/2/2 75/2/2 77/2/2
f 76/1/2 77/1/2 78/1/2
f 78/1/2 77/1/2 79/1/2
f 79/1/2 77/1/2 80/1/2
f 80/1/2 77/1/2 81/1/2
f 79/3/2 80/3/2 82/3/2
f 82/3/2 80/3/2 83/3/2
f 82/1/2 83/1/2 84/1/2
f 84/1/2 83/1/2 85/1/2
f 84/3/2 85/3/2 86/3/2
f 86/3/2 85/3/2 87/3/2
f 86/1/2 87/1/2 89/1/2
f 89/1/2 87/1/2 90/1/2
f 89/1/2 90/1/2 92/1/2
f 90/1/2 91/1/2 92/1/2
f 88/1/2 89/1/2 92/1/2
f 92/1/2 91/1/2 93/1/2
f 93/1/2 91/1/2 94/1/2
f 95/4/2 96/4/2 97/4/2
f 97/4/2 96/4/2 98/4/2
f 99/4/2 100/4/2 101/4/2
f 101/4/2 100/4/2 102/4/2
f 103/6/2 104/6/2 105/6/2
f 105/6/2 104/6/2 106/6/2
f 109/7/3 108/7/3 107/7/3
f 110/7/3 108/7/3 109/7/3
f 115/6/3 110/6/3 109/6/3
f 116/1/3 113/1/3 112/1/3
f 120/1/3 115/1/3 114/1/3
f 121/1/3 116/1/3 112/1/3
f 121/3/3 117/3/3 116/3/3
f 122/1/3 118/1/3 117/1/3
f 122/3/3 117/3/3 121/3/3
f 123/3/3 119/3/3 118/3/3
f 123/1/3 118/1/3 122/1/3
f 124/1/3 120/1/3 119/1/3
f 124/3/3 119/3/3 123/3/3
f 125/1/3 115/1/3 120/1/3
f 125/1/3 120/1/3 124/1/3
f 126/2/3 112/2/3 111/2/3
f 127/1/3 121/1/3 112/1/3
f 127/2/3 112/2/3 126/2/3
f 128/1/3 121/1/3 127/1/3
f 129/1/3 115/1/3 125/1/3
f 130/6/3 110/6/3 115/6/3
f 130/1/3 115/1/3 129/1/3
f 131/6/3 110/6/3 130/6/3
f 132/6/3 110/6/3 131/6/3
f 140/4/3 134/4/3 133/4/3
f 142/3/3 136/3/3 135/3/3
f 143/1/3 137/1/3 136/1/3
f 143/3/3 136/3/3 142/3/3
f 144/3/3 138/3/3 137/3/3
f 144/1/3 137/1/3 143/1/3
f 145/1/3 139/1/3 138/1/3
f 145/3/3 138/3/3 144/3/3
f 146/1/3 139/1/3 145/1/3
f 147/4/3 141/4/3 140/4/3
f 147/4/3 140/4/3 133/4/3
f 148/4/3 141/4/3 147/4/3
f 154/5/3 148/5/3 147/5/3
f 155/4/3 141/4/3 148/4/3
f 155/5/3 148/5/3 154/5/3
f 156/3/3 150/3/3 149/3/3
f 157/1/3 151/1/3 150/1/3
f 157/3/3 150/3/3 156/3/3
f 158/3/3 152/3/3 151/3/3
f 158/1/3 151/1/3 157/1/3
f 159/1/3 153/1/3 152/1/3
f 159/3/3 152/3/3 158/3/3
f 160/1/3 153/1/3 159/1/3
f 161/4/3 155/4/3 154/4/3
f 162/4/3 141/4/3 155/4/3
f 162/4/3 155/4/3 161/4/3
f 163/4/3 161/4/3 154/4/3
f 164/4/3 161/4/3 163/4/3
f 165/4/4 166/4/4 172/4/4
f 167/3/4 168/3/4 174/3/4
f 168/1/4 169/1/4 175/1/4
f 174/3/4 168/3/4 175/3/4
f 169/3/4 170/3/4 176/3/4
f 175/1/4 169/1/4 176/1/4
f 170/1/4 171/1/4 177/1/4
f 176/3/4 170/3/4 177/3/4
f 177/1/4 171/1/4 178/1/4
f 172/4/4 173/4/4 179/4/4
f 165/4/4 172/4/4 179/4/4
f 179/4/4 173/4/4 180/4/4
f 179/5/4 180/5/4 186/5/4
f 180/4/4 173/4/4 187/4/4
f 186/5/4 180/5/4 187/5/4
f 181/3/4 182/3/4 188/3/4
f 182/1/4 183/1/4 189/1/4
f 188/3/4 182/3/4 189/3/4
f 183/3/4 184/3/4 190/3/4
f 189/1/4 183/1/4 190/1/4
f 184/1/4 185/1/4 191/1/4
f 190/3/4 184/3/4 191/3/4
f 191/1/4 185/1/4 192/1/4
f 186/4/4 187/4/4 193/4/4
f 187/4/4 173/4/4 194/4/4
f 193/4/4 187/4/4 194/4/4
f 186/4/4 193/4/4 195/4/4
f 195/4/4 193/4/4 196/4/4
f 197/7/4 198/7/4 203/7/4
f 200/1/4 201/1/4 204/1/4
f 202/1/4 203/1/4 208/1/4
f 200/1/4 204/1/4 209/1/4
f 204/3/4 205/3/4 209/3/4
f 205/1/4 206/1/4 210/1/4
f 209/3/4 205/3/4 210/3/4
f 206/3/4 207/3/4 211/3/4
f 210/1/4 206/1/4 211/1/4
f 207/1/4 208/1/4 212/1/4
f 211/3/4 207/3/4 212/3/4
f 208/1/4 203/1/4 213/1/4
f 212/1/4 208/1/4 213/1/4
f 199/2/4 200/2/4 214/2/4
f 200/1/4 209/1/4 215/1/4
f 214/2/4 200/2/4 215/2/4
f 215/1/4 209/1/4 216/1/4
f 213/1/4 203/1/4 217/1/4
f 203/7/4 198/7/4 218/7/4
f 217/1/4 203/1/4 218/1/4
f 218/7/4 198/7/4 219/7/4
f 219/7/4 198/7/4 220/7/4
f 219/6/4 220/6/4 221/6/4
f 221/6/4 220/6/4 222/6/4
f 225/2/5 224/2/5 223/2/5
f 226/2/5 224/2/5 225/2/5
f 231/1/5 228/1/5 227/1/5
f 232/1/5 228/1/5 231/1/5
f 233/1/5 230/1/5 229/1/5
f 234/1/5 230/1/5 233/1/5
f 239/1/5 236/1/5 235/1/5
f 240/1/5 236/1/5 239/1/5
f 241/1/5 238/1/5 237/1/5
f 242/1/5 238/1/5 241/1/5
f 248/7/5 244/7/5 243/7/5
f 248/6/5 245/6/5 244/6/5
f 249/6/5 245/6/5 248/6/5
f 250/6/5 247/6/5 246/6/5
f 251/6/5 247/6/5 250/6/5
f 252/7/5 249/7/5 248/7/5
f 252/7/5 248/7/5 243/7/5
f 253/7/5 249/7/5 252/7/5
f 254/7/5 251/7/5 250/7/5
f 255/6/5 247/6/5 251/6/5
f 255/7/5 251/7/5 254/7/5
f 256/6/5 247/6/5 255/6/5
f 257/1/6 258/1/6 261/1/6
f 261/1/6 258/1/6 262/1/6
f 259/1/6 260/1/6 263/1/6
f 263/1/6 260/1/6 264/1/6
f 265/1/6 266/1/6 269/1/6
f 269/1/6 266/1/6 270/1/6
f 267/1/6 268/1/6 271/1/6
f 271/1/6 268/1/6 272/1/6
f 273/7/6 274/7/6 276/7/6
f 274/6/6 275/6/6 276/6/6
f 276/6/6 275/6/6 277/6/6
f 277/6/6 275/6/6 278/6/6
f 278/6/6 275/6/6 279/6/6
f 279/6/6 275/6/6 280/6/6
f 276/7/6 277/7/6 281/7/6
f 280/6/6 275/6/6 284/6/6
f 273/7/6 276/7/6 285/7/6
f 283/7/6 284/7/6 285/7/6
f 282/7/6 283/7/6 285/7/6
f 276/7/6 281/7/6 285/7/6
f 281/7/6 282/7/6 285/7/6
f 284/6/6 275/6/6 286/6/6
f 285/7/6 284/7/6 286/7/6
f 286/6/6 275/6/6 287/6/6
f 288/4/6 289/4/6 292/4/6
f 292/4/6 289/4/6 293/4/6
f 290/4/6 291/4/6 294/4/6
f 294/4/6 291/4/6 295/4/6
f 296/4/6 297/4/6 298/4/6
f 298/4/6 297/4/6 299/4/6
