# MagicaVoxel @ Ephtracy

# group
o 

# material
mtllib mountain_3.mtl
usemtl palette

# normals
vn -1 0 0
vn 1 0 0
vn 0 0 1
vn 0 0 -1
vn 0 -1 0
vn 0 1 0

# texcoords
vt 0.376953 0.5
vt 0.380859 0.5
vt 0.384766 0.5
vt 0.662109 0.5
vt 0.666016 0.5
vt 0.673828 0.5
vt 0.900391 0.5

# verts
v 0 2 0
v 0 2 -0.2
v 0 2 -0.3
v 0 2 -0.8
v 0 2.1 0
v 0 2.1 -0.2
v 0 2.1 -0.3
v 0 2.1 -0.8
v 0.1 2.1 0
v 0.1 2.1 -0.1
v 0.1 2.1 -0.2
v 0.1 2.1 -0.3
v 0.1 2.1 -0.6
v 0.1 2.1 -0.7
v 0.1 2.2 0
v 0.1 2.2 -0.1
v 0.1 2.2 -0.3
v 0.1 2.2 -0.4
v 0.1 2.2 -0.6
v 0.1 2.2 -0.7
v 0.1 2.3 -0.3
v 0.1 2.3 -0.4
v 0.2 2.2 0
v 0.2 2.2 -0.1
v 0.2 2.2 -0.3
v 0.2 2.2 -0.4
v 0.2 2.2 -0.6
v 0.2 2.3 0
v 0.2 2.3 -0.1
v 0.2 2.3 -0.3
v 0.2 2.3 -0.4
v 0.2 2.4 -0.1
v 0.2 2.4 -0.2
v 0.2 2.4 -0.5
v 0.2 2.4 -0.6
v 0.2 2.5 0
v 0.2 2.5 -0.1
v 0.2 2.5 -0.2
v 0.2 2.5 -0.3
v 0.2 2.5 -0.5
v 0.2 2.5 -0.6
v 0.2 2.6 -0.1
v 0.2 2.6 -0.2
v 0.2 2.6 -0.3
v 0.3 2.5 0
v 0.3 2.5 -0.1
v 0.3 2.5 -0.3
v 0.3 2.5 -0.5
v 0.3 2.5 -0.6
v 0.3 2.6 0
v 0.3 2.6 -0.1
v 0.3 2.6 -0.3
v 0.3 2.6 -0.4
v 0.3 2.6 -0.5
v 0.3 2.7 -0.4
v 0.3 2.7 -0.5
v 0.3 2.7 -0.6
v 0.4 2.6 -0.3
v 0.4 2.6 -0.4
v 0.4 2.7 -0.3
v 0.4 2.7 -0.4
v 0.4 2.7 -0.5
v 0.4 2.7 -0.6
v 0.4 2.8 -0.4
v 0.4 2.8 -0.5
v 0.4 2.9 -0.4
v 0.4 2.9 -0.5
v 0.4 2.9 -0.6
v 0.4 3 -0.4
v 0.4 3 -0.5
v 0.6 2.5 -0.3
v 0.6 2.5 -0.4
v 0.6 2.6 -0.3
v 0.6 2.6 -0.4
v 0.6 2.8 -0.3
v 0.6 2.8 -0.4
v 0.4 2.5 0
v 0.4 2.5 -0.1
v 0.4 2.5 -0.2
v 0.4 2.5 -0.3
v 0.4 2.6 0
v 0.4 2.6 -0.3
v 0.5 2.4 0
v 0.5 2.4 -0.1
v 0.5 2.4 -0.2
v 0.5 2.4 -0.3
v 0.5 2.5 0
v 0.5 2.5 -0.1
v 0.5 2.5 -0.2
v 0.5 2.5 -0.3
v 0.5 2.5 -0.4
v 0.5 2.6 -0.3
v 0.5 2.6 -0.4
v 0.5 2.7 -0.3
v 0.5 2.7 -0.4
v 0.6 2.2 0
v 0.6 2.2 -0.1
v 0.6 2.3 -0.1
v 0.6 2.3 -0.2
v 0.6 2.4 0
v 0.6 2.4 -0.1
v 0.6 2.4 -0.2
v 0.6 2.8 -0.4
v 0.6 2.8 -0.6
v 0.6 2.9 -0.5
v 0.6 2.9 -0.6
v 0.6 3 -0.4
v 0.6 3 -0.5
v 0.7 2.1 0
v 0.7 2.1 -0.1
v 0.7 2.2 0
v 0.7 2.2 -0.1
v 0.7 2.2 -0.2
v 0.7 2.3 -0.1
v 0.7 2.3 -0.2
v 0.7 2.5 -0.3
v 0.7 2.5 -0.4
v 0.7 2.6 -0.3
v 0.7 2.6 -0.4
v 0.7 2.7 -0.4
v 0.7 2.7 -0.6
v 0.7 2.8 -0.3
v 0.7 2.8 -0.6
v 0.8 2 0
v 0.8 2 -0.1
v 0.8 2 -0.2
v 0.8 2 -0.3
v 0.8 2 -0.7
v 0.8 2 -0.8
v 0.8 2.1 0
v 0.8 2.1 -0.1
v 0.8 2.1 -0.2
v 0.8 2.1 -0.3
v 0.8 2.1 -0.7
v 0.8 2.1 -0.8
v 0.8 2.2 -0.1
v 0.8 2.2 -0.2
v 0.8 2.2 -0.6
v 0.8 2.2 -0.7
v 0.8 2.4 -0.2
v 0.8 2.4 -0.3
v 0.8 2.5 -0.3
v 0.8 2.5 -0.4
v 0.8 2.7 -0.4
v 0.8 2.7 -0.6
v 0 2 0
v 0 2.1 0
v 0.1 2 0
v 0.1 2.1 0
v 0.1 2.2 0
v 0.2 2 0
v 0.2 2.1 0
v 0.2 2.2 0
v 0.2 2.3 0
v 0.2 2.5 0
v 0.3 2 0
v 0.3 2.1 0
v 0.3 2.2 0
v 0.3 2.5 0
v 0.3 2.6 0
v 0.4 2 0
v 0.4 2.1 0
v 0.4 2.3 0
v 0.4 2.5 0
v 0.4 2.6 0
v 0.5 2 0
v 0.5 2.1 0
v 0.5 2.3 0
v 0.5 2.4 0
v 0.5 2.5 0
v 0.6 2 0
v 0.6 2.1 0
v 0.6 2.2 0
v 0.6 2.4 0
v 0.7 2 0
v 0.7 2.1 0
v 0.7 2.2 0
v 0.8 2 0
v 0.8 2.1 0
v 0.2 2.5 -0.1
v 0.2 2.6 -0.1
v 0.3 2.5 -0.1
v 0.3 2.6 -0.1
v 0.6 2.2 -0.1
v 0.6 2.3 -0.1
v 0.7 2.1 -0.1
v 0.7 2.2 -0.1
v 0.7 2.3 -0.1
v 0.8 2.1 -0.1
v 0.8 2.2 -0.1
v 0.6 2.3 -0.2
v 0.6 2.4 -0.2
v 0.7 2.2 -0.2
v 0.7 2.3 -0.2
v 0.8 2.2 -0.2
v 0.8 2.4 -0.2
v 0.1 2.2 -0.3
v 0.1 2.3 -0.3
v 0.2 2.2 -0.3
v 0.2 2.3 -0.3
v 0.4 2.5 -0.3
v 0.4 2.6 -0.3
v 0.4 2.7 -0.3
v 0.5 2.4 -0.3
v 0.5 2.5 -0.3
v 0.5 2.6 -0.3
v 0.5 2.7 -0.3
v 0.6 2.4 -0.3
v 0.6 2.5 -0.3
v 0.6 2.6 -0.3
v 0.6 2.8 -0.3
v 0.7 2.4 -0.3
v 0.7 2.5 -0.3
v 0.7 2.6 -0.3
v 0.7 2.8 -0.3
v 0.8 2.4 -0.3
v 0.8 2.5 -0.3
v 0.3 2.6 -0.4
v 0.3 2.7 -0.4
v 0.4 2.6 -0.4
v 0.4 2.7 -0.4
v 0.4 2.8 -0.4
v 0.4 2.9 -0.4
v 0.4 3 -0.4
v 0.5 2.5 -0.4
v 0.5 2.6 -0.4
v 0.5 2.7 -0.4
v 0.5 2.8 -0.4
v 0.5 2.9 -0.4
v 0.6 2.5 -0.4
v 0.6 2.6 -0.4
v 0.6 2.8 -0.4
v 0.6 3 -0.4
v 0.7 2.5 -0.4
v 0.7 2.6 -0.4
v 0.7 2.7 -0.4
v 0.8 2.5 -0.4
v 0.8 2.7 -0.4
v 0.2 2.5 -0.3
v 0.2 2.6 -0.3
v 0.3 2.5 -0.3
v 0.3 2.6 -0.3
v 0.1 2.2 -0.4
v 0.1 2.3 -0.4
v 0.2 2.2 -0.4
v 0.2 2.3 -0.4
v 0.4 2.9 -0.5
v 0.4 3 -0.5
v 0.6 2.9 -0.5
v 0.6 3 -0.5
v 0.2 2.2 -0.6
v 0.2 2.4 -0.6
v 0.2 2.5 -0.6
v 0.3 2.4 -0.6
v 0.3 2.5 -0.6
v 0.3 2.7 -0.6
v 0.4 2.7 -0.6
v 0.4 2.9 -0.6
v 0.6 2.8 -0.6
v 0.6 2.9 -0.6
v 0.7 2.7 -0.6
v 0.7 2.8 -0.6
v 0.8 2.2 -0.6
v 0.8 2.7 -0.6
v 0.1 2.1 -0.7
v 0.1 2.2 -0.7
v 0.2 2.1 -0.7
v 0.3 2.1 -0.7
v 0.7 2.1 -0.7
v 0.8 2.1 -0.7
v 0.8 2.2 -0.7
v 0 2 -0.8
v 0 2.1 -0.8
v 0.1 2 -0.8
v 0.1 2.1 -0.8
v 0.2 2 -0.8
v 0.2 2.1 -0.8
v 0.3 2 -0.8
v 0.3 2.1 -0.8
v 0.7 2 -0.8
v 0.7 2.1 -0.8
v 0.8 2 -0.8
v 0.8 2.1 -0.8
v 0 2 0
v 0.1 2 0
v 0.2 2 0
v 0.3 2 0
v 0.4 2 0
v 0.5 2 0
v 0.6 2 0
v 0.7 2 0
v 0.8 2 0
v 0.1 2 -0.1
v 0.2 2 -0.1
v 0.3 2 -0.1
v 0.4 2 -0.1
v 0.5 2 -0.1
v 0.6 2 -0.1
v 0.7 2 -0.1
v 0.8 2 -0.1
v 0 2 -0.2
v 0.1 2 -0.2
v 0.2 2 -0.2
v 0.3 2 -0.2
v 0.5 2 -0.2
v 0.6 2 -0.2
v 0.7 2 -0.2
v 0.8 2 -0.2
v 0 2 -0.3
v 0.1 2 -0.3
v 0.2 2 -0.3
v 0.3 2 -0.3
v 0.4 2 -0.3
v 0.5 2 -0.3
v 0.6 2 -0.3
v 0.7 2 -0.3
v 0.8 2 -0.3
v 0.1 2 -0.4
v 0.3 2 -0.4
v 0.4 2 -0.4
v 0.5 2 -0.4
v 0.6 2 -0.4
v 0.7 2 -0.4
v 0.1 2 -0.5
v 0.2 2 -0.5
v 0.3 2 -0.5
v 0.4 2 -0.5
v 0.5 2 -0.5
v 0.6 2 -0.5
v 0.7 2 -0.5
v 0.1 2 -0.6
v 0.2 2 -0.6
v 0.3 2 -0.6
v 0.4 2 -0.6
v 0.5 2 -0.6
v 0.6 2 -0.6
v 0.7 2 -0.6
v 0.1 2 -0.7
v 0.2 2 -0.7
v 0.3 2 -0.7
v 0.5 2 -0.7
v 0.6 2 -0.7
v 0.7 2 -0.7
v 0.8 2 -0.7
v 0 2 -0.8
v 0.1 2 -0.8
v 0.2 2 -0.8
v 0.3 2 -0.8
v 0.7 2 -0.8
v 0.8 2 -0.8
v 0 2.1 0
v 0.1 2.1 0
v 0.7 2.1 0
v 0.8 2.1 0
v 0.1 2.1 -0.1
v 0.7 2.1 -0.1
v 0.8 2.1 -0.1
v 0 2.1 -0.2
v 0.1 2.1 -0.2
v 0 2.1 -0.3
v 0.1 2.1 -0.3
v 0.1 2.1 -0.6
v 0.1 2.1 -0.7
v 0.2 2.1 -0.7
v 0.3 2.1 -0.7
v 0.7 2.1 -0.7
v 0.8 2.1 -0.7
v 0 2.1 -0.8
v 0.1 2.1 -0.8
v 0.2 2.1 -0.8
v 0.3 2.1 -0.8
v 0.7 2.1 -0.8
v 0.8 2.1 -0.8
v 0.1 2.2 0
v 0.2 2.2 0
v 0.6 2.2 0
v 0.7 2.2 0
v 0.1 2.2 -0.1
v 0.2 2.2 -0.1
v 0.6 2.2 -0.1
v 0.7 2.2 -0.1
v 0.8 2.2 -0.1
v 0.7 2.2 -0.2
v 0.8 2.2 -0.2
v 0.1 2.2 -0.3
v 0.2 2.2 -0.3
v 0.1 2.2 -0.4
v 0.2 2.2 -0.4
v 0.1 2.2 -0.6
v 0.2 2.2 -0.6
v 0.8 2.2 -0.6
v 0.1 2.2 -0.7
v 0.8 2.2 -0.7
v 0.6 2.3 -0.1
v 0.7 2.3 -0.1
v 0.6 2.3 -0.2
v 0.7 2.3 -0.2
v 0.1 2.3 -0.3
v 0.2 2.3 -0.3
v 0.1 2.3 -0.4
v 0.2 2.3 -0.4
v 0.5 2.4 0
v 0.6 2.4 0
v 0.5 2.4 -0.1
v 0.6 2.4 -0.1
v 0.5 2.4 -0.2
v 0.6 2.4 -0.2
v 0.8 2.4 -0.2
v 0.5 2.4 -0.3
v 0.6 2.4 -0.3
v 0.7 2.4 -0.3
v 0.8 2.4 -0.3
v 0.2 2.5 0
v 0.3 2.5 0
v 0.4 2.5 0
v 0.5 2.5 0
v 0.2 2.5 -0.1
v 0.3 2.5 -0.1
v 0.4 2.5 -0.1
v 0.5 2.5 -0.1
v 0.4 2.5 -0.2
v 0.5 2.5 -0.2
v 0.2 2.5 -0.3
v 0.3 2.5 -0.3
v 0.4 2.5 -0.3
v 0.5 2.5 -0.3
v 0.6 2.5 -0.3
v 0.7 2.5 -0.3
v 0.8 2.5 -0.3
v 0.5 2.5 -0.4
v 0.6 2.5 -0.4
v 0.7 2.5 -0.4
v 0.8 2.5 -0.4
v 0.2 2.5 -0.5
v 0.3 2.5 -0.5
v 0.2 2.5 -0.6
v 0.3 2.5 -0.6
v 0.3 2.6 0
v 0.4 2.6 0
v 0.2 2.6 -0.1
v 0.3 2.6 -0.1
v 0.2 2.6 -0.2
v 0.3 2.6 -0.2
v 0.2 2.6 -0.3
v 0.3 2.6 -0.3
v 0.4 2.6 -0.3
v 0.3 2.6 -0.4
v 0.4 2.6 -0.4
v 0.4 2.7 -0.3
v 0.5 2.7 -0.3
v 0.3 2.7 -0.4
v 0.4 2.7 -0.4
v 0.5 2.7 -0.4
v 0.7 2.7 -0.4
v 0.8 2.7 -0.4
v 0.3 2.7 -0.5
v 0.4 2.7 -0.5
v 0.3 2.7 -0.6
v 0.4 2.7 -0.6
v 0.7 2.7 -0.6
v 0.8 2.7 -0.6
v 0.6 2.8 -0.3
v 0.7 2.8 -0.3
v 0.6 2.8 -0.4
v 0.6 2.8 -0.6
v 0.7 2.8 -0.6
v 0.4 2.9 -0.5
v 0.6 2.9 -0.5
v 0.4 2.9 -0.6
v 0.6 2.9 -0.6
v 0.4 3 -0.4
v 0.6 3 -0.4
v 0.4 3 -0.5
v 0.6 3 -0.5

# faces
f 5/7/1 2/7/1 1/7/1
f 6/2/1 3/2/1 2/2/1
f 6/7/1 2/7/1 5/7/1
f 7/7/1 4/7/1 3/7/1
f 7/2/1 3/2/1 6/2/1
f 8/7/1 4/7/1 7/7/1
f 15/3/1 10/3/1 9/3/1
f 16/1/1 11/1/1 10/1/1
f 16/3/1 10/3/1 15/3/1
f 16/1/1 12/1/1 11/1/1
f 17/3/1 13/3/1 12/3/1
f 17/1/1 12/1/1 16/1/1
f 18/3/1 13/3/1 17/3/1
f 19/1/1 14/1/1 13/1/1
f 19/3/1 13/3/1 18/3/1
f 20/1/1 14/1/1 19/1/1
f 21/3/1 18/3/1 17/3/1
f 22/3/1 18/3/1 21/3/1
f 28/2/1 24/2/1 23/2/1
f 29/1/1 25/1/1 24/1/1
f 29/2/1 24/2/1 28/2/1
f 30/1/1 25/1/1 29/1/1
f 31/1/1 27/1/1 26/1/1
f 32/1/1 30/1/1 29/1/1
f 32/1/1 31/1/1 30/1/1
f 32/1/1 29/1/1 28/1/1
f 33/1/1 31/1/1 32/1/1
f 34/1/1 27/1/1 31/1/1
f 34/1/1 31/1/1 33/1/1
f 35/1/1 27/1/1 34/1/1
f 36/1/1 32/1/1 28/1/1
f 37/3/1 33/3/1 32/3/1
f 37/1/1 32/1/1 36/1/1
f 38/1/1 34/1/1 33/1/1
f 38/3/1 33/3/1 37/3/1
f 39/1/1 34/1/1 38/1/1
f 40/2/1 35/2/1 34/2/1
f 40/1/1 34/1/1 39/1/1
f 41/2/1 35/2/1 40/2/1
f 42/1/1 38/1/1 37/1/1
f 43/3/1 39/3/1 38/3/1
f 43/1/1 38/1/1 42/1/1
f 44/3/1 39/3/1 43/3/1
f 50/1/1 46/1/1 45/1/1
f 51/1/1 46/1/1 50/1/1
f 52/1/1 49/1/1 48/1/1
f 52/1/1 48/1/1 47/1/1
f 53/1/1 49/1/1 52/1/1
f 54/1/1 49/1/1 53/1/1
f 55/3/1 54/3/1 53/3/1
f 56/1/1 49/1/1 54/1/1
f 56/3/1 54/3/1 55/3/1
f 57/1/1 49/1/1 56/1/1
f 60/1/1 59/1/1 58/1/1
f 61/1/1 59/1/1 60/1/1
f 64/1/1 63/1/1 62/1/1
f 64/1/1 62/1/1 61/1/1
f 65/1/1 63/1/1 64/1/1
f 66/3/1 65/3/1 64/3/1
f 67/1/1 63/1/1 65/1/1
f 67/3/1 65/3/1 66/3/1
f 68/1/1 63/1/1 67/1/1
f 69/1/1 67/1/1 66/1/1
f 70/1/1 67/1/1 69/1/1
f 73/3/1 72/3/1 71/3/1
f 74/3/1 72/3/1 73/3/1
f 75/1/1 74/1/1 73/1/1
f 76/1/1 74/1/1 75/1/1
f 77/1/2 78/1/2 81/1/2
f 79/1/2 80/1/2 81/1/2
f 78/1/2 79/1/2 81/1/2
f 81/1/2 80/1/2 82/1/2
f 83/3/2 84/3/2 87/3/2
f 84/2/2 85/2/2 88/2/2
f 87/3/2 84/3/2 88/3/2
f 85/1/2 86/1/2 89/1/2
f 88/2/2 85/2/2 89/2/2
f 89/1/2 86/1/2 90/1/2
f 90/3/2 91/3/2 92/3/2
f 92/3/2 91/3/2 93/3/2
f 92/1/2 93/1/2 94/1/2
f 94/1/2 93/1/2 95/1/2
f 96/3/2 97/3/2 98/3/2
f 96/3/2 98/3/2 100/3/2
f 98/1/2 99/1/2 101/1/2
f 100/3/2 98/3/2 101/3/2
f 101/1/2 99/1/2 102/1/2
f 103/1/2 104/1/2 105/1/2
f 105/1/2 104/1/2 106/1/2
f 103/1/2 105/1/2 107/1/2
f 107/1/2 105/1/2 108/1/2
f 109/2/2 110/2/2 111/2/2
f 111/2/2 110/2/2 112/2/2
f 112/3/2 113/3/2 114/3/2
f 114/3/2 113/3/2 115/3/2
f 116/3/2 117/3/2 118/3/2
f 118/3/2 117/3/2 119/3/2
f 118/1/2 119/1/2 120/1/2
f 118/1/2 120/1/2 122/1/2
f 120/1/2 121/1/2 122/1/2
f 122/1/2 121/1/2 123/1/2
f 124/4/2 125/4/2 130/4/2
f 125/7/2 126/7/2 131/7/2
f 130/4/2 125/4/2 131/4/2
f 126/5/2 127/5/2 132/5/2
f 131/7/2 126/7/2 132/7/2
f 127/7/2 128/7/2 133/7/2
f 132/5/2 127/5/2 133/5/2
f 128/5/2 129/5/2 134/5/2
f 133/7/2 128/7/2 134/7/2
f 134/5/2 129/5/2 135/5/2
f 131/2/2 132/2/2 136/2/2
f 132/1/2 133/1/2 137/1/2
f 136/2/2 132/2/2 137/2/2
f 133/1/2 134/1/2 137/1/2
f 137/1/2 134/1/2 138/1/2
f 138/1/2 134/1/2 139/1/2
f 137/1/2 138/1/2 140/1/2
f 140/1/2 138/1/2 141/1/2
f 141/1/2 138/1/2 142/1/2
f 142/1/2 138/1/2 143/1/2
f 143/1/2 138/1/2 144/1/2
f 144/1/2 138/1/2 145/1/2
f 148/7/3 147/7/3 146/7/3
f 149/7/3 147/7/3 148/7/3
f 151/6/3 149/6/3 148/6/3
f 152/3/3 150/3/3 149/3/3
f 152/6/3 149/6/3 151/6/3
f 153/3/3 150/3/3 152/3/3
f 156/4/3 152/4/3 151/4/3
f 157/3/3 153/3/3 152/3/3
f 157/4/3 152/4/3 156/4/3
f 158/2/3 154/2/3 153/2/3
f 158/3/3 153/3/3 157/3/3
f 159/1/3 155/1/3 154/1/3
f 161/7/3 157/7/3 156/7/3
f 162/2/3 158/2/3 157/2/3
f 162/7/3 157/7/3 161/7/3
f 163/2/3 154/2/3 158/2/3
f 163/2/3 158/2/3 162/2/3
f 163/1/3 160/1/3 159/1/3
f 163/1/3 159/1/3 154/1/3
f 164/1/3 160/1/3 163/1/3
f 165/1/3 160/1/3 164/1/3
f 166/5/3 162/5/3 161/5/3
f 167/1/3 163/1/3 162/1/3
f 167/5/3 162/5/3 166/5/3
f 168/3/3 164/3/3 163/3/3
f 168/1/3 163/1/3 167/1/3
f 169/3/3 164/3/3 168/3/3
f 170/3/3 164/3/3 169/3/3
f 171/7/3 167/7/3 166/7/3
f 172/3/3 168/3/3 167/3/3
f 172/7/3 167/7/3 171/7/3
f 172/3/3 169/3/3 168/3/3
f 173/3/3 169/3/3 172/3/3
f 174/3/3 169/3/3 173/3/3
f 175/6/3 172/6/3 171/6/3
f 176/2/3 173/2/3 172/2/3
f 176/6/3 172/6/3 175/6/3
f 177/2/3 173/2/3 176/2/3
f 178/4/3 176/4/3 175/4/3
f 179/4/3 176/4/3 178/4/3
f 182/1/3 181/1/3 180/1/3
f 183/1/3 181/1/3 182/1/3
f 187/3/3 185/3/3 184/3/3
f 188/3/3 185/3/3 187/3/3
f 189/2/3 187/2/3 186/2/3
f 190/2/3 187/2/3 189/2/3
f 194/1/3 192/1/3 191/1/3
f 195/1/3 194/1/3 193/1/3
f 196/1/3 192/1/3 194/1/3
f 196/1/3 194/1/3 195/1/3
f 199/3/3 198/3/3 197/3/3
f 200/3/3 198/3/3 199/3/3
f 205/3/3 202/3/3 201/3/3
f 206/1/3 203/1/3 202/1/3
f 206/3/3 202/3/3 205/3/3
f 207/1/3 203/1/3 206/1/3
f 208/2/3 205/2/3 204/2/3
f 209/2/3 205/2/3 208/2/3
f 212/3/3 210/3/3 209/3/3
f 212/3/3 209/3/3 208/3/3
f 213/3/3 210/3/3 212/3/3
f 214/1/3 211/1/3 210/1/3
f 214/3/3 210/3/3 213/3/3
f 215/1/3 211/1/3 214/1/3
f 216/1/3 213/1/3 212/1/3
f 217/1/3 213/1/3 216/1/3
f 220/3/3 219/3/3 218/3/3
f 221/3/3 219/3/3 220/3/3
f 227/1/3 222/1/3 221/1/3
f 228/3/3 223/3/3 222/3/3
f 228/1/3 222/1/3 227/1/3
f 229/1/3 224/1/3 223/1/3
f 229/3/3 223/3/3 228/3/3
f 230/1/3 228/1/3 227/1/3
f 230/1/3 226/1/3 225/1/3
f 230/1/3 229/1/3 228/1/3
f 230/1/3 227/1/3 226/1/3
f 231/1/3 229/1/3 230/1/3
f 232/1/3 229/1/3 231/1/3
f 233/1/3 224/1/3 229/1/3
f 233/1/3 229/1/3 232/1/3
f 237/1/3 235/1/3 234/1/3
f 237/1/3 236/1/3 235/1/3
f 238/1/3 236/1/3 237/1/3
f 239/3/4 240/3/4 241/3/4
f 241/3/4 240/3/4 242/3/4
f 243/3/4 244/3/4 245/3/4
f 245/3/4 244/3/4 246/3/4
f 247/1/4 248/1/4 249/1/4
f 249/1/4 248/1/4 250/1/4
f 251/1/4 252/1/4 254/1/4
f 252/2/4 253/2/4 254/2/4
f 254/2/4 253/2/4 255/2/4
f 254/1/4 255/1/4 257/1/4
f 255/1/4 256/1/4 257/1/4
f 257/1/4 258/1/4 259/1/4
f 259/1/4 258/1/4 260/1/4
f 254/1/4 257/1/4 261/1/4
f 257/1/4 259/1/4 261/1/4
f 261/1/4 259/1/4 262/1/4
f 251/1/4 254/1/4 263/1/4
f 254/1/4 261/1/4 263/1/4
f 263/1/4 261/1/4 264/1/4
f 265/1/4 266/1/4 267/1/4
f 267/1/4 266/1/4 268/1/4
f 268/1/4 266/1/4 269/1/4
f 269/1/4 266/1/4 270/1/4
f 270/1/4 266/1/4 271/1/4
f 272/7/4 273/7/4 274/7/4
f 274/7/4 273/7/4 275/7/4
f 274/6/4 275/6/4 276/6/4
f 276/6/4 275/6/4 277/6/4
f 276/4/4 277/4/4 278/4/4
f 278/4/4 277/4/4 279/4/4
f 278/7/4 279/7/4 280/7/4
f 280/7/4 279/7/4 281/7/4
f 280/5/4 281/5/4 282/5/4
f 282/5/4 281/5/4 283/5/4
f 293/7/5 285/7/5 284/7/5
f 293/6/5 286/6/5 285/6/5
f 294/4/5 287/4/5 286/4/5
f 294/6/5 286/6/5 293/6/5
f 295/7/5 288/7/5 287/7/5
f 295/4/5 287/4/5 294/4/5
f 296/5/5 289/5/5 288/5/5
f 296/7/5 288/7/5 295/7/5
f 297/7/5 290/7/5 289/7/5
f 297/5/5 289/5/5 296/5/5
f 298/6/5 291/6/5 290/6/5
f 298/7/5 290/7/5 297/7/5
f 299/4/5 292/4/5 291/4/5
f 299/6/5 291/6/5 298/6/5
f 300/4/5 292/4/5 299/4/5
f 301/7/5 297/7/5 296/7/5
f 301/7/5 293/7/5 284/7/5
f 301/7/5 294/7/5 293/7/5
f 301/7/5 295/7/5 294/7/5
f 301/7/5 296/7/5 295/7/5
f 302/7/5 297/7/5 301/7/5
f 303/7/5 297/7/5 302/7/5
f 304/7/5 297/7/5 303/7/5
f 305/6/5 298/6/5 297/6/5
f 305/7/5 297/7/5 304/7/5
f 306/4/5 299/4/5 298/4/5
f 306/6/5 298/6/5 305/6/5
f 307/7/5 300/7/5 299/7/5
f 307/4/5 299/4/5 306/4/5
f 308/7/5 300/7/5 307/7/5
f 309/2/5 302/2/5 301/2/5
f 310/5/5 303/5/5 302/5/5
f 310/2/5 302/2/5 309/2/5
f 311/4/5 304/4/5 303/4/5
f 311/5/5 303/5/5 310/5/5
f 312/7/5 305/7/5 304/7/5
f 312/4/5 304/4/5 311/4/5
f 313/7/5 305/7/5 312/7/5
f 314/5/5 306/5/5 305/5/5
f 314/7/5 305/7/5 313/7/5
f 315/7/5 307/7/5 306/7/5
f 315/5/5 306/5/5 314/5/5
f 316/5/5 308/5/5 307/5/5
f 316/7/5 307/7/5 315/7/5
f 317/5/5 308/5/5 316/5/5
f 318/7/5 310/7/5 309/7/5
f 318/4/5 311/4/5 310/4/5
f 318/4/5 312/4/5 311/4/5
f 319/5/5 313/5/5 312/5/5
f 319/4/5 312/4/5 318/4/5
f 320/7/5 314/7/5 313/7/5
f 320/5/5 313/5/5 319/5/5
f 320/7/5 315/7/5 314/7/5
f 321/7/5 315/7/5 320/7/5
f 322/5/5 316/5/5 315/5/5
f 322/7/5 315/7/5 321/7/5
f 323/7/5 317/7/5 316/7/5
f 323/5/5 316/5/5 322/5/5
f 324/7/5 318/7/5 309/7/5
f 324/7/5 319/7/5 318/7/5
f 324/7/5 320/7/5 319/7/5
f 325/7/5 320/7/5 324/7/5
f 326/7/5 320/7/5 325/7/5
f 327/6/5 321/6/5 320/6/5
f 327/7/5 320/7/5 326/7/5
f 328/4/5 322/4/5 321/4/5
f 328/6/5 321/6/5 327/6/5
f 329/7/5 323/7/5 322/7/5
f 329/4/5 322/4/5 328/4/5
f 330/7/5 317/7/5 323/7/5
f 330/7/5 323/7/5 329/7/5
f 331/7/5 324/7/5 309/7/5
f 331/6/5 325/6/5 324/6/5
f 332/7/5 326/7/5 325/7/5
f 332/6/5 325/6/5 331/6/5
f 333/6/5 327/6/5 326/6/5
f 333/7/5 326/7/5 332/7/5
f 334/7/5 329/7/5 328/7/5
f 334/6/5 327/6/5 333/6/5
f 334/7/5 328/7/5 327/7/5
f 335/7/5 329/7/5 334/7/5
f 336/6/5 330/6/5 329/6/5
f 336/7/5 329/7/5 335/7/5
f 337/7/5 317/7/5 330/7/5
f 337/6/5 330/6/5 336/6/5
f 338/5/5 333/5/5 332/5/5
f 338/5/5 332/5/5 331/5/5
f 338/7/5 331/7/5 309/7/5
f 339/5/5 333/5/5 338/5/5
f 340/7/5 335/7/5 334/7/5
f 340/5/5 333/5/5 339/5/5
f 340/7/5 334/7/5 333/7/5
f 341/6/5 336/6/5 335/6/5
f 341/7/5 335/7/5 340/7/5
f 342/7/5 337/7/5 336/7/5
f 342/6/5 336/6/5 341/6/5
f 343/7/5 317/7/5 337/7/5
f 343/7/5 337/7/5 342/7/5
f 344/7/5 317/7/5 343/7/5
f 345/7/5 338/7/5 309/7/5
f 346/6/5 339/6/5 338/6/5
f 346/7/5 338/7/5 345/7/5
f 347/4/5 340/4/5 339/4/5
f 347/6/5 339/6/5 346/6/5
f 348/7/5 342/7/5 341/7/5
f 348/4/5 340/4/5 347/4/5
f 348/7/5 341/7/5 340/7/5
f 348/7/5 343/7/5 342/7/5
f 349/5/5 344/5/5 343/5/5
f 349/7/5 343/7/5 348/7/5
f 350/5/5 344/5/5 349/5/5
f 351/7/6 352/7/6 355/7/6
f 353/4/6 354/4/6 356/4/6
f 356/4/6 354/4/6 357/4/6
f 351/7/6 355/7/6 358/7/6
f 358/7/6 355/7/6 359/7/6
f 358/2/6 359/2/6 360/2/6
f 360/2/6 359/2/6 361/2/6
f 360/7/6 361/7/6 362/7/6
f 360/7/6 362/7/6 363/7/6
f 360/7/6 363/7/6 368/7/6
f 363/6/6 364/6/6 369/6/6
f 368/7/6 363/7/6 369/7/6
f 364/4/6 365/4/6 370/4/6
f 369/6/6 364/6/6 370/6/6
f 365/7/6 366/7/6 371/7/6
f 370/4/6 365/4/6 371/4/6
f 366/5/6 367/5/6 372/5/6
f 371/7/6 366/7/6 372/7/6
f 372/5/6 367/5/6 373/5/6
f 374/3/6 375/3/6 378/3/6
f 378/3/6 375/3/6 379/3/6
f 376/2/6 377/2/6 380/2/6
f 380/2/6 377/2/6 381/2/6
f 381/2/6 382/2/6 383/2/6
f 383/2/6 382/2/6 384/2/6
f 378/1/6 379/1/6 385/1/6
f 385/1/6 379/1/6 386/1/6
f 387/3/6 388/3/6 389/3/6
f 389/3/6 388/3/6 390/3/6
f 389/1/6 390/1/6 392/1/6
f 390/1/6 391/1/6 392/1/6
f 392/1/6 391/1/6 393/1/6
f 394/3/6 395/3/6 396/3/6
f 396/3/6 395/3/6 397/3/6
f 398/3/6 399/3/6 400/3/6
f 400/3/6 399/3/6 401/3/6
f 402/3/6 403/3/6 404/3/6
f 404/3/6 403/3/6 405/3/6
f 404/1/6 405/1/6 406/1/6
f 406/1/6 405/1/6 407/1/6
f 406/1/6 407/1/6 409/1/6
f 407/1/6 408/1/6 409/1/6
f 409/1/6 408/1/6 410/1/6
f 410/1/6 408/1/6 411/1/6
f 411/1/6 408/1/6 412/1/6
f 413/1/6 414/1/6 417/1/6
f 417/1/6 414/1/6 418/1/6
f 415/3/6 416/3/6 419/3/6
f 419/3/6 416/3/6 420/3/6
f 419/2/6 420/2/6 421/2/6
f 421/2/6 420/2/6 422/2/6
f 421/1/6 422/1/6 425/1/6
f 425/1/6 422/1/6 426/1/6
f 426/2/6 427/2/6 430/2/6
f 430/2/6 427/2/6 431/2/6
f 428/1/6 429/1/6 432/1/6
f 432/1/6 429/1/6 433/1/6
f 423/1/6 424/1/6 434/1/6
f 434/1/6 424/1/6 435/1/6
f 434/2/6 435/2/6 436/2/6
f 436/2/6 435/2/6 437/2/6
f 438/1/6 439/1/6 441/1/6
f 440/1/6 441/1/6 442/1/6
f 441/1/6 439/1/6 443/1/6
f 442/1/6 441/1/6 443/1/6
f 442/3/6 443/3/6 444/3/6
f 443/1/6 439/1/6 445/1/6
f 444/3/6 443/3/6 445/3/6
f 445/1/6 439/1/6 446/1/6
f 445/1/6 446/1/6 447/1/6
f 447/1/6 446/1/6 448/1/6
f 449/1/6 450/1/6 452/1/6
f 452/1/6 450/1/6 453/1/6
f 451/3/6 452/3/6 456/3/6
f 456/3/6 452/3/6 457/3/6
f 456/1/6 457/1/6 458/1/6
f 458/1/6 457/1/6 459/1/6
f 454/1/6 455/1/6 460/1/6
f 460/1/6 455/1/6 461/1/6
f 462/1/6 463/1/6 464/1/6
f 464/1/6 463/1/6 465/1/6
f 465/1/6 463/1/6 466/1/6
f 467/1/6 468/1/6 469/1/6
f 469/1/6 468/1/6 470/1/6
f 471/1/6 472/1/6 473/1/6
f 473/1/6 472/1/6 474/1/6
