# MagicaVoxel @ Ephtracy

# group
o 

# material
mtllib ruins_1.mtl
usemtl palette

# normals
vn -1 0 0
vn 1 0 0
vn 0 0 1
vn 0 0 -1
vn 0 -1 0
vn 0 1 0

# texcoords
vt 0.345703 0.5
vt 0.349609 0.5
vt 0.353516 0.5
vt 0.662109 0.5
vt 0.666016 0.5
vt 0.673828 0.5
vt 0.900391 0.5

# verts
v 0 2 0
v 0 2 -0.6
v 0 2 -0.7
v 0 2 -0.8
v 0 2.1 0
v 0 2.1 -0.5
v 0 2.1 -0.6
v 0 2.1 -0.7
v 0 2.1 -0.8
v 0 2.2 -0.5
v 0 2.2 -0.6
v 0.1 2.1 -0.1
v 0.1 2.1 -0.5
v 0.1 2.1 -0.6
v 0.1 2.1 -0.7
v 0.1 2.2 -0.2
v 0.1 2.2 -0.4
v 0.1 2.2 -0.5
v 0.1 2.2 -0.6
v 0.1 2.3 -0.1
v 0.1 2.3 -0.2
v 0.1 2.5 -0.4
v 0.1 2.5 -0.7
v 0.2 2.3 -0.1
v 0.2 2.3 -0.2
v 0.2 2.6 -0.1
v 0.2 2.6 -0.2
v 0.3 2.2 -0.6
v 0.3 2.2 -0.7
v 0.3 2.3 -0.6
v 0.3 2.3 -0.7
v 0.3 2.5 -0.4
v 0.3 2.5 -0.5
v 0.3 2.6 -0.4
v 0.3 2.6 -0.5
v 0.4 2.1 -0.4
v 0.4 2.1 -0.5
v 0.4 2.3 -0.4
v 0.4 2.3 -0.5
v 0.4 2.3 -0.6
v 0.4 2.3 -0.7
v 0.4 2.4 -0.4
v 0.4 2.4 -0.5
v 0.4 2.4 -0.6
v 0.4 2.4 -0.7
v 0.5 2.1 -0.5
v 0.5 2.1 -0.6
v 0.5 2.3 -0.5
v 0.5 2.3 -0.6
v 0.5 2.4 -0.6
v 0.5 2.4 -0.7
v 0.5 2.5 -0.6
v 0.5 2.5 -0.7
v 0.6 2.1 -0.1
v 0.6 2.1 -0.3
v 0.6 2.1 -0.4
v 0.6 2.2 -0.2
v 0.6 2.2 -0.3
v 0.6 2.2 -0.4
v 0.6 2.2 -0.5
v 0.6 2.3 -0.1
v 0.6 2.3 -0.2
v 0.6 2.3 -0.3
v 0.6 2.3 -0.4
v 0.6 2.3 -0.5
v 0.6 2.3 -0.6
v 0.6 2.4 -0.2
v 0.6 2.4 -0.3
v 0.6 2.4 -0.4
v 0.6 2.4 -0.5
v 0.6 2.5 -0.3
v 0.6 2.5 -0.4
v 0.6 2.5 -0.5
v 0.6 2.5 -0.6
v 0.6 2.6 -0.5
v 0.6 2.6 -0.6
v 0.2 2.1 -0.3
v 0.2 2.1 -0.4
v 0.2 2.1 -0.6
v 0.2 2.2 -0.3
v 0.2 2.2 -0.4
v 0.2 2.2 -0.6
v 0.2 2.2 -0.7
v 0.2 2.4 -0.4
v 0.2 2.4 -0.5
v 0.2 2.5 -0.5
v 0.2 2.5 -0.7
v 0.3 2.1 -0.2
v 0.3 2.1 -0.3
v 0.3 2.2 -0.2
v 0.3 2.2 -0.3
v 0.3 2.4 -0.1
v 0.3 2.4 -0.2
v 0.3 2.6 -0.1
v 0.3 2.6 -0.2
v 0.4 2.1 -0.1
v 0.4 2.1 -0.2
v 0.4 2.2 -0.1
v 0.4 2.2 -0.2
v 0.4 2.3 -0.1
v 0.4 2.3 -0.2
v 0.4 2.5 -0.4
v 0.4 2.5 -0.5
v 0.4 2.6 -0.4
v 0.4 2.6 -0.5
v 0.5 2.2 -0.4
v 0.5 2.2 -0.5
v 0.5 2.3 -0.4
v 0.5 2.3 -0.5
v 0.5 2.4 -0.4
v 0.5 2.4 -0.5
v 0.7 2.1 -0.1
v 0.7 2.1 -0.3
v 0.7 2.1 -0.4
v 0.7 2.1 -0.6
v 0.7 2.1 -0.7
v 0.7 2.2 -0.2
v 0.7 2.2 -0.3
v 0.7 2.2 -0.4
v 0.7 2.2 -0.5
v 0.7 2.2 -0.6
v 0.7 2.2 -0.7
v 0.7 2.3 -0.2
v 0.7 2.3 -0.3
v 0.7 2.3 -0.4
v 0.7 2.3 -0.5
v 0.7 2.4 -0.1
v 0.7 2.4 -0.3
v 0.7 2.5 -0.3
v 0.7 2.5 -0.5
v 0.7 2.5 -0.6
v 0.7 2.5 -0.7
v 0.7 2.6 -0.5
v 0.7 2.6 -0.6
v 0.8 2 0
v 0.8 2 -0.8
v 0.8 2.1 0
v 0.8 2.1 -0.3
v 0.8 2.1 -0.4
v 0.8 2.1 -0.8
v 0.8 2.2 -0.3
v 0.8 2.2 -0.4
v 0 2 0
v 0 2.1 0
v 0.1 2 0
v 0.1 2.1 0
v 0.2 2 0
v 0.2 2.1 0
v 0.8 2 0
v 0.8 2.1 0
v 0.1 2.1 -0.1
v 0.1 2.3 -0.1
v 0.2 2.1 -0.1
v 0.2 2.2 -0.1
v 0.2 2.3 -0.1
v 0.2 2.6 -0.1
v 0.3 2.1 -0.1
v 0.3 2.2 -0.1
v 0.3 2.3 -0.1
v 0.3 2.4 -0.1
v 0.3 2.6 -0.1
v 0.4 2.1 -0.1
v 0.4 2.2 -0.1
v 0.4 2.3 -0.1
v 0.6 2.1 -0.1
v 0.6 2.3 -0.1
v 0.7 2.1 -0.1
v 0.7 2.4 -0.1
v 0.6 2.4 -0.3
v 0.6 2.5 -0.3
v 0.7 2.1 -0.3
v 0.7 2.2 -0.3
v 0.7 2.4 -0.3
v 0.7 2.5 -0.3
v 0.8 2.1 -0.3
v 0.8 2.2 -0.3
v 0.1 2.2 -0.4
v 0.1 2.5 -0.4
v 0.2 2.2 -0.4
v 0.2 2.4 -0.4
v 0.3 2.5 -0.4
v 0.3 2.6 -0.4
v 0.4 2.1 -0.4
v 0.4 2.3 -0.4
v 0.4 2.4 -0.4
v 0.4 2.5 -0.4
v 0.4 2.6 -0.4
v 0.5 2.1 -0.4
v 0.5 2.2 -0.4
v 0.5 2.3 -0.4
v 0.5 2.4 -0.4
v 0.6 2.1 -0.4
v 0.6 2.2 -0.4
v 0.6 2.4 -0.4
v 0.6 2.5 -0.4
v 0 2.1 -0.5
v 0 2.2 -0.5
v 0.1 2.1 -0.5
v 0.1 2.2 -0.5
v 0.5 2.2 -0.5
v 0.5 2.3 -0.5
v 0.6 2.2 -0.5
v 0.6 2.3 -0.5
v 0.6 2.5 -0.5
v 0.6 2.6 -0.5
v 0.7 2.5 -0.5
v 0.7 2.6 -0.5
v 0.2 2.1 -0.6
v 0.2 2.2 -0.6
v 0.3 2.2 -0.6
v 0.3 2.3 -0.6
v 0.4 2.3 -0.6
v 0.4 2.4 -0.6
v 0.5 2.1 -0.6
v 0.5 2.3 -0.6
v 0.5 2.4 -0.6
v 0.5 2.5 -0.6
v 0.6 2.3 -0.6
v 0.6 2.5 -0.6
v 0.1 2.2 -0.2
v 0.1 2.3 -0.2
v 0.2 2.2 -0.2
v 0.2 2.3 -0.2
v 0.2 2.6 -0.2
v 0.3 2.1 -0.2
v 0.3 2.2 -0.2
v 0.3 2.3 -0.2
v 0.3 2.4 -0.2
v 0.3 2.6 -0.2
v 0.4 2.1 -0.2
v 0.4 2.2 -0.2
v 0.4 2.3 -0.2
v 0.6 2.3 -0.2
v 0.6 2.4 -0.2
v 0.2 2.1 -0.3
v 0.2 2.2 -0.3
v 0.3 2.1 -0.3
v 0.3 2.2 -0.3
v 0.7 2.1 -0.4
v 0.7 2.2 -0.4
v 0.8 2.1 -0.4
v 0.8 2.2 -0.4
v 0.2 2.4 -0.5
v 0.2 2.5 -0.5
v 0.3 2.5 -0.5
v 0.3 2.6 -0.5
v 0.4 2.1 -0.5
v 0.4 2.3 -0.5
v 0.4 2.4 -0.5
v 0.4 2.5 -0.5
v 0.4 2.6 -0.5
v 0.5 2.1 -0.5
v 0.5 2.3 -0.5
v 0.5 2.4 -0.5
v 0.6 2.4 -0.5
v 0.6 2.5 -0.5
v 0 2.1 -0.6
v 0 2.2 -0.6
v 0.1 2.1 -0.6
v 0.1 2.2 -0.6
v 0.6 2.5 -0.6
v 0.6 2.6 -0.6
v 0.7 2.5 -0.6
v 0.7 2.6 -0.6
v 0.1 2.1 -0.7
v 0.1 2.5 -0.7
v 0.2 2.2 -0.7
v 0.2 2.5 -0.7
v 0.3 2.2 -0.7
v 0.3 2.3 -0.7
v 0.4 2.3 -0.7
v 0.4 2.4 -0.7
v 0.5 2.4 -0.7
v 0.5 2.5 -0.7
v 0.6 2.1 -0.7
v 0.6 2.2 -0.7
v 0.7 2.1 -0.7
v 0.7 2.2 -0.7
v 0.7 2.5 -0.7
v 0 2 -0.8
v 0 2.1 -0.8
v 0.8 2 -0.8
v 0.8 2.1 -0.8
v 0 2 0
v 0.1 2 0
v 0.2 2 0
v 0.8 2 0
v 0.1 2 -0.1
v 0.2 2 -0.1
v 0.3 2 -0.1
v 0.4 2 -0.1
v 0.6 2 -0.1
v 0.7 2 -0.1
v 0.1 2 -0.2
v 0.2 2 -0.2
v 0.3 2 -0.2
v 0.4 2 -0.2
v 0.5 2 -0.2
v 0.6 2 -0.2
v 0.7 2 -0.2
v 0.2 2 -0.3
v 0.3 2 -0.3
v 0.4 2 -0.3
v 0.5 2 -0.3
v 0.6 2 -0.3
v 0.7 2 -0.3
v 0.1 2 -0.4
v 0.2 2 -0.4
v 0.3 2 -0.4
v 0.4 2 -0.4
v 0.5 2 -0.4
v 0.4 2 -0.5
v 0.5 2 -0.5
v 0.6 2 -0.5
v 0.7 2 -0.5
v 0 2 -0.6
v 0.2 2 -0.6
v 0.3 2 -0.6
v 0.4 2 -0.6
v 0.5 2 -0.6
v 0.6 2 -0.6
v 0.7 2 -0.6
v 0 2 -0.7
v 0.2 2 -0.7
v 0.3 2 -0.7
v 0.4 2 -0.7
v 0.5 2 -0.7
v 0.6 2 -0.7
v 0.7 2 -0.7
v 0 2 -0.8
v 0.8 2 -0.8
v 0.4 2.3 -0.1
v 0.6 2.3 -0.1
v 0.4 2.3 -0.2
v 0.6 2.3 -0.2
v 0.2 2.4 -0.4
v 0.4 2.4 -0.4
v 0.5 2.4 -0.4
v 0.6 2.4 -0.4
v 0.2 2.4 -0.5
v 0.4 2.4 -0.5
v 0.5 2.4 -0.5
v 0.6 2.4 -0.5
v 0 2.1 0
v 0.1 2.1 0
v 0.2 2.1 0
v 0.8 2.1 0
v 0.1 2.1 -0.1
v 0.2 2.1 -0.1
v 0.3 2.1 -0.1
v 0.4 2.1 -0.1
v 0.6 2.1 -0.1
v 0.7 2.1 -0.1
v 0.3 2.1 -0.2
v 0.4 2.1 -0.2
v 0.5 2.1 -0.2
v 0.2 2.1 -0.3
v 0.3 2.1 -0.3
v 0.4 2.1 -0.3
v 0.5 2.1 -0.3
v 0.6 2.1 -0.3
v 0.7 2.1 -0.3
v 0.8 2.1 -0.3
v 0.2 2.1 -0.4
v 0.3 2.1 -0.4
v 0.4 2.1 -0.4
v 0.5 2.1 -0.4
v 0.6 2.1 -0.4
v 0.7 2.1 -0.4
v 0.8 2.1 -0.4
v 0 2.1 -0.5
v 0.1 2.1 -0.5
v 0.4 2.1 -0.5
v 0.5 2.1 -0.5
v 0 2.1 -0.6
v 0.1 2.1 -0.6
v 0.2 2.1 -0.6
v 0.5 2.1 -0.6
v 0.7 2.1 -0.6
v 0 2.1 -0.7
v 0.1 2.1 -0.7
v 0.6 2.1 -0.7
v 0.7 2.1 -0.7
v 0 2.1 -0.8
v 0.8 2.1 -0.8
v 0.1 2.2 -0.2
v 0.2 2.2 -0.2
v 0.3 2.2 -0.2
v 0.2 2.2 -0.3
v 0.3 2.2 -0.3
v 0.7 2.2 -0.3
v 0.8 2.2 -0.3
v 0.1 2.2 -0.4
v 0.2 2.2 -0.4
v 0.5 2.2 -0.4
v 0.6 2.2 -0.4
v 0.7 2.2 -0.4
v 0.8 2.2 -0.4
v 0 2.2 -0.5
v 0.1 2.2 -0.5
v 0.5 2.2 -0.5
v 0.6 2.2 -0.5
v 0 2.2 -0.6
v 0.1 2.2 -0.6
v 0.2 2.2 -0.6
v 0.3 2.2 -0.6
v 0.2 2.2 -0.7
v 0.3 2.2 -0.7
v 0.1 2.3 -0.1
v 0.2 2.3 -0.1
v 0.1 2.3 -0.2
v 0.2 2.3 -0.2
v 0.5 2.3 -0.5
v 0.6 2.3 -0.5
v 0.3 2.3 -0.6
v 0.4 2.3 -0.6
v 0.5 2.3 -0.6
v 0.6 2.3 -0.6
v 0.3 2.3 -0.7
v 0.4 2.3 -0.7
v 0.3 2.4 -0.1
v 0.7 2.4 -0.1
v 0.3 2.4 -0.2
v 0.6 2.4 -0.2
v 0.6 2.4 -0.3
v 0.7 2.4 -0.3
v 0.4 2.4 -0.6
v 0.5 2.4 -0.6
v 0.4 2.4 -0.7
v 0.5 2.4 -0.7
v 0.6 2.5 -0.3
v 0.7 2.5 -0.3
v 0.1 2.5 -0.4
v 0.3 2.5 -0.4
v 0.4 2.5 -0.4
v 0.6 2.5 -0.4
v 0.2 2.5 -0.5
v 0.3 2.5 -0.5
v 0.4 2.5 -0.5
v 0.6 2.5 -0.5
v 0.7 2.5 -0.5
v 0.5 2.5 -0.6
v 0.6 2.5 -0.6
v 0.7 2.5 -0.6
v 0.1 2.5 -0.7
v 0.2 2.5 -0.7
v 0.5 2.5 -0.7
v 0.7 2.5 -0.7
v 0.2 2.6 -0.1
v 0.3 2.6 -0.1
v 0.2 2.6 -0.2
v 0.3 2.6 -0.2
v 0.3 2.6 -0.4
v 0.4 2.6 -0.4
v 0.3 2.6 -0.5
v 0.4 2.6 -0.5
v 0.6 2.6 -0.5
v 0.7 2.6 -0.5
v 0.6 2.6 -0.6
v 0.7 2.6 -0.6

# faces
f 5/7/1 2/7/1 1/7/1
f 6/7/1 2/7/1 5/7/1
f 7/6/1 3/6/1 2/6/1
f 7/7/1 2/7/1 6/7/1
f 8/7/1 4/7/1 3/7/1
f 8/6/1 3/6/1 7/6/1
f 9/7/1 4/7/1 8/7/1
f 10/1/1 7/1/1 6/1/1
f 11/1/1 7/1/1 10/1/1
f 16/1/1 13/1/1 12/1/1
f 17/1/1 13/1/1 16/1/1
f 18/1/1 13/1/1 17/1/1
f 19/1/1 15/1/1 14/1/1
f 20/1/1 16/1/1 12/1/1
f 21/1/1 16/1/1 20/1/1
f 22/1/1 18/1/1 17/1/1
f 22/1/1 19/1/1 18/1/1
f 23/1/1 15/1/1 19/1/1
f 23/1/1 19/1/1 22/1/1
f 26/1/1 25/1/1 24/1/1
f 27/1/1 25/1/1 26/1/1
f 30/1/1 29/1/1 28/1/1
f 31/1/1 29/1/1 30/1/1
f 34/1/1 33/1/1 32/1/1
f 35/1/1 33/1/1 34/1/1
f 38/1/1 37/1/1 36/1/1
f 39/1/1 37/1/1 38/1/1
f 42/3/1 39/3/1 38/3/1
f 43/3/1 39/3/1 42/3/1
f 44/1/1 41/1/1 40/1/1
f 45/1/1 41/1/1 44/1/1
f 48/2/1 47/2/1 46/2/1
f 49/2/1 47/2/1 48/2/1
f 52/1/1 51/1/1 50/1/1
f 53/1/1 51/1/1 52/1/1
f 57/1/1 55/1/1 54/1/1
f 57/1/1 56/1/1 55/1/1
f 58/1/1 56/1/1 57/1/1
f 59/1/1 56/1/1 58/1/1
f 61/1/1 57/1/1 54/1/1
f 62/3/1 58/3/1 57/3/1
f 62/1/1 57/1/1 61/1/1
f 63/1/1 59/1/1 58/1/1
f 63/3/1 58/3/1 62/3/1
f 64/3/1 60/3/1 59/3/1
f 64/1/1 59/1/1 63/1/1
f 65/3/1 60/3/1 64/3/1
f 67/1/1 63/1/1 62/1/1
f 67/1/1 66/1/1 65/1/1
f 67/1/1 65/1/1 64/1/1
f 67/1/1 64/1/1 63/1/1
f 68/1/1 66/1/1 67/1/1
f 69/1/1 66/1/1 68/1/1
f 70/1/1 66/1/1 69/1/1
f 71/1/1 69/1/1 68/1/1
f 72/1/1 69/1/1 71/1/1
f 73/1/1 66/1/1 70/1/1
f 74/1/1 66/1/1 73/1/1
f 75/1/1 74/1/1 73/1/1
f 76/1/1 74/1/1 75/1/1
f 77/1/2 78/1/2 80/1/2
f 78/1/2 79/1/2 80/1/2
f 80/1/2 79/1/2 81/1/2
f 81/1/2 79/1/2 82/1/2
f 82/1/2 83/1/2 84/1/2
f 81/1/2 82/1/2 84/1/2
f 84/1/2 83/1/2 85/1/2
f 85/1/2 83/1/2 86/1/2
f 86/1/2 83/1/2 87/1/2
f 88/2/2 89/2/2 90/2/2
f 90/2/2 89/2/2 91/2/2
f 92/1/2 93/1/2 94/1/2
f 94/1/2 93/1/2 95/1/2
f 96/3/2 97/3/2 98/3/2
f 98/3/2 97/3/2 99/3/2
f 98/1/2 99/1/2 100/1/2
f 100/1/2 99/1/2 101/1/2
f 102/1/2 103/1/2 104/1/2
f 104/1/2 103/1/2 105/1/2
f 106/1/2 107/1/2 108/1/2
f 108/1/2 107/1/2 109/1/2
f 108/3/2 109/3/2 110/3/2
f 110/3/2 109/3/2 111/3/2
f 112/1/2 113/1/2 117/1/2
f 117/1/2 113/1/2 118/1/2
f 114/1/2 115/1/2 119/1/2
f 119/1/2 115/1/2 120/1/2
f 115/3/2 116/3/2 121/3/2
f 120/1/2 115/1/2 121/1/2
f 121/3/2 116/3/2 122/3/2
f 117/3/2 118/3/2 123/3/2
f 112/1/2 117/1/2 123/1/2
f 118/1/2 119/1/2 124/1/2
f 123/3/2 118/3/2 124/3/2
f 119/3/2 120/3/2 125/3/2
f 124/1/2 119/1/2 125/1/2
f 121/1/2 122/1/2 126/1/2
f 125/3/2 120/3/2 126/3/2
f 120/1/2 121/1/2 126/1/2
f 123/1/2 124/1/2 127/1/2
f 124/1/2 125/1/2 127/1/2
f 125/1/2 126/1/2 127/1/2
f 112/1/2 123/1/2 127/1/2
f 127/1/2 126/1/2 128/1/2
f 128/1/2 126/1/2 129/1/2
f 126/1/2 122/1/2 130/1/2
f 129/1/2 126/1/2 130/1/2
f 130/1/2 122/1/2 131/1/2
f 131/1/2 122/1/2 132/1/2
f 130/1/2 131/1/2 133/1/2
f 133/1/2 131/1/2 134/1/2
f 135/7/2 136/7/2 137/7/2
f 137/7/2 136/7/2 138/7/2
f 138/7/2 136/7/2 139/7/2
f 139/7/2 136/7/2 140/7/2
f 138/3/2 139/3/2 141/3/2
f 141/3/2 139/3/2 142/3/2
f 145/7/3 144/7/3 143/7/3
f 146/7/3 144/7/3 145/7/3
f 147/4/3 146/4/3 145/4/3
f 148/4/3 146/4/3 147/4/3
f 149/7/3 148/7/3 147/7/3
f 150/7/3 148/7/3 149/7/3
f 153/1/3 152/1/3 151/1/3
f 154/1/3 152/1/3 153/1/3
f 155/1/3 152/1/3 154/1/3
f 157/1/3 154/1/3 153/1/3
f 158/3/3 155/3/3 154/3/3
f 158/1/3 154/1/3 157/1/3
f 159/1/3 156/1/3 155/1/3
f 159/3/3 155/3/3 158/3/3
f 160/1/3 156/1/3 159/1/3
f 161/1/3 156/1/3 160/1/3
f 162/3/3 158/3/3 157/3/3
f 163/1/3 159/1/3 158/1/3
f 163/3/3 158/3/3 162/3/3
f 163/1/3 160/1/3 159/1/3
f 164/1/3 160/1/3 163/1/3
f 166/1/3 160/1/3 164/1/3
f 167/1/3 166/1/3 165/1/3
f 168/1/3 160/1/3 166/1/3
f 168/1/3 166/1/3 167/1/3
f 173/1/3 170/1/3 169/1/3
f 174/1/3 170/1/3 173/1/3
f 175/3/3 172/3/3 171/3/3
f 176/3/3 172/3/3 175/3/3
f 179/1/3 178/1/3 177/1/3
f 180/1/3 178/1/3 179/1/3
f 181/1/3 178/1/3 180/1/3
f 185/1/3 181/1/3 180/1/3
f 185/1/3 182/1/3 181/1/3
f 186/1/3 182/1/3 185/1/3
f 187/1/3 182/1/3 186/1/3
f 188/1/3 184/1/3 183/1/3
f 189/1/3 184/1/3 188/1/3
f 190/3/3 185/3/3 184/3/3
f 190/1/3 184/1/3 189/1/3
f 191/1/3 186/1/3 185/1/3
f 191/3/3 185/3/3 190/3/3
f 192/2/3 189/2/3 188/2/3
f 193/2/3 189/2/3 192/2/3
f 194/1/3 186/1/3 191/1/3
f 195/1/3 186/1/3 194/1/3
f 198/1/3 197/1/3 196/1/3
f 199/1/3 197/1/3 198/1/3
f 202/2/3 201/2/3 200/2/3
f 203/2/3 201/2/3 202/2/3
f 206/1/3 205/1/3 204/1/3
f 207/1/3 205/1/3 206/1/3
f 210/1/3 209/1/3 208/1/3
f 212/1/3 211/1/3 210/1/3
f 214/1/3 210/1/3 208/1/3
f 214/1/3 213/1/3 212/1/3
f 214/1/3 212/1/3 210/1/3
f 215/1/3 213/1/3 214/1/3
f 216/1/3 213/1/3 215/1/3
f 218/1/3 217/1/3 216/1/3
f 218/1/3 216/1/3 215/1/3
f 219/1/3 217/1/3 218/1/3
f 220/1/4 221/1/4 222/1/4
f 222/1/4 221/1/4 223/1/4
f 222/3/4 223/3/4 226/3/4
f 223/1/4 224/1/4 227/1/4
f 226/3/4 223/3/4 227/3/4
f 227/1/4 224/1/4 228/1/4
f 228/1/4 224/1/4 229/1/4
f 225/3/4 226/3/4 230/3/4
f 226/1/4 227/1/4 231/1/4
f 230/3/4 226/3/4 231/3/4
f 227/1/4 228/1/4 231/1/4
f 231/1/4 228/1/4 232/1/4
f 232/1/4 228/1/4 233/1/4
f 233/1/4 228/1/4 234/1/4
f 235/2/4 236/2/4 237/2/4
f 237/2/4 236/2/4 238/2/4
f 239/3/4 240/3/4 241/3/4
f 241/3/4 240/3/4 242/3/4
f 243/1/4 244/1/4 245/1/4
f 243/1/4 245/1/4 249/1/4
f 245/1/4 246/1/4 249/1/4
f 249/1/4 246/1/4 250/1/4
f 250/1/4 246/1/4 251/1/4
f 247/1/4 248/1/4 252/1/4
f 248/3/4 249/3/4 253/3/4
f 252/1/4 248/1/4 253/1/4
f 249/1/4 250/1/4 254/1/4
f 253/3/4 249/3/4 254/3/4
f 254/1/4 250/1/4 255/1/4
f 255/1/4 250/1/4 256/1/4
f 257/1/4 258/1/4 259/1/4
f 259/1/4 258/1/4 260/1/4
f 261/1/4 262/1/4 263/1/4
f 263/1/4 262/1/4 264/1/4
f 265/1/4 266/1/4 267/1/4
f 267/1/4 266/1/4 268/1/4
f 265/1/4 267/1/4 269/1/4
f 269/1/4 270/1/4 271/1/4
f 271/1/4 272/1/4 273/1/4
f 265/1/4 269/1/4 275/1/4
f 273/1/4 274/1/4 275/1/4
f 271/1/4 273/1/4 275/1/4
f 269/1/4 271/1/4 275/1/4
f 275/1/4 274/1/4 276/1/4
f 275/3/4 276/3/4 277/3/4
f 276/1/4 274/1/4 278/1/4
f 277/3/4 276/3/4 278/3/4
f 278/1/4 274/1/4 279/1/4
f 280/7/4 281/7/4 282/7/4
f 282/7/4 281/7/4 283/7/4
f 288/7/5 285/7/5 284/7/5
f 288/4/5 286/4/5 285/4/5
f 289/7/5 287/7/5 286/7/5
f 289/4/5 286/4/5 288/4/5
f 290/7/5 287/7/5 289/7/5
f 291/7/5 287/7/5 290/7/5
f 292/7/5 287/7/5 291/7/5
f 293/7/5 287/7/5 292/7/5
f 294/7/5 288/7/5 284/7/5
f 294/7/5 289/7/5 288/7/5
f 294/7/5 290/7/5 289/7/5
f 295/7/5 290/7/5 294/7/5
f 296/5/5 291/5/5 290/5/5
f 296/7/5 290/7/5 295/7/5
f 297/7/5 292/7/5 291/7/5
f 297/5/5 291/5/5 296/5/5
f 298/7/5 292/7/5 297/7/5
f 299/5/5 293/5/5 292/5/5
f 299/7/5 292/7/5 298/7/5
f 300/7/5 287/7/5 293/7/5
f 300/5/5 293/5/5 299/5/5
f 301/7/5 296/7/5 295/7/5
f 301/5/5 295/5/5 294/5/5
f 301/7/5 297/7/5 296/7/5
f 302/7/5 297/7/5 301/7/5
f 303/4/5 298/4/5 297/4/5
f 303/7/5 297/7/5 302/7/5
f 304/7/5 299/7/5 298/7/5
f 304/4/5 298/4/5 303/4/5
f 305/4/5 300/4/5 299/4/5
f 305/7/5 299/7/5 304/7/5
f 306/7/5 287/7/5 300/7/5
f 306/4/5 300/4/5 305/4/5
f 307/7/5 294/7/5 284/7/5
f 307/5/5 301/5/5 294/5/5
f 308/4/5 302/4/5 301/4/5
f 308/5/5 301/5/5 307/5/5
f 309/7/5 303/7/5 302/7/5
f 309/4/5 302/4/5 308/4/5
f 310/5/5 305/5/5 304/5/5
f 310/7/5 303/7/5 309/7/5
f 310/5/5 304/5/5 303/5/5
f 311/5/5 305/5/5 310/5/5
f 312/7/5 308/7/5 307/7/5
f 312/7/5 309/7/5 308/7/5
f 312/4/5 311/4/5 310/4/5
f 312/7/5 310/7/5 309/7/5
f 313/5/5 305/5/5 311/5/5
f 313/4/5 311/4/5 312/4/5
f 314/7/5 306/7/5 305/7/5
f 314/5/5 305/5/5 313/5/5
f 315/7/5 287/7/5 306/7/5
f 315/7/5 306/7/5 314/7/5
f 316/7/5 312/7/5 307/7/5
f 316/7/5 307/7/5 284/7/5
f 316/7/5 313/7/5 312/7/5
f 317/7/5 313/7/5 316/7/5
f 318/7/5 313/7/5 317/7/5
f 319/7/5 313/7/5 318/7/5
f 320/6/5 314/6/5 313/6/5
f 320/7/5 313/7/5 319/7/5
f 321/5/5 315/5/5 314/5/5
f 321/6/5 314/6/5 320/6/5
f 322/7/5 287/7/5 315/7/5
f 322/5/5 315/5/5 321/5/5
f 323/6/5 317/6/5 316/6/5
f 324/4/5 318/4/5 317/4/5
f 324/6/5 317/6/5 323/6/5
f 325/7/5 319/7/5 318/7/5
f 325/4/5 318/4/5 324/4/5
f 326/6/5 320/6/5 319/6/5
f 326/7/5 319/7/5 325/7/5
f 327/7/5 321/7/5 320/7/5
f 327/6/5 320/6/5 326/6/5
f 328/4/5 322/4/5 321/4/5
f 328/7/5 321/7/5 327/7/5
f 329/7/5 287/7/5 322/7/5
f 329/4/5 322/4/5 328/4/5
f 330/7/5 326/7/5 325/7/5
f 330/7/5 325/7/5 324/7/5
f 330/7/5 329/7/5 328/7/5
f 330/7/5 327/7/5 326/7/5
f 330/7/5 324/7/5 323/7/5
f 330/7/5 328/7/5 327/7/5
f 331/7/5 287/7/5 329/7/5
f 331/7/5 329/7/5 330/7/5
f 334/1/5 333/1/5 332/1/5
f 335/1/5 333/1/5 334/1/5
f 340/1/5 337/1/5 336/1/5
f 341/1/5 337/1/5 340/1/5
f 342/1/5 339/1/5 338/1/5
f 343/1/5 339/1/5 342/1/5
f 344/7/6 345/7/6 348/7/6
f 345/4/6 346/4/6 348/4/6
f 346/7/6 347/7/6 349/7/6
f 348/4/6 346/4/6 349/4/6
f 349/7/6 347/7/6 350/7/6
f 350/7/6 347/7/6 351/7/6
f 351/7/6 347/7/6 352/7/6
f 352/7/6 347/7/6 353/7/6
f 351/7/6 352/7/6 355/7/6
f 355/7/6 352/7/6 356/7/6
f 354/7/6 355/7/6 358/7/6
f 355/4/6 356/4/6 359/4/6
f 358/7/6 355/7/6 359/7/6
f 356/7/6 352/7/6 360/7/6
f 359/4/6 356/4/6 360/4/6
f 360/7/6 352/7/6 361/7/6
f 353/7/6 347/7/6 362/7/6
f 362/7/6 347/7/6 363/7/6
f 357/4/6 358/4/6 364/4/6
f 358/7/6 359/7/6 365/7/6
f 364/4/6 358/4/6 365/4/6
f 360/5/6 361/5/6 366/5/6
f 365/7/6 359/7/6 366/7/6
f 359/5/6 360/5/6 366/5/6
f 366/5/6 361/5/6 367/5/6
f 367/5/6 361/5/6 368/5/6
f 344/7/6 348/7/6 371/7/6
f 371/7/6 348/7/6 372/7/6
f 364/7/6 365/7/6 373/7/6
f 365/7/6 366/7/6 373/7/6
f 373/7/6 374/7/6 377/7/6
f 364/7/6 373/7/6 377/7/6
f 377/7/6 374/7/6 378/7/6
f 369/7/6 370/7/6 379/7/6
f 375/6/6 376/6/6 380/6/6
f 380/6/6 376/6/6 381/6/6
f 379/7/6 370/7/6 383/7/6
f 381/7/6 382/7/6 384/7/6
f 382/7/6 383/7/6 384/7/6
f 380/7/6 381/7/6 384/7/6
f 383/7/6 370/7/6 385/7/6
f 384/7/6 383/7/6 385/7/6
f 386/1/6 387/1/6 389/1/6
f 387/2/6 388/2/6 389/2/6
f 389/2/6 388/2/6 390/2/6
f 386/1/6 389/1/6 393/1/6
f 393/1/6 389/1/6 394/1/6
f 391/3/6 392/3/6 397/3/6
f 397/3/6 392/3/6 398/3/6
f 395/2/6 396/2/6 401/2/6
f 401/2/6 396/2/6 402/2/6
f 399/1/6 400/1/6 403/1/6
f 403/1/6 400/1/6 404/1/6
f 405/1/6 406/1/6 407/1/6
f 407/1/6 406/1/6 408/1/6
f 409/1/6 410/1/6 411/1/6
f 411/1/6 410/1/6 412/1/6
f 413/2/6 414/2/6 417/2/6
f 417/2/6 414/2/6 418/2/6
f 415/1/6 416/1/6 419/1/6
f 419/1/6 416/1/6 420/1/6
f 421/1/6 422/1/6 423/1/6
f 423/1/6 422/1/6 424/1/6
f 424/1/6 422/1/6 425/1/6
f 425/1/6 422/1/6 426/1/6
f 427/1/6 428/1/6 429/1/6
f 429/1/6 428/1/6 430/1/6
f 431/1/6 432/1/6 436/1/6
f 433/1/6 434/1/6 437/1/6
f 437/1/6 434/1/6 438/1/6
f 435/1/6 436/1/6 439/1/6
f 436/1/6 432/1/6 440/1/6
f 439/1/6 436/1/6 440/1/6
f 440/1/6 432/1/6 441/1/6
f 433/1/6 437/1/6 445/1/6
f 445/1/6 437/1/6 446/1/6
f 443/1/6 444/1/6 447/1/6
f 442/1/6 443/1/6 447/1/6
f 447/1/6 444/1/6 448/1/6
f 449/1/6 450/1/6 451/1/6
f 451/1/6 450/1/6 452/1/6
f 453/1/6 454/1/6 455/1/6
f 455/1/6 454/1/6 456/1/6
f 457/1/6 458/1/6 459/1/6
f 459/1/6 458/1/6 460/1/6
