# MagicaVoxel @ Ephtracy

# group
o 

# material
mtllib block_4.mtl
usemtl palette

# normals
vn -1 0 0
vn 1 0 0
vn 0 0 1
vn 0 0 -1
vn 0 -1 0
vn 0 1 0

# texcoords
vt 0.662109 0.5
vt 0.666016 0.5
vt 0.673828 0.5
vt 0.900391 0.5

# verts
v 0 2 0
v 0 2 -0.8
v 0 2.1 0
v 0 2.1 -0.8
v 0.8 2 0
v 0.8 2 -0.1
v 0.8 2 -0.2
v 0.8 2 -0.3
v 0.8 2 -0.7
v 0.8 2 -0.8
v 0.8 2.1 0
v 0.8 2.1 -0.1
v 0.8 2.1 -0.2
v 0.8 2.1 -0.3
v 0.8 2.1 -0.7
v 0.8 2.1 -0.8
v 0 2 0
v 0 2.1 0
v 0.1 2 0
v 0.1 2.1 0
v 0.2 2 0
v 0.2 2.1 0
v 0.3 2 0
v 0.3 2.1 0
v 0.4 2 0
v 0.4 2.1 0
v 0.5 2 0
v 0.5 2.1 0
v 0.6 2 0
v 0.6 2.1 0
v 0.7 2 0
v 0.7 2.1 0
v 0.8 2 0
v 0.8 2.1 0
v 0 2 -0.8
v 0 2.1 -0.8
v 0.1 2 -0.8
v 0.1 2.1 -0.8
v 0.2 2 -0.8
v 0.2 2.1 -0.8
v 0.3 2 -0.8
v 0.3 2.1 -0.8
v 0.7 2 -0.8
v 0.7 2.1 -0.8
v 0.8 2 -0.8
v 0.8 2.1 -0.8
v 0 2 0
v 0.1 2 0
v 0.2 2 0
v 0.3 2 0
v 0.4 2 0
v 0.5 2 0
v 0.6 2 0
v 0.7 2 0
v 0.8 2 0
v 0.1 2 -0.1
v 0.2 2 -0.1
v 0.3 2 -0.1
v 0.4 2 -0.1
v 0.5 2 -0.1
v 0.6 2 -0.1
v 0.7 2 -0.1
v 0.8 2 -0.1
v 0.1 2 -0.2
v 0.2 2 -0.2
v 0.3 2 -0.2
v 0.5 2 -0.2
v 0.6 2 -0.2
v 0.7 2 -0.2
v 0.8 2 -0.2
v 0.1 2 -0.3
v 0.2 2 -0.3
v 0.3 2 -0.3
v 0.4 2 -0.3
v 0.5 2 -0.3
v 0.6 2 -0.3
v 0.7 2 -0.3
v 0.8 2 -0.3
v 0.1 2 -0.4
v 0.3 2 -0.4
v 0.4 2 -0.4
v 0.5 2 -0.4
v 0.6 2 -0.4
v 0.7 2 -0.4
v 0.1 2 -0.5
v 0.2 2 -0.5
v 0.3 2 -0.5
v 0.4 2 -0.5
v 0.5 2 -0.5
v 0.6 2 -0.5
v 0.7 2 -0.5
v 0.1 2 -0.6
v 0.2 2 -0.6
v 0.3 2 -0.6
v 0.4 2 -0.6
v 0.5 2 -0.6
v 0.6 2 -0.6
v 0.7 2 -0.6
v 0.1 2 -0.7
v 0.2 2 -0.7
v 0.3 2 -0.7
v 0.5 2 -0.7
v 0.6 2 -0.7
v 0.7 2 -0.7
v 0.8 2 -0.7
v 0 2 -0.8
v 0.1 2 -0.8
v 0.2 2 -0.8
v 0.3 2 -0.8
v 0.7 2 -0.8
v 0.8 2 -0.8
v 0 2.1 0
v 0.1 2.1 0
v 0.2 2.1 0
v 0.3 2.1 0
v 0.4 2.1 0
v 0.5 2.1 0
v 0.6 2.1 0
v 0.7 2.1 0
v 0.8 2.1 0
v 0.1 2.1 -0.1
v 0.2 2.1 -0.1
v 0.3 2.1 -0.1
v 0.4 2.1 -0.1
v 0.5 2.1 -0.1
v 0.6 2.1 -0.1
v 0.7 2.1 -0.1
v 0.8 2.1 -0.1
v 0.1 2.1 -0.2
v 0.2 2.1 -0.2
v 0.3 2.1 -0.2
v 0.5 2.1 -0.2
v 0.6 2.1 -0.2
v 0.7 2.1 -0.2
v 0.8 2.1 -0.2
v 0.1 2.1 -0.3
v 0.2 2.1 -0.3
v 0.3 2.1 -0.3
v 0.4 2.1 -0.3
v 0.5 2.1 -0.3
v 0.6 2.1 -0.3
v 0.7 2.1 -0.3
v 0.8 2.1 -0.3
v 0.1 2.1 -0.4
v 0.3 2.1 -0.4
v 0.4 2.1 -0.4
v 0.5 2.1 -0.4
v 0.6 2.1 -0.4
v 0.7 2.1 -0.4
v 0.1 2.1 -0.5
v 0.2 2.1 -0.5
v 0.3 2.1 -0.5
v 0.4 2.1 -0.5
v 0.5 2.1 -0.5
v 0.6 2.1 -0.5
v 0.7 2.1 -0.5
v 0.1 2.1 -0.6
v 0.2 2.1 -0.6
v 0.3 2.1 -0.6
v 0.4 2.1 -0.6
v 0.5 2.1 -0.6
v 0.6 2.1 -0.6
v 0.7 2.1 -0.6
v 0.1 2.1 -0.7
v 0.2 2.1 -0.7
v 0.3 2.1 -0.7
v 0.5 2.1 -0.7
v 0.6 2.1 -0.7
v 0.7 2.1 -0.7
v 0.8 2.1 -0.7
v 0 2.1 -0.8
v 0.1 2.1 -0.8
v 0.2 2.1 -0.8
v 0.3 2.1 -0.8
v 0.7 2.1 -0.8
v 0.8 2.1 -0.8

# faces
f 3/4/1 2/4/1 1/4/1
f 4/4/1 2/4/1 3/4/1
f 5/1/2 6/1/2 11/1/2
f 6/4/2 7/4/2 12/4/2
f 11/1/2 6/1/2 12/1/2
f 7/2/2 8/2/2 13/2/2
f 12/4/2 7/4/2 13/4/2
f 8/4/2 9/4/2 14/4/2
f 13/2/2 8/2/2 14/2/2
f 9/2/2 10/2/2 15/2/2
f 14/4/2 9/4/2 15/4/2
f 15/2/2 10/2/2 16/2/2
f 19/4/3 18/4/3 17/4/3
f 20/4/3 18/4/3 19/4/3
f 21/3/3 20/3/3 19/3/3
f 22/3/3 20/3/3 21/3/3
f 23/1/3 22/1/3 21/1/3
f 24/1/3 22/1/3 23/1/3
f 25/4/3 24/4/3 23/4/3
f 26/4/3 24/4/3 25/4/3
f 27/2/3 26/2/3 25/2/3
f 28/2/3 26/2/3 27/2/3
f 29/4/3 28/4/3 27/4/3
f 30/4/3 28/4/3 29/4/3
f 31/3/3 30/3/3 29/3/3
f 32/3/3 30/3/3 31/3/3
f 33/1/3 32/1/3 31/1/3
f 34/1/3 32/1/3 33/1/3
f 35/4/4 36/4/4 37/4/4
f 37/4/4 36/4/4 38/4/4
f 37/3/4 38/3/4 39/3/4
f 39/3/4 38/3/4 40/3/4
f 39/1/4 40/1/4 41/1/4
f 41/1/4 40/1/4 42/1/4
f 41/4/4 42/4/4 43/4/4
f 43/4/4 42/4/4 44/4/4
f 43/2/4 44/2/4 45/2/4
f 45/2/4 44/2/4 46/2/4
f 56/4/5 48/4/5 47/4/5
f 56/3/5 49/3/5 48/3/5
f 57/1/5 50/1/5 49/1/5
f 57/3/5 49/3/5 56/3/5
f 58/4/5 51/4/5 50/4/5
f 58/1/5 50/1/5 57/1/5
f 59/2/5 52/2/5 51/2/5
f 59/4/5 51/4/5 58/4/5
f 60/4/5 53/4/5 52/4/5
f 60/2/5 52/2/5 59/2/5
f 61/3/5 54/3/5 53/3/5
f 61/4/5 53/4/5 60/4/5
f 62/1/5 55/1/5 54/1/5
f 62/3/5 54/3/5 61/3/5
f 63/1/5 55/1/5 62/1/5
f 64/4/5 60/4/5 59/4/5
f 64/4/5 56/4/5 47/4/5
f 64/4/5 57/4/5 56/4/5
f 64/4/5 58/4/5 57/4/5
f 64/4/5 59/4/5 58/4/5
f 65/4/5 60/4/5 64/4/5
f 66/4/5 60/4/5 65/4/5
f 67/3/5 61/3/5 60/3/5
f 67/4/5 60/4/5 66/4/5
f 68/1/5 62/1/5 61/1/5
f 68/3/5 61/3/5 67/3/5
f 69/4/5 63/4/5 62/4/5
f 69/1/5 62/1/5 68/1/5
f 70/4/5 63/4/5 69/4/5
f 71/4/5 64/4/5 47/4/5
f 71/2/5 65/2/5 64/2/5
f 72/1/5 66/1/5 65/1/5
f 72/2/5 65/2/5 71/2/5
f 73/4/5 67/4/5 66/4/5
f 73/1/5 66/1/5 72/1/5
f 74/4/5 67/4/5 73/4/5
f 75/2/5 68/2/5 67/2/5
f 75/4/5 67/4/5 74/4/5
f 76/4/5 69/4/5 68/4/5
f 76/2/5 68/2/5 75/2/5
f 77/2/5 70/2/5 69/2/5
f 77/4/5 69/4/5 76/4/5
f 78/2/5 70/2/5 77/2/5
f 79/4/5 71/4/5 47/4/5
f 79/1/5 72/1/5 71/1/5
f 79/1/5 73/1/5 72/1/5
f 80/2/5 74/2/5 73/2/5
f 80/1/5 73/1/5 79/1/5
f 81/4/5 76/4/5 75/4/5
f 81/2/5 74/2/5 80/2/5
f 81/4/5 75/4/5 74/4/5
f 82/4/5 76/4/5 81/4/5
f 83/2/5 77/2/5 76/2/5
f 83/4/5 76/4/5 82/4/5
f 84/4/5 78/4/5 77/4/5
f 84/2/5 77/2/5 83/2/5
f 85/4/5 79/4/5 47/4/5
f 85/4/5 80/4/5 79/4/5
f 85/4/5 81/4/5 80/4/5
f 86/4/5 81/4/5 85/4/5
f 87/4/5 81/4/5 86/4/5
f 88/3/5 82/3/5 81/3/5
f 88/4/5 81/4/5 87/4/5
f 89/1/5 83/1/5 82/1/5
f 89/3/5 82/3/5 88/3/5
f 90/4/5 84/4/5 83/4/5
f 90/1/5 83/1/5 89/1/5
f 91/4/5 78/4/5 84/4/5
f 91/4/5 84/4/5 90/4/5
f 92/4/5 85/4/5 47/4/5
f 92/3/5 86/3/5 85/3/5
f 93/4/5 87/4/5 86/4/5
f 93/3/5 86/3/5 92/3/5
f 94/3/5 88/3/5 87/3/5
f 94/4/5 87/4/5 93/4/5
f 95/4/5 90/4/5 89/4/5
f 95/3/5 88/3/5 94/3/5
f 95/4/5 89/4/5 88/4/5
f 96/4/5 90/4/5 95/4/5
f 97/3/5 91/3/5 90/3/5
f 97/4/5 90/4/5 96/4/5
f 98/4/5 78/4/5 91/4/5
f 98/3/5 91/3/5 97/3/5
f 99/2/5 94/2/5 93/2/5
f 99/2/5 93/2/5 92/2/5
f 99/4/5 92/4/5 47/4/5
f 100/2/5 94/2/5 99/2/5
f 101/4/5 96/4/5 95/4/5
f 101/2/5 94/2/5 100/2/5
f 101/4/5 95/4/5 94/4/5
f 102/3/5 97/3/5 96/3/5
f 102/4/5 96/4/5 101/4/5
f 103/4/5 98/4/5 97/4/5
f 103/3/5 97/3/5 102/3/5
f 104/4/5 78/4/5 98/4/5
f 104/4/5 98/4/5 103/4/5
f 105/4/5 78/4/5 104/4/5
f 106/4/5 99/4/5 47/4/5
f 107/3/5 100/3/5 99/3/5
f 107/4/5 99/4/5 106/4/5
f 108/1/5 101/1/5 100/1/5
f 108/3/5 100/3/5 107/3/5
f 109/4/5 103/4/5 102/4/5
f 109/1/5 101/1/5 108/1/5
f 109/4/5 102/4/5 101/4/5
f 109/4/5 104/4/5 103/4/5
f 110/2/5 105/2/5 104/2/5
f 110/4/5 104/4/5 109/4/5
f 111/2/5 105/2/5 110/2/5
f 112/4/6 113/4/6 121/4/6
f 113/3/6 114/3/6 121/3/6
f 114/1/6 115/1/6 122/1/6
f 121/3/6 114/3/6 122/3/6
f 115/4/6 116/4/6 123/4/6
f 122/1/6 115/1/6 123/1/6
f 116/2/6 117/2/6 124/2/6
f 123/4/6 116/4/6 124/4/6
f 117/4/6 118/4/6 125/4/6
f 124/2/6 117/2/6 125/2/6
f 118/3/6 119/3/6 126/3/6
f 125/4/6 118/4/6 126/4/6
f 119/1/6 120/1/6 127/1/6
f 126/3/6 119/3/6 127/3/6
f 127/1/6 120/1/6 128/1/6
f 124/4/6 125/4/6 129/4/6
f 112/4/6 121/4/6 129/4/6
f 121/4/6 122/4/6 129/4/6
f 122/4/6 123/4/6 129/4/6
f 123/4/6 124/4/6 129/4/6
f 129/4/6 125/4/6 130/4/6
f 130/4/6 125/4/6 131/4/6
f 125/3/6 126/3/6 132/3/6
f 131/4/6 125/4/6 132/4/6
f 126/1/6 127/1/6 133/1/6
f 132/3/6 126/3/6 133/3/6
f 127/4/6 128/4/6 134/4/6
f 133/1/6 127/1/6 134/1/6
f 134/4/6 128/4/6 135/4/6
f 112/4/6 129/4/6 136/4/6
f 129/2/6 130/2/6 136/2/6
f 130/1/6 131/1/6 137/1/6
f 136/2/6 130/2/6 137/2/6
f 131/4/6 132/4/6 138/4/6
f 137/1/6 131/1/6 138/1/6
f 138/4/6 132/4/6 139/4/6
f 132/2/6 133/2/6 140/2/6
f 139/4/6 132/4/6 140/4/6
f 133/4/6 134/4/6 141/4/6
f 140/2/6 133/2/6 141/2/6
f 134/2/6 135/2/6 142/2/6
f 141/4/6 134/4/6 142/4/6
f 142/2/6 135/2/6 143/2/6
f 112/4/6 136/4/6 144/4/6
f 136/1/6 137/1/6 144/1/6
f 137/1/6 138/1/6 144/1/6
f 138/2/6 139/2/6 145/2/6
f 144/1/6 138/1/6 145/1/6
f 140/4/6 141/4/6 146/4/6
f 145/2/6 139/2/6 146/2/6
f 139/4/6 140/4/6 146/4/6
f 146/4/6 141/4/6 147/4/6
f 141/2/6 142/2/6 148/2/6
f 147/4/6 141/4/6 148/4/6
f 142/4/6 143/4/6 149/4/6
f 148/2/6 142/2/6 149/2/6
f 112/4/6 144/4/6 150/4/6
f 144/4/6 145/4/6 150/4/6
f 145/4/6 146/4/6 150/4/6
f 150/4/6 146/4/6 151/4/6
f 151/4/6 146/4/6 152/4/6
f 146/3/6 147/3/6 153/3/6
f 152/4/6 146/4/6 153/4/6
f 147/1/6 148/1/6 154/1/6
f 153/3/6 147/3/6 154/3/6
f 148/4/6 149/4/6 155/4/6
f 154/1/6 148/1/6 155/1/6
f 149/4/6 143/4/6 156/4/6
f 155/4/6 149/4/6 156/4/6
f 112/4/6 150/4/6 157/4/6
f 150/3/6 151/3/6 157/3/6
f 151/4/6 152/4/6 158/4/6
f 157/3/6 151/3/6 158/3/6
f 152/3/6 153/3/6 159/3/6
f 158/4/6 152/4/6 159/4/6
f 154/4/6 155/4/6 160/4/6
f 159/3/6 153/3/6 160/3/6
f 153/4/6 154/4/6 160/4/6
f 160/4/6 155/4/6 161/4/6
f 155/3/6 156/3/6 162/3/6
f 161/4/6 155/4/6 162/4/6
f 156/4/6 143/4/6 163/4/6
f 162/3/6 156/3/6 163/3/6
f 158/2/6 159/2/6 164/2/6
f 157/2/6 158/2/6 164/2/6
f 112/4/6 157/4/6 164/4/6
f 164/2/6 159/2/6 165/2/6
f 160/4/6 161/4/6 166/4/6
f 165/2/6 159/2/6 166/2/6
f 159/4/6 160/4/6 166/4/6
f 161/3/6 162/3/6 167/3/6
f 166/4/6 161/4/6 167/4/6
f 162/4/6 163/4/6 168/4/6
f 167/3/6 162/3/6 168/3/6
f 163/4/6 143/4/6 169/4/6
f 168/4/6 163/4/6 169/4/6
f 169/4/6 143/4/6 170/4/6
f 112/4/6 164/4/6 171/4/6
f 164/3/6 165/3/6 172/3/6
f 171/4/6 164/4/6 172/4/6
f 165/1/6 166/1/6 173/1/6
f 172/3/6 165/3/6 173/3/6
f 167/4/6 168/4/6 174/4/6
f 173/1/6 166/1/6 174/1/6
f 166/4/6 167/4/6 174/4/6
f 168/4/6 169/4/6 174/4/6
f 169/2/6 170/2/6 175/2/6
f 174/4/6 169/4/6 175/4/6
f 175/2/6 170/2/6 176/2/6
