# MagicaVoxel @ Ephtracy

# group
o 

# material
mtllib tree_2.mtl
usemtl palette

# normals
vn -1 0 0
vn 1 0 0
vn 0 0 1
vn 0 0 -1
vn 0 -1 0
vn 0 1 0

# texcoords
vt 0.0800781 0.5
vt 0.658203 0.5
vt 0.662109 0.5
vt 0.666016 0.5
vt 0.673828 0.5
vt 0.845703 0.5
vt 0.900391 0.5

# verts
v 0 2 0
v 0 2 -0.1
v 0 2 -0.2
v 0 2 -0.5
v 0 2 -0.6
v 0 2 -0.7
v 0 2 -0.8
v 0 2.1 0
v 0 2.1 -0.1
v 0 2.1 -0.2
v 0 2.1 -0.5
v 0 2.1 -0.6
v 0 2.1 -0.7
v 0 2.1 -0.8
v 0.3 2.5 -0.4
v 0.3 2.5 -0.6
v 0.3 2.6 -0.5
v 0.3 2.6 -0.6
v 0.3 2.7 -0.4
v 0.3 2.7 -0.5
v 0.4 2.1 -0.4
v 0.4 2.1 -0.5
v 0.4 2.4 -0.3
v 0.4 2.4 -0.4
v 0.4 2.4 -0.5
v 0.4 2.4 -0.6
v 0.4 2.5 -0.4
v 0.4 2.5 -0.5
v 0.4 2.5 -0.6
v 0.4 2.6 -0.5
v 0.4 2.6 -0.6
v 0.4 2.7 -0.3
v 0.4 2.7 -0.4
v 0.4 2.7 -0.5
v 0.4 2.7 -0.6
v 0.4 2.8 -0.4
v 0.4 2.8 -0.5
v 0.5 2.7 -0.3
v 0.5 2.7 -0.4
v 0.5 2.8 -0.3
v 0.5 2.8 -0.4
v 0.4 2.5 -0.5
v 0.4 2.5 -0.6
v 0.4 2.6 -0.5
v 0.4 2.6 -0.6
v 0.5 2.1 -0.4
v 0.5 2.1 -0.5
v 0.5 2.3 -0.4
v 0.5 2.3 -0.5
v 0.5 2.4 -0.3
v 0.5 2.4 -0.4
v 0.5 2.4 -0.5
v 0.5 2.4 -0.6
v 0.5 2.5 -0.3
v 0.5 2.5 -0.4
v 0.5 2.5 -0.5
v 0.5 2.5 -0.6
v 0.5 2.6 -0.4
v 0.5 2.6 -0.5
v 0.6 2.3 -0.4
v 0.6 2.3 -0.5
v 0.6 2.4 -0.4
v 0.6 2.4 -0.5
v 0.6 2.5 -0.3
v 0.6 2.5 -0.4
v 0.6 2.6 -0.4
v 0.6 2.6 -0.6
v 0.6 2.7 -0.5
v 0.6 2.7 -0.6
v 0.6 2.8 -0.3
v 0.6 2.8 -0.5
v 0.8 2 0
v 0.8 2 -0.5
v 0.8 2 -0.6
v 0.8 2 -0.7
v 0.8 2 -0.8
v 0.8 2.1 0
v 0.8 2.1 -0.5
v 0.8 2.1 -0.6
v 0.8 2.1 -0.7
v 0.8 2.1 -0.8
v 0 2 0
v 0 2.1 0
v 0.2 2 0
v 0.2 2.1 0
v 0.3 2 0
v 0.3 2.1 0
v 0.8 2 0
v 0.8 2.1 0
v 0.4 2.4 -0.3
v 0.4 2.7 -0.3
v 0.5 2.4 -0.3
v 0.5 2.5 -0.3
v 0.5 2.7 -0.3
v 0.5 2.8 -0.3
v 0.6 2.5 -0.3
v 0.6 2.8 -0.3
v 0.3 2.5 -0.4
v 0.3 2.7 -0.4
v 0.4 2.1 -0.4
v 0.4 2.4 -0.4
v 0.4 2.5 -0.4
v 0.4 2.7 -0.4
v 0.4 2.8 -0.4
v 0.5 2.1 -0.4
v 0.5 2.3 -0.4
v 0.5 2.4 -0.4
v 0.5 2.7 -0.4
v 0.5 2.8 -0.4
v 0.6 2.3 -0.4
v 0.6 2.4 -0.4
v 0.5 2.5 -0.4
v 0.5 2.6 -0.4
v 0.6 2.5 -0.4
v 0.6 2.6 -0.4
v 0.3 2.6 -0.5
v 0.3 2.7 -0.5
v 0.4 2.1 -0.5
v 0.4 2.4 -0.5
v 0.4 2.5 -0.5
v 0.4 2.6 -0.5
v 0.4 2.7 -0.5
v 0.4 2.8 -0.5
v 0.5 2.1 -0.5
v 0.5 2.3 -0.5
v 0.5 2.4 -0.5
v 0.5 2.5 -0.5
v 0.5 2.6 -0.5
v 0.6 2.3 -0.5
v 0.6 2.4 -0.5
v 0.6 2.7 -0.5
v 0.6 2.8 -0.5
v 0.3 2.5 -0.6
v 0.3 2.6 -0.6
v 0.4 2.4 -0.6
v 0.4 2.5 -0.6
v 0.4 2.6 -0.6
v 0.4 2.7 -0.6
v 0.5 2.4 -0.6
v 0.5 2.5 -0.6
v 0.6 2.6 -0.6
v 0.6 2.7 -0.6
v 0 2 -0.8
v 0 2.1 -0.8
v 0.8 2 -0.8
v 0.8 2.1 -0.8
v 0 2 0
v 0.2 2 0
v 0.3 2 0
v 0.8 2 0
v 0 2 -0.1
v 0.1 2 -0.1
v 0.2 2 -0.1
v 0.3 2 -0.1
v 0 2 -0.2
v 0.1 2 -0.2
v 0.2 2 -0.2
v 0.4 2 -0.2
v 0.5 2 -0.2
v 0.6 2 -0.2
v 0.7 2 -0.2
v 0.4 2 -0.3
v 0.5 2 -0.3
v 0.6 2 -0.3
v 0.7 2 -0.3
v 0.3 2 -0.4
v 0.4 2 -0.4
v 0.5 2 -0.4
v 0.6 2 -0.4
v 0 2 -0.5
v 0.1 2 -0.5
v 0.2 2 -0.5
v 0.3 2 -0.5
v 0.4 2 -0.5
v 0.5 2 -0.5
v 0.6 2 -0.5
v 0.7 2 -0.5
v 0.8 2 -0.5
v 0 2 -0.6
v 0.1 2 -0.6
v 0.2 2 -0.6
v 0.3 2 -0.6
v 0.4 2 -0.6
v 0.5 2 -0.6
v 0.6 2 -0.6
v 0.7 2 -0.6
v 0.8 2 -0.6
v 0 2 -0.7
v 0.1 2 -0.7
v 0.2 2 -0.7
v 0.3 2 -0.7
v 0.4 2 -0.7
v 0.5 2 -0.7
v 0.6 2 -0.7
v 0.7 2 -0.7
v 0.8 2 -0.7
v 0 2 -0.8
v 0.8 2 -0.8
v 0.5 2.3 -0.4
v 0.6 2.3 -0.4
v 0.5 2.3 -0.5
v 0.6 2.3 -0.5
v 0.4 2.4 -0.3
v 0.5 2.4 -0.3
v 0.4 2.4 -0.4
v 0.5 2.4 -0.4
v 0.4 2.4 -0.5
v 0.5 2.4 -0.5
v 0.4 2.4 -0.6
v 0.5 2.4 -0.6
v 0.5 2.5 -0.3
v 0.6 2.5 -0.3
v 0.3 2.5 -0.4
v 0.4 2.5 -0.4
v 0.5 2.5 -0.4
v 0.6 2.5 -0.4
v 0.4 2.5 -0.5
v 0.3 2.5 -0.6
v 0.4 2.5 -0.6
v 0.5 2.6 -0.4
v 0.6 2.6 -0.4
v 0.4 2.6 -0.5
v 0.5 2.6 -0.5
v 0.4 2.6 -0.6
v 0.6 2.6 -0.6
v 0 2.1 0
v 0.2 2.1 0
v 0.3 2.1 0
v 0.8 2.1 0
v 0 2.1 -0.1
v 0.1 2.1 -0.1
v 0.2 2.1 -0.1
v 0.3 2.1 -0.1
v 0 2.1 -0.2
v 0.1 2.1 -0.2
v 0.2 2.1 -0.2
v 0.4 2.1 -0.2
v 0.5 2.1 -0.2
v 0.6 2.1 -0.2
v 0.7 2.1 -0.2
v 0.4 2.1 -0.3
v 0.5 2.1 -0.3
v 0.6 2.1 -0.3
v 0.7 2.1 -0.3
v 0.3 2.1 -0.4
v 0.4 2.1 -0.4
v 0.5 2.1 -0.4
v 0.6 2.1 -0.4
v 0 2.1 -0.5
v 0.1 2.1 -0.5
v 0.2 2.1 -0.5
v 0.3 2.1 -0.5
v 0.4 2.1 -0.5
v 0.5 2.1 -0.5
v 0.6 2.1 -0.5
v 0.7 2.1 -0.5
v 0.8 2.1 -0.5
v 0 2.1 -0.6
v 0.1 2.1 -0.6
v 0.2 2.1 -0.6
v 0.3 2.1 -0.6
v 0.4 2.1 -0.6
v 0.5 2.1 -0.6
v 0.6 2.1 -0.6
v 0.7 2.1 -0.6
v 0.8 2.1 -0.6
v 0 2.1 -0.7
v 0.1 2.1 -0.7
v 0.2 2.1 -0.7
v 0.3 2.1 -0.7
v 0.4 2.1 -0.7
v 0.5 2.1 -0.7
v 0.6 2.1 -0.7
v 0.7 2.1 -0.7
v 0.8 2.1 -0.7
v 0 2.1 -0.8
v 0.8 2.1 -0.8
v 0.5 2.4 -0.4
v 0.6 2.4 -0.4
v 0.5 2.4 -0.5
v 0.6 2.4 -0.5
v 0.4 2.5 -0.5
v 0.5 2.5 -0.5
v 0.4 2.5 -0.6
v 0.5 2.5 -0.6
v 0.3 2.6 -0.5
v 0.4 2.6 -0.5
v 0.3 2.6 -0.6
v 0.4 2.6 -0.6
v 0.4 2.7 -0.3
v 0.5 2.7 -0.3
v 0.3 2.7 -0.4
v 0.4 2.7 -0.4
v 0.5 2.7 -0.4
v 0.3 2.7 -0.5
v 0.4 2.7 -0.5
v 0.6 2.7 -0.5
v 0.4 2.7 -0.6
v 0.6 2.7 -0.6
v 0.5 2.8 -0.3
v 0.6 2.8 -0.3
v 0.4 2.8 -0.4
v 0.5 2.8 -0.4
v 0.4 2.8 -0.5
v 0.6 2.8 -0.5

# faces
f 8/7/1 2/7/1 1/7/1
f 9/5/1 3/5/1 2/5/1
f 9/7/1 2/7/1 8/7/1
f 10/7/1 4/7/1 3/7/1
f 10/5/1 3/5/1 9/5/1
f 11/3/1 5/3/1 4/3/1
f 11/7/1 4/7/1 10/7/1
f 12/5/1 6/5/1 5/5/1
f 12/3/1 5/3/1 11/3/1
f 13/7/1 7/7/1 6/7/1
f 13/5/1 6/5/1 12/5/1
f 14/7/1 7/7/1 13/7/1
f 17/1/1 16/1/1 15/1/1
f 18/1/1 16/1/1 17/1/1
f 19/1/1 17/1/1 15/1/1
f 20/1/1 17/1/1 19/1/1
f 24/6/1 22/6/1 21/6/1
f 25/6/1 22/6/1 24/6/1
f 27/1/1 24/1/1 23/1/1
f 27/6/1 25/6/1 24/6/1
f 28/1/1 26/1/1 25/1/1
f 28/6/1 25/6/1 27/6/1
f 29/1/1 26/1/1 28/1/1
f 32/1/1 27/1/1 23/1/1
f 33/1/1 27/1/1 32/1/1
f 34/1/1 31/1/1 30/1/1
f 35/1/1 31/1/1 34/1/1
f 36/1/1 34/1/1 33/1/1
f 37/1/1 34/1/1 36/1/1
f 40/1/1 39/1/1 38/1/1
f 41/1/1 39/1/1 40/1/1
f 42/1/2 43/1/2 44/1/2
f 44/1/2 43/1/2 45/1/2
f 46/6/2 47/6/2 48/6/2
f 48/6/2 47/6/2 49/6/2
f 50/1/2 51/1/2 54/1/2
f 51/6/2 52/6/2 55/6/2
f 54/1/2 51/1/2 55/1/2
f 52/1/2 53/1/2 56/1/2
f 55/6/2 52/6/2 56/6/2
f 56/1/2 53/1/2 57/1/2
f 55/6/2 56/6/2 58/6/2
f 58/6/2 56/6/2 59/6/2
f 60/1/2 61/1/2 62/1/2
f 62/1/2 61/1/2 63/1/2
f 64/1/2 65/1/2 66/1/2
f 66/1/2 67/1/2 68/1/2
f 68/1/2 67/1/2 69/1/2
f 64/1/2 66/1/2 70/1/2
f 66/1/2 68/1/2 70/1/2
f 70/1/2 68/1/2 71/1/2
f 72/7/2 73/7/2 77/7/2
f 73/3/2 74/3/2 78/3/2
f 77/7/2 73/7/2 78/7/2
f 74/5/2 75/5/2 79/5/2
f 78/3/2 74/3/2 79/3/2
f 75/7/2 76/7/2 80/7/2
f 79/5/2 75/5/2 80/5/2
f 80/7/2 76/7/2 81/7/2
f 84/7/3 83/7/3 82/7/3
f 85/7/3 83/7/3 84/7/3
f 86/4/3 85/4/3 84/4/3
f 87/4/3 85/4/3 86/4/3
f 88/7/3 87/7/3 86/7/3
f 89/7/3 87/7/3 88/7/3
f 92/1/3 91/1/3 90/1/3
f 93/1/3 91/1/3 92/1/3
f 94/1/3 91/1/3 93/1/3
f 96/1/3 95/1/3 94/1/3
f 96/1/3 94/1/3 93/1/3
f 97/1/3 95/1/3 96/1/3
f 102/1/3 99/1/3 98/1/3
f 103/1/3 99/1/3 102/1/3
f 105/6/3 101/6/3 100/6/3
f 106/6/3 101/6/3 105/6/3
f 107/6/3 101/6/3 106/6/3
f 108/1/3 104/1/3 103/1/3
f 109/1/3 104/1/3 108/1/3
f 110/1/3 107/1/3 106/1/3
f 111/1/3 107/1/3 110/1/3
f 112/1/4 113/1/4 114/1/4
f 114/1/4 113/1/4 115/1/4
f 116/1/4 117/1/4 121/1/4
f 121/1/4 117/1/4 122/1/4
f 118/6/4 119/6/4 124/6/4
f 124/6/4 119/6/4 125/6/4
f 125/6/4 119/6/4 126/6/4
f 120/6/4 121/6/4 127/6/4
f 127/6/4 121/6/4 128/6/4
f 125/1/4 126/1/4 129/1/4
f 129/1/4 126/1/4 130/1/4
f 122/1/4 123/1/4 131/1/4
f 131/1/4 123/1/4 132/1/4
f 133/1/4 134/1/4 136/1/4
f 136/1/4 134/1/4 137/1/4
f 135/1/4 136/1/4 139/1/4
f 139/1/4 136/1/4 140/1/4
f 137/1/4 138/1/4 141/1/4
f 141/1/4 138/1/4 142/1/4
f 143/7/4 144/7/4 145/7/4
f 145/7/4 144/7/4 146/7/4
f 151/7/5 148/7/5 147/7/5
f 152/7/5 148/7/5 151/7/5
f 153/4/5 149/4/5 148/4/5
f 153/7/5 148/7/5 152/7/5
f 154/7/5 150/7/5 149/7/5
f 154/4/5 149/4/5 153/4/5
f 155/5/5 152/5/5 151/5/5
f 156/2/5 153/2/5 152/2/5
f 156/5/5 152/5/5 155/5/5
f 157/7/5 154/7/5 153/7/5
f 157/2/5 153/2/5 156/2/5
f 158/7/5 150/7/5 154/7/5
f 158/7/5 154/7/5 157/7/5
f 159/7/5 150/7/5 158/7/5
f 160/7/5 150/7/5 159/7/5
f 161/7/5 150/7/5 160/7/5
f 162/7/5 157/7/5 156/7/5
f 162/7/5 156/7/5 155/7/5
f 162/7/5 158/7/5 157/7/5
f 162/3/5 159/3/5 158/3/5
f 163/7/5 160/7/5 159/7/5
f 163/3/5 159/3/5 162/3/5
f 164/5/5 161/5/5 160/5/5
f 164/7/5 160/7/5 163/7/5
f 165/7/5 150/7/5 161/7/5
f 165/5/5 161/5/5 164/5/5
f 166/7/5 162/7/5 155/7/5
f 167/5/5 163/5/5 162/5/5
f 167/7/5 162/7/5 166/7/5
f 168/7/5 164/7/5 163/7/5
f 168/5/5 163/5/5 167/5/5
f 168/7/5 165/7/5 164/7/5
f 169/7/5 165/7/5 168/7/5
f 170/7/5 166/7/5 155/7/5
f 171/7/5 166/7/5 170/7/5
f 172/7/5 166/7/5 171/7/5
f 173/4/5 167/4/5 166/4/5
f 173/7/5 166/7/5 172/7/5
f 174/7/5 168/7/5 167/7/5
f 174/4/5 167/4/5 173/4/5
f 175/5/5 169/5/5 168/5/5
f 175/7/5 168/7/5 174/7/5
f 176/7/5 165/7/5 169/7/5
f 176/5/5 169/5/5 175/5/5
f 177/7/5 150/7/5 165/7/5
f 177/7/5 165/7/5 176/7/5
f 178/7/5 150/7/5 177/7/5
f 179/3/5 171/3/5 170/3/5
f 180/7/5 172/7/5 171/7/5
f 180/3/5 171/3/5 179/3/5
f 181/3/5 173/3/5 172/3/5
f 181/7/5 172/7/5 180/7/5
f 182/7/5 175/7/5 174/7/5
f 182/3/5 173/3/5 181/3/5
f 182/7/5 176/7/5 175/7/5
f 182/7/5 174/7/5 173/7/5
f 183/7/5 176/7/5 182/7/5
f 184/7/5 176/7/5 183/7/5
f 185/4/5 177/4/5 176/4/5
f 185/7/5 176/7/5 184/7/5
f 186/3/5 178/3/5 177/3/5
f 186/4/5 177/4/5 185/4/5
f 187/3/5 178/3/5 186/3/5
f 188/5/5 180/5/5 179/5/5
f 189/7/5 181/7/5 180/7/5
f 189/5/5 180/5/5 188/5/5
f 190/4/5 182/4/5 181/4/5
f 190/7/5 181/7/5 189/7/5
f 191/3/5 183/3/5 182/3/5
f 191/4/5 182/4/5 190/4/5
f 192/7/5 184/7/5 183/7/5
f 192/3/5 183/3/5 191/3/5
f 193/5/5 185/5/5 184/5/5
f 193/7/5 184/7/5 192/7/5
f 194/4/5 186/4/5 185/4/5
f 194/5/5 185/5/5 193/5/5
f 195/5/5 187/5/5 186/5/5
f 195/4/5 186/4/5 194/4/5
f 196/5/5 187/5/5 195/5/5
f 197/7/5 192/7/5 191/7/5
f 197/7/5 191/7/5 190/7/5
f 197/7/5 196/7/5 195/7/5
f 197/7/5 195/7/5 194/7/5
f 197/7/5 194/7/5 193/7/5
f 197/7/5 193/7/5 192/7/5
f 197/7/5 190/7/5 189/7/5
f 197/7/5 189/7/5 188/7/5
f 198/7/5 196/7/5 197/7/5
f 201/1/5 200/1/5 199/1/5
f 202/1/5 200/1/5 201/1/5
f 205/1/5 204/1/5 203/1/5
f 206/1/5 204/1/5 205/1/5
f 209/1/5 208/1/5 207/1/5
f 210/1/5 208/1/5 209/1/5
f 215/1/5 212/1/5 211/1/5
f 216/1/5 212/1/5 215/1/5
f 217/1/5 214/1/5 213/1/5
f 218/1/5 217/1/5 213/1/5
f 219/1/5 217/1/5 218/1/5
f 223/1/5 221/1/5 220/1/5
f 224/1/5 223/1/5 222/1/5
f 225/1/5 221/1/5 223/1/5
f 225/1/5 223/1/5 224/1/5
f 226/7/6 227/7/6 230/7/6
f 230/7/6 227/7/6 231/7/6
f 227/4/6 228/4/6 232/4/6
f 231/7/6 227/7/6 232/7/6
f 228/7/6 229/7/6 233/7/6
f 232/4/6 228/4/6 233/4/6
f 230/5/6 231/5/6 234/5/6
f 231/2/6 232/2/6 235/2/6
f 234/5/6 231/5/6 235/5/6
f 232/7/6 233/7/6 236/7/6
f 235/2/6 232/2/6 236/2/6
f 233/7/6 229/7/6 237/7/6
f 236/7/6 233/7/6 237/7/6
f 237/7/6 229/7/6 238/7/6
f 238/7/6 229/7/6 239/7/6
f 239/7/6 229/7/6 240/7/6
f 235/7/6 236/7/6 241/7/6
f 234/7/6 235/7/6 241/7/6
f 236/7/6 237/7/6 241/7/6
f 237/3/6 238/3/6 241/3/6
f 238/7/6 239/7/6 242/7/6
f 241/3/6 238/3/6 242/3/6
f 239/5/6 240/5/6 243/5/6
f 242/7/6 239/7/6 243/7/6
f 240/7/6 229/7/6 244/7/6
f 243/5/6 240/5/6 244/5/6
f 234/7/6 241/7/6 245/7/6
f 241/5/6 242/5/6 246/5/6
f 245/7/6 241/7/6 246/7/6
f 242/7/6 243/7/6 247/7/6
f 246/5/6 242/5/6 247/5/6
f 243/7/6 244/7/6 247/7/6
f 247/7/6 244/7/6 248/7/6
f 234/7/6 245/7/6 249/7/6
f 249/7/6 245/7/6 250/7/6
f 250/7/6 245/7/6 251/7/6
f 245/4/6 246/4/6 252/4/6
f 251/7/6 245/7/6 252/7/6
f 252/4/6 246/4/6 253/4/6
f 247/5/6 248/5/6 254/5/6
f 248/7/6 244/7/6 255/7/6
f 254/5/6 248/5/6 255/5/6
f 244/7/6 229/7/6 256/7/6
f 255/7/6 244/7/6 256/7/6
f 256/7/6 229/7/6 257/7/6
f 249/3/6 250/3/6 258/3/6
f 250/7/6 251/7/6 259/7/6
f 258/3/6 250/3/6 259/3/6
f 251/3/6 252/3/6 260/3/6
f 259/7/6 251/7/6 260/7/6
f 253/7/6 254/7/6 261/7/6
f 260/3/6 252/3/6 261/3/6
f 254/7/6 255/7/6 261/7/6
f 252/7/6 253/7/6 261/7/6
f 261/7/6 255/7/6 262/7/6
f 262/7/6 255/7/6 263/7/6
f 255/4/6 256/4/6 264/4/6
f 263/7/6 255/7/6 264/7/6
f 256/3/6 257/3/6 265/3/6
f 264/4/6 256/4/6 265/4/6
f 265/3/6 257/3/6 266/3/6
f 258/5/6 259/5/6 267/5/6
f 259/7/6 260/7/6 268/7/6
f 267/5/6 259/5/6 268/5/6
f 260/4/6 261/4/6 269/4/6
f 268/7/6 260/7/6 269/7/6
f 261/3/6 262/3/6 270/3/6
f 269/4/6 261/4/6 270/4/6
f 262/7/6 263/7/6 271/7/6
f 270/3/6 262/3/6 271/3/6
f 263/5/6 264/5/6 272/5/6
f 271/7/6 263/7/6 272/7/6
f 264/4/6 265/4/6 273/4/6
f 272/5/6 264/5/6 273/5/6
f 265/5/6 266/5/6 274/5/6
f 273/4/6 265/4/6 274/4/6
f 274/5/6 266/5/6 275/5/6
f 270/7/6 271/7/6 276/7/6
f 269/7/6 270/7/6 276/7/6
f 274/7/6 275/7/6 276/7/6
f 273/7/6 274/7/6 276/7/6
f 272/7/6 273/7/6 276/7/6
f 271/7/6 272/7/6 276/7/6
f 268/7/6 269/7/6 276/7/6
f 267/7/6 268/7/6 276/7/6
f 276/7/6 275/7/6 277/7/6
f 278/1/6 279/1/6 280/1/6
f 280/1/6 279/1/6 281/1/6
f 282/1/6 283/1/6 284/1/6
f 284/1/6 283/1/6 285/1/6
f 286/1/6 287/1/6 288/1/6
f 288/1/6 287/1/6 289/1/6
f 290/1/6 291/1/6 293/1/6
f 293/1/6 291/1/6 294/1/6
f 292/1/6 293/1/6 295/1/6
f 295/1/6 293/1/6 296/1/6
f 296/1/6 297/1/6 298/1/6
f 298/1/6 297/1/6 299/1/6
f 300/1/6 301/1/6 303/1/6
f 302/1/6 303/1/6 304/1/6
f 303/1/6 301/1/6 305/1/6
f 304/1/6 303/1/6 305/1/6
